{
	"patcher" : 	{
		"fileversion" : 1,
		"appversion" : 		{
			"major" : 6,
			"minor" : 0,
			"revision" : 4
		}
,
		"rect" : [ 521.0, 302.0, 919.0, 467.0 ],
		"bglocked" : 0,
		"openinpresentation" : 1,
		"default_fontsize" : 12.0,
		"default_fontface" : 0,
		"default_fontname" : "Arial",
		"gridonopen" : 0,
		"gridsize" : [ 15.0, 15.0 ],
		"gridsnaponopen" : 0,
		"statusbarvisible" : 2,
		"toolbarvisible" : 0,
		"boxanimatetime" : 200,
		"imprint" : 0,
		"enablehscroll" : 1,
		"enablevscroll" : 1,
		"devicewidth" : 0.0,
		"description" : "",
		"digest" : "",
		"tags" : "",
		"boxes" : [ 			{
				"box" : 				{
					"fontname" : "Arial",
					"fontsize" : 9.0,
					"hidden" : 1,
					"id" : "obj-8",
					"maxclass" : "newobj",
					"numinlets" : 1,
					"numoutlets" : 1,
					"outlettype" : [ "int" ],
					"patching_rect" : [ 477.0, 188.5, 21.0, 17.0 ],
					"text" : "t 9"
				}

			}
, 			{
				"box" : 				{
					"fontname" : "Arial",
					"fontsize" : 9.0,
					"hidden" : 1,
					"id" : "obj-9",
					"maxclass" : "newobj",
					"numinlets" : 1,
					"numoutlets" : 1,
					"outlettype" : [ "int" ],
					"patching_rect" : [ 415.0, 188.0, 21.0, 17.0 ],
					"text" : "t 8"
				}

			}
, 			{
				"box" : 				{
					"fontname" : "Arial",
					"fontsize" : 9.0,
					"hidden" : 1,
					"id" : "obj-11",
					"maxclass" : "newobj",
					"numinlets" : 1,
					"numoutlets" : 1,
					"outlettype" : [ "int" ],
					"patching_rect" : [ 353.0, 188.0, 21.0, 17.0 ],
					"text" : "t 7"
				}

			}
, 			{
				"box" : 				{
					"fontname" : "Arial",
					"fontsize" : 9.0,
					"hidden" : 1,
					"id" : "obj-12",
					"maxclass" : "newobj",
					"numinlets" : 1,
					"numoutlets" : 1,
					"outlettype" : [ "int" ],
					"patching_rect" : [ 291.0, 188.0, 21.0, 17.0 ],
					"text" : "t 6"
				}

			}
, 			{
				"box" : 				{
					"fontname" : "Arial",
					"fontsize" : 9.0,
					"hidden" : 1,
					"id" : "obj-13",
					"maxclass" : "newobj",
					"numinlets" : 1,
					"numoutlets" : 1,
					"outlettype" : [ "int" ],
					"patching_rect" : [ 229.0, 188.0, 21.0, 17.0 ],
					"text" : "t 5"
				}

			}
, 			{
				"box" : 				{
					"fontname" : "Arial",
					"fontsize" : 9.0,
					"hidden" : 1,
					"id" : "obj-7",
					"maxclass" : "newobj",
					"numinlets" : 1,
					"numoutlets" : 1,
					"outlettype" : [ "int" ],
					"patching_rect" : [ 477.0, 99.5, 21.0, 17.0 ],
					"text" : "t 4"
				}

			}
, 			{
				"box" : 				{
					"fontname" : "Arial",
					"fontsize" : 9.0,
					"hidden" : 1,
					"id" : "obj-6",
					"maxclass" : "newobj",
					"numinlets" : 1,
					"numoutlets" : 1,
					"outlettype" : [ "int" ],
					"patching_rect" : [ 415.0, 99.5, 21.0, 17.0 ],
					"text" : "t 3"
				}

			}
, 			{
				"box" : 				{
					"fontname" : "Arial",
					"fontsize" : 9.0,
					"hidden" : 1,
					"id" : "obj-5",
					"maxclass" : "newobj",
					"numinlets" : 1,
					"numoutlets" : 1,
					"outlettype" : [ "int" ],
					"patching_rect" : [ 353.0, 99.5, 21.0, 17.0 ],
					"text" : "t 2"
				}

			}
, 			{
				"box" : 				{
					"fontname" : "Arial",
					"fontsize" : 9.0,
					"hidden" : 1,
					"id" : "obj-4",
					"maxclass" : "newobj",
					"numinlets" : 1,
					"numoutlets" : 1,
					"outlettype" : [ "int" ],
					"patching_rect" : [ 291.0, 99.5, 21.0, 17.0 ],
					"text" : "t 1"
				}

			}
, 			{
				"box" : 				{
					"fontname" : "Arial",
					"fontsize" : 9.0,
					"hidden" : 1,
					"id" : "obj-3",
					"maxclass" : "newobj",
					"numinlets" : 1,
					"numoutlets" : 1,
					"outlettype" : [ "int" ],
					"patching_rect" : [ 232.0, 99.5, 21.0, 17.0 ],
					"text" : "t 0"
				}

			}
, 			{
				"box" : 				{
					"fontname" : "Helvetica",
					"fontsize" : 12.0,
					"id" : "obj-2",
					"maxclass" : "comment",
					"numinlets" : 1,
					"numoutlets" : 0,
					"patching_rect" : [ 271.0, 51.5, 114.0, 18.0 ],
					"presentation" : 1,
					"presentation_rect" : [ 59.0, 0.0, 120.0, 18.0 ],
					"text" : "External controls"
				}

			}
, 			{
				"box" : 				{
					"fontname" : "Arial",
					"fontsize" : 9.0,
					"hidden" : 1,
					"id" : "obj-43",
					"maxclass" : "newobj",
					"numinlets" : 1,
					"numoutlets" : 1,
					"outlettype" : [ "" ],
					"patching_rect" : [ 143.0, 262.5, 43.0, 17.0 ],
					"text" : "pcontrol"
				}

			}
, 			{
				"box" : 				{
					"fontname" : "Arial",
					"fontsize" : 9.0,
					"hidden" : 1,
					"id" : "obj-41",
					"maxclass" : "newobj",
					"numinlets" : 1,
					"numoutlets" : 2,
					"outlettype" : [ "open", "int" ],
					"patching_rect" : [ 143.0, 245.5, 40.0, 17.0 ],
					"text" : "t open i"
				}

			}
, 			{
				"box" : 				{
					"bgcolor" : [ 0.760784, 0.709804, 0.811765, 1.0 ],
					"fontname" : "Helvetica",
					"fontsize" : 9.0,
					"id" : "obj-18",
					"linecount" : 2,
					"maxclass" : "message",
					"numinlets" : 2,
					"numoutlets" : 1,
					"outlettype" : [ "" ],
					"patching_rect" : [ 480.0, 159.0, 54.0, 22.0 ],
					"presentation" : 1,
					"presentation_linecount" : 2,
					"presentation_rect" : [ 253.0, 95.0, 54.0, 22.0 ],
					"text" : "Preset interpolate"
				}

			}
, 			{
				"box" : 				{
					"fontname" : "Arial",
					"fontsize" : 9.0,
					"id" : "obj-10",
					"maxclass" : "newobj",
					"numinlets" : 0,
					"numoutlets" : 0,
					"patcher" : 					{
						"fileversion" : 1,
						"appversion" : 						{
							"major" : 6,
							"minor" : 0,
							"revision" : 4
						}
,
						"rect" : [ 308.0, 138.0, 426.0, 410.0 ],
						"bglocked" : 0,
						"openinpresentation" : 0,
						"default_fontsize" : 12.0,
						"default_fontface" : 0,
						"default_fontname" : "Arial",
						"gridonopen" : 0,
						"gridsize" : [ 15.0, 15.0 ],
						"gridsnaponopen" : 0,
						"statusbarvisible" : 2,
						"toolbarvisible" : 1,
						"boxanimatetime" : 200,
						"imprint" : 0,
						"enablehscroll" : 1,
						"enablevscroll" : 1,
						"devicewidth" : 0.0,
						"description" : "",
						"digest" : "",
						"tags" : "",
						"boxes" : [ 							{
								"box" : 								{
									"fontname" : "Arial",
									"fontsize" : 10.0,
									"id" : "obj-1",
									"maxclass" : "comment",
									"numinlets" : 1,
									"numoutlets" : 0,
									"patching_rect" : [ 24.0, 136.0, 300.0, 18.0 ],
									"text" : "4) SET LOCAL PORT: set local port to listen for message on."
								}

							}
, 							{
								"box" : 								{
									"fontname" : "Arial",
									"fontsize" : 10.0,
									"id" : "obj-2",
									"linecount" : 3,
									"maxclass" : "comment",
									"numinlets" : 1,
									"numoutlets" : 0,
									"patching_rect" : [ 24.0, 158.0, 373.0, 41.0 ],
									"text" : "5) BANG (open OSC route set up): click on bang to access, choose and modify OSC routing set up. (IMPORTANT: incoming OSC messages must be scaled to 0. - 100. floating)"
								}

							}
, 							{
								"box" : 								{
									"fontname" : "Arial",
									"fontsize" : 10.0,
									"id" : "obj-3",
									"linecount" : 2,
									"maxclass" : "comment",
									"numinlets" : 1,
									"numoutlets" : 0,
									"patching_rect" : [ 50.0, 295.0, 351.0, 29.0 ],
									"text" : "5.2) PARAMETERS BOXES: click on the boxes to open, choose and modify the correspondent control mapping."
								}

							}
, 							{
								"box" : 								{
									"fontname" : "Arial",
									"fontsize" : 10.0,
									"id" : "obj-4",
									"linecount" : 2,
									"maxclass" : "comment",
									"numinlets" : 1,
									"numoutlets" : 0,
									"patching_rect" : [ 50.0, 262.0, 351.0, 29.0 ],
									"text" : "5.1) MATRIX: control input/output routing (default 1:1 routing). Many-to-one mapping is not allowed."
								}

							}
, 							{
								"box" : 								{
									"fontname" : "Arial",
									"fontsize" : 10.0,
									"id" : "obj-5",
									"linecount" : 2,
									"maxclass" : "comment",
									"numinlets" : 1,
									"numoutlets" : 0,
									"patching_rect" : [ 24.0, 227.0, 378.0, 29.0 ],
									"text" : "5) OPEN/CLOSE MAPPING SET UP: click on the box to access the mapping set up"
								}

							}
, 							{
								"box" : 								{
									"fontname" : "Arial",
									"fontsize" : 10.0,
									"id" : "obj-6",
									"maxclass" : "comment",
									"numinlets" : 1,
									"numoutlets" : 0,
									"patching_rect" : [ 24.0, 204.0, 377.0, 18.0 ],
									"text" : "4) CLOSE WINDOW: click on the box to close the current OSC control patch"
								}

							}
, 							{
								"box" : 								{
									"fontname" : "Arial",
									"fontsize" : 10.0,
									"id" : "obj-7",
									"linecount" : 2,
									"maxclass" : "comment",
									"numinlets" : 1,
									"numoutlets" : 0,
									"patching_rect" : [ 24.0, 102.0, 378.0, 29.0 ],
									"text" : "3) BOXES: incoming values are displayed in the corresponding ranges of the high-level interface."
								}

							}
, 							{
								"box" : 								{
									"fontname" : "Arial",
									"fontsize" : 10.0,
									"id" : "obj-8",
									"maxclass" : "comment",
									"numinlets" : 1,
									"numoutlets" : 0,
									"patching_rect" : [ 24.0, 80.0, 348.0, 18.0 ],
									"text" : "2) NUMBER BOXES: incoming values are displayed in MIDI range."
								}

							}
, 							{
								"box" : 								{
									"fontname" : "Arial",
									"fontsize" : 10.0,
									"id" : "obj-9",
									"linecount" : 2,
									"maxclass" : "comment",
									"numinlets" : 1,
									"numoutlets" : 0,
									"patching_rect" : [ 24.0, 45.0, 380.0, 29.0 ],
									"text" : "1) The available controls correspond to the parameters of the high-level interface of the sound models."
								}

							}
, 							{
								"box" : 								{
									"bgcolor" : [ 0.752941, 0.717647, 0.960784, 1.0 ],
									"id" : "obj-10",
									"ignoreclick" : 1,
									"maxclass" : "panel",
									"numinlets" : 1,
									"numoutlets" : 0,
									"patching_rect" : [ 24.0, 158.0, 168.0, 13.0 ],
									"rounded" : 0
								}

							}
, 							{
								"box" : 								{
									"bgcolor" : [ 0.752941, 0.717647, 0.960784, 1.0 ],
									"id" : "obj-11",
									"ignoreclick" : 1,
									"maxclass" : "panel",
									"numinlets" : 1,
									"numoutlets" : 0,
									"patching_rect" : [ 24.0, 136.0, 103.0, 13.0 ],
									"rounded" : 0
								}

							}
, 							{
								"box" : 								{
									"bgcolor" : [ 0.752941, 0.717647, 0.960784, 1.0 ],
									"id" : "obj-12",
									"ignoreclick" : 1,
									"maxclass" : "panel",
									"numinlets" : 1,
									"numoutlets" : 0,
									"patching_rect" : [ 24.0, 45.0, 17.0, 13.0 ],
									"rounded" : 0
								}

							}
, 							{
								"box" : 								{
									"bgcolor" : [ 0.752941, 0.717647, 0.960784, 1.0 ],
									"id" : "obj-13",
									"ignoreclick" : 1,
									"maxclass" : "panel",
									"numinlets" : 1,
									"numoutlets" : 0,
									"patching_rect" : [ 24.0, 80.0, 100.0, 13.0 ],
									"rounded" : 0
								}

							}
, 							{
								"box" : 								{
									"bgcolor" : [ 0.752941, 0.717647, 0.960784, 1.0 ],
									"id" : "obj-14",
									"ignoreclick" : 1,
									"maxclass" : "panel",
									"numinlets" : 1,
									"numoutlets" : 0,
									"patching_rect" : [ 24.0, 102.0, 55.0, 13.0 ],
									"rounded" : 0
								}

							}
, 							{
								"box" : 								{
									"bgcolor" : [ 0.752941, 0.717647, 0.960784, 1.0 ],
									"id" : "obj-15",
									"ignoreclick" : 1,
									"maxclass" : "panel",
									"numinlets" : 1,
									"numoutlets" : 0,
									"patching_rect" : [ 24.0, 204.0, 100.0, 13.0 ],
									"rounded" : 0
								}

							}
, 							{
								"box" : 								{
									"bgcolor" : [ 0.752941, 0.717647, 0.960784, 1.0 ],
									"id" : "obj-16",
									"ignoreclick" : 1,
									"maxclass" : "panel",
									"numinlets" : 1,
									"numoutlets" : 0,
									"patching_rect" : [ 24.0, 227.0, 172.0, 13.0 ],
									"rounded" : 0
								}

							}
, 							{
								"box" : 								{
									"fontname" : "Arial Black",
									"fontsize" : 12.0,
									"id" : "obj-17",
									"maxclass" : "comment",
									"numinlets" : 1,
									"numoutlets" : 0,
									"patching_rect" : [ 23.0, 10.0, 214.0, 23.0 ],
									"text" : "OSC control Friction N:"
								}

							}
, 							{
								"box" : 								{
									"bgcolor" : [ 0.752941, 0.717647, 0.960784, 1.0 ],
									"id" : "obj-18",
									"ignoreclick" : 1,
									"maxclass" : "panel",
									"numinlets" : 1,
									"numoutlets" : 0,
									"patching_rect" : [ 50.0, 262.0, 71.0, 13.0 ],
									"rounded" : 0
								}

							}
, 							{
								"box" : 								{
									"bgcolor" : [ 0.752941, 0.717647, 0.960784, 1.0 ],
									"id" : "obj-19",
									"ignoreclick" : 1,
									"maxclass" : "panel",
									"numinlets" : 1,
									"numoutlets" : 0,
									"patching_rect" : [ 50.0, 295.0, 132.0, 13.0 ],
									"rounded" : 0
								}

							}
, 							{
								"box" : 								{
									"bgcolor" : [ 0.67451, 0.945098, 0.611765, 1.0 ],
									"id" : "obj-20",
									"ignoreclick" : 1,
									"maxclass" : "panel",
									"numinlets" : 1,
									"numoutlets" : 0,
									"patching_rect" : [ 50.0, 276.0, 188.0, 13.0 ],
									"rounded" : 0
								}

							}
 ],
						"lines" : [  ],
						"dependency_cache" : [  ]
					}
,
					"patching_rect" : [ 517.0, 188.5, 51.0, 17.0 ],
					"presentation" : 1,
					"presentation_rect" : [ 253.0, 143.0, 51.0, 17.0 ],
					"saved_object_attributes" : 					{
						"globalpatchername" : "",
						"fontname" : "Arial",
						"default_fontface" : 0,
						"digest" : "",
						"default_fontname" : "Arial",
						"fontface" : 0,
						"fontsize" : 12.0,
						"default_fontsize" : 12.0,
						"description" : "",
						"tags" : ""
					}
,
					"text" : "p readme"
				}

			}
, 			{
				"box" : 				{
					"fontname" : "Helvetica",
					"fontsize" : 9.0,
					"id" : "obj-15",
					"maxclass" : "message",
					"numinlets" : 2,
					"numoutlets" : 1,
					"outlettype" : [ "" ],
					"patching_rect" : [ 481.0, 217.0, 50.0, 13.0 ],
					"presentation" : 1,
					"presentation_rect" : [ 254.0, 128.0, 50.0, 13.0 ]
				}

			}
, 			{
				"box" : 				{
					"bgcolor" : [ 1.0, 1.0, 1.0, 1.0 ],
					"border" : 1,
					"bordercolor" : [ 0.4, 0.4, 0.4, 1.0 ],
					"id" : "obj-17",
					"ignoreclick" : 1,
					"maxclass" : "panel",
					"numinlets" : 1,
					"numoutlets" : 0,
					"patching_rect" : [ 477.0, 155.0, 60.0, 84.0 ],
					"presentation" : 1,
					"presentation_rect" : [ 250.0, 91.0, 60.0, 71.0 ],
					"rounded" : 6
				}

			}
, 			{
				"box" : 				{
					"bgcolor" : [ 1.0, 0.6, 0.2, 1.0 ],
					"fontname" : "Helvetica",
					"fontsize" : 9.0,
					"id" : "obj-19",
					"linecount" : 2,
					"maxclass" : "message",
					"numinlets" : 2,
					"numoutlets" : 1,
					"outlettype" : [ "" ],
					"patching_rect" : [ 295.0, 73.0, 54.0, 22.0 ],
					"presentation" : 1,
					"presentation_linecount" : 2,
					"presentation_rect" : [ 68.0, 22.0, 54.0, 22.0 ],
					"text" : "Pressure on Rubber"
				}

			}
, 			{
				"box" : 				{
					"bgcolor" : [ 0.4, 0.8, 1.0, 1.0 ],
					"fontname" : "Helvetica",
					"fontsize" : 9.0,
					"id" : "obj-20",
					"linecount" : 2,
					"maxclass" : "message",
					"numinlets" : 2,
					"numoutlets" : 1,
					"outlettype" : [ "" ],
					"patching_rect" : [ 233.0, 73.0, 54.0, 22.0 ],
					"presentation" : 1,
					"presentation_linecount" : 2,
					"presentation_rect" : [ 6.0, 22.0, 54.0, 22.0 ],
					"text" : "Rubbing Force"
				}

			}
, 			{
				"box" : 				{
					"fontname" : "Helvetica",
					"fontsize" : 9.0,
					"id" : "obj-21",
					"maxclass" : "message",
					"numinlets" : 2,
					"numoutlets" : 1,
					"outlettype" : [ "" ],
					"patching_rect" : [ 235.0, 131.0, 50.0, 13.0 ],
					"presentation" : 1,
					"presentation_rect" : [ 8.0, 55.0, 50.0, 13.0 ]
				}

			}
, 			{
				"box" : 				{
					"bgcolor" : [ 1.0, 1.0, 1.0, 1.0 ],
					"border" : 1,
					"bordercolor" : [ 0.4, 0.4, 0.4, 1.0 ],
					"id" : "obj-23",
					"ignoreclick" : 1,
					"maxclass" : "panel",
					"numinlets" : 1,
					"numoutlets" : 0,
					"patching_rect" : [ 229.0, 69.0, 60.0, 84.0 ],
					"presentation" : 1,
					"presentation_rect" : [ 2.0, 18.0, 60.0, 71.0 ],
					"rounded" : 6
				}

			}
, 			{
				"box" : 				{
					"fontname" : "Helvetica",
					"fontsize" : 9.0,
					"id" : "obj-24",
					"maxclass" : "message",
					"numinlets" : 2,
					"numoutlets" : 1,
					"outlettype" : [ "" ],
					"patching_rect" : [ 297.0, 131.0, 50.0, 13.0 ],
					"presentation" : 1,
					"presentation_rect" : [ 70.0, 55.0, 50.0, 13.0 ]
				}

			}
, 			{
				"box" : 				{
					"bgcolor" : [ 1.0, 1.0, 1.0, 1.0 ],
					"border" : 1,
					"bordercolor" : [ 0.4, 0.4, 0.4, 1.0 ],
					"id" : "obj-26",
					"ignoreclick" : 1,
					"maxclass" : "panel",
					"numinlets" : 1,
					"numoutlets" : 0,
					"patching_rect" : [ 291.0, 69.0, 60.0, 84.0 ],
					"presentation" : 1,
					"presentation_rect" : [ 64.0, 18.0, 60.0, 71.0 ],
					"rounded" : 6
				}

			}
, 			{
				"box" : 				{
					"bgcolor" : [ 1.0, 0.360784, 0.682353, 1.0 ],
					"fontname" : "Helvetica",
					"fontsize" : 9.0,
					"id" : "obj-34",
					"linecount" : 2,
					"maxclass" : "message",
					"numinlets" : 2,
					"numoutlets" : 1,
					"outlettype" : [ "" ],
					"patching_rect" : [ 418.0, 159.0, 54.0, 22.0 ],
					"presentation" : 1,
					"presentation_linecount" : 2,
					"presentation_rect" : [ 191.0, 95.0, 54.0, 22.0 ],
					"text" : "Global Gain"
				}

			}
, 			{
				"box" : 				{
					"fontname" : "Arial",
					"fontsize" : 9.0,
					"hidden" : 1,
					"id" : "obj-44",
					"maxclass" : "newobj",
					"numinlets" : 1,
					"numoutlets" : 10,
					"outlettype" : [ "", "", "", "", "", "", "", "", "", "" ],
					"patcher" : 					{
						"fileversion" : 1,
						"appversion" : 						{
							"major" : 6,
							"minor" : 0,
							"revision" : 4
						}
,
						"rect" : [ 173.0, 55.0, 433.0, 584.0 ],
						"bgcolor" : [ 0.54902, 0.54902, 0.54902, 1.0 ],
						"bglocked" : 0,
						"openinpresentation" : 1,
						"default_fontsize" : 12.0,
						"default_fontface" : 0,
						"default_fontname" : "Arial",
						"gridonopen" : 0,
						"gridsize" : [ 15.0, 15.0 ],
						"gridsnaponopen" : 0,
						"statusbarvisible" : 2,
						"toolbarvisible" : 0,
						"boxanimatetime" : 200,
						"imprint" : 0,
						"enablehscroll" : 1,
						"enablevscroll" : 1,
						"devicewidth" : 0.0,
						"description" : "",
						"digest" : "",
						"tags" : "",
						"title" : "Friction #1 Control maps",
						"boxes" : [ 							{
								"box" : 								{
									"args" : [ "#1" ],
									"id" : "obj-22",
									"maxclass" : "bpatcher",
									"name" : "friction_controlmaps.maxpat",
									"numinlets" : 1,
									"numoutlets" : 10,
									"offset" : [ -856.0, 0.0 ],
									"outlettype" : [ "", "", "", "", "", "", "", "", "", "" ],
									"patching_rect" : [ 51.5, 153.0, 427.0, 480.0 ],
									"presentation" : 1,
									"presentation_rect" : [ 2.0, 100.0, 427.0, 480.0 ]
								}

							}
, 							{
								"box" : 								{
									"fontname" : "Arial",
									"fontsize" : 12.0,
									"id" : "obj-11",
									"maxclass" : "newobj",
									"numinlets" : 4,
									"numoutlets" : 0,
									"patching_rect" : [ 531.0, 216.5, 120.0, 20.0 ],
									"text" : "bgcolor 140 140 140"
								}

							}
, 							{
								"box" : 								{
									"border" : 1,
									"clicktabcolor" : [ 0.8, 0.8, 1.0, 1.0 ],
									"clicktextcolor" : [ 0.101942, 0.101942, 0.101942, 1.0 ],
									"fontname" : "Helvetica",
									"fontsize" : 11.0,
									"id" : "obj-3",
									"margin" : 0,
									"maxclass" : "tab",
									"numinlets" : 1,
									"numoutlets" : 3,
									"outlettype" : [ "int", "", "" ],
									"parameter_enable" : 0,
									"patching_rect" : [ 51.5, 29.0, 427.0, 97.0 ],
									"presentation" : 1,
									"presentation_rect" : [ 2.0, 4.0, 428.0, 92.0 ],
									"tabs" : [ "Rubbing force", "Pressure on rubber", "Rubber mass", "Bristle stiffness", "Bristle viscosity", "Surface roughness", "Global frequency", "Global decay", "Global gain", "Preset interpolate" ]
								}

							}
, 							{
								"box" : 								{
									"fontname" : "Arial",
									"fontsize" : 9.0,
									"id" : "obj-15",
									"maxclass" : "newobj",
									"numinlets" : 1,
									"numoutlets" : 1,
									"outlettype" : [ "bang" ],
									"patching_rect" : [ 752.0, 29.0, 48.0, 17.0 ],
									"text" : "loadbang"
								}

							}
, 							{
								"box" : 								{
									"fontname" : "Arial",
									"fontsize" : 9.0,
									"id" : "obj-14",
									"maxclass" : "message",
									"numinlets" : 2,
									"numoutlets" : 1,
									"outlettype" : [ "" ],
									"patching_rect" : [ 752.0, 46.0, 125.0, 15.0 ],
									"text" : "title Friction #1 Control maps"
								}

							}
, 							{
								"box" : 								{
									"fontname" : "Arial",
									"fontsize" : 9.0,
									"id" : "obj-5",
									"maxclass" : "newobj",
									"numinlets" : 1,
									"numoutlets" : 2,
									"outlettype" : [ "", "" ],
									"patching_rect" : [ 752.0, 61.5, 55.0, 17.0 ],
									"save" : [ "#N", "thispatcher", ";", "#Q", "end", ";" ],
									"text" : "thispatcher"
								}

							}
, 							{
								"box" : 								{
									"comment" : "",
									"id" : "obj-6",
									"maxclass" : "outlet",
									"numinlets" : 1,
									"numoutlets" : 0,
									"patching_rect" : [ 460.0, 680.0, 15.0, 15.0 ]
								}

							}
, 							{
								"box" : 								{
									"comment" : "",
									"id" : "obj-13",
									"maxclass" : "inlet",
									"numinlets" : 0,
									"numoutlets" : 1,
									"outlettype" : [ "" ],
									"patching_rect" : [ 52.0, 4.5, 15.0, 15.0 ]
								}

							}
, 							{
								"box" : 								{
									"comment" : "",
									"id" : "obj-17",
									"maxclass" : "outlet",
									"numinlets" : 1,
									"numoutlets" : 0,
									"patching_rect" : [ 52.0, 680.0, 15.0, 15.0 ]
								}

							}
, 							{
								"box" : 								{
									"comment" : "",
									"id" : "obj-18",
									"maxclass" : "outlet",
									"numinlets" : 1,
									"numoutlets" : 0,
									"patching_rect" : [ 97.333336, 680.0, 15.0, 15.0 ]
								}

							}
, 							{
								"box" : 								{
									"comment" : "",
									"id" : "obj-24",
									"maxclass" : "outlet",
									"numinlets" : 1,
									"numoutlets" : 0,
									"patching_rect" : [ 414.666656, 680.0, 15.0, 15.0 ]
								}

							}
, 							{
								"box" : 								{
									"comment" : "",
									"id" : "obj-55",
									"maxclass" : "outlet",
									"numinlets" : 1,
									"numoutlets" : 0,
									"patching_rect" : [ 140.0, 680.0, 15.0, 15.0 ]
								}

							}
, 							{
								"box" : 								{
									"comment" : "",
									"id" : "obj-56",
									"maxclass" : "outlet",
									"numinlets" : 1,
									"numoutlets" : 0,
									"patching_rect" : [ 369.333344, 680.0, 15.0, 15.0 ]
								}

							}
, 							{
								"box" : 								{
									"comment" : "",
									"id" : "obj-57",
									"maxclass" : "outlet",
									"numinlets" : 1,
									"numoutlets" : 0,
									"patching_rect" : [ 324.0, 680.0, 15.0, 15.0 ]
								}

							}
, 							{
								"box" : 								{
									"comment" : "",
									"id" : "obj-58",
									"maxclass" : "outlet",
									"numinlets" : 1,
									"numoutlets" : 0,
									"patching_rect" : [ 278.666656, 680.0, 15.0, 15.0 ]
								}

							}
, 							{
								"box" : 								{
									"comment" : "",
									"id" : "obj-59",
									"maxclass" : "outlet",
									"numinlets" : 1,
									"numoutlets" : 0,
									"patching_rect" : [ 233.333328, 680.0, 15.0, 15.0 ]
								}

							}
, 							{
								"box" : 								{
									"comment" : "",
									"id" : "obj-60",
									"maxclass" : "outlet",
									"numinlets" : 1,
									"numoutlets" : 0,
									"patching_rect" : [ 188.0, 680.0, 15.0, 15.0 ]
								}

							}
 ],
						"lines" : [ 							{
								"patchline" : 								{
									"destination" : [ "obj-3", 0 ],
									"disabled" : 0,
									"hidden" : 0,
									"source" : [ "obj-13", 0 ]
								}

							}
, 							{
								"patchline" : 								{
									"destination" : [ "obj-5", 0 ],
									"disabled" : 0,
									"hidden" : 0,
									"source" : [ "obj-14", 0 ]
								}

							}
, 							{
								"patchline" : 								{
									"destination" : [ "obj-14", 0 ],
									"disabled" : 0,
									"hidden" : 0,
									"source" : [ "obj-15", 0 ]
								}

							}
, 							{
								"patchline" : 								{
									"destination" : [ "obj-17", 0 ],
									"disabled" : 0,
									"hidden" : 0,
									"source" : [ "obj-22", 0 ]
								}

							}
, 							{
								"patchline" : 								{
									"destination" : [ "obj-18", 0 ],
									"disabled" : 0,
									"hidden" : 0,
									"source" : [ "obj-22", 1 ]
								}

							}
, 							{
								"patchline" : 								{
									"destination" : [ "obj-24", 0 ],
									"disabled" : 0,
									"hidden" : 0,
									"source" : [ "obj-22", 8 ]
								}

							}
, 							{
								"patchline" : 								{
									"destination" : [ "obj-55", 0 ],
									"disabled" : 0,
									"hidden" : 0,
									"source" : [ "obj-22", 2 ]
								}

							}
, 							{
								"patchline" : 								{
									"destination" : [ "obj-56", 0 ],
									"disabled" : 0,
									"hidden" : 0,
									"source" : [ "obj-22", 7 ]
								}

							}
, 							{
								"patchline" : 								{
									"destination" : [ "obj-57", 0 ],
									"disabled" : 0,
									"hidden" : 0,
									"source" : [ "obj-22", 6 ]
								}

							}
, 							{
								"patchline" : 								{
									"destination" : [ "obj-58", 0 ],
									"disabled" : 0,
									"hidden" : 0,
									"source" : [ "obj-22", 5 ]
								}

							}
, 							{
								"patchline" : 								{
									"destination" : [ "obj-59", 0 ],
									"disabled" : 0,
									"hidden" : 0,
									"source" : [ "obj-22", 4 ]
								}

							}
, 							{
								"patchline" : 								{
									"destination" : [ "obj-6", 0 ],
									"disabled" : 0,
									"hidden" : 0,
									"source" : [ "obj-22", 9 ]
								}

							}
, 							{
								"patchline" : 								{
									"destination" : [ "obj-60", 0 ],
									"disabled" : 0,
									"hidden" : 0,
									"source" : [ "obj-22", 3 ]
								}

							}
, 							{
								"patchline" : 								{
									"destination" : [ "obj-22", 0 ],
									"disabled" : 0,
									"hidden" : 0,
									"source" : [ "obj-3", 0 ]
								}

							}
 ],
						"dependency_cache" : [ 							{
								"name" : "friction_controlmaps.maxpat",
								"bootpath" : "/Users/sdm/Documents/LAVORI/RICERCA/SObs/SoundDesignTools/branches/SObWay/SDT_Max6/SDT_patches/SDT_contents/Library/Friction/MIDI_OSC_friction",
								"type" : "JSON",
								"implicit" : 1
							}
, 							{
								"name" : "fric_rubbingf.maxpat",
								"bootpath" : "/Users/sdm/Documents/LAVORI/RICERCA/SObs/SoundDesignTools/branches/SObWay/SDT_Max6/SDT_patches/SDT_contents/Library/Friction/MIDI_OSC_friction",
								"type" : "JSON",
								"implicit" : 1
							}
, 							{
								"name" : "fric_pressonrub.maxpat",
								"bootpath" : "/Users/sdm/Documents/LAVORI/RICERCA/SObs/SoundDesignTools/branches/SObWay/SDT_Max6/SDT_patches/SDT_contents/Library/Friction/MIDI_OSC_friction",
								"type" : "JSON",
								"implicit" : 1
							}
, 							{
								"name" : "fric_rubbermap.maxpat",
								"bootpath" : "/Users/sdm/Documents/LAVORI/RICERCA/SObs/SoundDesignTools/branches/SObWay/SDT_Max6/SDT_patches/SDT_contents/Library/Friction/MIDI_OSC_friction",
								"type" : "JSON",
								"implicit" : 1
							}
, 							{
								"name" : "fric_bristiffmap.maxpat",
								"bootpath" : "/Users/sdm/Documents/LAVORI/RICERCA/SObs/SoundDesignTools/branches/SObWay/SDT_Max6/SDT_patches/SDT_contents/Library/Friction/MIDI_OSC_friction",
								"type" : "JSON",
								"implicit" : 1
							}
, 							{
								"name" : "fric_briviscmap.maxpat",
								"bootpath" : "/Users/sdm/Documents/LAVORI/RICERCA/SObs/SoundDesignTools/branches/SObWay/SDT_Max6/SDT_patches/SDT_contents/Library/Friction/MIDI_OSC_friction",
								"type" : "JSON",
								"implicit" : 1
							}
, 							{
								"name" : "fric_surfroughmap.maxpat",
								"bootpath" : "/Users/sdm/Documents/LAVORI/RICERCA/SObs/SoundDesignTools/branches/SObWay/SDT_Max6/SDT_patches/SDT_contents/Library/Friction/MIDI_OSC_friction",
								"type" : "JSON",
								"implicit" : 1
							}
, 							{
								"name" : "fric_globfreqmap.maxpat",
								"bootpath" : "/Users/sdm/Documents/LAVORI/RICERCA/SObs/SoundDesignTools/branches/SObWay/SDT_Max6/SDT_patches/SDT_contents/Library/Friction/MIDI_OSC_friction",
								"type" : "JSON",
								"implicit" : 1
							}
, 							{
								"name" : "fric_globdecmap.maxpat",
								"bootpath" : "/Users/sdm/Documents/LAVORI/RICERCA/SObs/SoundDesignTools/branches/SObWay/SDT_Max6/SDT_patches/SDT_contents/Library/Friction/MIDI_OSC_friction",
								"type" : "JSON",
								"implicit" : 1
							}
, 							{
								"name" : "fric_globgainmap.maxpat",
								"bootpath" : "/Users/sdm/Documents/LAVORI/RICERCA/SObs/SoundDesignTools/branches/SObWay/SDT_Max6/SDT_patches/SDT_contents/Library/Friction/MIDI_OSC_friction",
								"type" : "JSON",
								"implicit" : 1
							}
, 							{
								"name" : "fric_preset_interpol.maxpat",
								"bootpath" : "/Users/sdm/Documents/LAVORI/RICERCA/SObs/SoundDesignTools/branches/SObWay/SDT_Max6/SDT_patches/SDT_contents/Library/Friction/MIDI_OSC_friction",
								"type" : "JSON",
								"implicit" : 1
							}
 ]
					}
,
					"patching_rect" : [ 128.0, 294.0, 275.5, 17.0 ],
					"saved_object_attributes" : 					{
						"globalpatchername" : "",
						"fontname" : "Arial",
						"default_fontface" : 0,
						"digest" : "",
						"default_fontname" : "Arial",
						"fontface" : 0,
						"fontsize" : 12.0,
						"default_fontsize" : 12.0,
						"description" : "",
						"tags" : ""
					}
,
					"text" : "p allmaps #1"
				}

			}
, 			{
				"box" : 				{
					"bgcolor" : [ 0.6, 0.6, 1.0, 1.0 ],
					"fontname" : "Helvetica",
					"fontsize" : 9.0,
					"id" : "obj-46",
					"linecount" : 2,
					"maxclass" : "message",
					"numinlets" : 2,
					"numoutlets" : 1,
					"outlettype" : [ "" ],
					"patching_rect" : [ 356.0, 159.0, 54.0, 22.0 ],
					"presentation" : 1,
					"presentation_linecount" : 2,
					"presentation_rect" : [ 129.0, 95.0, 54.0, 22.0 ],
					"text" : "Global Decay"
				}

			}
, 			{
				"box" : 				{
					"bgcolor" : [ 1.0, 0.890196, 0.090196, 1.0 ],
					"fontname" : "Helvetica",
					"fontsize" : 9.0,
					"id" : "obj-47",
					"linecount" : 2,
					"maxclass" : "message",
					"numinlets" : 2,
					"numoutlets" : 1,
					"outlettype" : [ "" ],
					"patching_rect" : [ 295.0, 159.0, 54.0, 22.0 ],
					"presentation" : 1,
					"presentation_linecount" : 2,
					"presentation_rect" : [ 68.0, 95.0, 54.0, 22.0 ],
					"text" : "Global Frequency"
				}

			}
, 			{
				"box" : 				{
					"bgcolor" : [ 0.156863, 0.8, 0.54902, 1.0 ],
					"fontname" : "Helvetica",
					"fontsize" : 9.0,
					"id" : "obj-48",
					"linecount" : 2,
					"maxclass" : "message",
					"numinlets" : 2,
					"numoutlets" : 1,
					"outlettype" : [ "" ],
					"patching_rect" : [ 233.0, 159.0, 54.0, 22.0 ],
					"presentation" : 1,
					"presentation_linecount" : 2,
					"presentation_rect" : [ 6.0, 95.0, 54.0, 22.0 ],
					"text" : "Surface Roughness"
				}

			}
, 			{
				"box" : 				{
					"bgcolor" : [ 0.156863, 0.8, 0.54902, 1.0 ],
					"fontname" : "Helvetica",
					"fontsize" : 9.0,
					"id" : "obj-49",
					"linecount" : 2,
					"maxclass" : "message",
					"numinlets" : 2,
					"numoutlets" : 1,
					"outlettype" : [ "" ],
					"patching_rect" : [ 480.0, 73.0, 54.0, 22.0 ],
					"presentation" : 1,
					"presentation_linecount" : 2,
					"presentation_rect" : [ 253.0, 22.0, 54.0, 22.0 ],
					"text" : "Bristle Viscosity"
				}

			}
, 			{
				"box" : 				{
					"bgcolor" : [ 0.156863, 0.8, 0.54902, 1.0 ],
					"fontname" : "Helvetica",
					"fontsize" : 9.0,
					"id" : "obj-50",
					"linecount" : 2,
					"maxclass" : "message",
					"numinlets" : 2,
					"numoutlets" : 1,
					"outlettype" : [ "" ],
					"patching_rect" : [ 418.0, 73.0, 54.0, 22.0 ],
					"presentation" : 1,
					"presentation_linecount" : 2,
					"presentation_rect" : [ 191.0, 22.0, 54.0, 22.0 ],
					"text" : "Bristle Stiffness"
				}

			}
, 			{
				"box" : 				{
					"bgcolor" : [ 1.0, 0.2, 0.2, 1.0 ],
					"fontname" : "Helvetica",
					"fontsize" : 9.0,
					"id" : "obj-51",
					"linecount" : 2,
					"maxclass" : "message",
					"numinlets" : 2,
					"numoutlets" : 1,
					"outlettype" : [ "" ],
					"patching_rect" : [ 356.0, 73.0, 54.0, 22.0 ],
					"presentation" : 1,
					"presentation_linecount" : 2,
					"presentation_rect" : [ 129.0, 22.0, 54.0, 22.0 ],
					"text" : "Rubber Mass"
				}

			}
, 			{
				"box" : 				{
					"fontname" : "Arial",
					"fontsize" : 9.0,
					"hidden" : 1,
					"id" : "obj-54",
					"maxclass" : "newobj",
					"numinlets" : 10,
					"numoutlets" : 10,
					"outlettype" : [ "", "", "", "", "", "", "", "", "", "" ],
					"patcher" : 					{
						"fileversion" : 1,
						"appversion" : 						{
							"major" : 6,
							"minor" : 0,
							"revision" : 4
						}
,
						"rect" : [ 102.0, 449.0, 1312.0, 329.0 ],
						"bglocked" : 0,
						"openinpresentation" : 0,
						"default_fontsize" : 12.0,
						"default_fontface" : 0,
						"default_fontname" : "Arial",
						"gridonopen" : 0,
						"gridsize" : [ 15.0, 15.0 ],
						"gridsnaponopen" : 0,
						"statusbarvisible" : 2,
						"toolbarvisible" : 1,
						"boxanimatetime" : 200,
						"imprint" : 0,
						"enablehscroll" : 1,
						"enablevscroll" : 1,
						"devicewidth" : 0.0,
						"description" : "",
						"digest" : "",
						"tags" : "",
						"boxes" : [ 							{
								"box" : 								{
									"comment" : "",
									"id" : "obj-1",
									"maxclass" : "outlet",
									"numinlets" : 1,
									"numoutlets" : 0,
									"patching_rect" : [ 1156.0, 225.0, 15.0, 15.0 ]
								}

							}
, 							{
								"box" : 								{
									"comment" : "",
									"id" : "obj-2",
									"maxclass" : "inlet",
									"numinlets" : 0,
									"numoutlets" : 1,
									"outlettype" : [ "" ],
									"patching_rect" : [ 1192.0, 55.0, 15.0, 15.0 ]
								}

							}
, 							{
								"box" : 								{
									"color" : [ 1.0, 0.360784, 0.682353, 1.0 ],
									"fontname" : "Arial",
									"fontsize" : 9.0,
									"id" : "obj-3",
									"maxclass" : "newobj",
									"numinlets" : 1,
									"numoutlets" : 0,
									"patching_rect" : [ 1192.0, 214.0, 155.0, 17.0 ],
									"text" : "s #1friction_preset_interpolate"
								}

							}
, 							{
								"box" : 								{
									"comment" : "",
									"id" : "obj-4",
									"maxclass" : "outlet",
									"numinlets" : 1,
									"numoutlets" : 0,
									"patching_rect" : [ 1.0, 225.0, 15.0, 15.0 ]
								}

							}
, 							{
								"box" : 								{
									"fontname" : "Arial",
									"fontsize" : 9.0,
									"id" : "obj-6",
									"maxclass" : "newobj",
									"numinlets" : 1,
									"numoutlets" : 1,
									"outlettype" : [ "" ],
									"patching_rect" : [ 1.0, 84.0, 94.0, 17.0 ],
									"text" : "expr ($f1-50.)*2."
								}

							}
, 							{
								"box" : 								{
									"comment" : "",
									"id" : "obj-7",
									"maxclass" : "outlet",
									"numinlets" : 1,
									"numoutlets" : 0,
									"patching_rect" : [ 126.0, 225.0, 15.0, 15.0 ]
								}

							}
, 							{
								"box" : 								{
									"comment" : "",
									"id" : "obj-9",
									"maxclass" : "inlet",
									"numinlets" : 0,
									"numoutlets" : 1,
									"outlettype" : [ "" ],
									"patching_rect" : [ 183.0, 51.0, 15.0, 15.0 ]
								}

							}
, 							{
								"box" : 								{
									"comment" : "",
									"id" : "obj-10",
									"maxclass" : "inlet",
									"numinlets" : 0,
									"numoutlets" : 1,
									"outlettype" : [ "" ],
									"patching_rect" : [ 90.0, 51.0, 15.0, 15.0 ]
								}

							}
, 							{
								"box" : 								{
									"fontname" : "Arial",
									"fontsize" : 9.0,
									"id" : "obj-11",
									"maxclass" : "newobj",
									"numinlets" : 1,
									"numoutlets" : 0,
									"patching_rect" : [ 183.0, 179.0, 141.0, 17.0 ],
									"text" : "s #1friction_pressurerubber"
								}

							}
, 							{
								"box" : 								{
									"fontname" : "Arial",
									"fontsize" : 9.0,
									"id" : "obj-12",
									"maxclass" : "newobj",
									"numinlets" : 1,
									"numoutlets" : 0,
									"patching_rect" : [ 90.0, 155.0, 128.0, 17.0 ],
									"text" : "s #1friction_rubbingforce"
								}

							}
, 							{
								"box" : 								{
									"comment" : "",
									"id" : "obj-13",
									"maxclass" : "outlet",
									"numinlets" : 1,
									"numoutlets" : 0,
									"patching_rect" : [ 696.0, 225.0, 15.0, 15.0 ]
								}

							}
, 							{
								"box" : 								{
									"comment" : "",
									"id" : "obj-15",
									"maxclass" : "inlet",
									"numinlets" : 0,
									"numoutlets" : 1,
									"outlettype" : [ "" ],
									"patching_rect" : [ 739.0, 51.0, 15.0, 15.0 ]
								}

							}
, 							{
								"box" : 								{
									"color" : [ 0.156863, 0.8, 0.54902, 1.0 ],
									"fontname" : "Arial",
									"fontsize" : 9.0,
									"id" : "obj-16",
									"maxclass" : "newobj",
									"numinlets" : 1,
									"numoutlets" : 0,
									"patching_rect" : [ 739.0, 198.0, 150.0, 17.0 ],
									"text" : "s #1friction_surfaceroughness"
								}

							}
, 							{
								"box" : 								{
									"comment" : "",
									"id" : "obj-17",
									"maxclass" : "outlet",
									"numinlets" : 1,
									"numoutlets" : 0,
									"patching_rect" : [ 979.0, 225.0, 15.0, 15.0 ]
								}

							}
, 							{
								"box" : 								{
									"comment" : "",
									"id" : "obj-19",
									"maxclass" : "outlet",
									"numinlets" : 1,
									"numoutlets" : 0,
									"patching_rect" : [ 870.0, 225.0, 15.0, 15.0 ]
								}

							}
, 							{
								"box" : 								{
									"comment" : "",
									"id" : "obj-21",
									"maxclass" : "outlet",
									"numinlets" : 1,
									"numoutlets" : 0,
									"patching_rect" : [ 778.0, 225.0, 15.0, 15.0 ]
								}

							}
, 							{
								"box" : 								{
									"comment" : "",
									"id" : "obj-23",
									"maxclass" : "outlet",
									"numinlets" : 1,
									"numoutlets" : 0,
									"patching_rect" : [ 550.0, 225.0, 15.0, 15.0 ]
								}

							}
, 							{
								"box" : 								{
									"comment" : "",
									"id" : "obj-25",
									"maxclass" : "outlet",
									"numinlets" : 1,
									"numoutlets" : 0,
									"patching_rect" : [ 401.0, 225.0, 15.0, 15.0 ]
								}

							}
, 							{
								"box" : 								{
									"comment" : "",
									"id" : "obj-26",
									"maxclass" : "outlet",
									"numinlets" : 1,
									"numoutlets" : 0,
									"patching_rect" : [ 261.0, 225.0, 15.0, 15.0 ]
								}

							}
, 							{
								"box" : 								{
									"comment" : "",
									"id" : "obj-31",
									"maxclass" : "inlet",
									"numinlets" : 0,
									"numoutlets" : 1,
									"outlettype" : [ "" ],
									"patching_rect" : [ 1035.0, 54.0, 15.0, 15.0 ]
								}

							}
, 							{
								"box" : 								{
									"comment" : "",
									"id" : "obj-32",
									"maxclass" : "inlet",
									"numinlets" : 0,
									"numoutlets" : 1,
									"outlettype" : [ "" ],
									"patching_rect" : [ 936.0, 51.0, 15.0, 15.0 ]
								}

							}
, 							{
								"box" : 								{
									"comment" : "",
									"id" : "obj-33",
									"maxclass" : "inlet",
									"numinlets" : 0,
									"numoutlets" : 1,
									"outlettype" : [ "" ],
									"patching_rect" : [ 838.0, 51.0, 15.0, 15.0 ]
								}

							}
, 							{
								"box" : 								{
									"comment" : "",
									"id" : "obj-34",
									"maxclass" : "inlet",
									"numinlets" : 0,
									"numoutlets" : 1,
									"outlettype" : [ "" ],
									"patching_rect" : [ 593.0, 51.0, 15.0, 15.0 ]
								}

							}
, 							{
								"box" : 								{
									"comment" : "",
									"id" : "obj-35",
									"maxclass" : "inlet",
									"numinlets" : 0,
									"numoutlets" : 1,
									"outlettype" : [ "" ],
									"patching_rect" : [ 450.0, 51.0, 15.0, 15.0 ]
								}

							}
, 							{
								"box" : 								{
									"comment" : "",
									"id" : "obj-36",
									"maxclass" : "inlet",
									"numinlets" : 0,
									"numoutlets" : 1,
									"outlettype" : [ "" ],
									"patching_rect" : [ 350.0, 51.0, 15.0, 15.0 ]
								}

							}
, 							{
								"box" : 								{
									"color" : [ 1.0, 0.360784, 0.682353, 1.0 ],
									"fontname" : "Arial",
									"fontsize" : 9.0,
									"id" : "obj-37",
									"maxclass" : "newobj",
									"numinlets" : 6,
									"numoutlets" : 1,
									"outlettype" : [ "" ],
									"patching_rect" : [ 1035.0, 102.0, 93.0, 17.0 ],
									"text" : "scale 0. 100. 0. 2."
								}

							}
, 							{
								"box" : 								{
									"color" : [ 0.611765, 0.701961, 1.0, 1.0 ],
									"fontname" : "Arial",
									"fontsize" : 9.0,
									"id" : "obj-38",
									"maxclass" : "newobj",
									"numinlets" : 6,
									"numoutlets" : 1,
									"outlettype" : [ "" ],
									"patching_rect" : [ 936.0, 102.0, 93.0, 17.0 ],
									"text" : "scale 0. 100. 0. 2."
								}

							}
, 							{
								"box" : 								{
									"color" : [ 1.0, 0.890196, 0.090196, 1.0 ],
									"fontname" : "Arial",
									"fontsize" : 9.0,
									"id" : "obj-39",
									"maxclass" : "newobj",
									"numinlets" : 6,
									"numoutlets" : 1,
									"outlettype" : [ "" ],
									"patching_rect" : [ 838.0, 102.0, 93.0, 17.0 ],
									"text" : "scale 0. 100. 0. 2."
								}

							}
, 							{
								"box" : 								{
									"color" : [ 1.0, 0.360784, 0.682353, 1.0 ],
									"fontname" : "Arial",
									"fontsize" : 9.0,
									"id" : "obj-40",
									"maxclass" : "newobj",
									"numinlets" : 1,
									"numoutlets" : 0,
									"patching_rect" : [ 1035.0, 213.0, 115.0, 17.0 ],
									"text" : "s #1friction_globalgain"
								}

							}
, 							{
								"box" : 								{
									"color" : [ 0.611765, 0.701961, 1.0, 1.0 ],
									"fontname" : "Arial",
									"fontsize" : 9.0,
									"id" : "obj-41",
									"maxclass" : "newobj",
									"numinlets" : 1,
									"numoutlets" : 0,
									"patching_rect" : [ 936.0, 189.0, 123.0, 17.0 ],
									"text" : "s #1friction_globaldecay"
								}

							}
, 							{
								"box" : 								{
									"color" : [ 1.0, 0.890196, 0.090196, 1.0 ],
									"fontname" : "Arial",
									"fontsize" : 9.0,
									"id" : "obj-42",
									"maxclass" : "newobj",
									"numinlets" : 1,
									"numoutlets" : 0,
									"patching_rect" : [ 838.0, 167.0, 142.0, 17.0 ],
									"text" : "s #1friction_globalfrequency"
								}

							}
, 							{
								"box" : 								{
									"color" : [ 0.156863, 0.8, 0.54902, 1.0 ],
									"fontname" : "Arial",
									"fontsize" : 9.0,
									"id" : "obj-43",
									"maxclass" : "newobj",
									"numinlets" : 1,
									"numoutlets" : 0,
									"patching_rect" : [ 593.0, 198.0, 143.0, 17.0 ],
									"text" : "s #1friction_bristleviscosity"
								}

							}
, 							{
								"box" : 								{
									"color" : [ 0.156863, 0.8, 0.54902, 1.0 ],
									"fontname" : "Arial",
									"fontsize" : 9.0,
									"id" : "obj-44",
									"maxclass" : "newobj",
									"numinlets" : 1,
									"numoutlets" : 0,
									"patching_rect" : [ 450.0, 177.0, 141.0, 17.0 ],
									"text" : "s #1friction_bristlestiffness"
								}

							}
, 							{
								"box" : 								{
									"color" : [ 0.6, 0.4, 0.6, 1.0 ],
									"fontname" : "Arial",
									"fontsize" : 9.0,
									"id" : "obj-45",
									"maxclass" : "newobj",
									"numinlets" : 1,
									"numoutlets" : 0,
									"patching_rect" : [ 350.0, 154.0, 124.0, 17.0 ],
									"text" : "s #1friction_rubbermass"
								}

							}
 ],
						"lines" : [ 							{
								"patchline" : 								{
									"destination" : [ "obj-12", 0 ],
									"disabled" : 0,
									"hidden" : 0,
									"source" : [ "obj-10", 0 ]
								}

							}
, 							{
								"patchline" : 								{
									"destination" : [ "obj-6", 0 ],
									"disabled" : 0,
									"hidden" : 0,
									"midpoints" : [ 99.0, 78.0, 10.5, 78.0 ],
									"source" : [ "obj-10", 0 ]
								}

							}
, 							{
								"patchline" : 								{
									"destination" : [ "obj-13", 0 ],
									"disabled" : 0,
									"hidden" : 0,
									"midpoints" : [ 748.0, 101.0, 705.0, 101.0 ],
									"source" : [ "obj-15", 0 ]
								}

							}
, 							{
								"patchline" : 								{
									"destination" : [ "obj-16", 0 ],
									"disabled" : 0,
									"hidden" : 0,
									"source" : [ "obj-15", 0 ]
								}

							}
, 							{
								"patchline" : 								{
									"destination" : [ "obj-1", 0 ],
									"disabled" : 0,
									"hidden" : 0,
									"midpoints" : [ 1201.0, 128.0, 1165.0, 128.0 ],
									"source" : [ "obj-2", 0 ]
								}

							}
, 							{
								"patchline" : 								{
									"destination" : [ "obj-3", 0 ],
									"disabled" : 0,
									"hidden" : 0,
									"source" : [ "obj-2", 0 ]
								}

							}
, 							{
								"patchline" : 								{
									"destination" : [ "obj-37", 0 ],
									"disabled" : 0,
									"hidden" : 0,
									"source" : [ "obj-31", 0 ]
								}

							}
, 							{
								"patchline" : 								{
									"destination" : [ "obj-38", 0 ],
									"disabled" : 0,
									"hidden" : 0,
									"source" : [ "obj-32", 0 ]
								}

							}
, 							{
								"patchline" : 								{
									"destination" : [ "obj-39", 0 ],
									"disabled" : 0,
									"hidden" : 0,
									"source" : [ "obj-33", 0 ]
								}

							}
, 							{
								"patchline" : 								{
									"destination" : [ "obj-23", 0 ],
									"disabled" : 0,
									"hidden" : 0,
									"midpoints" : [ 602.0, 96.0, 559.0, 96.0 ],
									"source" : [ "obj-34", 0 ]
								}

							}
, 							{
								"patchline" : 								{
									"destination" : [ "obj-43", 0 ],
									"disabled" : 0,
									"hidden" : 0,
									"source" : [ "obj-34", 0 ]
								}

							}
, 							{
								"patchline" : 								{
									"destination" : [ "obj-25", 0 ],
									"disabled" : 0,
									"hidden" : 0,
									"midpoints" : [ 459.0, 90.0, 410.0, 90.0 ],
									"source" : [ "obj-35", 0 ]
								}

							}
, 							{
								"patchline" : 								{
									"destination" : [ "obj-44", 0 ],
									"disabled" : 0,
									"hidden" : 0,
									"source" : [ "obj-35", 0 ]
								}

							}
, 							{
								"patchline" : 								{
									"destination" : [ "obj-26", 0 ],
									"disabled" : 0,
									"hidden" : 0,
									"midpoints" : [ 359.0, 72.0, 270.0, 72.0 ],
									"source" : [ "obj-36", 0 ]
								}

							}
, 							{
								"patchline" : 								{
									"destination" : [ "obj-45", 0 ],
									"disabled" : 0,
									"hidden" : 0,
									"source" : [ "obj-36", 0 ]
								}

							}
, 							{
								"patchline" : 								{
									"destination" : [ "obj-17", 0 ],
									"disabled" : 0,
									"hidden" : 0,
									"midpoints" : [ 1044.5, 126.0, 988.0, 126.0 ],
									"source" : [ "obj-37", 0 ]
								}

							}
, 							{
								"patchline" : 								{
									"destination" : [ "obj-40", 0 ],
									"disabled" : 0,
									"hidden" : 0,
									"source" : [ "obj-37", 0 ]
								}

							}
, 							{
								"patchline" : 								{
									"destination" : [ "obj-19", 0 ],
									"disabled" : 0,
									"hidden" : 0,
									"midpoints" : [ 945.5, 123.0, 879.0, 123.0 ],
									"source" : [ "obj-38", 0 ]
								}

							}
, 							{
								"patchline" : 								{
									"destination" : [ "obj-41", 0 ],
									"disabled" : 0,
									"hidden" : 0,
									"source" : [ "obj-38", 0 ]
								}

							}
, 							{
								"patchline" : 								{
									"destination" : [ "obj-21", 0 ],
									"disabled" : 0,
									"hidden" : 0,
									"midpoints" : [ 847.5, 122.0, 787.0, 122.0 ],
									"source" : [ "obj-39", 0 ]
								}

							}
, 							{
								"patchline" : 								{
									"destination" : [ "obj-42", 0 ],
									"disabled" : 0,
									"hidden" : 0,
									"source" : [ "obj-39", 0 ]
								}

							}
, 							{
								"patchline" : 								{
									"destination" : [ "obj-4", 0 ],
									"disabled" : 0,
									"hidden" : 0,
									"source" : [ "obj-6", 0 ]
								}

							}
, 							{
								"patchline" : 								{
									"destination" : [ "obj-11", 0 ],
									"disabled" : 0,
									"hidden" : 0,
									"source" : [ "obj-9", 0 ]
								}

							}
, 							{
								"patchline" : 								{
									"destination" : [ "obj-7", 0 ],
									"disabled" : 0,
									"hidden" : 0,
									"midpoints" : [ 192.0, 82.0, 135.0, 82.0 ],
									"source" : [ "obj-9", 0 ]
								}

							}
 ],
						"dependency_cache" : [  ]
					}
,
					"patching_rect" : [ 128.0, 316.0, 295.0, 17.0 ],
					"saved_object_attributes" : 					{
						"globalpatchername" : "",
						"fontname" : "Arial",
						"default_fontface" : 0,
						"digest" : "",
						"default_fontname" : "Arial",
						"fontface" : 0,
						"fontsize" : 12.0,
						"default_fontsize" : 12.0,
						"description" : "",
						"tags" : ""
					}
,
					"text" : "p send_param"
				}

			}
, 			{
				"box" : 				{
					"fontname" : "Helvetica",
					"fontsize" : 9.0,
					"id" : "obj-55",
					"maxclass" : "message",
					"numinlets" : 2,
					"numoutlets" : 1,
					"outlettype" : [ "" ],
					"patching_rect" : [ 235.0, 217.0, 50.0, 13.0 ],
					"presentation" : 1,
					"presentation_rect" : [ 8.0, 128.0, 50.0, 13.0 ]
				}

			}
, 			{
				"box" : 				{
					"bgcolor" : [ 1.0, 1.0, 1.0, 1.0 ],
					"border" : 1,
					"bordercolor" : [ 0.4, 0.4, 0.4, 1.0 ],
					"id" : "obj-57",
					"ignoreclick" : 1,
					"maxclass" : "panel",
					"numinlets" : 1,
					"numoutlets" : 0,
					"patching_rect" : [ 229.0, 155.0, 60.0, 84.0 ],
					"presentation" : 1,
					"presentation_rect" : [ 2.0, 91.0, 60.0, 71.0 ],
					"rounded" : 6
				}

			}
, 			{
				"box" : 				{
					"fontname" : "Helvetica",
					"fontsize" : 9.0,
					"id" : "obj-58",
					"maxclass" : "message",
					"numinlets" : 2,
					"numoutlets" : 1,
					"outlettype" : [ "" ],
					"patching_rect" : [ 420.0, 217.0, 50.0, 13.0 ],
					"presentation" : 1,
					"presentation_rect" : [ 193.0, 128.0, 50.0, 13.0 ]
				}

			}
, 			{
				"box" : 				{
					"fontname" : "Helvetica",
					"fontsize" : 9.0,
					"id" : "obj-65",
					"maxclass" : "message",
					"numinlets" : 2,
					"numoutlets" : 1,
					"outlettype" : [ "" ],
					"patching_rect" : [ 359.0, 217.0, 50.0, 13.0 ],
					"presentation" : 1,
					"presentation_rect" : [ 132.0, 128.0, 50.0, 13.0 ]
				}

			}
, 			{
				"box" : 				{
					"fontname" : "Helvetica",
					"fontsize" : 9.0,
					"id" : "obj-66",
					"maxclass" : "message",
					"numinlets" : 2,
					"numoutlets" : 1,
					"outlettype" : [ "" ],
					"patching_rect" : [ 297.0, 217.0, 50.0, 13.0 ],
					"presentation" : 1,
					"presentation_rect" : [ 70.0, 128.0, 50.0, 13.0 ]
				}

			}
, 			{
				"box" : 				{
					"fontname" : "Helvetica",
					"fontsize" : 9.0,
					"id" : "obj-67",
					"maxclass" : "message",
					"numinlets" : 2,
					"numoutlets" : 1,
					"outlettype" : [ "" ],
					"patching_rect" : [ 481.0, 131.0, 50.0, 13.0 ],
					"presentation" : 1,
					"presentation_rect" : [ 254.0, 55.0, 50.0, 13.0 ]
				}

			}
, 			{
				"box" : 				{
					"fontname" : "Helvetica",
					"fontsize" : 9.0,
					"id" : "obj-68",
					"maxclass" : "message",
					"numinlets" : 2,
					"numoutlets" : 1,
					"outlettype" : [ "" ],
					"patching_rect" : [ 420.0, 131.0, 50.0, 13.0 ],
					"presentation" : 1,
					"presentation_rect" : [ 193.0, 55.0, 50.0, 13.0 ]
				}

			}
, 			{
				"box" : 				{
					"fontname" : "Helvetica",
					"fontsize" : 9.0,
					"id" : "obj-69",
					"maxclass" : "message",
					"numinlets" : 2,
					"numoutlets" : 1,
					"outlettype" : [ "" ],
					"patching_rect" : [ 359.0, 131.0, 50.0, 13.0 ],
					"presentation" : 1,
					"presentation_rect" : [ 132.0, 55.0, 50.0, 13.0 ]
				}

			}
, 			{
				"box" : 				{
					"bgcolor" : [ 1.0, 1.0, 1.0, 1.0 ],
					"border" : 1,
					"bordercolor" : [ 0.4, 0.4, 0.4, 1.0 ],
					"id" : "obj-70",
					"ignoreclick" : 1,
					"maxclass" : "panel",
					"numinlets" : 1,
					"numoutlets" : 0,
					"patching_rect" : [ 353.0, 69.0, 60.0, 84.0 ],
					"presentation" : 1,
					"presentation_rect" : [ 126.0, 18.0, 60.0, 71.0 ],
					"rounded" : 6
				}

			}
, 			{
				"box" : 				{
					"bgcolor" : [ 1.0, 1.0, 1.0, 1.0 ],
					"border" : 1,
					"bordercolor" : [ 0.4, 0.4, 0.4, 1.0 ],
					"id" : "obj-72",
					"ignoreclick" : 1,
					"maxclass" : "panel",
					"numinlets" : 1,
					"numoutlets" : 0,
					"patching_rect" : [ 415.0, 69.0, 60.0, 84.0 ],
					"presentation" : 1,
					"presentation_rect" : [ 188.0, 18.0, 60.0, 71.0 ],
					"rounded" : 6
				}

			}
, 			{
				"box" : 				{
					"bgcolor" : [ 1.0, 1.0, 1.0, 1.0 ],
					"border" : 1,
					"bordercolor" : [ 0.4, 0.4, 0.4, 1.0 ],
					"id" : "obj-74",
					"ignoreclick" : 1,
					"maxclass" : "panel",
					"numinlets" : 1,
					"numoutlets" : 0,
					"patching_rect" : [ 477.0, 69.0, 60.0, 84.0 ],
					"presentation" : 1,
					"presentation_rect" : [ 250.0, 18.0, 60.0, 71.0 ],
					"rounded" : 6
				}

			}
, 			{
				"box" : 				{
					"bgcolor" : [ 1.0, 1.0, 1.0, 1.0 ],
					"border" : 1,
					"bordercolor" : [ 0.4, 0.4, 0.4, 1.0 ],
					"id" : "obj-76",
					"ignoreclick" : 1,
					"maxclass" : "panel",
					"numinlets" : 1,
					"numoutlets" : 0,
					"patching_rect" : [ 291.0, 155.0, 60.0, 84.0 ],
					"presentation" : 1,
					"presentation_rect" : [ 64.0, 91.0, 60.0, 71.0 ],
					"rounded" : 6
				}

			}
, 			{
				"box" : 				{
					"bgcolor" : [ 1.0, 1.0, 1.0, 1.0 ],
					"border" : 1,
					"bordercolor" : [ 0.4, 0.4, 0.4, 1.0 ],
					"id" : "obj-78",
					"ignoreclick" : 1,
					"maxclass" : "panel",
					"numinlets" : 1,
					"numoutlets" : 0,
					"patching_rect" : [ 353.0, 155.0, 60.0, 84.0 ],
					"presentation" : 1,
					"presentation_rect" : [ 126.0, 91.0, 60.0, 71.0 ],
					"rounded" : 6
				}

			}
, 			{
				"box" : 				{
					"bgcolor" : [ 1.0, 1.0, 1.0, 1.0 ],
					"border" : 1,
					"bordercolor" : [ 0.4, 0.4, 0.4, 1.0 ],
					"id" : "obj-80",
					"ignoreclick" : 1,
					"maxclass" : "panel",
					"numinlets" : 1,
					"numoutlets" : 0,
					"patching_rect" : [ 415.0, 155.0, 60.0, 84.0 ],
					"presentation" : 1,
					"presentation_rect" : [ 188.0, 91.0, 60.0, 71.0 ],
					"rounded" : 6
				}

			}
 ],
		"lines" : [ 			{
				"patchline" : 				{
					"destination" : [ "obj-41", 0 ],
					"disabled" : 0,
					"hidden" : 0,
					"midpoints" : [ 362.5, 205.0, 152.5, 205.0 ],
					"source" : [ "obj-11", 0 ]
				}

			}
, 			{
				"patchline" : 				{
					"destination" : [ "obj-41", 0 ],
					"disabled" : 0,
					"hidden" : 0,
					"midpoints" : [ 300.5, 205.0, 152.5, 205.0 ],
					"source" : [ "obj-12", 0 ]
				}

			}
, 			{
				"patchline" : 				{
					"destination" : [ "obj-41", 0 ],
					"disabled" : 0,
					"hidden" : 0,
					"midpoints" : [ 238.5, 206.0, 152.5, 206.0 ],
					"source" : [ "obj-13", 0 ]
				}

			}
, 			{
				"patchline" : 				{
					"destination" : [ "obj-8", 0 ],
					"disabled" : 0,
					"hidden" : 0,
					"source" : [ "obj-18", 0 ]
				}

			}
, 			{
				"patchline" : 				{
					"destination" : [ "obj-4", 0 ],
					"disabled" : 0,
					"hidden" : 0,
					"source" : [ "obj-19", 0 ]
				}

			}
, 			{
				"patchline" : 				{
					"destination" : [ "obj-3", 0 ],
					"disabled" : 0,
					"hidden" : 0,
					"source" : [ "obj-20", 0 ]
				}

			}
, 			{
				"patchline" : 				{
					"destination" : [ "obj-41", 0 ],
					"disabled" : 0,
					"hidden" : 0,
					"midpoints" : [ 241.5, 116.0, 152.5, 116.0 ],
					"source" : [ "obj-3", 0 ]
				}

			}
, 			{
				"patchline" : 				{
					"destination" : [ "obj-9", 0 ],
					"disabled" : 0,
					"hidden" : 0,
					"source" : [ "obj-34", 0 ]
				}

			}
, 			{
				"patchline" : 				{
					"destination" : [ "obj-41", 0 ],
					"disabled" : 0,
					"hidden" : 0,
					"midpoints" : [ 300.5, 116.0, 152.5, 116.0 ],
					"source" : [ "obj-4", 0 ]
				}

			}
, 			{
				"patchline" : 				{
					"destination" : [ "obj-43", 0 ],
					"disabled" : 0,
					"hidden" : 0,
					"source" : [ "obj-41", 0 ]
				}

			}
, 			{
				"patchline" : 				{
					"destination" : [ "obj-44", 0 ],
					"disabled" : 0,
					"hidden" : 0,
					"source" : [ "obj-41", 1 ]
				}

			}
, 			{
				"patchline" : 				{
					"destination" : [ "obj-44", 0 ],
					"disabled" : 0,
					"hidden" : 0,
					"source" : [ "obj-43", 0 ]
				}

			}
, 			{
				"patchline" : 				{
					"destination" : [ "obj-54", 9 ],
					"disabled" : 0,
					"hidden" : 1,
					"source" : [ "obj-44", 9 ]
				}

			}
, 			{
				"patchline" : 				{
					"destination" : [ "obj-54", 8 ],
					"disabled" : 0,
					"hidden" : 1,
					"source" : [ "obj-44", 8 ]
				}

			}
, 			{
				"patchline" : 				{
					"destination" : [ "obj-54", 7 ],
					"disabled" : 0,
					"hidden" : 1,
					"source" : [ "obj-44", 7 ]
				}

			}
, 			{
				"patchline" : 				{
					"destination" : [ "obj-54", 6 ],
					"disabled" : 0,
					"hidden" : 1,
					"source" : [ "obj-44", 6 ]
				}

			}
, 			{
				"patchline" : 				{
					"destination" : [ "obj-54", 5 ],
					"disabled" : 0,
					"hidden" : 1,
					"source" : [ "obj-44", 5 ]
				}

			}
, 			{
				"patchline" : 				{
					"destination" : [ "obj-54", 4 ],
					"disabled" : 0,
					"hidden" : 1,
					"source" : [ "obj-44", 4 ]
				}

			}
, 			{
				"patchline" : 				{
					"destination" : [ "obj-54", 3 ],
					"disabled" : 0,
					"hidden" : 1,
					"source" : [ "obj-44", 3 ]
				}

			}
, 			{
				"patchline" : 				{
					"destination" : [ "obj-54", 2 ],
					"disabled" : 0,
					"hidden" : 1,
					"source" : [ "obj-44", 2 ]
				}

			}
, 			{
				"patchline" : 				{
					"destination" : [ "obj-54", 1 ],
					"disabled" : 0,
					"hidden" : 1,
					"source" : [ "obj-44", 1 ]
				}

			}
, 			{
				"patchline" : 				{
					"destination" : [ "obj-54", 0 ],
					"disabled" : 0,
					"hidden" : 1,
					"source" : [ "obj-44", 0 ]
				}

			}
, 			{
				"patchline" : 				{
					"destination" : [ "obj-11", 0 ],
					"disabled" : 0,
					"hidden" : 0,
					"source" : [ "obj-46", 0 ]
				}

			}
, 			{
				"patchline" : 				{
					"destination" : [ "obj-12", 0 ],
					"disabled" : 0,
					"hidden" : 0,
					"source" : [ "obj-47", 0 ]
				}

			}
, 			{
				"patchline" : 				{
					"destination" : [ "obj-13", 0 ],
					"disabled" : 0,
					"hidden" : 0,
					"source" : [ "obj-48", 0 ]
				}

			}
, 			{
				"patchline" : 				{
					"destination" : [ "obj-7", 0 ],
					"disabled" : 0,
					"hidden" : 0,
					"source" : [ "obj-49", 0 ]
				}

			}
, 			{
				"patchline" : 				{
					"destination" : [ "obj-41", 0 ],
					"disabled" : 0,
					"hidden" : 0,
					"midpoints" : [ 362.5, 115.0, 152.5, 115.0 ],
					"source" : [ "obj-5", 0 ]
				}

			}
, 			{
				"patchline" : 				{
					"destination" : [ "obj-6", 0 ],
					"disabled" : 0,
					"hidden" : 0,
					"source" : [ "obj-50", 0 ]
				}

			}
, 			{
				"patchline" : 				{
					"destination" : [ "obj-5", 0 ],
					"disabled" : 0,
					"hidden" : 0,
					"source" : [ "obj-51", 0 ]
				}

			}
, 			{
				"patchline" : 				{
					"destination" : [ "obj-15", 1 ],
					"disabled" : 0,
					"hidden" : 1,
					"midpoints" : [ 413.5, 336.0, 117.0, 336.0, 117.0, 210.0, 521.5, 210.0 ],
					"source" : [ "obj-54", 9 ]
				}

			}
, 			{
				"patchline" : 				{
					"destination" : [ "obj-21", 1 ],
					"disabled" : 0,
					"hidden" : 1,
					"midpoints" : [ 137.5, 336.0, 117.0, 336.0, 117.0, 121.0, 275.5, 121.0 ],
					"source" : [ "obj-54", 0 ]
				}

			}
, 			{
				"patchline" : 				{
					"destination" : [ "obj-24", 1 ],
					"disabled" : 0,
					"hidden" : 1,
					"midpoints" : [ 168.166672, 336.0, 117.0, 336.0, 117.0, 121.0, 337.5, 121.0 ],
					"source" : [ "obj-54", 1 ]
				}

			}
, 			{
				"patchline" : 				{
					"destination" : [ "obj-55", 1 ],
					"disabled" : 0,
					"hidden" : 1,
					"midpoints" : [ 290.833344, 336.0, 117.0, 336.0, 117.0, 210.0, 275.5, 210.0 ],
					"source" : [ "obj-54", 5 ]
				}

			}
, 			{
				"patchline" : 				{
					"destination" : [ "obj-58", 1 ],
					"disabled" : 0,
					"hidden" : 1,
					"midpoints" : [ 382.833344, 336.0, 117.0, 336.0, 117.0, 210.0, 460.5, 210.0 ],
					"source" : [ "obj-54", 8 ]
				}

			}
, 			{
				"patchline" : 				{
					"destination" : [ "obj-65", 1 ],
					"disabled" : 0,
					"hidden" : 1,
					"midpoints" : [ 352.166656, 336.0, 117.0, 336.0, 117.0, 210.0, 399.5, 210.0 ],
					"source" : [ "obj-54", 7 ]
				}

			}
, 			{
				"patchline" : 				{
					"destination" : [ "obj-66", 1 ],
					"disabled" : 0,
					"hidden" : 1,
					"midpoints" : [ 321.5, 336.0, 117.0, 336.0, 117.0, 210.0, 337.5, 210.0 ],
					"source" : [ "obj-54", 6 ]
				}

			}
, 			{
				"patchline" : 				{
					"destination" : [ "obj-67", 1 ],
					"disabled" : 0,
					"hidden" : 1,
					"midpoints" : [ 260.166656, 336.0, 117.0, 336.0, 117.0, 121.0, 521.5, 121.0 ],
					"source" : [ "obj-54", 4 ]
				}

			}
, 			{
				"patchline" : 				{
					"destination" : [ "obj-68", 1 ],
					"disabled" : 0,
					"hidden" : 1,
					"midpoints" : [ 229.5, 336.0, 117.0, 336.0, 117.0, 121.0, 460.5, 121.0 ],
					"source" : [ "obj-54", 3 ]
				}

			}
, 			{
				"patchline" : 				{
					"destination" : [ "obj-69", 1 ],
					"disabled" : 0,
					"hidden" : 1,
					"midpoints" : [ 198.833328, 336.0, 117.0, 336.0, 117.0, 121.0, 399.5, 121.0 ],
					"source" : [ "obj-54", 2 ]
				}

			}
, 			{
				"patchline" : 				{
					"destination" : [ "obj-41", 0 ],
					"disabled" : 0,
					"hidden" : 0,
					"midpoints" : [ 424.5, 116.0, 152.5, 116.0 ],
					"source" : [ "obj-6", 0 ]
				}

			}
, 			{
				"patchline" : 				{
					"destination" : [ "obj-41", 0 ],
					"disabled" : 0,
					"hidden" : 0,
					"midpoints" : [ 486.5, 116.0, 152.5, 116.0 ],
					"source" : [ "obj-7", 0 ]
				}

			}
, 			{
				"patchline" : 				{
					"destination" : [ "obj-41", 0 ],
					"disabled" : 0,
					"hidden" : 0,
					"midpoints" : [ 486.5, 206.0, 152.5, 206.0 ],
					"source" : [ "obj-8", 0 ]
				}

			}
, 			{
				"patchline" : 				{
					"destination" : [ "obj-41", 0 ],
					"disabled" : 0,
					"hidden" : 0,
					"midpoints" : [ 424.5, 204.0, 152.5, 204.0 ],
					"source" : [ "obj-9", 0 ]
				}

			}
 ],
		"dependency_cache" : [ 			{
				"name" : "friction_controlmaps.maxpat",
				"bootpath" : "/Users/sdm/Documents/LAVORI/RICERCA/SObs/SoundDesignTools/branches/SObWay/SDT_Max6/SDT_patches/SDT_contents/Library/Friction/MIDI_OSC_friction",
				"patcherrelativepath" : "",
				"type" : "JSON",
				"implicit" : 1
			}
, 			{
				"name" : "fric_rubbingf.maxpat",
				"bootpath" : "/Users/sdm/Documents/LAVORI/RICERCA/SObs/SoundDesignTools/branches/SObWay/SDT_Max6/SDT_patches/SDT_contents/Library/Friction/MIDI_OSC_friction",
				"patcherrelativepath" : "",
				"type" : "JSON",
				"implicit" : 1
			}
, 			{
				"name" : "fric_pressonrub.maxpat",
				"bootpath" : "/Users/sdm/Documents/LAVORI/RICERCA/SObs/SoundDesignTools/branches/SObWay/SDT_Max6/SDT_patches/SDT_contents/Library/Friction/MIDI_OSC_friction",
				"patcherrelativepath" : "",
				"type" : "JSON",
				"implicit" : 1
			}
, 			{
				"name" : "fric_rubbermap.maxpat",
				"bootpath" : "/Users/sdm/Documents/LAVORI/RICERCA/SObs/SoundDesignTools/branches/SObWay/SDT_Max6/SDT_patches/SDT_contents/Library/Friction/MIDI_OSC_friction",
				"patcherrelativepath" : "",
				"type" : "JSON",
				"implicit" : 1
			}
, 			{
				"name" : "fric_bristiffmap.maxpat",
				"bootpath" : "/Users/sdm/Documents/LAVORI/RICERCA/SObs/SoundDesignTools/branches/SObWay/SDT_Max6/SDT_patches/SDT_contents/Library/Friction/MIDI_OSC_friction",
				"patcherrelativepath" : "",
				"type" : "JSON",
				"implicit" : 1
			}
, 			{
				"name" : "fric_briviscmap.maxpat",
				"bootpath" : "/Users/sdm/Documents/LAVORI/RICERCA/SObs/SoundDesignTools/branches/SObWay/SDT_Max6/SDT_patches/SDT_contents/Library/Friction/MIDI_OSC_friction",
				"patcherrelativepath" : "",
				"type" : "JSON",
				"implicit" : 1
			}
, 			{
				"name" : "fric_surfroughmap.maxpat",
				"bootpath" : "/Users/sdm/Documents/LAVORI/RICERCA/SObs/SoundDesignTools/branches/SObWay/SDT_Max6/SDT_patches/SDT_contents/Library/Friction/MIDI_OSC_friction",
				"patcherrelativepath" : "",
				"type" : "JSON",
				"implicit" : 1
			}
, 			{
				"name" : "fric_globfreqmap.maxpat",
				"bootpath" : "/Users/sdm/Documents/LAVORI/RICERCA/SObs/SoundDesignTools/branches/SObWay/SDT_Max6/SDT_patches/SDT_contents/Library/Friction/MIDI_OSC_friction",
				"patcherrelativepath" : "",
				"type" : "JSON",
				"implicit" : 1
			}
, 			{
				"name" : "fric_globdecmap.maxpat",
				"bootpath" : "/Users/sdm/Documents/LAVORI/RICERCA/SObs/SoundDesignTools/branches/SObWay/SDT_Max6/SDT_patches/SDT_contents/Library/Friction/MIDI_OSC_friction",
				"patcherrelativepath" : "",
				"type" : "JSON",
				"implicit" : 1
			}
, 			{
				"name" : "fric_globgainmap.maxpat",
				"bootpath" : "/Users/sdm/Documents/LAVORI/RICERCA/SObs/SoundDesignTools/branches/SObWay/SDT_Max6/SDT_patches/SDT_contents/Library/Friction/MIDI_OSC_friction",
				"patcherrelativepath" : "",
				"type" : "JSON",
				"implicit" : 1
			}
, 			{
				"name" : "fric_preset_interpol.maxpat",
				"bootpath" : "/Users/sdm/Documents/LAVORI/RICERCA/SObs/SoundDesignTools/branches/SObWay/SDT_Max6/SDT_patches/SDT_contents/Library/Friction/MIDI_OSC_friction",
				"patcherrelativepath" : "",
				"type" : "JSON",
				"implicit" : 1
			}
 ]
	}

}
