{
	"patcher" : 	{
		"fileversion" : 1,
		"appversion" : 		{
			"major" : 7,
			"minor" : 2,
			"revision" : 4,
			"architecture" : "x86",
			"modernui" : 1
		}
,
		"rect" : [ 87.0, 164.0, 712.0, 431.0 ],
		"bgcolor" : [ 0.85098, 0.85098, 0.823529, 1.0 ],
		"bglocked" : 0,
		"openinpresentation" : 1,
		"default_fontsize" : 12.0,
		"default_fontface" : 0,
		"default_fontname" : "Arial",
		"gridonopen" : 1,
		"gridsize" : [ 15.0, 15.0 ],
		"gridsnaponopen" : 1,
		"objectsnaponopen" : 1,
		"statusbarvisible" : 2,
		"toolbarvisible" : 1,
		"lefttoolbarpinned" : 0,
		"toptoolbarpinned" : 0,
		"righttoolbarpinned" : 0,
		"bottomtoolbarpinned" : 0,
		"toolbars_unpinned_last_save" : 15,
		"tallnewobj" : 0,
		"boxanimatetime" : 200,
		"enablehscroll" : 1,
		"enablevscroll" : 1,
		"devicewidth" : 0.0,
		"description" : "",
		"digest" : "",
		"tags" : "",
		"style" : "",
		"subpatcher_template" : "",
		"boxes" : [ 			{
				"box" : 				{
					"fontname" : "Arial",
					"fontsize" : 12.0,
					"id" : "obj-2",
					"maxclass" : "newobj",
					"numinlets" : 1,
					"numoutlets" : 1,
					"outlettype" : [ "" ],
					"patching_rect" : [ 297.25, 561.0, 72.0, 22.0 ],
					"style" : "",
					"text" : "loadmess 1"
				}

			}
, 			{
				"box" : 				{
					"fontname" : "Arial",
					"fontsize" : 9.0,
					"id" : "obj-31",
					"maxclass" : "comment",
					"numinlets" : 1,
					"numoutlets" : 0,
					"patching_rect" : [ 74.0, 313.5, 66.0, 17.0 ],
					"presentation" : 1,
					"presentation_rect" : [ 511.5, 329.0, 46.0, 17.0 ],
					"style" : "",
					"text" : "offset"
				}

			}
, 			{
				"box" : 				{
					"fontname" : "Arial",
					"fontsize" : 9.0,
					"id" : "obj-30",
					"maxclass" : "comment",
					"numinlets" : 1,
					"numoutlets" : 0,
					"patching_rect" : [ 124.5, 266.5, 66.0, 17.0 ],
					"presentation" : 1,
					"presentation_rect" : [ 541.5, 308.0, 35.0, 17.0 ],
					"style" : "",
					"text" : "range"
				}

			}
, 			{
				"box" : 				{
					"fontname" : "Arial",
					"fontsize" : 9.0,
					"id" : "obj-29",
					"maxclass" : "comment",
					"numinlets" : 1,
					"numoutlets" : 0,
					"patching_rect" : [ 105.5, 217.5, 66.0, 17.0 ],
					"presentation" : 1,
					"presentation_rect" : [ 503.5, 263.5, 28.0, 17.0 ],
					"style" : "",
					"text" : "ms"
				}

			}
, 			{
				"box" : 				{
					"id" : "obj-13",
					"maxclass" : "number",
					"numinlets" : 1,
					"numoutlets" : 2,
					"outlettype" : [ "", "bang" ],
					"parameter_enable" : 0,
					"patching_rect" : [ 70.5, 217.5, 39.0, 22.0 ],
					"presentation" : 1,
					"presentation_rect" : [ 466.5, 263.5, 39.0, 22.0 ],
					"style" : "default",
					"triangle" : 0,
					"triscale" : 0.9
				}

			}
, 			{
				"box" : 				{
					"id" : "obj-46",
					"maxclass" : "number",
					"numinlets" : 1,
					"numoutlets" : 2,
					"outlettype" : [ "", "bang" ],
					"parameter_enable" : 0,
					"patching_rect" : [ 65.5, 291.5, 39.0, 22.0 ],
					"presentation" : 1,
					"presentation_rect" : [ 476.5, 329.0, 36.0, 22.0 ],
					"style" : "default",
					"triangle" : 0,
					"triscale" : 0.9
				}

			}
, 			{
				"box" : 				{
					"id" : "obj-47",
					"maxclass" : "number",
					"numinlets" : 1,
					"numoutlets" : 2,
					"outlettype" : [ "", "bang" ],
					"parameter_enable" : 0,
					"patching_rect" : [ 89.5, 266.5, 39.0, 22.0 ],
					"presentation" : 1,
					"presentation_rect" : [ 503.5, 308.0, 39.0, 22.0 ],
					"style" : "default",
					"triangle" : 0,
					"triscale" : 0.9
				}

			}
, 			{
				"box" : 				{
					"fontname" : "Arial",
					"fontsize" : 9.0,
					"id" : "obj-48",
					"maxclass" : "newobj",
					"numinlets" : 2,
					"numoutlets" : 1,
					"outlettype" : [ "int" ],
					"patching_rect" : [ 30.5, 291.5, 27.0, 19.0 ],
					"presentation" : 1,
					"presentation_rect" : [ 443.5, 329.0, 27.0, 19.0 ],
					"style" : "",
					"text" : "+"
				}

			}
, 			{
				"box" : 				{
					"id" : "obj-50",
					"maxclass" : "toggle",
					"numinlets" : 1,
					"numoutlets" : 1,
					"outlettype" : [ "int" ],
					"parameter_enable" : 0,
					"patching_rect" : [ 30.5, 217.5, 25.0, 25.0 ],
					"presentation" : 1,
					"presentation_rect" : [ 443.5, 263.5, 19.0, 19.0 ],
					"style" : ""
				}

			}
, 			{
				"box" : 				{
					"fontname" : "Arial",
					"fontsize" : 9.0,
					"id" : "obj-51",
					"maxclass" : "newobj",
					"numinlets" : 2,
					"numoutlets" : 1,
					"outlettype" : [ "bang" ],
					"patching_rect" : [ 30.5, 244.5, 59.0, 19.0 ],
					"presentation" : 1,
					"presentation_rect" : [ 443.5, 286.0, 59.0, 19.0 ],
					"style" : "",
					"text" : "metro 1000"
				}

			}
, 			{
				"box" : 				{
					"fontname" : "Arial",
					"fontsize" : 9.0,
					"id" : "obj-52",
					"maxclass" : "newobj",
					"numinlets" : 2,
					"numoutlets" : 1,
					"outlettype" : [ "" ],
					"patching_rect" : [ 30.5, 336.5, 59.0, 19.0 ],
					"style" : "",
					"text" : "pack 0 400"
				}

			}
, 			{
				"box" : 				{
					"fontname" : "Arial",
					"fontsize" : 9.0,
					"id" : "obj-53",
					"maxclass" : "newobj",
					"numinlets" : 3,
					"numoutlets" : 2,
					"outlettype" : [ "", "" ],
					"patching_rect" : [ 30.5, 358.5, 40.0, 19.0 ],
					"style" : "",
					"text" : "line"
				}

			}
, 			{
				"box" : 				{
					"id" : "obj-15",
					"maxclass" : "number",
					"numinlets" : 1,
					"numoutlets" : 2,
					"outlettype" : [ "", "bang" ],
					"parameter_enable" : 0,
					"patching_rect" : [ 30.5, 313.5, 39.0, 22.0 ],
					"presentation" : 1,
					"presentation_rect" : [ 443.5, 350.0, 30.0, 22.0 ],
					"style" : "default",
					"triangle" : 0,
					"triscale" : 0.9
				}

			}
, 			{
				"box" : 				{
					"fontname" : "Arial",
					"fontsize" : 9.0,
					"id" : "obj-27",
					"maxclass" : "newobj",
					"numinlets" : 2,
					"numoutlets" : 1,
					"outlettype" : [ "int" ],
					"patching_rect" : [ 30.5, 266.5, 59.0, 19.0 ],
					"presentation" : 1,
					"presentation_rect" : [ 443.5, 308.0, 59.0, 19.0 ],
					"style" : "",
					"text" : "random 101"
				}

			}
, 			{
				"box" : 				{
					"fontface" : 1,
					"fontname" : "Helvetica Neue",
					"fontsize" : 10.0,
					"id" : "obj-26",
					"linecount" : 2,
					"maxclass" : "comment",
					"numinlets" : 1,
					"numoutlets" : 0,
					"patching_rect" : [ 194.5, 228.0, 44.0, 30.0 ],
					"presentation" : 1,
					"presentation_rect" : [ 36.0, 162.5, 66.0, 18.0 ],
					"style" : "",
					"text" : "wind speed "
				}

			}
, 			{
				"box" : 				{
					"fontname" : "Helvetica Neue",
					"fontsize" : 9.0,
					"id" : "obj-24",
					"maxclass" : "message",
					"numinlets" : 2,
					"numoutlets" : 1,
					"outlettype" : [ "" ],
					"patching_rect" : [ 171.0, 464.0, 50.0, 19.0 ],
					"presentation" : 1,
					"presentation_rect" : [ 44.0, 319.0, 50.0, 19.0 ],
					"style" : "",
					"text" : "0.67"
				}

			}
, 			{
				"box" : 				{
					"fontname" : "Helvetica Neue",
					"fontsize" : 9.0,
					"id" : "obj-23",
					"maxclass" : "newobj",
					"numinlets" : 1,
					"numoutlets" : 1,
					"outlettype" : [ "signal" ],
					"patching_rect" : [ 202.0, 422.0, 39.0, 19.0 ],
					"presentation" : 1,
					"presentation_rect" : [ 50.0, 339.0, 39.0, 19.0 ],
					"style" : "",
					"text" : "sig~ 0."
				}

			}
, 			{
				"box" : 				{
					"fontname" : "Arial",
					"fontsize" : 9.0,
					"id" : "obj-22",
					"maxclass" : "newobj",
					"numinlets" : 6,
					"numoutlets" : 1,
					"outlettype" : [ "" ],
					"patching_rect" : [ 202.0, 394.0, 86.5, 19.0 ],
					"style" : "",
					"text" : "scale 0. 100. 0. 1."
				}

			}
, 			{
				"box" : 				{
					"candicane2" : [ 0.145098, 0.203922, 0.356863, 1.0 ],
					"candicane3" : [ 0.290196, 0.411765, 0.713726, 1.0 ],
					"candicane4" : [ 0.439216, 0.619608, 0.070588, 1.0 ],
					"candicane5" : [ 0.584314, 0.827451, 0.431373, 1.0 ],
					"candicane6" : [ 0.733333, 0.035294, 0.788235, 1.0 ],
					"candicane7" : [ 0.878431, 0.243137, 0.145098, 1.0 ],
					"candicane8" : [ 0.027451, 0.447059, 0.501961, 1.0 ],
					"contdata" : 1,
					"ghostbar" : 75,
					"id" : "obj-21",
					"maxclass" : "multislider",
					"numinlets" : 1,
					"numoutlets" : 2,
					"outlettype" : [ "", "" ],
					"parameter_enable" : 0,
					"patching_rect" : [ 203.0, 250.5, 21.0, 125.0 ],
					"presentation" : 1,
					"presentation_rect" : [ 58.5, 188.5, 21.0, 125.0 ],
					"setminmax" : [ 0.001, 100.0 ],
					"slidercolor" : [ 0.0, 0.8, 1.0, 1.0 ],
					"style" : "default"
				}

			}
, 			{
				"box" : 				{
					"active1" : [ 0.0, 0.8, 1.0, 1.0 ],
					"bubblesize" : 12,
					"id" : "obj-8",
					"maxclass" : "preset",
					"numinlets" : 1,
					"numoutlets" : 4,
					"outlettype" : [ "preset", "int", "preset", "int" ],
					"patching_rect" : [ 297.25, 591.5, 100.0, 40.0 ],
					"presentation" : 1,
					"presentation_rect" : [ 269.5, 246.5, 57.0, 53.0 ],
					"preset_data" : [ 						{
							"number" : 1,
							"data" : [ 5, "obj-18", "multislider", "list", 66.666664, 5, "obj-21", "multislider", "list", 93.0, 5, "obj-15", "number", "int", 97, 5, "obj-50", "toggle", "int", 1, 5, "obj-47", "number", "int", 70, 5, "obj-46", "number", "int", 30, 5, "obj-13", "number", "int", 1000 ]
						}
, 						{
							"number" : 2,
							"data" : [ 5, "obj-18", "multislider", "list", 26.01626, 5, "obj-21", "multislider", "list", 43.0, 5, "obj-15", "number", "int", 41, 5, "obj-50", "toggle", "int", 1, 5, "obj-47", "number", "int", 20, 5, "obj-46", "number", "int", 30, 5, "obj-13", "number", "int", 500 ]
						}
, 						{
							"number" : 3,
							"data" : [ 5, "obj-18", "multislider", "list", 4.065041, 5, "obj-21", "multislider", "list", 36.0, 5, "obj-15", "number", "int", 45, 5, "obj-50", "toggle", "int", 1, 5, "obj-47", "number", "int", 20, 5, "obj-46", "number", "int", 30, 5, "obj-13", "number", "int", 100 ]
						}
 ],
					"style" : ""
				}

			}
, 			{
				"box" : 				{
					"id" : "obj-45",
					"maxclass" : "meter~",
					"numinlets" : 1,
					"numoutlets" : 1,
					"outlettype" : [ "float" ],
					"patching_rect" : [ 247.5, 579.0, 27.0, 73.0 ],
					"presentation" : 1,
					"presentation_rect" : [ 408.0, 280.0, 27.0, 81.0 ],
					"style" : "default"
				}

			}
, 			{
				"box" : 				{
					"id" : "obj-32",
					"interpinlet" : 1,
					"knobcolor" : [ 0.0, 0.8, 1.0, 1.0 ],
					"maxclass" : "gain~",
					"numinlets" : 2,
					"numoutlets" : 2,
					"outlettype" : [ "signal", "int" ],
					"parameter_enable" : 0,
					"patching_rect" : [ 203.0, 571.0, 44.5, 81.0 ],
					"presentation" : 1,
					"presentation_rect" : [ 361.5, 280.0, 44.5, 81.0 ],
					"style" : "default"
				}

			}
, 			{
				"box" : 				{
					"color" : [ 0.0, 0.8, 1.0, 1.0 ],
					"id" : "obj-20",
					"maxclass" : "ezdac~",
					"numinlets" : 2,
					"numoutlets" : 0,
					"patching_rect" : [ 203.0, 668.0, 45.0, 45.0 ],
					"presentation" : 1,
					"presentation_rect" : [ 269.5, 180.0, 57.0, 57.0 ],
					"style" : ""
				}

			}
, 			{
				"box" : 				{
					"fontname" : "Helvetica Neue",
					"fontsize" : 9.0,
					"id" : "obj-14",
					"maxclass" : "message",
					"numinlets" : 2,
					"numoutlets" : 1,
					"outlettype" : [ "" ],
					"patching_rect" : [ 304.75, 464.0, 50.0, 19.0 ],
					"presentation" : 1,
					"presentation_rect" : [ 158.0, 319.0, 50.0, 19.0 ],
					"style" : "",
					"text" : "5.15786"
				}

			}
, 			{
				"box" : 				{
					"fontname" : "Helvetica Neue",
					"fontsize" : 9.0,
					"id" : "obj-11",
					"maxclass" : "newobj",
					"numinlets" : 1,
					"numoutlets" : 1,
					"outlettype" : [ "" ],
					"patching_rect" : [ 335.75, 422.0, 83.0, 19.0 ],
					"presentation" : 1,
					"presentation_linecount" : 2,
					"presentation_rect" : [ 158.0, 334.0, 53.0, 29.0 ],
					"style" : "",
					"text" : "prepend diameter"
				}

			}
, 			{
				"box" : 				{
					"fontname" : "Arial",
					"fontsize" : 9.0,
					"id" : "obj-9",
					"maxclass" : "newobj",
					"numinlets" : 6,
					"numoutlets" : 1,
					"outlettype" : [ "" ],
					"patching_rect" : [ 335.75, 394.0, 104.0, 19.0 ],
					"style" : "",
					"text" : "scale 0. 100. 1. 30 1.06"
				}

			}
, 			{
				"box" : 				{
					"fontface" : 1,
					"fontname" : "Helvetica Neue",
					"fontsize" : 10.0,
					"id" : "obj-17",
					"linecount" : 3,
					"maxclass" : "comment",
					"numinlets" : 1,
					"numoutlets" : 0,
					"patching_rect" : [ 328.25, 228.0, 41.0, 42.0 ],
					"presentation" : 1,
					"presentation_rect" : [ 144.0, 162.5, 78.0, 18.0 ],
					"style" : "",
					"text" : "diameter (mm)"
				}

			}
, 			{
				"box" : 				{
					"candicane2" : [ 0.145098, 0.203922, 0.356863, 1.0 ],
					"candicane3" : [ 0.290196, 0.411765, 0.713726, 1.0 ],
					"candicane4" : [ 0.439216, 0.619608, 0.070588, 1.0 ],
					"candicane5" : [ 0.584314, 0.827451, 0.431373, 1.0 ],
					"candicane6" : [ 0.733333, 0.035294, 0.788235, 1.0 ],
					"candicane7" : [ 0.878431, 0.243137, 0.145098, 1.0 ],
					"candicane8" : [ 0.027451, 0.447059, 0.501961, 1.0 ],
					"contdata" : 1,
					"ghostbar" : 75,
					"id" : "obj-18",
					"maxclass" : "multislider",
					"numinlets" : 1,
					"numoutlets" : 2,
					"outlettype" : [ "", "" ],
					"parameter_enable" : 0,
					"patching_rect" : [ 336.75, 250.5, 21.0, 125.0 ],
					"presentation" : 1,
					"presentation_rect" : [ 172.5, 188.5, 21.0, 125.0 ],
					"setminmax" : [ 0.0, 100.0 ],
					"slidercolor" : [ 0.0, 0.8, 1.0, 1.0 ],
					"style" : "default"
				}

			}
, 			{
				"box" : 				{
					"fontface" : 1,
					"fontname" : "Helvetica Neue",
					"fontsize" : 30.0,
					"id" : "obj-142",
					"maxclass" : "comment",
					"numinlets" : 1,
					"numoutlets" : 0,
					"patching_rect" : [ 78.5, 37.0, 273.0, 42.0 ],
					"presentation" : 1,
					"presentation_rect" : [ 25.5, 40.0, 276.0, 42.0 ],
					"style" : "",
					"text" : "sdt.windkarman~",
					"textcolor" : [ 0.0, 0.8, 1.0, 1.0 ]
				}

			}
, 			{
				"box" : 				{
					"bgcolor" : [ 0.0, 0.8, 1.0, 1.0 ],
					"color" : [ 0.0, 0.8, 1.0, 1.0 ],
					"fontface" : 3,
					"fontname" : "Helvetica Neue",
					"fontsize" : 12.0,
					"id" : "obj-63",
					"maxclass" : "newobj",
					"numinlets" : 0,
					"numoutlets" : 0,
					"patcher" : 					{
						"fileversion" : 1,
						"appversion" : 						{
							"major" : 7,
							"minor" : 2,
							"revision" : 4,
							"architecture" : "x86",
							"modernui" : 1
						}
,
						"rect" : [ 668.0, 79.0, 429.0, 290.0 ],
						"bglocked" : 0,
						"openinpresentation" : 0,
						"default_fontsize" : 9.0,
						"default_fontface" : 0,
						"default_fontname" : "Arial",
						"gridonopen" : 1,
						"gridsize" : [ 15.0, 15.0 ],
						"gridsnaponopen" : 1,
						"objectsnaponopen" : 1,
						"statusbarvisible" : 2,
						"toolbarvisible" : 1,
						"lefttoolbarpinned" : 0,
						"toptoolbarpinned" : 0,
						"righttoolbarpinned" : 0,
						"bottomtoolbarpinned" : 0,
						"toolbars_unpinned_last_save" : 0,
						"tallnewobj" : 0,
						"boxanimatetime" : 200,
						"enablehscroll" : 1,
						"enablevscroll" : 1,
						"devicewidth" : 0.0,
						"description" : "",
						"digest" : "",
						"tags" : "",
						"style" : "",
						"subpatcher_template" : "",
						"boxes" : [ 							{
								"box" : 								{
									"fontname" : "Arial",
									"fontsize" : 14.0,
									"id" : "obj-12",
									"linecount" : 6,
									"maxclass" : "comment",
									"numinlets" : 1,
									"numoutlets" : 0,
									"patching_rect" : [ 7.0, 6.0, 345.0, 100.0 ],
									"style" : "",
									"text" : "INPUT\n- messages\n- signal, wind speed [0.0, 1.0]\n\nATTRIBUTES:\n- diameter (float): Object diameter, in mm"
								}

							}
, 							{
								"box" : 								{
									"fontname" : "Arial",
									"fontsize" : 14.0,
									"id" : "obj-7",
									"linecount" : 3,
									"maxclass" : "comment",
									"numinlets" : 1,
									"numoutlets" : 0,
									"patching_rect" : [ 7.0, 135.0, 310.0, 53.0 ],
									"style" : "",
									"text" : "OUTPUT\n\n- signal"
								}

							}
, 							{
								"box" : 								{
									"fontname" : "Arial",
									"fontsize" : 14.0,
									"id" : "obj-3",
									"linecount" : 2,
									"maxclass" : "comment",
									"numinlets" : 1,
									"numoutlets" : 0,
									"patching_rect" : [ 7.0, 206.0, 345.0, 38.0 ],
									"style" : "",
									"text" : "ARGUMENTS\n- none."
								}

							}
 ],
						"lines" : [  ]
					}
,
					"patching_rect" : [ 60.0, 144.0, 225.0, 23.0 ],
					"presentation" : 1,
					"presentation_rect" : [ 365.5, 140.5, 211.0, 23.0 ],
					"saved_object_attributes" : 					{
						"description" : "",
						"digest" : "",
						"fontsize" : 9.0,
						"globalpatchername" : "",
						"style" : "",
						"tags" : ""
					}
,
					"style" : "",
					"text" : "p readme-Input-Output-Arguments",
					"textcolor" : [ 1.0, 1.0, 1.0, 1.0 ]
				}

			}
, 			{
				"box" : 				{
					"fontname" : "Helvetica Neue",
					"fontsize" : 14.0,
					"id" : "obj-64",
					"maxclass" : "comment",
					"numinlets" : 1,
					"numoutlets" : 0,
					"patching_rect" : [ 60.0, 104.5, 332.0, 23.0 ],
					"presentation" : 1,
					"presentation_rect" : [ 25.5, 84.0, 315.0, 23.0 ],
					"style" : "",
					"text" : "Air turbulence across thin objects"
				}

			}
, 			{
				"box" : 				{
					"angle" : 0.0,
					"bgcolor" : [ 0.0, 0.0, 0.0, 0.0 ],
					"border" : 1,
					"bordercolor" : [ 0.223529, 0.243137, 0.235294, 1.0 ],
					"id" : "obj-141",
					"maxclass" : "panel",
					"mode" : 0,
					"numinlets" : 1,
					"numoutlets" : 0,
					"patching_rect" : [ 60.0, 77.625, 289.0, 4.0 ],
					"presentation" : 1,
					"presentation_rect" : [ 25.5, 80.0, 289.0, 4.0 ],
					"proportion" : 0.39,
					"rounded" : 0,
					"style" : ""
				}

			}
, 			{
				"box" : 				{
					"bgmode" : 0,
					"border" : 0,
					"clickthrough" : 0,
					"embed" : 1,
					"enablehscroll" : 0,
					"enablevscroll" : 0,
					"id" : "obj-25",
					"lockeddragscroll" : 1,
					"maxclass" : "bpatcher",
					"name" : "_SDT_label2016.maxpat",
					"numinlets" : 0,
					"numoutlets" : 0,
					"offset" : [ 1.0, 3.0 ],
					"patcher" : 					{
						"fileversion" : 1,
						"appversion" : 						{
							"major" : 7,
							"minor" : 2,
							"revision" : 4,
							"architecture" : "x86",
							"modernui" : 1
						}
,
						"rect" : [ 453.0, 192.0, 211.0, 113.0 ],
						"bgcolor" : [ 1.0, 1.0, 1.0, 0.0 ],
						"bglocked" : 0,
						"openinpresentation" : 0,
						"default_fontsize" : 9.0,
						"default_fontface" : 0,
						"default_fontname" : "Arial",
						"gridonopen" : 1,
						"gridsize" : [ 15.0, 15.0 ],
						"gridsnaponopen" : 1,
						"objectsnaponopen" : 1,
						"statusbarvisible" : 2,
						"toolbarvisible" : 1,
						"lefttoolbarpinned" : 0,
						"toptoolbarpinned" : 0,
						"righttoolbarpinned" : 0,
						"bottomtoolbarpinned" : 0,
						"toolbars_unpinned_last_save" : 0,
						"tallnewobj" : 0,
						"boxanimatetime" : 200,
						"enablehscroll" : 1,
						"enablevscroll" : 1,
						"devicewidth" : 0.0,
						"description" : "",
						"digest" : "",
						"tags" : "",
						"style" : "",
						"subpatcher_template" : "",
						"boxes" : [ 							{
								"box" : 								{
									"fontface" : 1,
									"fontname" : "Helvetica Neue",
									"fontsize" : 9.0,
									"id" : "obj-9",
									"maxclass" : "comment",
									"numinlets" : 1,
									"numoutlets" : 0,
									"patching_rect" : [ 95.0, 69.0, 113.0, 17.0 ],
									"style" : "",
									"text" : "soundobject.org/niw/"
								}

							}
, 							{
								"box" : 								{
									"handoff" : "",
									"id" : "obj-4",
									"maxclass" : "ubutton",
									"numinlets" : 1,
									"numoutlets" : 4,
									"outlettype" : [ "bang", "bang", "", "int" ],
									"patching_rect" : [ 95.0, 87.0, 101.0, 12.0 ]
								}

							}
, 							{
								"box" : 								{
									"handoff" : "",
									"id" : "obj-26",
									"maxclass" : "ubutton",
									"numinlets" : 1,
									"numoutlets" : 4,
									"outlettype" : [ "bang", "bang", "", "int" ],
									"patching_rect" : [ 95.0, 72.0, 101.0, 11.0 ]
								}

							}
, 							{
								"box" : 								{
									"handoff" : "",
									"id" : "obj-23",
									"maxclass" : "ubutton",
									"numinlets" : 1,
									"numoutlets" : 4,
									"outlettype" : [ "bang", "bang", "", "int" ],
									"patching_rect" : [ 95.0, 57.5, 101.0, 10.0 ]
								}

							}
, 							{
								"box" : 								{
									"handoff" : "",
									"id" : "obj-19",
									"maxclass" : "ubutton",
									"numinlets" : 1,
									"numoutlets" : 4,
									"outlettype" : [ "bang", "bang", "", "int" ],
									"patching_rect" : [ 95.0, 40.0, 101.0, 14.0 ]
								}

							}
, 							{
								"box" : 								{
									"fontname" : "Arial",
									"fontsize" : 10.0,
									"hidden" : 1,
									"id" : "obj-17",
									"maxclass" : "newobj",
									"numinlets" : 4,
									"numoutlets" : 0,
									"patcher" : 									{
										"fileversion" : 1,
										"appversion" : 										{
											"major" : 7,
											"minor" : 2,
											"revision" : 4,
											"architecture" : "x86",
											"modernui" : 1
										}
,
										"rect" : [ 25.0, 69.0, 640.0, 480.0 ],
										"bglocked" : 0,
										"openinpresentation" : 0,
										"default_fontsize" : 9.0,
										"default_fontface" : 0,
										"default_fontname" : "Arial",
										"gridonopen" : 1,
										"gridsize" : [ 15.0, 15.0 ],
										"gridsnaponopen" : 1,
										"objectsnaponopen" : 1,
										"statusbarvisible" : 2,
										"toolbarvisible" : 1,
										"lefttoolbarpinned" : 0,
										"toptoolbarpinned" : 0,
										"righttoolbarpinned" : 0,
										"bottomtoolbarpinned" : 0,
										"toolbars_unpinned_last_save" : 0,
										"tallnewobj" : 0,
										"boxanimatetime" : 200,
										"enablehscroll" : 1,
										"enablevscroll" : 1,
										"devicewidth" : 0.0,
										"description" : "",
										"digest" : "",
										"tags" : "",
										"style" : "",
										"subpatcher_template" : "",
										"boxes" : [ 											{
												"box" : 												{
													"comment" : "",
													"id" : "obj-1",
													"maxclass" : "inlet",
													"numinlets" : 0,
													"numoutlets" : 1,
													"outlettype" : [ "bang" ],
													"patching_rect" : [ 177.0, 87.0, 25.0, 25.0 ],
													"style" : ""
												}

											}
, 											{
												"box" : 												{
													"id" : "obj-10",
													"maxclass" : "button",
													"numinlets" : 1,
													"numoutlets" : 1,
													"outlettype" : [ "bang" ],
													"patching_rect" : [ 184.0, 210.0, 20.0, 20.0 ],
													"style" : ""
												}

											}
, 											{
												"box" : 												{
													"fontname" : "Arial",
													"fontsize" : 12.0,
													"id" : "obj-12",
													"linecount" : 2,
													"maxclass" : "message",
													"numinlets" : 2,
													"numoutlets" : 1,
													"outlettype" : [ "" ],
													"patching_rect" : [ 184.0, 276.0, 228.0, 31.0 ],
													"style" : "",
													"text" : ";\rmax launchbrowser http://www.skatvg.eu"
												}

											}
, 											{
												"box" : 												{
													"comment" : "",
													"id" : "obj-9",
													"maxclass" : "inlet",
													"numinlets" : 0,
													"numoutlets" : 1,
													"outlettype" : [ "bang" ],
													"patching_rect" : [ 96.0, 87.0, 25.0, 25.0 ],
													"style" : ""
												}

											}
, 											{
												"box" : 												{
													"comment" : "",
													"id" : "obj-8",
													"maxclass" : "inlet",
													"numinlets" : 0,
													"numoutlets" : 1,
													"outlettype" : [ "bang" ],
													"patching_rect" : [ 61.0, 87.0, 25.0, 25.0 ],
													"style" : ""
												}

											}
, 											{
												"box" : 												{
													"comment" : "",
													"id" : "obj-7",
													"maxclass" : "inlet",
													"numinlets" : 0,
													"numoutlets" : 1,
													"outlettype" : [ "bang" ],
													"patching_rect" : [ 139.0, 87.0, 25.0, 25.0 ],
													"style" : ""
												}

											}
, 											{
												"box" : 												{
													"id" : "obj-5",
													"maxclass" : "button",
													"numinlets" : 1,
													"numoutlets" : 1,
													"outlettype" : [ "bang" ],
													"patching_rect" : [ 68.0, 210.0, 20.0, 20.0 ],
													"style" : ""
												}

											}
, 											{
												"box" : 												{
													"fontname" : "Arial",
													"fontsize" : 12.0,
													"id" : "obj-6",
													"linecount" : 2,
													"maxclass" : "message",
													"numinlets" : 2,
													"numoutlets" : 1,
													"outlettype" : [ "" ],
													"patching_rect" : [ 67.0, 236.0, 265.0, 31.0 ],
													"style" : "",
													"text" : ";\rmax launchbrowser http://www.soundobject.org/"
												}

											}
, 											{
												"box" : 												{
													"id" : "obj-3",
													"maxclass" : "button",
													"numinlets" : 1,
													"numoutlets" : 1,
													"outlettype" : [ "bang" ],
													"patching_rect" : [ 94.0, 172.0, 20.0, 20.0 ],
													"style" : ""
												}

											}
, 											{
												"box" : 												{
													"fontname" : "Arial",
													"fontsize" : 12.0,
													"id" : "obj-4",
													"linecount" : 2,
													"maxclass" : "message",
													"numinlets" : 2,
													"numoutlets" : 1,
													"outlettype" : [ "" ],
													"patching_rect" : [ 93.0, 198.0, 226.0, 31.0 ],
													"style" : "",
													"text" : ";\rmax launchbrowser http://closed.ircam.fr"
												}

											}
, 											{
												"box" : 												{
													"id" : "obj-2",
													"maxclass" : "button",
													"numinlets" : 1,
													"numoutlets" : 1,
													"outlettype" : [ "bang" ],
													"patching_rect" : [ 123.0, 120.0, 20.0, 20.0 ],
													"style" : ""
												}

											}
, 											{
												"box" : 												{
													"fontname" : "Arial",
													"fontsize" : 12.0,
													"id" : "obj-11",
													"linecount" : 2,
													"maxclass" : "message",
													"numinlets" : 2,
													"numoutlets" : 1,
													"outlettype" : [ "" ],
													"patching_rect" : [ 122.0, 146.0, 317.0, 31.0 ],
													"style" : "",
													"text" : ";\rmax launchbrowser http://www.soundobject.org/niw/"
												}

											}
 ],
										"lines" : [ 											{
												"patchline" : 												{
													"destination" : [ "obj-10", 0 ],
													"disabled" : 0,
													"hidden" : 0,
													"source" : [ "obj-1", 0 ]
												}

											}
, 											{
												"patchline" : 												{
													"destination" : [ "obj-12", 0 ],
													"disabled" : 0,
													"hidden" : 0,
													"source" : [ "obj-10", 0 ]
												}

											}
, 											{
												"patchline" : 												{
													"destination" : [ "obj-11", 0 ],
													"disabled" : 0,
													"hidden" : 0,
													"source" : [ "obj-2", 0 ]
												}

											}
, 											{
												"patchline" : 												{
													"destination" : [ "obj-4", 0 ],
													"disabled" : 0,
													"hidden" : 0,
													"source" : [ "obj-3", 0 ]
												}

											}
, 											{
												"patchline" : 												{
													"destination" : [ "obj-6", 0 ],
													"disabled" : 0,
													"hidden" : 0,
													"source" : [ "obj-5", 0 ]
												}

											}
, 											{
												"patchline" : 												{
													"destination" : [ "obj-2", 0 ],
													"disabled" : 0,
													"hidden" : 0,
													"source" : [ "obj-7", 0 ]
												}

											}
, 											{
												"patchline" : 												{
													"destination" : [ "obj-5", 0 ],
													"disabled" : 0,
													"hidden" : 0,
													"source" : [ "obj-8", 0 ]
												}

											}
, 											{
												"patchline" : 												{
													"destination" : [ "obj-3", 0 ],
													"disabled" : 0,
													"hidden" : 0,
													"source" : [ "obj-9", 0 ]
												}

											}
 ]
									}
,
									"patching_rect" : [ 58.333336, 212.0, 123.0, 18.0 ],
									"saved_object_attributes" : 									{
										"description" : "",
										"digest" : "",
										"fontsize" : 9.0,
										"globalpatchername" : "",
										"style" : "",
										"tags" : ""
									}
,
									"style" : "",
									"text" : "p url"
								}

							}
, 							{
								"box" : 								{
									"fontface" : 1,
									"fontname" : "Helvetica Neue",
									"fontsize" : 9.0,
									"id" : "obj-8",
									"maxclass" : "comment",
									"numinlets" : 1,
									"numoutlets" : 0,
									"patching_rect" : [ 9.0, 70.0, 86.0, 17.0 ],
									"style" : "",
									"text" : "project NIW "
								}

							}
, 							{
								"box" : 								{
									"fontface" : 1,
									"fontname" : "Helvetica Neue",
									"fontsize" : 9.0,
									"id" : "obj-2",
									"maxclass" : "comment",
									"numinlets" : 1,
									"numoutlets" : 0,
									"patching_rect" : [ 9.0, 84.0, 86.0, 17.0 ],
									"style" : "",
									"text" : "project SkAT-VG"
								}

							}
, 							{
								"box" : 								{
									"fontface" : 1,
									"fontname" : "Helvetica Neue",
									"fontsize" : 9.0,
									"id" : "obj-7",
									"maxclass" : "comment",
									"numinlets" : 1,
									"numoutlets" : 0,
									"patching_rect" : [ 9.0, 55.0, 86.0, 17.0 ],
									"style" : "",
									"text" : "project CLOSED"
								}

							}
, 							{
								"box" : 								{
									"fontface" : 1,
									"fontname" : "Helvetica Neue",
									"fontsize" : 9.0,
									"id" : "obj-6",
									"maxclass" : "comment",
									"numinlets" : 1,
									"numoutlets" : 0,
									"patching_rect" : [ 9.0, 40.0, 86.0, 17.0 ],
									"style" : "",
									"text" : "project SOb"
								}

							}
, 							{
								"box" : 								{
									"fontname" : "Arial",
									"fontsize" : 9.0,
									"id" : "obj-5",
									"maxclass" : "comment",
									"numinlets" : 1,
									"numoutlets" : 0,
									"patching_rect" : [ 9.0, 25.0, 101.0, 17.0 ],
									"style" : "",
									"text" : "(C) 2001 - 2016"
								}

							}
, 							{
								"box" : 								{
									"fontface" : 1,
									"fontname" : "Arial",
									"fontsize" : 18.0,
									"id" : "obj-3",
									"maxclass" : "comment",
									"numinlets" : 1,
									"numoutlets" : 0,
									"patching_rect" : [ 9.0, 1.0, 198.0, 27.0 ],
									"style" : "",
									"text" : "Sound Design Toolkit",
									"textcolor" : [ 1.0, 1.0, 1.0, 1.0 ]
								}

							}
, 							{
								"box" : 								{
									"fontface" : 1,
									"fontname" : "Helvetica Neue",
									"fontsize" : 9.0,
									"id" : "obj-10",
									"maxclass" : "comment",
									"numinlets" : 1,
									"numoutlets" : 0,
									"patching_rect" : [ 95.0, 85.0, 104.5, 17.0 ],
									"style" : "",
									"text" : "www.skatvg.eu"
								}

							}
, 							{
								"box" : 								{
									"fontface" : 1,
									"fontname" : "Helvetica Neue",
									"fontsize" : 9.0,
									"id" : "obj-11",
									"maxclass" : "comment",
									"numinlets" : 1,
									"numoutlets" : 0,
									"patching_rect" : [ 95.0, 54.0, 113.0, 17.0 ],
									"style" : "",
									"text" : "closed.ircam.fr"
								}

							}
, 							{
								"box" : 								{
									"fontface" : 1,
									"fontname" : "Helvetica Neue",
									"fontsize" : 9.0,
									"id" : "obj-12",
									"maxclass" : "comment",
									"numinlets" : 1,
									"numoutlets" : 0,
									"patching_rect" : [ 95.0, 39.0, 113.0, 17.0 ],
									"style" : "",
									"text" : "soundobject.org"
								}

							}
, 							{
								"box" : 								{
									"angle" : 0.0,
									"bgcolor" : [ 0.0, 0.8, 1.0, 1.0 ],
									"id" : "obj-1",
									"maxclass" : "panel",
									"mode" : 0,
									"numinlets" : 1,
									"numoutlets" : 0,
									"patching_rect" : [ 1.0, 1.0, 206.0, 104.0 ],
									"proportion" : 0.39,
									"rounded" : 31,
									"style" : ""
								}

							}
 ],
						"lines" : [ 							{
								"patchline" : 								{
									"destination" : [ "obj-17", 0 ],
									"disabled" : 0,
									"hidden" : 1,
									"source" : [ "obj-19", 1 ]
								}

							}
, 							{
								"patchline" : 								{
									"destination" : [ "obj-17", 1 ],
									"disabled" : 0,
									"hidden" : 1,
									"source" : [ "obj-23", 1 ]
								}

							}
, 							{
								"patchline" : 								{
									"destination" : [ "obj-17", 2 ],
									"disabled" : 0,
									"hidden" : 1,
									"source" : [ "obj-26", 1 ]
								}

							}
, 							{
								"patchline" : 								{
									"destination" : [ "obj-17", 3 ],
									"disabled" : 0,
									"hidden" : 1,
									"source" : [ "obj-4", 1 ]
								}

							}
 ]
					}
,
					"patching_rect" : [ 410.0, 37.0, 215.0, 106.0 ],
					"presentation" : 1,
					"presentation_rect" : [ 365.5, 27.5, 211.0, 113.0 ],
					"viewvisibility" : 1
				}

			}
, 			{
				"box" : 				{
					"attr" : "diameter",
					"fontname" : "Helvetica Neue",
					"fontsize" : 12.0,
					"id" : "obj-6",
					"maxclass" : "attrui",
					"numinlets" : 1,
					"numoutlets" : 1,
					"outlettype" : [ "" ],
					"patching_rect" : [ 354.75, 473.5, 150.0, 22.0 ],
					"presentation" : 1,
					"presentation_rect" : [ 365.5, 180.0, 120.0, 22.0 ],
					"style" : "",
					"text_width" : 70.0
				}

			}
, 			{
				"box" : 				{
					"color" : [ 0.0, 0.8, 1.0, 1.0 ],
					"fontface" : 3,
					"fontname" : "Helvetica Neue",
					"fontsize" : 15.0,
					"id" : "obj-1",
					"maxclass" : "newobj",
					"numinlets" : 1,
					"numoutlets" : 1,
					"outlettype" : [ "signal" ],
					"patching_rect" : [ 203.0, 501.5, 234.0, 26.0 ],
					"presentation" : 1,
					"presentation_rect" : [ 365.5, 212.0, 234.0, 26.0 ],
					"style" : "",
					"text" : "sdt.windkarman~ @diameter 2."
				}

			}
 ],
		"lines" : [ 			{
				"patchline" : 				{
					"destination" : [ "obj-32", 0 ],
					"disabled" : 0,
					"hidden" : 0,
					"source" : [ "obj-1", 0 ]
				}

			}
, 			{
				"patchline" : 				{
					"destination" : [ "obj-1", 0 ],
					"disabled" : 0,
					"hidden" : 0,
					"source" : [ "obj-11", 0 ]
				}

			}
, 			{
				"patchline" : 				{
					"destination" : [ "obj-51", 1 ],
					"disabled" : 0,
					"hidden" : 0,
					"source" : [ "obj-13", 0 ]
				}

			}
, 			{
				"patchline" : 				{
					"destination" : [ "obj-52", 1 ],
					"disabled" : 0,
					"hidden" : 0,
					"source" : [ "obj-13", 0 ]
				}

			}
, 			{
				"patchline" : 				{
					"destination" : [ "obj-52", 0 ],
					"disabled" : 0,
					"hidden" : 0,
					"source" : [ "obj-15", 0 ]
				}

			}
, 			{
				"patchline" : 				{
					"destination" : [ "obj-9", 0 ],
					"disabled" : 0,
					"hidden" : 0,
					"source" : [ "obj-18", 0 ]
				}

			}
, 			{
				"patchline" : 				{
					"destination" : [ "obj-8", 0 ],
					"disabled" : 0,
					"hidden" : 0,
					"source" : [ "obj-2", 0 ]
				}

			}
, 			{
				"patchline" : 				{
					"destination" : [ "obj-22", 0 ],
					"disabled" : 0,
					"hidden" : 0,
					"source" : [ "obj-21", 0 ]
				}

			}
, 			{
				"patchline" : 				{
					"destination" : [ "obj-23", 0 ],
					"disabled" : 0,
					"hidden" : 0,
					"source" : [ "obj-22", 0 ]
				}

			}
, 			{
				"patchline" : 				{
					"destination" : [ "obj-24", 1 ],
					"disabled" : 0,
					"hidden" : 0,
					"source" : [ "obj-22", 0 ]
				}

			}
, 			{
				"patchline" : 				{
					"destination" : [ "obj-1", 0 ],
					"disabled" : 0,
					"hidden" : 0,
					"source" : [ "obj-23", 0 ]
				}

			}
, 			{
				"patchline" : 				{
					"destination" : [ "obj-48", 0 ],
					"disabled" : 0,
					"hidden" : 0,
					"source" : [ "obj-27", 0 ]
				}

			}
, 			{
				"patchline" : 				{
					"destination" : [ "obj-20", 1 ],
					"disabled" : 0,
					"hidden" : 0,
					"source" : [ "obj-32", 0 ]
				}

			}
, 			{
				"patchline" : 				{
					"destination" : [ "obj-20", 0 ],
					"disabled" : 0,
					"hidden" : 0,
					"source" : [ "obj-32", 0 ]
				}

			}
, 			{
				"patchline" : 				{
					"destination" : [ "obj-45", 0 ],
					"disabled" : 0,
					"hidden" : 0,
					"source" : [ "obj-32", 0 ]
				}

			}
, 			{
				"patchline" : 				{
					"destination" : [ "obj-48", 1 ],
					"disabled" : 0,
					"hidden" : 0,
					"source" : [ "obj-46", 0 ]
				}

			}
, 			{
				"patchline" : 				{
					"destination" : [ "obj-27", 1 ],
					"disabled" : 0,
					"hidden" : 0,
					"source" : [ "obj-47", 0 ]
				}

			}
, 			{
				"patchline" : 				{
					"destination" : [ "obj-15", 0 ],
					"disabled" : 0,
					"hidden" : 0,
					"source" : [ "obj-48", 0 ]
				}

			}
, 			{
				"patchline" : 				{
					"destination" : [ "obj-51", 0 ],
					"disabled" : 0,
					"hidden" : 0,
					"source" : [ "obj-50", 0 ]
				}

			}
, 			{
				"patchline" : 				{
					"destination" : [ "obj-27", 0 ],
					"disabled" : 0,
					"hidden" : 0,
					"source" : [ "obj-51", 0 ]
				}

			}
, 			{
				"patchline" : 				{
					"destination" : [ "obj-53", 0 ],
					"disabled" : 0,
					"hidden" : 0,
					"source" : [ "obj-52", 0 ]
				}

			}
, 			{
				"patchline" : 				{
					"destination" : [ "obj-21", 0 ],
					"disabled" : 0,
					"hidden" : 0,
					"source" : [ "obj-53", 0 ]
				}

			}
, 			{
				"patchline" : 				{
					"destination" : [ "obj-1", 0 ],
					"disabled" : 0,
					"hidden" : 0,
					"source" : [ "obj-6", 0 ]
				}

			}
, 			{
				"patchline" : 				{
					"destination" : [ "obj-32", 0 ],
					"disabled" : 0,
					"hidden" : 0,
					"source" : [ "obj-8", 2 ]
				}

			}
, 			{
				"patchline" : 				{
					"destination" : [ "obj-11", 0 ],
					"disabled" : 0,
					"hidden" : 0,
					"source" : [ "obj-9", 0 ]
				}

			}
, 			{
				"patchline" : 				{
					"destination" : [ "obj-14", 1 ],
					"disabled" : 0,
					"hidden" : 0,
					"source" : [ "obj-9", 0 ]
				}

			}
 ],
		"dependency_cache" : [ 			{
				"name" : "_SDT_label2016.maxpat",
				"bootpath" : "~/Documents/Max 7/Packages/SDT/misc",
				"type" : "JSON",
				"implicit" : 1
			}
, 			{
				"name" : "sdt.windkarman~.mxo",
				"type" : "iLaX"
			}
 ],
		"autosave" : 0
	}

}
