{
	"patcher" : 	{
		"fileversion" : 1,
		"appversion" : 		{
			"major" : 6,
			"minor" : 0,
			"revision" : 4
		}
,
		"rect" : [ 9.0, 599.0, 826.0, 528.0 ],
		"bglocked" : 0,
		"openinpresentation" : 1,
		"default_fontsize" : 12.0,
		"default_fontface" : 0,
		"default_fontname" : "Arial",
		"gridonopen" : 0,
		"gridsize" : [ 15.0, 15.0 ],
		"gridsnaponopen" : 0,
		"statusbarvisible" : 2,
		"toolbarvisible" : 1,
		"boxanimatetime" : 200,
		"imprint" : 0,
		"enablehscroll" : 1,
		"enablevscroll" : 1,
		"devicewidth" : 0.0,
		"description" : "",
		"digest" : "",
		"tags" : "",
		"boxes" : [ 			{
				"box" : 				{
					"comment" : "pressure on rub - time (ms)",
					"hidden" : 1,
					"id" : "obj-11",
					"maxclass" : "inlet",
					"numinlets" : 0,
					"numoutlets" : 1,
					"outlettype" : [ "" ],
					"patching_rect" : [ 296.5, 48.0, 15.0, 15.0 ]
				}

			}
, 			{
				"box" : 				{
					"comment" : "pressure on rub I/O",
					"hidden" : 1,
					"id" : "obj-12",
					"maxclass" : "inlet",
					"numinlets" : 0,
					"numoutlets" : 1,
					"outlettype" : [ "" ],
					"patching_rect" : [ 203.5, 48.0, 15.0, 15.0 ]
				}

			}
, 			{
				"box" : 				{
					"comment" : "ext rub force - time (ms)",
					"hidden" : 1,
					"id" : "obj-13",
					"maxclass" : "inlet",
					"numinlets" : 0,
					"numoutlets" : 1,
					"outlettype" : [ "" ],
					"patching_rect" : [ 109.5, 48.0, 15.0, 15.0 ]
				}

			}
, 			{
				"box" : 				{
					"comment" : "ext rub force I/O",
					"hidden" : 1,
					"id" : "obj-14",
					"maxclass" : "inlet",
					"numinlets" : 0,
					"numoutlets" : 1,
					"outlettype" : [ "" ],
					"patching_rect" : [ 16.5, 48.0, 15.0, 15.0 ]
				}

			}
, 			{
				"box" : 				{
					"comment" : "press on rub - time (ms)",
					"hidden" : 1,
					"id" : "obj-4",
					"maxclass" : "outlet",
					"numinlets" : 1,
					"numoutlets" : 0,
					"patching_rect" : [ 296.5, 309.0, 15.0, 15.0 ]
				}

			}
, 			{
				"box" : 				{
					"comment" : "press on rub - I/O",
					"hidden" : 1,
					"id" : "obj-7",
					"maxclass" : "outlet",
					"numinlets" : 1,
					"numoutlets" : 0,
					"patching_rect" : [ 203.166672, 309.0, 15.0, 15.0 ]
				}

			}
, 			{
				"box" : 				{
					"comment" : "ext rub force I/- time (ms)",
					"hidden" : 1,
					"id" : "obj-9",
					"maxclass" : "outlet",
					"numinlets" : 1,
					"numoutlets" : 0,
					"patching_rect" : [ 109.833336, 309.0, 15.0, 15.0 ]
				}

			}
, 			{
				"box" : 				{
					"comment" : "ext rub force I/O",
					"hidden" : 1,
					"id" : "obj-10",
					"maxclass" : "outlet",
					"numinlets" : 1,
					"numoutlets" : 0,
					"patching_rect" : [ 16.5, 309.0, 15.0, 15.0 ]
				}

			}
, 			{
				"box" : 				{
					"fontname" : "Verdana",
					"fontsize" : 12.0,
					"id" : "obj-8",
					"maxclass" : "newobj",
					"numinlets" : 2,
					"numoutlets" : 1,
					"outlettype" : [ "int" ],
					"patching_rect" : [ 698.0, 78.0, 51.0, 21.0 ],
					"text" : "* -322"
				}

			}
, 			{
				"box" : 				{
					"fontname" : "Verdana",
					"fontsize" : 12.0,
					"id" : "obj-5",
					"maxclass" : "message",
					"numinlets" : 2,
					"numoutlets" : 1,
					"outlettype" : [ "" ],
					"patching_rect" : [ 698.0, 108.0, 76.0, 19.0 ],
					"text" : "offset $1 0"
				}

			}
, 			{
				"box" : 				{
					"fontname" : "Verdana",
					"fontsize" : 12.0,
					"id" : "obj-3",
					"maxclass" : "newobj",
					"numinlets" : 1,
					"numoutlets" : 2,
					"outlettype" : [ "", "" ],
					"patching_rect" : [ 698.0, 129.0, 78.0, 21.0 ],
					"save" : [ "#N", "thispatcher", ";", "#Q", "end", ";" ],
					"text" : "thispatcher"
				}

			}
, 			{
				"box" : 				{
					"comment" : "",
					"id" : "obj-6",
					"maxclass" : "inlet",
					"numinlets" : 0,
					"numoutlets" : 1,
					"outlettype" : [ "" ],
					"patching_rect" : [ 698.0, 40.0, 25.0, 25.0 ]
				}

			}
, 			{
				"box" : 				{
					"args" : [ "#1" ],
					"id" : "obj-1",
					"maxclass" : "bpatcher",
					"name" : "friction_allmaps.maxpat",
					"numinlets" : 0,
					"numoutlets" : 0,
					"patching_rect" : [ 324.0, 89.0, 299.0, 185.0 ],
					"presentation" : 1,
					"presentation_rect" : [ 325.0, 0.0, 322.0, 185.0 ]
				}

			}
, 			{
				"box" : 				{
					"id" : "obj-2",
					"maxclass" : "bpatcher",
					"name" : "06_FRIC_temporal_control.maxpat",
					"numinlets" : 4,
					"numoutlets" : 4,
					"outlettype" : [ "int", "int", "int", "int" ],
					"patching_rect" : [ 16.0, 89.0, 299.0, 185.0 ],
					"presentation" : 1,
					"presentation_rect" : [ 0.0, 0.0, 299.0, 185.0 ]
				}

			}
 ],
		"lines" : [ 			{
				"patchline" : 				{
					"destination" : [ "obj-2", 3 ],
					"disabled" : 0,
					"hidden" : 0,
					"source" : [ "obj-11", 0 ]
				}

			}
, 			{
				"patchline" : 				{
					"destination" : [ "obj-2", 2 ],
					"disabled" : 0,
					"hidden" : 0,
					"source" : [ "obj-12", 0 ]
				}

			}
, 			{
				"patchline" : 				{
					"destination" : [ "obj-2", 1 ],
					"disabled" : 0,
					"hidden" : 0,
					"source" : [ "obj-13", 0 ]
				}

			}
, 			{
				"patchline" : 				{
					"destination" : [ "obj-2", 0 ],
					"disabled" : 0,
					"hidden" : 0,
					"source" : [ "obj-14", 0 ]
				}

			}
, 			{
				"patchline" : 				{
					"destination" : [ "obj-10", 0 ],
					"disabled" : 0,
					"hidden" : 0,
					"source" : [ "obj-2", 0 ]
				}

			}
, 			{
				"patchline" : 				{
					"destination" : [ "obj-4", 0 ],
					"disabled" : 0,
					"hidden" : 0,
					"source" : [ "obj-2", 3 ]
				}

			}
, 			{
				"patchline" : 				{
					"destination" : [ "obj-7", 0 ],
					"disabled" : 0,
					"hidden" : 0,
					"source" : [ "obj-2", 2 ]
				}

			}
, 			{
				"patchline" : 				{
					"destination" : [ "obj-9", 0 ],
					"disabled" : 0,
					"hidden" : 0,
					"source" : [ "obj-2", 1 ]
				}

			}
, 			{
				"patchline" : 				{
					"destination" : [ "obj-3", 0 ],
					"disabled" : 0,
					"hidden" : 0,
					"source" : [ "obj-5", 0 ]
				}

			}
, 			{
				"patchline" : 				{
					"destination" : [ "obj-8", 0 ],
					"disabled" : 0,
					"hidden" : 0,
					"source" : [ "obj-6", 0 ]
				}

			}
, 			{
				"patchline" : 				{
					"destination" : [ "obj-5", 0 ],
					"disabled" : 0,
					"hidden" : 0,
					"source" : [ "obj-8", 0 ]
				}

			}
 ],
		"dependency_cache" : [ 			{
				"name" : "06_FRIC_temporal_control.maxpat",
				"bootpath" : "/Users/sdm/Documents/LAVORI/RICERCA/SObs/SoundDesignTools/branches/SObWay/SDT_Max6/SDT_patches/SDT_contents/Library/Friction",
				"patcherrelativepath" : "",
				"type" : "JSON",
				"implicit" : 1
			}
, 			{
				"name" : "friction_allmaps.maxpat",
				"bootpath" : "/Users/sdm/Documents/LAVORI/RICERCA/SObs/SoundDesignTools/branches/SObWay/SDT_Max6/SDT_patches/SDT_contents/Library/Friction/MIDI_OSC_friction",
				"patcherrelativepath" : "../Friction/MIDI_OSC_friction",
				"type" : "JSON",
				"implicit" : 1
			}
, 			{
				"name" : "friction_controlmaps.maxpat",
				"bootpath" : "/Users/sdm/Documents/LAVORI/RICERCA/SObs/SoundDesignTools/branches/SObWay/SDT_Max6/SDT_patches/SDT_contents/Library/Friction/MIDI_OSC_friction",
				"patcherrelativepath" : "../Friction/MIDI_OSC_friction",
				"type" : "JSON",
				"implicit" : 1
			}
, 			{
				"name" : "fric_rubbingf.maxpat",
				"bootpath" : "/Users/sdm/Documents/LAVORI/RICERCA/SObs/SoundDesignTools/branches/SObWay/SDT_Max6/SDT_patches/SDT_contents/Library/Friction/MIDI_OSC_friction",
				"patcherrelativepath" : "../Friction/MIDI_OSC_friction",
				"type" : "JSON",
				"implicit" : 1
			}
, 			{
				"name" : "fric_pressonrub.maxpat",
				"bootpath" : "/Users/sdm/Documents/LAVORI/RICERCA/SObs/SoundDesignTools/branches/SObWay/SDT_Max6/SDT_patches/SDT_contents/Library/Friction/MIDI_OSC_friction",
				"patcherrelativepath" : "../Friction/MIDI_OSC_friction",
				"type" : "JSON",
				"implicit" : 1
			}
, 			{
				"name" : "fric_rubbermap.maxpat",
				"bootpath" : "/Users/sdm/Documents/LAVORI/RICERCA/SObs/SoundDesignTools/branches/SObWay/SDT_Max6/SDT_patches/SDT_contents/Library/Friction/MIDI_OSC_friction",
				"patcherrelativepath" : "../Friction/MIDI_OSC_friction",
				"type" : "JSON",
				"implicit" : 1
			}
, 			{
				"name" : "fric_bristiffmap.maxpat",
				"bootpath" : "/Users/sdm/Documents/LAVORI/RICERCA/SObs/SoundDesignTools/branches/SObWay/SDT_Max6/SDT_patches/SDT_contents/Library/Friction/MIDI_OSC_friction",
				"patcherrelativepath" : "../Friction/MIDI_OSC_friction",
				"type" : "JSON",
				"implicit" : 1
			}
, 			{
				"name" : "fric_briviscmap.maxpat",
				"bootpath" : "/Users/sdm/Documents/LAVORI/RICERCA/SObs/SoundDesignTools/branches/SObWay/SDT_Max6/SDT_patches/SDT_contents/Library/Friction/MIDI_OSC_friction",
				"patcherrelativepath" : "../Friction/MIDI_OSC_friction",
				"type" : "JSON",
				"implicit" : 1
			}
, 			{
				"name" : "fric_surfroughmap.maxpat",
				"bootpath" : "/Users/sdm/Documents/LAVORI/RICERCA/SObs/SoundDesignTools/branches/SObWay/SDT_Max6/SDT_patches/SDT_contents/Library/Friction/MIDI_OSC_friction",
				"patcherrelativepath" : "../Friction/MIDI_OSC_friction",
				"type" : "JSON",
				"implicit" : 1
			}
, 			{
				"name" : "fric_globfreqmap.maxpat",
				"bootpath" : "/Users/sdm/Documents/LAVORI/RICERCA/SObs/SoundDesignTools/branches/SObWay/SDT_Max6/SDT_patches/SDT_contents/Library/Friction/MIDI_OSC_friction",
				"patcherrelativepath" : "../Friction/MIDI_OSC_friction",
				"type" : "JSON",
				"implicit" : 1
			}
, 			{
				"name" : "fric_globdecmap.maxpat",
				"bootpath" : "/Users/sdm/Documents/LAVORI/RICERCA/SObs/SoundDesignTools/branches/SObWay/SDT_Max6/SDT_patches/SDT_contents/Library/Friction/MIDI_OSC_friction",
				"patcherrelativepath" : "../Friction/MIDI_OSC_friction",
				"type" : "JSON",
				"implicit" : 1
			}
, 			{
				"name" : "fric_globgainmap.maxpat",
				"bootpath" : "/Users/sdm/Documents/LAVORI/RICERCA/SObs/SoundDesignTools/branches/SObWay/SDT_Max6/SDT_patches/SDT_contents/Library/Friction/MIDI_OSC_friction",
				"patcherrelativepath" : "../Friction/MIDI_OSC_friction",
				"type" : "JSON",
				"implicit" : 1
			}
, 			{
				"name" : "fric_preset_interpol.maxpat",
				"bootpath" : "/Users/sdm/Documents/LAVORI/RICERCA/SObs/SoundDesignTools/branches/SObWay/SDT_Max6/SDT_patches/SDT_contents/Library/Friction/MIDI_OSC_friction",
				"patcherrelativepath" : "../Friction/MIDI_OSC_friction",
				"type" : "JSON",
				"implicit" : 1
			}
 ]
	}

}
