{
	"patcher" : 	{
		"fileversion" : 1,
		"rect" : [ 583.0, 101.0, 600.0, 426.0 ],
		"bglocked" : 0,
		"defrect" : [ 583.0, 101.0, 600.0, 426.0 ],
		"openrect" : [ 0.0, 0.0, 0.0, 0.0 ],
		"openinpresentation" : 0,
		"default_fontsize" : 9.0,
		"default_fontface" : 0,
		"default_fontname" : "Arial",
		"gridonopen" : 0,
		"gridsize" : [ 15.0, 15.0 ],
		"gridsnaponopen" : 0,
		"toolbarvisible" : 1,
		"boxanimatetime" : 200,
		"imprint" : 0,
		"enablehscroll" : 1,
		"enablevscroll" : 1,
		"devicewidth" : 0.0,
		"boxes" : [ 			{
				"box" : 				{
					"maxclass" : "message",
					"text" : "read",
					"numinlets" : 2,
					"id" : "obj-46",
					"fontname" : "Arial",
					"numoutlets" : 1,
					"patching_rect" : [ 206.0, 172.0, 32.5, 15.0 ],
					"outlettype" : [ "" ],
					"fontsize" : 9.0
				}

			}
, 			{
				"box" : 				{
					"maxclass" : "message",
					"text" : "write",
					"numinlets" : 2,
					"id" : "obj-45",
					"fontname" : "Arial",
					"numoutlets" : 1,
					"patching_rect" : [ 300.0, 172.0, 32.5, 15.0 ],
					"outlettype" : [ "" ],
					"fontsize" : 9.0
				}

			}
, 			{
				"box" : 				{
					"maxclass" : "comment",
					"text" : "Save configuration",
					"numinlets" : 1,
					"id" : "obj-44",
					"fontname" : "Arial",
					"numoutlets" : 0,
					"patching_rect" : [ 224.0, 95.0, 87.0, 17.0 ],
					"fontsize" : 9.0
				}

			}
, 			{
				"box" : 				{
					"maxclass" : "newobj",
					"text" : "+ 1",
					"numinlets" : 2,
					"id" : "obj-43",
					"fontname" : "Arial",
					"numoutlets" : 1,
					"patching_rect" : [ 49.0, 131.0, 32.5, 17.0 ],
					"outlettype" : [ "int" ],
					"fontsize" : 9.0,
					"hidden" : 1
				}

			}
, 			{
				"box" : 				{
					"maxclass" : "preset",
					"numinlets" : 1,
					"id" : "obj-36",
					"numoutlets" : 4,
					"patching_rect" : [ 203.0, 119.0, 137.0, 51.0 ],
					"outlettype" : [ "preset", "int", "preset", "int" ],
					"preset_data" : [ 						{
							"number" : 1,
							"data" : [ 5, "obj-17", "number", "int", 2, 5, "obj-30", "number", "int", 5000, 6, "obj-12", "rslider", "list", 0, 1, 5, "obj-16", "number", "int", 1 ]
						}
 ]
				}

			}
, 			{
				"box" : 				{
					"maxclass" : "comment",
					"text" : "Interpolated preset value",
					"numinlets" : 1,
					"id" : "obj-35",
					"fontname" : "Arial",
					"numoutlets" : 0,
					"patching_rect" : [ 26.0, 297.0, 113.0, 17.0 ],
					"fontsize" : 9.0
				}

			}
, 			{
				"box" : 				{
					"maxclass" : "comment",
					"text" : "Max",
					"numinlets" : 1,
					"id" : "obj-34",
					"fontname" : "Arial",
					"numoutlets" : 0,
					"patching_rect" : [ 115.0, 117.0, 38.0, 17.0 ],
					"fontsize" : 9.0
				}

			}
, 			{
				"box" : 				{
					"maxclass" : "comment",
					"text" : "Min",
					"numinlets" : 1,
					"id" : "obj-33",
					"fontname" : "Arial",
					"numoutlets" : 0,
					"patching_rect" : [ 26.0, 118.0, 38.0, 17.0 ],
					"fontsize" : 9.0
				}

			}
, 			{
				"box" : 				{
					"maxclass" : "comment",
					"text" : "Set range of presets to interpolate",
					"numinlets" : 1,
					"id" : "obj-29",
					"fontname" : "Arial",
					"numoutlets" : 0,
					"patching_rect" : [ 21.0, 95.0, 151.0, 17.0 ],
					"fontsize" : 9.0
				}

			}
, 			{
				"box" : 				{
					"maxclass" : "newobj",
					"text" : "unpack 1 2 5000",
					"numinlets" : 1,
					"id" : "obj-25",
					"fontname" : "Arial",
					"numoutlets" : 3,
					"patching_rect" : [ 261.0, 39.0, 77.0, 17.0 ],
					"outlettype" : [ "int", "int", "int" ],
					"fontsize" : 9.0,
					"hidden" : 1
				}

			}
, 			{
				"box" : 				{
					"maxclass" : "newobj",
					"text" : "loadbang",
					"numinlets" : 1,
					"id" : "obj-24",
					"fontname" : "Arial",
					"numoutlets" : 1,
					"patching_rect" : [ 261.0, 22.0, 48.0, 17.0 ],
					"outlettype" : [ "bang" ],
					"fontsize" : 9.0,
					"hidden" : 1
				}

			}
, 			{
				"box" : 				{
					"maxclass" : "comment",
					"text" : "current preset range",
					"numinlets" : 1,
					"id" : "obj-21",
					"fontname" : "Arial",
					"numoutlets" : 0,
					"patching_rect" : [ 37.0, 180.0, 93.0, 17.0 ],
					"fontsize" : 9.0
				}

			}
, 			{
				"box" : 				{
					"maxclass" : "message",
					"text" : "1. 1.894309",
					"numinlets" : 2,
					"id" : "obj-20",
					"fontname" : "Arial",
					"numoutlets" : 1,
					"patching_rect" : [ 29.0, 193.0, 110.0, 15.0 ],
					"outlettype" : [ "" ],
					"fontsize" : 9.0
				}

			}
, 			{
				"box" : 				{
					"maxclass" : "number",
					"numinlets" : 1,
					"id" : "obj-17",
					"fontname" : "Arial",
					"numoutlets" : 2,
					"patching_rect" : [ 115.0, 132.0, 40.0, 17.0 ],
					"outlettype" : [ "int", "bang" ],
					"fontsize" : 9.0,
					"minimum" : 1
				}

			}
, 			{
				"box" : 				{
					"maxclass" : "number",
					"numinlets" : 1,
					"id" : "obj-16",
					"fontname" : "Arial",
					"numoutlets" : 2,
					"patching_rect" : [ 26.0, 132.0, 40.0, 17.0 ],
					"outlettype" : [ "int", "bang" ],
					"fontsize" : 9.0,
					"minimum" : 1
				}

			}
, 			{
				"box" : 				{
					"maxclass" : "newobj",
					"text" : "pak 1 2",
					"numinlets" : 2,
					"id" : "obj-15",
					"fontname" : "Arial",
					"numoutlets" : 1,
					"patching_rect" : [ 32.0, 144.0, 40.0, 17.0 ],
					"outlettype" : [ "" ],
					"fontsize" : 9.0,
					"hidden" : 1
				}

			}
, 			{
				"box" : 				{
					"maxclass" : "message",
					"text" : "setminmax $1 $2",
					"numinlets" : 2,
					"id" : "obj-13",
					"fontname" : "Arial",
					"numoutlets" : 1,
					"patching_rect" : [ 32.0, 155.0, 79.0, 15.0 ],
					"outlettype" : [ "" ],
					"fontsize" : 9.0,
					"hidden" : 1
				}

			}
, 			{
				"box" : 				{
					"maxclass" : "rslider",
					"numinlets" : 2,
					"id" : "obj-12",
					"fgcolor" : [ 0.047059, 0.913725, 0.913725, 1.0 ],
					"size" : 2.0,
					"numoutlets" : 2,
					"patching_rect" : [ 28.0, 152.0, 127.0, 32.0 ],
					"outlettype" : [ "", "" ],
					"min" : 1,
					"floatoutput" : 1,
					"listmode" : 1
				}

			}
, 			{
				"box" : 				{
					"maxclass" : "flonum",
					"numinlets" : 1,
					"id" : "obj-7",
					"fontname" : "Arial",
					"numoutlets" : 2,
					"patching_rect" : [ 35.0, 317.0, 59.0, 23.0 ],
					"bgcolor" : [ 0.047059, 0.913725, 0.913725, 1.0 ],
					"outlettype" : [ "float", "bang" ],
					"fontsize" : 14.0
				}

			}
, 			{
				"box" : 				{
					"maxclass" : "comment",
					"text" : "On / Off",
					"numinlets" : 1,
					"id" : "obj-32",
					"fontname" : "Arial",
					"numoutlets" : 0,
					"patching_rect" : [ 26.0, 220.0, 41.0, 17.0 ],
					"fontsize" : 9.0
				}

			}
, 			{
				"box" : 				{
					"maxclass" : "comment",
					"text" : "Max rand time (ms)",
					"numinlets" : 1,
					"id" : "obj-27",
					"fontname" : "Arial",
					"numoutlets" : 0,
					"patching_rect" : [ 80.0, 220.0, 91.0, 17.0 ],
					"fontsize" : 9.0
				}

			}
, 			{
				"box" : 				{
					"maxclass" : "number",
					"numinlets" : 1,
					"id" : "obj-30",
					"fontname" : "Arial",
					"numoutlets" : 2,
					"patching_rect" : [ 94.0, 238.0, 50.0, 17.0 ],
					"outlettype" : [ "int", "bang" ],
					"fontsize" : 9.0
				}

			}
, 			{
				"box" : 				{
					"maxclass" : "toggle",
					"numinlets" : 1,
					"id" : "obj-31",
					"numoutlets" : 1,
					"patching_rect" : [ 35.0, 238.0, 20.0, 20.0 ],
					"outlettype" : [ "int" ]
				}

			}
, 			{
				"box" : 				{
					"maxclass" : "newobj",
					"text" : "p preset_interp_randomizer",
					"numinlets" : 3,
					"id" : "obj-26",
					"fontname" : "Arial",
					"numoutlets" : 1,
					"patching_rect" : [ 35.0, 262.0, 121.0, 17.0 ],
					"outlettype" : [ "" ],
					"fontsize" : 9.0,
					"patcher" : 					{
						"fileversion" : 1,
						"rect" : [ 673.0, 170.0, 747.0, 560.0 ],
						"bglocked" : 0,
						"defrect" : [ 673.0, 170.0, 747.0, 560.0 ],
						"openrect" : [ 0.0, 0.0, 0.0, 0.0 ],
						"openinpresentation" : 0,
						"default_fontsize" : 9.0,
						"default_fontface" : 0,
						"default_fontname" : "Arial",
						"gridonopen" : 0,
						"gridsize" : [ 15.0, 15.0 ],
						"gridsnaponopen" : 0,
						"toolbarvisible" : 0,
						"boxanimatetime" : 200,
						"imprint" : 0,
						"enablehscroll" : 1,
						"enablevscroll" : 1,
						"devicewidth" : 0.0,
						"boxes" : [ 							{
								"box" : 								{
									"maxclass" : "newobj",
									"text" : "unpack 0. 0.",
									"numinlets" : 1,
									"id" : "obj-2",
									"fontname" : "Arial",
									"numoutlets" : 2,
									"patching_rect" : [ 336.0, 89.0, 60.0, 17.0 ],
									"outlettype" : [ "float", "float" ],
									"fontsize" : 9.0
								}

							}
, 							{
								"box" : 								{
									"maxclass" : "inlet",
									"numinlets" : 0,
									"id" : "obj-1",
									"numoutlets" : 1,
									"patching_rect" : [ 336.0, 61.0, 25.0, 25.0 ],
									"outlettype" : [ "" ],
									"hidden" : 1,
									"comment" : ""
								}

							}
, 							{
								"box" : 								{
									"maxclass" : "newobj",
									"text" : "scale 0. 100. 1. 2.",
									"numinlets" : 6,
									"id" : "obj-10",
									"fontname" : "Arial",
									"numoutlets" : 1,
									"patching_rect" : [ 197.0, 285.0, 86.5, 17.0 ],
									"outlettype" : [ "" ],
									"fontsize" : 9.0
								}

							}
, 							{
								"box" : 								{
									"maxclass" : "inlet",
									"numinlets" : 0,
									"id" : "obj-44",
									"numoutlets" : 1,
									"patching_rect" : [ 245.0, 58.0, 25.0, 25.0 ],
									"outlettype" : [ "int" ],
									"hidden" : 1,
									"comment" : "max time"
								}

							}
, 							{
								"box" : 								{
									"maxclass" : "newobj",
									"text" : "random 101",
									"numinlets" : 2,
									"id" : "obj-7",
									"fontname" : "Arial",
									"numoutlets" : 1,
									"patching_rect" : [ 197.0, 255.0, 59.0, 17.0 ],
									"outlettype" : [ "int" ],
									"fontsize" : 9.0
								}

							}
, 							{
								"box" : 								{
									"maxclass" : "newobj",
									"text" : "t i i",
									"numinlets" : 1,
									"id" : "obj-15",
									"fontname" : "Arial",
									"numoutlets" : 2,
									"patching_rect" : [ 181.0, 94.0, 27.0, 17.0 ],
									"outlettype" : [ "int", "int" ],
									"fontsize" : 9.0
								}

							}
, 							{
								"box" : 								{
									"maxclass" : "number",
									"numinlets" : 1,
									"id" : "obj-16",
									"fontname" : "Arial",
									"triscale" : 0.9,
									"numoutlets" : 2,
									"patching_rect" : [ 198.0, 212.0, 48.0, 17.0 ],
									"bgcolor" : [ 0.866667, 0.866667, 0.866667, 1.0 ],
									"outlettype" : [ "int", "bang" ],
									"htextcolor" : [ 0.870588, 0.870588, 0.870588, 1.0 ],
									"fontsize" : 9.0
								}

							}
, 							{
								"box" : 								{
									"maxclass" : "newobj",
									"text" : "gate",
									"numinlets" : 2,
									"id" : "obj-33",
									"fontname" : "Arial",
									"numoutlets" : 1,
									"patching_rect" : [ 198.0, 149.0, 40.0, 17.0 ],
									"outlettype" : [ "" ],
									"fontsize" : 9.0
								}

							}
, 							{
								"box" : 								{
									"maxclass" : "button",
									"numinlets" : 1,
									"id" : "obj-18",
									"numoutlets" : 1,
									"patching_rect" : [ 228.0, 128.0, 15.0, 15.0 ],
									"outlettype" : [ "bang" ]
								}

							}
, 							{
								"box" : 								{
									"maxclass" : "newobj",
									"text" : "+ 100",
									"numinlets" : 2,
									"id" : "obj-19",
									"fontname" : "Arial",
									"numoutlets" : 1,
									"patching_rect" : [ 198.0, 193.0, 37.0, 17.0 ],
									"outlettype" : [ "int" ],
									"fontsize" : 9.0
								}

							}
, 							{
								"box" : 								{
									"maxclass" : "newobj",
									"text" : "random 10000",
									"numinlets" : 2,
									"id" : "obj-34",
									"fontname" : "Arial",
									"numoutlets" : 1,
									"patching_rect" : [ 198.0, 172.0, 69.0, 17.0 ],
									"outlettype" : [ "int" ],
									"fontsize" : 9.0
								}

							}
, 							{
								"box" : 								{
									"maxclass" : "newobj",
									"text" : "delay 500",
									"numinlets" : 2,
									"id" : "obj-21",
									"fontname" : "Arial",
									"numoutlets" : 1,
									"patching_rect" : [ 198.0, 229.0, 55.0, 17.0 ],
									"outlettype" : [ "bang" ],
									"fontsize" : 9.0
								}

							}
, 							{
								"box" : 								{
									"maxclass" : "inlet",
									"numinlets" : 0,
									"id" : "obj-17",
									"numoutlets" : 1,
									"patching_rect" : [ 181.0, 58.0, 25.0, 25.0 ],
									"outlettype" : [ "int" ],
									"hidden" : 1,
									"comment" : ""
								}

							}
, 							{
								"box" : 								{
									"maxclass" : "outlet",
									"numinlets" : 1,
									"id" : "obj-20",
									"numoutlets" : 0,
									"patching_rect" : [ 197.0, 357.0, 25.0, 25.0 ],
									"hidden" : 1,
									"comment" : ""
								}

							}
 ],
						"lines" : [ 							{
								"patchline" : 								{
									"source" : [ "obj-10", 0 ],
									"destination" : [ "obj-20", 0 ],
									"hidden" : 0,
									"midpoints" : [  ]
								}

							}
, 							{
								"patchline" : 								{
									"source" : [ "obj-2", 1 ],
									"destination" : [ "obj-10", 4 ],
									"hidden" : 0,
									"midpoints" : [ 386.5, 278.0, 260.5, 278.0 ]
								}

							}
, 							{
								"patchline" : 								{
									"source" : [ "obj-2", 0 ],
									"destination" : [ "obj-10", 3 ],
									"hidden" : 0,
									"midpoints" : [ 345.5, 278.0, 247.0, 278.0 ]
								}

							}
, 							{
								"patchline" : 								{
									"source" : [ "obj-1", 0 ],
									"destination" : [ "obj-2", 0 ],
									"hidden" : 0,
									"midpoints" : [  ]
								}

							}
, 							{
								"patchline" : 								{
									"source" : [ "obj-7", 0 ],
									"destination" : [ "obj-10", 0 ],
									"hidden" : 0,
									"midpoints" : [  ]
								}

							}
, 							{
								"patchline" : 								{
									"source" : [ "obj-21", 0 ],
									"destination" : [ "obj-7", 0 ],
									"hidden" : 0,
									"midpoints" : [  ]
								}

							}
, 							{
								"patchline" : 								{
									"source" : [ "obj-33", 0 ],
									"destination" : [ "obj-34", 0 ],
									"hidden" : 0,
									"midpoints" : [  ]
								}

							}
, 							{
								"patchline" : 								{
									"source" : [ "obj-34", 0 ],
									"destination" : [ "obj-19", 0 ],
									"hidden" : 0,
									"midpoints" : [  ]
								}

							}
, 							{
								"patchline" : 								{
									"source" : [ "obj-15", 1 ],
									"destination" : [ "obj-33", 0 ],
									"hidden" : 0,
									"midpoints" : [  ]
								}

							}
, 							{
								"patchline" : 								{
									"source" : [ "obj-19", 0 ],
									"destination" : [ "obj-16", 0 ],
									"hidden" : 0,
									"midpoints" : [  ]
								}

							}
, 							{
								"patchline" : 								{
									"source" : [ "obj-16", 0 ],
									"destination" : [ "obj-21", 0 ],
									"hidden" : 0,
									"midpoints" : [  ]
								}

							}
, 							{
								"patchline" : 								{
									"source" : [ "obj-21", 0 ],
									"destination" : [ "obj-18", 0 ],
									"hidden" : 0,
									"midpoints" : [ 207.5, 251.0, 284.0, 251.0, 284.0, 121.0, 237.0, 121.0 ]
								}

							}
, 							{
								"patchline" : 								{
									"source" : [ "obj-15", 0 ],
									"destination" : [ "obj-18", 0 ],
									"hidden" : 0,
									"midpoints" : [ 190.5, 116.0, 237.0, 116.0 ]
								}

							}
, 							{
								"patchline" : 								{
									"source" : [ "obj-18", 0 ],
									"destination" : [ "obj-33", 1 ],
									"hidden" : 0,
									"midpoints" : [  ]
								}

							}
, 							{
								"patchline" : 								{
									"source" : [ "obj-17", 0 ],
									"destination" : [ "obj-15", 0 ],
									"hidden" : 0,
									"midpoints" : [  ]
								}

							}
, 							{
								"patchline" : 								{
									"source" : [ "obj-44", 0 ],
									"destination" : [ "obj-34", 1 ],
									"hidden" : 0,
									"midpoints" : [  ]
								}

							}
 ]
					}
,
					"saved_object_attributes" : 					{
						"default_fontface" : 0,
						"fontname" : "Arial",
						"default_fontname" : "Arial",
						"globalpatchername" : "",
						"default_fontsize" : 9.0,
						"fontface" : 0,
						"fontsize" : 9.0
					}

				}

			}
, 			{
				"box" : 				{
					"maxclass" : "panel",
					"numinlets" : 1,
					"id" : "obj-40",
					"numoutlets" : 0,
					"patching_rect" : [ 20.0, 81.0, 158.0, 211.0 ],
					"bgcolor" : [ 1.0, 1.0, 1.0, 1.0 ],
					"border" : 1
				}

			}
, 			{
				"box" : 				{
					"maxclass" : "number",
					"numinlets" : 1,
					"id" : "obj-3",
					"fontname" : "Arial",
					"triscale" : 0.9,
					"numoutlets" : 2,
					"patching_rect" : [ 35.0, 41.0, 35.0, 17.0 ],
					"bgcolor" : [ 0.866667, 0.866667, 0.866667, 1.0 ],
					"outlettype" : [ "int", "bang" ],
					"htextcolor" : [ 0.870588, 0.870588, 0.870588, 1.0 ],
					"fontsize" : 9.0
				}

			}
, 			{
				"box" : 				{
					"maxclass" : "outlet",
					"numinlets" : 1,
					"id" : "obj-4",
					"numoutlets" : 0,
					"patching_rect" : [ 35.0, 361.0, 15.0, 15.0 ],
					"comment" : ""
				}

			}
, 			{
				"box" : 				{
					"maxclass" : "inlet",
					"numinlets" : 0,
					"id" : "obj-5",
					"numoutlets" : 1,
					"patching_rect" : [ 35.0, 24.0, 15.0, 15.0 ],
					"outlettype" : [ "" ],
					"comment" : ""
				}

			}
 ],
		"lines" : [ 			{
				"patchline" : 				{
					"source" : [ "obj-46", 0 ],
					"destination" : [ "obj-36", 0 ],
					"hidden" : 1,
					"midpoints" : [  ]
				}

			}
, 			{
				"patchline" : 				{
					"source" : [ "obj-45", 0 ],
					"destination" : [ "obj-36", 0 ],
					"hidden" : 1,
					"midpoints" : [  ]
				}

			}
, 			{
				"patchline" : 				{
					"source" : [ "obj-43", 0 ],
					"destination" : [ "obj-15", 1 ],
					"hidden" : 1,
					"midpoints" : [  ]
				}

			}
, 			{
				"patchline" : 				{
					"source" : [ "obj-17", 0 ],
					"destination" : [ "obj-43", 0 ],
					"hidden" : 1,
					"midpoints" : [  ]
				}

			}
, 			{
				"patchline" : 				{
					"source" : [ "obj-36", 0 ],
					"destination" : [ "obj-12", 0 ],
					"hidden" : 1,
					"midpoints" : [  ]
				}

			}
, 			{
				"patchline" : 				{
					"source" : [ "obj-36", 0 ],
					"destination" : [ "obj-30", 0 ],
					"hidden" : 1,
					"midpoints" : [  ]
				}

			}
, 			{
				"patchline" : 				{
					"source" : [ "obj-25", 2 ],
					"destination" : [ "obj-30", 0 ],
					"hidden" : 1,
					"midpoints" : [ 328.5, 237.0, 103.5, 237.0 ]
				}

			}
, 			{
				"patchline" : 				{
					"source" : [ "obj-24", 0 ],
					"destination" : [ "obj-25", 0 ],
					"hidden" : 1,
					"midpoints" : [  ]
				}

			}
, 			{
				"patchline" : 				{
					"source" : [ "obj-25", 0 ],
					"destination" : [ "obj-16", 0 ],
					"hidden" : 1,
					"midpoints" : [ 270.5, 74.0, 35.5, 74.0 ]
				}

			}
, 			{
				"patchline" : 				{
					"source" : [ "obj-25", 1 ],
					"destination" : [ "obj-17", 0 ],
					"hidden" : 1,
					"midpoints" : [ 299.5, 85.0, 124.5, 85.0 ]
				}

			}
, 			{
				"patchline" : 				{
					"source" : [ "obj-36", 0 ],
					"destination" : [ "obj-17", 0 ],
					"hidden" : 1,
					"midpoints" : [  ]
				}

			}
, 			{
				"patchline" : 				{
					"source" : [ "obj-36", 0 ],
					"destination" : [ "obj-16", 0 ],
					"hidden" : 1,
					"midpoints" : [  ]
				}

			}
, 			{
				"patchline" : 				{
					"source" : [ "obj-7", 0 ],
					"destination" : [ "obj-4", 0 ],
					"hidden" : 0,
					"midpoints" : [  ]
				}

			}
, 			{
				"patchline" : 				{
					"source" : [ "obj-12", 0 ],
					"destination" : [ "obj-26", 2 ],
					"hidden" : 1,
					"midpoints" : [  ]
				}

			}
, 			{
				"patchline" : 				{
					"source" : [ "obj-15", 0 ],
					"destination" : [ "obj-13", 0 ],
					"hidden" : 1,
					"midpoints" : [  ]
				}

			}
, 			{
				"patchline" : 				{
					"source" : [ "obj-16", 0 ],
					"destination" : [ "obj-15", 0 ],
					"hidden" : 1,
					"midpoints" : [  ]
				}

			}
, 			{
				"patchline" : 				{
					"source" : [ "obj-12", 0 ],
					"destination" : [ "obj-20", 1 ],
					"hidden" : 1,
					"midpoints" : [ 37.5, 187.0, 129.5, 187.0 ]
				}

			}
, 			{
				"patchline" : 				{
					"source" : [ "obj-13", 0 ],
					"destination" : [ "obj-12", 0 ],
					"hidden" : 1,
					"midpoints" : [  ]
				}

			}
, 			{
				"patchline" : 				{
					"source" : [ "obj-26", 0 ],
					"destination" : [ "obj-7", 0 ],
					"hidden" : 1,
					"midpoints" : [  ]
				}

			}
, 			{
				"patchline" : 				{
					"source" : [ "obj-31", 0 ],
					"destination" : [ "obj-26", 0 ],
					"hidden" : 1,
					"midpoints" : [  ]
				}

			}
, 			{
				"patchline" : 				{
					"source" : [ "obj-30", 0 ],
					"destination" : [ "obj-26", 1 ],
					"hidden" : 1,
					"midpoints" : [  ]
				}

			}
, 			{
				"patchline" : 				{
					"source" : [ "obj-5", 0 ],
					"destination" : [ "obj-3", 0 ],
					"hidden" : 0,
					"midpoints" : [  ]
				}

			}
 ]
	}

}
