{
	"patcher" : 	{
		"fileversion" : 1,
		"rect" : [ 300.0, 119.0, 961.0, 700.0 ],
		"bgcolor" : [ 1.0, 0.727539, 0.4375, 1.0 ],
		"bglocked" : 0,
		"defrect" : [ 300.0, 119.0, 961.0, 700.0 ],
		"openrect" : [ 0.0, 0.0, 0.0, 0.0 ],
		"openinpresentation" : 0,
		"default_fontsize" : 9.0,
		"default_fontface" : 0,
		"default_fontname" : "Arial",
		"gridonopen" : 0,
		"gridsize" : [ 15.0, 15.0 ],
		"gridsnaponopen" : 0,
		"toolbarvisible" : 1,
		"boxanimatetime" : 200,
		"imprint" : 0,
		"enablehscroll" : 1,
		"enablevscroll" : 1,
		"devicewidth" : 0.0,
		"boxes" : [ 			{
				"box" : 				{
					"maxclass" : "newobj",
					"text" : "bgcolor 1. 0.727539 0.4375 1.",
					"patching_rect" : [ 705.0, 166.0, 143.0, 18.0 ],
					"numoutlets" : 0,
					"fontname" : "Arial",
					"hidden" : 1,
					"id" : "obj-12",
					"fontsize" : 10.0,
					"numinlets" : 4
				}

			}
, 			{
				"box" : 				{
					"maxclass" : "bpatcher",
					"patching_rect" : [ 703.0, 9.0, 224.0, 110.0 ],
					"numoutlets" : 0,
					"offset" : [ 1.0, 2.0 ],
					"lockeddragscroll" : 1,
					"id" : "obj-133",
					"args" : [  ],
					"name" : "_SDT_label.maxpat",
					"numinlets" : 0
				}

			}
, 			{
				"box" : 				{
					"maxclass" : "comment",
					"text" : "friction_modalb_wg~",
					"patching_rect" : [ 704.0, 119.0, 141.0, 23.0 ],
					"numoutlets" : 0,
					"textcolor" : [ 0.988235, 0.501961, 0.0, 1.0 ],
					"fontname" : "Arial",
					"frgb" : [ 0.988235, 0.501961, 0.0, 1.0 ],
					"id" : "obj-2",
					"fontsize" : 14.0,
					"numinlets" : 1
				}

			}
, 			{
				"box" : 				{
					"maxclass" : "number~",
					"patching_rect" : [ 352.0, 607.0, 63.0, 17.0 ],
					"bgcolor" : [ 0.866667, 0.866667, 0.866667, 1.0 ],
					"numoutlets" : 2,
					"sig" : 0.0,
					"outlettype" : [ "signal", "float" ],
					"fontname" : "Arial",
					"htextcolor" : [ 0.870588, 0.870588, 0.870588, 1.0 ],
					"mode" : 2,
					"id" : "obj-1",
					"interval" : 250.0,
					"fontsize" : 9.0,
					"numinlets" : 2
				}

			}
, 			{
				"box" : 				{
					"maxclass" : "message",
					"text" : "str_mass2 0.08",
					"patching_rect" : [ 776.0, 643.0, 73.0, 15.0 ],
					"numoutlets" : 1,
					"outlettype" : [ "" ],
					"fontname" : "Arial",
					"id" : "obj-3",
					"fontsize" : 9.0,
					"numinlets" : 2
				}

			}
, 			{
				"box" : 				{
					"maxclass" : "message",
					"text" : "str_tension2 1000.",
					"patching_rect" : [ 776.0, 622.0, 85.0, 15.0 ],
					"numoutlets" : 1,
					"outlettype" : [ "" ],
					"fontname" : "Arial",
					"id" : "obj-4",
					"fontsize" : 9.0,
					"numinlets" : 2
				}

			}
, 			{
				"box" : 				{
					"maxclass" : "message",
					"text" : "str_length2 1.",
					"patching_rect" : [ 776.0, 601.0, 65.0, 15.0 ],
					"numoutlets" : 1,
					"outlettype" : [ "" ],
					"fontname" : "Arial",
					"id" : "obj-5",
					"fontsize" : 9.0,
					"numinlets" : 2
				}

			}
, 			{
				"box" : 				{
					"maxclass" : "message",
					"text" : "contact_pos2 0.5",
					"patching_rect" : [ 776.0, 574.0, 80.0, 15.0 ],
					"numoutlets" : 1,
					"outlettype" : [ "" ],
					"fontname" : "Arial",
					"id" : "obj-6",
					"fontsize" : 9.0,
					"numinlets" : 2
				}

			}
, 			{
				"box" : 				{
					"maxclass" : "message",
					"text" : "mode_contribs1 0 0.1",
					"patching_rect" : [ 203.0, 706.0, 98.0, 15.0 ],
					"numoutlets" : 1,
					"outlettype" : [ "" ],
					"fontname" : "Arial",
					"id" : "obj-7",
					"fontsize" : 9.0,
					"numinlets" : 2
				}

			}
, 			{
				"box" : 				{
					"maxclass" : "message",
					"text" : "mode_ts1 2",
					"patching_rect" : [ 222.0, 676.0, 57.0, 15.0 ],
					"numoutlets" : 1,
					"outlettype" : [ "" ],
					"fontname" : "Arial",
					"id" : "obj-8",
					"fontsize" : 9.0,
					"numinlets" : 2
				}

			}
, 			{
				"box" : 				{
					"maxclass" : "message",
					"text" : "mode_freqs1 0.1",
					"patching_rect" : [ 200.0, 656.0, 79.0, 15.0 ],
					"numoutlets" : 1,
					"outlettype" : [ "" ],
					"fontname" : "Arial",
					"id" : "obj-9",
					"fontsize" : 9.0,
					"numinlets" : 2
				}

			}
, 			{
				"box" : 				{
					"maxclass" : "message",
					"text" : "base1 1. 1. 1.",
					"patching_rect" : [ 235.0, 636.0, 66.0, 15.0 ],
					"numoutlets" : 1,
					"outlettype" : [ "" ],
					"fontname" : "Arial",
					"id" : "obj-10",
					"fontsize" : 9.0,
					"numinlets" : 2
				}

			}
, 			{
				"box" : 				{
					"maxclass" : "message",
					"text" : "nteract_pressr 10000. 10. 0.4 0.2 0.4 0.7 0.1 1. 0.1",
					"patching_rect" : [ 625.0, 217.0, 222.0, 15.0 ],
					"numoutlets" : 1,
					"outlettype" : [ "" ],
					"fontname" : "Arial",
					"id" : "obj-11",
					"fontsize" : 9.0,
					"numinlets" : 2
				}

			}
, 			{
				"box" : 				{
					"maxclass" : "comment",
					"text" : "noise",
					"patching_rect" : [ 566.0, 56.0, 32.0, 18.0 ],
					"numoutlets" : 0,
					"fontname" : "Arial",
					"id" : "obj-17",
					"fontsize" : 10.0,
					"numinlets" : 1
				}

			}
, 			{
				"box" : 				{
					"maxclass" : "comment",
					"text" : "Stribeck velocity (v_s)",
					"linecount" : 3,
					"patching_rect" : [ 464.0, 30.0, 47.0, 41.0 ],
					"numoutlets" : 0,
					"fontname" : "Arial",
					"id" : "obj-18",
					"fontsize" : 10.0,
					"numinlets" : 1
				}

			}
, 			{
				"box" : 				{
					"maxclass" : "comment",
					"text" : "break-away coeff (c_ba)",
					"linecount" : 3,
					"patching_rect" : [ 391.0, 30.0, 56.0, 41.0 ],
					"numoutlets" : 0,
					"fontname" : "Arial",
					"id" : "obj-19",
					"fontsize" : 10.0,
					"numinlets" : 1
				}

			}
, 			{
				"box" : 				{
					"maxclass" : "comment",
					"text" : "static_frict coeff (mu_s)",
					"linecount" : 3,
					"patching_rect" : [ 308.0, 30.0, 56.0, 41.0 ],
					"numoutlets" : 0,
					"fontname" : "Arial",
					"id" : "obj-20",
					"fontsize" : 10.0,
					"numinlets" : 1
				}

			}
, 			{
				"box" : 				{
					"maxclass" : "comment",
					"text" : "dyn_frict coeff (mu_d)",
					"linecount" : 3,
					"patching_rect" : [ 250.0, 30.0, 52.0, 41.0 ],
					"numoutlets" : 0,
					"fontname" : "Arial",
					"id" : "obj-21",
					"fontsize" : 10.0,
					"numinlets" : 1
				}

			}
, 			{
				"box" : 				{
					"maxclass" : "comment",
					"text" : "linear viscosity (sigma2)",
					"linecount" : 3,
					"patching_rect" : [ 161.0, 30.0, 61.0, 41.0 ],
					"numoutlets" : 0,
					"fontname" : "Arial",
					"id" : "obj-22",
					"fontsize" : 10.0,
					"numinlets" : 1
				}

			}
, 			{
				"box" : 				{
					"maxclass" : "comment",
					"text" : "bristle viscosity (sigma1)",
					"linecount" : 3,
					"patching_rect" : [ 92.0, 30.0, 61.0, 41.0 ],
					"numoutlets" : 0,
					"fontname" : "Arial",
					"id" : "obj-23",
					"fontsize" : 10.0,
					"numinlets" : 1
				}

			}
, 			{
				"box" : 				{
					"maxclass" : "comment",
					"text" : "bristle stiffness (sigma0)",
					"linecount" : 3,
					"patching_rect" : [ 24.0, 30.0, 53.0, 41.0 ],
					"numoutlets" : 0,
					"fontname" : "Arial",
					"id" : "obj-24",
					"fontsize" : 10.0,
					"numinlets" : 1
				}

			}
, 			{
				"box" : 				{
					"maxclass" : "slider",
					"patching_rect" : [ 14.0, 474.0, 67.0, 22.0 ],
					"numoutlets" : 1,
					"orientation" : 1,
					"outlettype" : [ "" ],
					"id" : "obj-25",
					"numinlets" : 1
				}

			}
, 			{
				"box" : 				{
					"maxclass" : "newobj",
					"text" : "t b f",
					"patching_rect" : [ 34.0, 529.0, 29.0, 17.0 ],
					"numoutlets" : 2,
					"outlettype" : [ "bang", "float" ],
					"fontname" : "Arial",
					"hidden" : 1,
					"id" : "obj-26",
					"fontsize" : 9.0,
					"numinlets" : 1
				}

			}
, 			{
				"box" : 				{
					"maxclass" : "newobj",
					"text" : "expr pow($f1 \\, -1)",
					"linecount" : 2,
					"patching_rect" : [ 145.0, 468.0, 78.0, 27.0 ],
					"numoutlets" : 1,
					"outlettype" : [ "" ],
					"fontname" : "Arial",
					"hidden" : 1,
					"id" : "obj-27",
					"fontsize" : 9.0,
					"numinlets" : 1
				}

			}
, 			{
				"box" : 				{
					"maxclass" : "newobj",
					"text" : "scale 0 127 1. 167. 1.06",
					"patching_rect" : [ 34.0, 507.0, 123.0, 17.0 ],
					"numoutlets" : 1,
					"outlettype" : [ "" ],
					"fontname" : "Arial",
					"hidden" : 1,
					"id" : "obj-28",
					"fontsize" : 9.0,
					"numinlets" : 6
				}

			}
, 			{
				"box" : 				{
					"maxclass" : "message",
					"text" : "69",
					"patching_rect" : [ 9.0, 454.0, 19.0, 15.0 ],
					"numoutlets" : 1,
					"outlettype" : [ "" ],
					"fontname" : "Arial",
					"hidden" : 1,
					"id" : "obj-29",
					"fontsize" : 9.0,
					"numinlets" : 2
				}

			}
, 			{
				"box" : 				{
					"maxclass" : "flonum",
					"patching_rect" : [ 103.0, 480.0, 40.0, 17.0 ],
					"bgcolor" : [ 0.866667, 0.866667, 0.866667, 1.0 ],
					"numoutlets" : 2,
					"outlettype" : [ "float", "bang" ],
					"fontname" : "Arial",
					"htextcolor" : [ 0.870588, 0.870588, 0.870588, 1.0 ],
					"triscale" : 0.9,
					"id" : "obj-30",
					"fontsize" : 9.0,
					"numinlets" : 1
				}

			}
, 			{
				"box" : 				{
					"maxclass" : "newobj",
					"text" : "pack 0 1.",
					"patching_rect" : [ 34.0, 554.0, 47.0, 17.0 ],
					"numoutlets" : 1,
					"outlettype" : [ "" ],
					"fontname" : "Arial",
					"id" : "obj-31",
					"fontsize" : 9.0,
					"numinlets" : 2
				}

			}
, 			{
				"box" : 				{
					"maxclass" : "comment",
					"text" : "bow mass (in Kg)",
					"linecount" : 2,
					"patching_rect" : [ 34.0, 447.0, 52.0, 27.0 ],
					"numoutlets" : 0,
					"fontname" : "Arial",
					"id" : "obj-32",
					"fontsize" : 9.0,
					"numinlets" : 1
				}

			}
, 			{
				"box" : 				{
					"maxclass" : "message",
					"text" : "0.5",
					"patching_rect" : [ 697.0, 301.0, 21.0, 15.0 ],
					"numoutlets" : 1,
					"outlettype" : [ "" ],
					"fontname" : "Arial",
					"hidden" : 1,
					"id" : "obj-33",
					"fontsize" : 9.0,
					"numinlets" : 2
				}

			}
, 			{
				"box" : 				{
					"maxclass" : "comment",
					"text" : "(waveguide object)",
					"patching_rect" : [ 769.0, 268.0, 103.0, 17.0 ],
					"numoutlets" : 0,
					"fontname" : "Arial",
					"id" : "obj-34",
					"fontsize" : 9.0,
					"numinlets" : 1
				}

			}
, 			{
				"box" : 				{
					"maxclass" : "comment",
					"text" : "contact position",
					"linecount" : 2,
					"patching_rect" : [ 863.0, 299.0, 52.0, 27.0 ],
					"numoutlets" : 0,
					"fontname" : "Arial",
					"id" : "obj-35",
					"fontsize" : 9.0,
					"numinlets" : 1
				}

			}
, 			{
				"box" : 				{
					"maxclass" : "comment",
					"text" : "string controls",
					"patching_rect" : [ 636.0, 265.0, 204.0, 26.0 ],
					"numoutlets" : 0,
					"fontname" : "Arial Black",
					"id" : "obj-36",
					"fontsize" : 14.0,
					"numinlets" : 1
				}

			}
, 			{
				"box" : 				{
					"maxclass" : "panel",
					"varname" : "String",
					"patching_rect" : [ 620.0, 263.0, 283.0, 26.0 ],
					"bgcolor" : [ 1.0, 0.752941, 0.231373, 1.0 ],
					"numoutlets" : 0,
					"rounded" : 0,
					"id" : "obj-37",
					"border" : 1,
					"bordercolor" : [ 1.0, 1.0, 1.0, 1.0 ],
					"numinlets" : 1
				}

			}
, 			{
				"box" : 				{
					"maxclass" : "comment",
					"text" : "mass (in Kg)",
					"linecount" : 2,
					"patching_rect" : [ 792.0, 288.0, 38.0, 27.0 ],
					"numoutlets" : 0,
					"fontname" : "Arial",
					"id" : "obj-38",
					"fontsize" : 9.0,
					"numinlets" : 1
				}

			}
, 			{
				"box" : 				{
					"maxclass" : "comment",
					"text" : "tension (in N)",
					"linecount" : 2,
					"patching_rect" : [ 722.0, 290.0, 40.0, 27.0 ],
					"numoutlets" : 0,
					"fontname" : "Arial",
					"id" : "obj-39",
					"fontsize" : 9.0,
					"numinlets" : 1
				}

			}
, 			{
				"box" : 				{
					"maxclass" : "newobj",
					"text" : "* 0.1",
					"patching_rect" : [ 818.0, 414.0, 42.0, 17.0 ],
					"numoutlets" : 1,
					"outlettype" : [ "float" ],
					"fontname" : "Arial",
					"hidden" : 1,
					"id" : "obj-40",
					"fontsize" : 9.0,
					"numinlets" : 2
				}

			}
, 			{
				"box" : 				{
					"maxclass" : "jsui",
					"patching_rect" : [ 792.0, 318.0, 24.0, 116.0 ],
					"numoutlets" : 1,
					"outlettype" : [ "" ],
					"jsarguments" : [  ],
					"id" : "obj-41",
					"filename" : "jsui_splineslider.js",
					"numinlets" : 1
				}

			}
, 			{
				"box" : 				{
					"maxclass" : "newobj",
					"text" : "* 1000.",
					"patching_rect" : [ 747.0, 415.0, 52.0, 17.0 ],
					"numoutlets" : 1,
					"outlettype" : [ "float" ],
					"fontname" : "Arial",
					"hidden" : 1,
					"id" : "obj-42",
					"fontsize" : 9.0,
					"numinlets" : 2
				}

			}
, 			{
				"box" : 				{
					"maxclass" : "jsui",
					"patching_rect" : [ 721.0, 319.0, 24.0, 116.0 ],
					"numoutlets" : 1,
					"outlettype" : [ "" ],
					"jsarguments" : [  ],
					"id" : "obj-43",
					"filename" : "jsui_splineslider.js",
					"numinlets" : 1
				}

			}
, 			{
				"box" : 				{
					"maxclass" : "message",
					"text" : "0.2",
					"patching_rect" : [ 839.0, 299.0, 21.0, 15.0 ],
					"numoutlets" : 1,
					"outlettype" : [ "" ],
					"fontname" : "Arial",
					"hidden" : 1,
					"id" : "obj-44",
					"fontsize" : 9.0,
					"numinlets" : 2
				}

			}
, 			{
				"box" : 				{
					"maxclass" : "flonum",
					"patching_rect" : [ 863.0, 497.0, 35.0, 17.0 ],
					"minimum" : 0.01,
					"bgcolor" : [ 0.866667, 0.866667, 0.866667, 1.0 ],
					"numoutlets" : 2,
					"maximum" : 0.99,
					"outlettype" : [ "float", "bang" ],
					"fontname" : "Arial",
					"htextcolor" : [ 0.870588, 0.870588, 0.870588, 1.0 ],
					"cantchange" : 1,
					"triscale" : 0.9,
					"id" : "obj-45",
					"fontsize" : 9.0,
					"numinlets" : 1
				}

			}
, 			{
				"box" : 				{
					"maxclass" : "flonum",
					"patching_rect" : [ 791.0, 438.0, 39.0, 17.0 ],
					"minimum" : 0.0005,
					"bgcolor" : [ 0.866667, 0.866667, 0.866667, 1.0 ],
					"numoutlets" : 2,
					"maximum" : 0.1,
					"outlettype" : [ "float", "bang" ],
					"fontname" : "Arial",
					"htextcolor" : [ 0.870588, 0.870588, 0.870588, 1.0 ],
					"cantchange" : 1,
					"triscale" : 0.9,
					"id" : "obj-46",
					"fontsize" : 9.0,
					"numinlets" : 1
				}

			}
, 			{
				"box" : 				{
					"maxclass" : "flonum",
					"patching_rect" : [ 721.0, 439.0, 35.0, 17.0 ],
					"minimum" : 1.0,
					"bgcolor" : [ 0.866667, 0.866667, 0.866667, 1.0 ],
					"numoutlets" : 2,
					"maximum" : 1000.0,
					"outlettype" : [ "float", "bang" ],
					"fontname" : "Arial",
					"htextcolor" : [ 0.870588, 0.870588, 0.870588, 1.0 ],
					"cantchange" : 1,
					"triscale" : 0.9,
					"id" : "obj-47",
					"fontsize" : 9.0,
					"numinlets" : 1
				}

			}
, 			{
				"box" : 				{
					"maxclass" : "newobj",
					"text" : "* 2.",
					"patching_rect" : [ 680.0, 413.0, 27.0, 17.0 ],
					"numoutlets" : 1,
					"outlettype" : [ "float" ],
					"fontname" : "Arial",
					"hidden" : 1,
					"id" : "obj-48",
					"fontsize" : 9.0,
					"numinlets" : 2
				}

			}
, 			{
				"box" : 				{
					"maxclass" : "flonum",
					"patching_rect" : [ 654.0, 439.0, 35.0, 17.0 ],
					"minimum" : 0.05,
					"bgcolor" : [ 0.866667, 0.866667, 0.866667, 1.0 ],
					"numoutlets" : 2,
					"outlettype" : [ "float", "bang" ],
					"fontname" : "Arial",
					"htextcolor" : [ 0.870588, 0.870588, 0.870588, 1.0 ],
					"triscale" : 0.9,
					"id" : "obj-49",
					"fontsize" : 9.0,
					"numinlets" : 1
				}

			}
, 			{
				"box" : 				{
					"maxclass" : "jsui",
					"patching_rect" : [ 654.0, 319.0, 24.0, 116.0 ],
					"numoutlets" : 1,
					"outlettype" : [ "" ],
					"jsarguments" : [  ],
					"id" : "obj-50",
					"filename" : "jsui_splineslider.js",
					"numinlets" : 1
				}

			}
, 			{
				"box" : 				{
					"maxclass" : "message",
					"text" : "0.0136",
					"patching_rect" : [ 764.0, 300.0, 50.0, 15.0 ],
					"numoutlets" : 1,
					"outlettype" : [ "" ],
					"fontname" : "Arial",
					"hidden" : 1,
					"id" : "obj-51",
					"fontsize" : 9.0,
					"numinlets" : 2
				}

			}
, 			{
				"box" : 				{
					"maxclass" : "message",
					"text" : "0.22",
					"patching_rect" : [ 620.0, 301.0, 31.0, 15.0 ],
					"numoutlets" : 1,
					"outlettype" : [ "" ],
					"fontname" : "Arial",
					"hidden" : 1,
					"id" : "obj-52",
					"fontsize" : 9.0,
					"numinlets" : 2
				}

			}
, 			{
				"box" : 				{
					"maxclass" : "comment",
					"text" : "length (in m)",
					"linecount" : 2,
					"patching_rect" : [ 653.0, 291.0, 44.0, 27.0 ],
					"numoutlets" : 0,
					"fontname" : "Arial",
					"id" : "obj-53",
					"fontsize" : 9.0,
					"numinlets" : 1
				}

			}
, 			{
				"box" : 				{
					"maxclass" : "jsui",
					"patching_rect" : [ 863.0, 314.0, 27.0, 198.0 ],
					"numoutlets" : 1,
					"outlettype" : [ "" ],
					"jsarguments" : [ 64, 64, 64, 255, 255, 255, 128, 128, 128, 2, 0 ],
					"id" : "obj-54",
					"border" : 0,
					"filename" : "jsui_simpleslider.js",
					"numinlets" : 1
				}

			}
, 			{
				"box" : 				{
					"maxclass" : "message",
					"text" : "74",
					"patching_rect" : [ 651.0, 573.0, 19.0, 15.0 ],
					"numoutlets" : 1,
					"outlettype" : [ "" ],
					"fontname" : "Arial",
					"hidden" : 1,
					"id" : "obj-55",
					"fontsize" : 9.0,
					"numinlets" : 2
				}

			}
, 			{
				"box" : 				{
					"maxclass" : "newobj",
					"text" : "scale 0 127 1000 8000",
					"linecount" : 4,
					"patching_rect" : [ 694.0, 590.0, 34.0, 48.0 ],
					"numoutlets" : 1,
					"outlettype" : [ "" ],
					"fontname" : "Arial",
					"hidden" : 1,
					"id" : "obj-56",
					"fontsize" : 9.0,
					"numinlets" : 6
				}

			}
, 			{
				"box" : 				{
					"maxclass" : "flonum",
					"patching_rect" : [ 671.0, 654.0, 35.0, 17.0 ],
					"bgcolor" : [ 0.866667, 0.866667, 0.866667, 1.0 ],
					"numoutlets" : 2,
					"outlettype" : [ "float", "bang" ],
					"fontname" : "Arial",
					"hidden" : 1,
					"htextcolor" : [ 0.870588, 0.870588, 0.870588, 1.0 ],
					"triscale" : 0.9,
					"id" : "obj-57",
					"fontsize" : 9.0,
					"numinlets" : 1
				}

			}
, 			{
				"box" : 				{
					"maxclass" : "slider",
					"patching_rect" : [ 671.0, 573.0, 22.0, 77.0 ],
					"numoutlets" : 1,
					"orientation" : 2,
					"outlettype" : [ "" ],
					"hidden" : 1,
					"id" : "obj-58",
					"numinlets" : 1
				}

			}
, 			{
				"box" : 				{
					"maxclass" : "newobj",
					"text" : "*~",
					"patching_rect" : [ 619.0, 538.0, 27.0, 17.0 ],
					"numoutlets" : 1,
					"outlettype" : [ "signal" ],
					"fontname" : "Arial",
					"id" : "obj-59",
					"fontsize" : 9.0,
					"numinlets" : 2
				}

			}
, 			{
				"box" : 				{
					"maxclass" : "message",
					"text" : "60",
					"patching_rect" : [ 47.0, 292.0, 19.0, 15.0 ],
					"numoutlets" : 1,
					"outlettype" : [ "" ],
					"fontname" : "Arial",
					"hidden" : 1,
					"id" : "obj-60",
					"fontsize" : 9.0,
					"numinlets" : 2
				}

			}
, 			{
				"box" : 				{
					"maxclass" : "newobj",
					"text" : "scale 0 127 -3. 3.",
					"linecount" : 3,
					"patching_rect" : [ 22.0, 334.0, 40.0, 38.0 ],
					"numoutlets" : 1,
					"outlettype" : [ "" ],
					"fontname" : "Arial",
					"hidden" : 1,
					"id" : "obj-61",
					"fontsize" : 9.0,
					"numinlets" : 6
				}

			}
, 			{
				"box" : 				{
					"maxclass" : "message",
					"text" : "31",
					"patching_rect" : [ 400.0, 290.0, 19.0, 15.0 ],
					"numoutlets" : 1,
					"outlettype" : [ "" ],
					"fontname" : "Arial",
					"hidden" : 1,
					"id" : "obj-62",
					"fontsize" : 9.0,
					"numinlets" : 2
				}

			}
, 			{
				"box" : 				{
					"maxclass" : "newobj",
					"text" : "scale 0 127 0. 1.",
					"linecount" : 2,
					"patching_rect" : [ 320.0, 332.0, 44.0, 27.0 ],
					"numoutlets" : 1,
					"outlettype" : [ "" ],
					"fontname" : "Arial",
					"hidden" : 1,
					"id" : "obj-63",
					"fontsize" : 9.0,
					"numinlets" : 6
				}

			}
, 			{
				"box" : 				{
					"maxclass" : "slider",
					"patching_rect" : [ 365.0, 290.0, 33.0, 79.0 ],
					"numoutlets" : 1,
					"orientation" : 2,
					"outlettype" : [ "" ],
					"id" : "obj-64",
					"numinlets" : 1
				}

			}
, 			{
				"box" : 				{
					"maxclass" : "flonum",
					"patching_rect" : [ 364.0, 374.0, 35.0, 17.0 ],
					"bgcolor" : [ 0.866667, 0.866667, 0.866667, 1.0 ],
					"numoutlets" : 2,
					"outlettype" : [ "float", "bang" ],
					"fontname" : "Arial",
					"htextcolor" : [ 0.870588, 0.870588, 0.870588, 1.0 ],
					"triscale" : 0.9,
					"id" : "obj-65",
					"fontsize" : 9.0,
					"numinlets" : 1
				}

			}
, 			{
				"box" : 				{
					"maxclass" : "comment",
					"text" : "pressure on bow (in N)",
					"linecount" : 3,
					"patching_rect" : [ 319.0, 290.0, 46.0, 38.0 ],
					"numoutlets" : 0,
					"fontname" : "Arial",
					"id" : "obj-66",
					"fontsize" : 9.0,
					"numinlets" : 1
				}

			}
, 			{
				"box" : 				{
					"maxclass" : "newobj",
					"text" : "scale 0 127 0.01 1. 1.06",
					"linecount" : 4,
					"patching_rect" : [ 539.0, 152.0, 39.0, 48.0 ],
					"numoutlets" : 1,
					"outlettype" : [ "" ],
					"fontname" : "Arial",
					"hidden" : 1,
					"id" : "obj-67",
					"fontsize" : 9.0,
					"numinlets" : 6
				}

			}
, 			{
				"box" : 				{
					"maxclass" : "message",
					"text" : "59",
					"patching_rect" : [ 553.0, 82.0, 19.0, 15.0 ],
					"numoutlets" : 1,
					"outlettype" : [ "" ],
					"fontname" : "Arial",
					"hidden" : 1,
					"id" : "obj-68",
					"fontsize" : 9.0,
					"numinlets" : 2
				}

			}
, 			{
				"box" : 				{
					"maxclass" : "flonum",
					"patching_rect" : [ 562.0, 199.0, 39.0, 17.0 ],
					"bgcolor" : [ 0.866667, 0.866667, 0.866667, 1.0 ],
					"numoutlets" : 2,
					"outlettype" : [ "float", "bang" ],
					"fontname" : "Arial",
					"htextcolor" : [ 0.870588, 0.870588, 0.870588, 1.0 ],
					"triscale" : 0.9,
					"id" : "obj-69",
					"fontsize" : 9.0,
					"numinlets" : 1
				}

			}
, 			{
				"box" : 				{
					"maxclass" : "slider",
					"patching_rect" : [ 573.0, 72.0, 14.0, 125.0 ],
					"numoutlets" : 1,
					"orientation" : 2,
					"outlettype" : [ "" ],
					"id" : "obj-70",
					"numinlets" : 1
				}

			}
, 			{
				"box" : 				{
					"maxclass" : "newobj",
					"text" : "scale 0 127 0.01 1. 1.06",
					"linecount" : 4,
					"patching_rect" : [ 442.0, 152.0, 39.0, 48.0 ],
					"numoutlets" : 1,
					"outlettype" : [ "" ],
					"fontname" : "Arial",
					"hidden" : 1,
					"id" : "obj-71",
					"fontsize" : 9.0,
					"numinlets" : 6
				}

			}
, 			{
				"box" : 				{
					"maxclass" : "message",
					"text" : "115",
					"patching_rect" : [ 452.0, 80.0, 23.0, 15.0 ],
					"numoutlets" : 1,
					"outlettype" : [ "" ],
					"fontname" : "Arial",
					"hidden" : 1,
					"id" : "obj-72",
					"fontsize" : 9.0,
					"numinlets" : 2
				}

			}
, 			{
				"box" : 				{
					"maxclass" : "flonum",
					"patching_rect" : [ 468.0, 199.0, 35.0, 17.0 ],
					"bgcolor" : [ 0.866667, 0.866667, 0.866667, 1.0 ],
					"numoutlets" : 2,
					"outlettype" : [ "float", "bang" ],
					"fontname" : "Arial",
					"htextcolor" : [ 0.870588, 0.870588, 0.870588, 1.0 ],
					"triscale" : 0.9,
					"id" : "obj-73",
					"fontsize" : 9.0,
					"numinlets" : 1
				}

			}
, 			{
				"box" : 				{
					"maxclass" : "slider",
					"patching_rect" : [ 476.0, 72.0, 14.0, 125.0 ],
					"numoutlets" : 1,
					"orientation" : 2,
					"outlettype" : [ "" ],
					"id" : "obj-74",
					"numinlets" : 1
				}

			}
, 			{
				"box" : 				{
					"maxclass" : "newobj",
					"text" : "scale 0 127 0.1 1.",
					"linecount" : 3,
					"patching_rect" : [ 370.0, 146.0, 43.0, 38.0 ],
					"numoutlets" : 1,
					"outlettype" : [ "" ],
					"fontname" : "Arial",
					"hidden" : 1,
					"id" : "obj-75",
					"fontsize" : 9.0,
					"numinlets" : 6
				}

			}
, 			{
				"box" : 				{
					"maxclass" : "message",
					"text" : "71.",
					"patching_rect" : [ 388.0, 79.0, 21.0, 15.0 ],
					"numoutlets" : 1,
					"outlettype" : [ "" ],
					"fontname" : "Arial",
					"hidden" : 1,
					"id" : "obj-76",
					"fontsize" : 9.0,
					"numinlets" : 2
				}

			}
, 			{
				"box" : 				{
					"maxclass" : "flonum",
					"patching_rect" : [ 401.0, 199.0, 31.0, 17.0 ],
					"bgcolor" : [ 0.866667, 0.866667, 0.866667, 1.0 ],
					"numoutlets" : 2,
					"outlettype" : [ "float", "bang" ],
					"fontname" : "Arial",
					"htextcolor" : [ 0.870588, 0.870588, 0.870588, 1.0 ],
					"triscale" : 0.9,
					"id" : "obj-77",
					"fontsize" : 9.0,
					"numinlets" : 1
				}

			}
, 			{
				"box" : 				{
					"maxclass" : "slider",
					"patching_rect" : [ 409.0, 72.0, 14.0, 125.0 ],
					"numoutlets" : 1,
					"orientation" : 2,
					"outlettype" : [ "" ],
					"id" : "obj-78",
					"numinlets" : 1
				}

			}
, 			{
				"box" : 				{
					"maxclass" : "newobj",
					"text" : "scale 0 127 0.4 1.",
					"linecount" : 3,
					"patching_rect" : [ 290.0, 148.0, 43.0, 38.0 ],
					"numoutlets" : 1,
					"outlettype" : [ "" ],
					"fontname" : "Arial",
					"hidden" : 1,
					"id" : "obj-79",
					"fontsize" : 9.0,
					"numinlets" : 6
				}

			}
, 			{
				"box" : 				{
					"maxclass" : "message",
					"text" : "1.",
					"patching_rect" : [ 302.0, 76.0, 16.0, 15.0 ],
					"numoutlets" : 1,
					"outlettype" : [ "" ],
					"fontname" : "Arial",
					"hidden" : 1,
					"id" : "obj-80",
					"fontsize" : 9.0,
					"numinlets" : 2
				}

			}
, 			{
				"box" : 				{
					"maxclass" : "flonum",
					"patching_rect" : [ 317.0, 199.0, 28.0, 17.0 ],
					"bgcolor" : [ 0.866667, 0.866667, 0.866667, 1.0 ],
					"numoutlets" : 2,
					"outlettype" : [ "float", "bang" ],
					"fontname" : "Arial",
					"htextcolor" : [ 0.870588, 0.870588, 0.870588, 1.0 ],
					"triscale" : 0.9,
					"id" : "obj-81",
					"fontsize" : 9.0,
					"numinlets" : 1
				}

			}
, 			{
				"box" : 				{
					"maxclass" : "slider",
					"patching_rect" : [ 322.0, 72.0, 14.0, 125.0 ],
					"numoutlets" : 1,
					"orientation" : 2,
					"outlettype" : [ "" ],
					"id" : "obj-82",
					"numinlets" : 1
				}

			}
, 			{
				"box" : 				{
					"maxclass" : "newobj",
					"text" : "scale 0 127 0.01 0.5",
					"linecount" : 4,
					"patching_rect" : [ 228.0, 138.0, 35.0, 48.0 ],
					"numoutlets" : 1,
					"outlettype" : [ "" ],
					"fontname" : "Arial",
					"hidden" : 1,
					"id" : "obj-83",
					"fontsize" : 9.0,
					"numinlets" : 6
				}

			}
, 			{
				"box" : 				{
					"maxclass" : "message",
					"text" : "49",
					"patching_rect" : [ 247.0, 77.0, 19.0, 15.0 ],
					"numoutlets" : 1,
					"outlettype" : [ "" ],
					"fontname" : "Arial",
					"hidden" : 1,
					"id" : "obj-84",
					"fontsize" : 9.0,
					"numinlets" : 2
				}

			}
, 			{
				"box" : 				{
					"maxclass" : "flonum",
					"patching_rect" : [ 260.0, 199.0, 29.0, 17.0 ],
					"bgcolor" : [ 0.866667, 0.866667, 0.866667, 1.0 ],
					"numoutlets" : 2,
					"outlettype" : [ "float", "bang" ],
					"fontname" : "Arial",
					"htextcolor" : [ 0.870588, 0.870588, 0.870588, 1.0 ],
					"triscale" : 0.9,
					"id" : "obj-85",
					"fontsize" : 9.0,
					"numinlets" : 1
				}

			}
, 			{
				"box" : 				{
					"maxclass" : "slider",
					"patching_rect" : [ 266.0, 72.0, 14.0, 125.0 ],
					"numoutlets" : 1,
					"orientation" : 2,
					"outlettype" : [ "" ],
					"id" : "obj-86",
					"numinlets" : 1
				}

			}
, 			{
				"box" : 				{
					"maxclass" : "newobj",
					"text" : "scale 0 127 0. 1.",
					"linecount" : 3,
					"patching_rect" : [ 141.0, 152.0, 34.0, 38.0 ],
					"numoutlets" : 1,
					"outlettype" : [ "" ],
					"fontname" : "Arial",
					"hidden" : 1,
					"id" : "obj-87",
					"fontsize" : 9.0,
					"numinlets" : 6
				}

			}
, 			{
				"box" : 				{
					"maxclass" : "message",
					"text" : "3.",
					"patching_rect" : [ 157.0, 75.0, 16.0, 15.0 ],
					"numoutlets" : 1,
					"outlettype" : [ "" ],
					"fontname" : "Arial",
					"hidden" : 1,
					"id" : "obj-88",
					"fontsize" : 9.0,
					"numinlets" : 2
				}

			}
, 			{
				"box" : 				{
					"maxclass" : "flonum",
					"patching_rect" : [ 169.0, 199.0, 32.0, 17.0 ],
					"bgcolor" : [ 0.866667, 0.866667, 0.866667, 1.0 ],
					"numoutlets" : 2,
					"outlettype" : [ "float", "bang" ],
					"fontname" : "Arial",
					"htextcolor" : [ 0.870588, 0.870588, 0.870588, 1.0 ],
					"triscale" : 0.9,
					"id" : "obj-89",
					"fontsize" : 9.0,
					"numinlets" : 1
				}

			}
, 			{
				"box" : 				{
					"maxclass" : "slider",
					"patching_rect" : [ 175.0, 72.0, 14.0, 125.0 ],
					"numoutlets" : 1,
					"orientation" : 2,
					"outlettype" : [ "" ],
					"id" : "obj-90",
					"numinlets" : 1
				}

			}
, 			{
				"box" : 				{
					"maxclass" : "newobj",
					"text" : "scale 0 127 0. 40.",
					"linecount" : 3,
					"patching_rect" : [ 61.0, 150.0, 45.0, 38.0 ],
					"numoutlets" : 1,
					"outlettype" : [ "" ],
					"fontname" : "Arial",
					"hidden" : 1,
					"id" : "obj-91",
					"fontsize" : 9.0,
					"numinlets" : 6
				}

			}
, 			{
				"box" : 				{
					"maxclass" : "message",
					"text" : "0.",
					"patching_rect" : [ 89.0, 72.0, 16.0, 15.0 ],
					"numoutlets" : 1,
					"outlettype" : [ "" ],
					"fontname" : "Arial",
					"hidden" : 1,
					"id" : "obj-92",
					"fontsize" : 9.0,
					"numinlets" : 2
				}

			}
, 			{
				"box" : 				{
					"maxclass" : "flonum",
					"patching_rect" : [ 97.0, 199.0, 39.0, 17.0 ],
					"bgcolor" : [ 0.866667, 0.866667, 0.866667, 1.0 ],
					"numoutlets" : 2,
					"outlettype" : [ "float", "bang" ],
					"fontname" : "Arial",
					"htextcolor" : [ 0.870588, 0.870588, 0.870588, 1.0 ],
					"triscale" : 0.9,
					"id" : "obj-93",
					"fontsize" : 9.0,
					"numinlets" : 1
				}

			}
, 			{
				"box" : 				{
					"maxclass" : "slider",
					"patching_rect" : [ 108.0, 72.0, 14.0, 125.0 ],
					"numoutlets" : 1,
					"orientation" : 2,
					"outlettype" : [ "" ],
					"id" : "obj-94",
					"numinlets" : 1
				}

			}
, 			{
				"box" : 				{
					"maxclass" : "newobj",
					"text" : "scale 0 127 3000 20000 1.06",
					"linecount" : 5,
					"patching_rect" : [ 3.0, 125.0, 36.0, 58.0 ],
					"numoutlets" : 1,
					"outlettype" : [ "" ],
					"fontname" : "Arial",
					"hidden" : 1,
					"id" : "obj-95",
					"fontsize" : 9.0,
					"numinlets" : 6
				}

			}
, 			{
				"box" : 				{
					"maxclass" : "message",
					"text" : "actmodes1 1",
					"patching_rect" : [ 239.0, 597.0, 62.0, 15.0 ],
					"numoutlets" : 1,
					"outlettype" : [ "" ],
					"fontname" : "Arial",
					"id" : "obj-96",
					"fontsize" : 9.0,
					"numinlets" : 2
				}

			}
, 			{
				"box" : 				{
					"maxclass" : "message",
					"text" : "actmodes1 0",
					"patching_rect" : [ 239.0, 576.0, 62.0, 15.0 ],
					"numoutlets" : 1,
					"outlettype" : [ "" ],
					"fontname" : "Arial",
					"id" : "obj-97",
					"fontsize" : 9.0,
					"numinlets" : 2
				}

			}
, 			{
				"box" : 				{
					"maxclass" : "gain~",
					"patching_rect" : [ 621.0, 561.0, 22.0, 122.0 ],
					"numoutlets" : 2,
					"orientation" : 2,
					"outlettype" : [ "signal", "int" ],
					"id" : "obj-98",
					"numinlets" : 2
				}

			}
, 			{
				"box" : 				{
					"maxclass" : "newobj",
					"text" : "sig~",
					"patching_rect" : [ 69.0, 391.0, 25.0, 17.0 ],
					"numoutlets" : 1,
					"outlettype" : [ "signal" ],
					"fontname" : "Arial",
					"id" : "obj-99",
					"fontsize" : 9.0,
					"numinlets" : 1
				}

			}
, 			{
				"box" : 				{
					"maxclass" : "slider",
					"patching_rect" : [ 68.0, 291.0, 33.0, 79.0 ],
					"numoutlets" : 1,
					"orientation" : 2,
					"outlettype" : [ "" ],
					"id" : "obj-100",
					"numinlets" : 1
				}

			}
, 			{
				"box" : 				{
					"maxclass" : "flonum",
					"patching_rect" : [ 69.0, 372.0, 35.0, 17.0 ],
					"bgcolor" : [ 0.866667, 0.866667, 0.866667, 1.0 ],
					"numoutlets" : 2,
					"outlettype" : [ "float", "bang" ],
					"fontname" : "Arial",
					"htextcolor" : [ 0.870588, 0.870588, 0.870588, 1.0 ],
					"triscale" : 0.9,
					"id" : "obj-101",
					"fontsize" : 9.0,
					"numinlets" : 1
				}

			}
, 			{
				"box" : 				{
					"maxclass" : "comment",
					"text" : "(modal object)",
					"patching_rect" : [ 172.0, 269.0, 73.0, 17.0 ],
					"numoutlets" : 0,
					"fontname" : "Arial",
					"id" : "obj-102",
					"fontsize" : 9.0,
					"numinlets" : 1
				}

			}
, 			{
				"box" : 				{
					"maxclass" : "comment",
					"text" : "bow controls",
					"patching_rect" : [ 18.0, 265.0, 228.0, 26.0 ],
					"numoutlets" : 0,
					"fontname" : "Arial Black",
					"id" : "obj-103",
					"fontsize" : 14.0,
					"numinlets" : 1
				}

			}
, 			{
				"box" : 				{
					"maxclass" : "panel",
					"varname" : "String[3]",
					"patching_rect" : [ 2.0, 263.0, 412.0, 25.0 ],
					"bgcolor" : [ 1.0, 0.752941, 0.231373, 1.0 ],
					"numoutlets" : 0,
					"rounded" : 0,
					"id" : "obj-104",
					"border" : 1,
					"bordercolor" : [ 1.0, 1.0, 1.0, 1.0 ],
					"numinlets" : 1
				}

			}
, 			{
				"box" : 				{
					"maxclass" : "newobj",
					"text" : "/ -100.",
					"patching_rect" : [ 237.0, 357.0, 49.0, 17.0 ],
					"numoutlets" : 1,
					"outlettype" : [ "float" ],
					"fontname" : "Arial",
					"hidden" : 1,
					"id" : "obj-105",
					"fontsize" : 9.0,
					"numinlets" : 2
				}

			}
, 			{
				"box" : 				{
					"maxclass" : "dial",
					"patching_rect" : [ 195.0, 334.0, 40.0, 40.0 ],
					"outlinecolor" : [ 0.882353, 0.882353, 0.882353, 1.0 ],
					"bgcolor" : [ 0.866667, 0.866667, 0.866667, 1.0 ],
					"numoutlets" : 1,
					"needlecolor" : [ 0.0, 0.0, 0.0, 1.0 ],
					"size" : 101.0,
					"outlettype" : [ "float" ],
					"min" : -50.0,
					"fgcolor" : [ 1.0, 0.0, 0.0, 1.0 ],
					"id" : "obj-106",
					"numinlets" : 1
				}

			}
, 			{
				"box" : 				{
					"maxclass" : "message",
					"text" : "1.",
					"patching_rect" : [ 164.0, 365.0, 16.0, 15.0 ],
					"numoutlets" : 1,
					"outlettype" : [ "" ],
					"fontname" : "Arial",
					"id" : "obj-107",
					"fontsize" : 9.0,
					"numinlets" : 2
				}

			}
, 			{
				"box" : 				{
					"maxclass" : "newobj",
					"text" : "* 0.",
					"patching_rect" : [ 178.0, 399.0, 27.0, 17.0 ],
					"numoutlets" : 1,
					"outlettype" : [ "float" ],
					"fontname" : "Arial",
					"id" : "obj-108",
					"fontsize" : 9.0,
					"numinlets" : 2
				}

			}
, 			{
				"box" : 				{
					"maxclass" : "message",
					"text" : "50",
					"patching_rect" : [ 195.0, 292.0, 19.0, 15.0 ],
					"numoutlets" : 1,
					"outlettype" : [ "" ],
					"fontname" : "Arial",
					"hidden" : 1,
					"id" : "obj-109",
					"fontsize" : 9.0,
					"numinlets" : 2
				}

			}
, 			{
				"box" : 				{
					"maxclass" : "flonum",
					"patching_rect" : [ 195.0, 377.0, 35.0, 17.0 ],
					"bgcolor" : [ 0.866667, 0.866667, 0.866667, 1.0 ],
					"numoutlets" : 2,
					"outlettype" : [ "float", "bang" ],
					"fontname" : "Arial",
					"htextcolor" : [ 0.870588, 0.870588, 0.870588, 1.0 ],
					"triscale" : 0.9,
					"id" : "obj-110",
					"fontsize" : 9.0,
					"numinlets" : 1
				}

			}
, 			{
				"box" : 				{
					"maxclass" : "button",
					"patching_rect" : [ 164.0, 335.0, 26.0, 26.0 ],
					"numoutlets" : 1,
					"outlettype" : [ "bang" ],
					"id" : "obj-111",
					"numinlets" : 1
				}

			}
, 			{
				"box" : 				{
					"maxclass" : "newobj",
					"text" : "key",
					"patching_rect" : [ 130.0, 294.0, 40.0, 17.0 ],
					"numoutlets" : 4,
					"color" : [ 1.0, 0.890196, 0.090196, 1.0 ],
					"outlettype" : [ "int", "int", "int", "int" ],
					"fontname" : "Arial",
					"hidden" : 1,
					"id" : "obj-112",
					"fontsize" : 9.0,
					"numinlets" : 0
				}

			}
, 			{
				"box" : 				{
					"maxclass" : "newobj",
					"text" : "select 97",
					"patching_rect" : [ 130.0, 315.0, 60.0, 17.0 ],
					"numoutlets" : 2,
					"outlettype" : [ "bang", "" ],
					"fontname" : "Arial",
					"hidden" : 1,
					"id" : "obj-113",
					"fontsize" : 9.0,
					"numinlets" : 2
				}

			}
, 			{
				"box" : 				{
					"maxclass" : "comment",
					"text" : "press 'a' to start bowing",
					"linecount" : 3,
					"patching_rect" : [ 112.0, 335.0, 53.0, 45.0 ],
					"numoutlets" : 0,
					"textcolor" : [ 1.0, 0.0, 0.0, 1.0 ],
					"fontname" : "Arial Black",
					"frgb" : [ 1.0, 0.0, 0.0, 1.0 ],
					"id" : "obj-114",
					"fontsize" : 9.0,
					"numinlets" : 1
				}

			}
, 			{
				"box" : 				{
					"maxclass" : "comment",
					"text" : "initial velocity (in m/s)",
					"linecount" : 2,
					"patching_rect" : [ 195.0, 304.0, 64.0, 27.0 ],
					"numoutlets" : 0,
					"fontname" : "Arial",
					"id" : "obj-115",
					"fontsize" : 9.0,
					"numinlets" : 1
				}

			}
, 			{
				"box" : 				{
					"maxclass" : "comment",
					"text" : "external bowing force (in N)",
					"linecount" : 3,
					"patching_rect" : [ 2.0, 291.0, 63.0, 38.0 ],
					"numoutlets" : 0,
					"fontname" : "Arial",
					"id" : "obj-116",
					"fontsize" : 9.0,
					"numinlets" : 1
				}

			}
, 			{
				"box" : 				{
					"maxclass" : "comment",
					"text" : "friction parameters",
					"patching_rect" : [ 22.0, 3.0, 196.0, 26.0 ],
					"numoutlets" : 0,
					"textcolor" : [ 1.0, 1.0, 1.0, 1.0 ],
					"fontname" : "Arial Black",
					"frgb" : [ 1.0, 1.0, 1.0, 1.0 ],
					"id" : "obj-117",
					"fontsize" : 14.0,
					"numinlets" : 1
				}

			}
, 			{
				"box" : 				{
					"maxclass" : "panel",
					"varname" : "String[2]",
					"patching_rect" : [ 6.0, 1.0, 617.0, 26.0 ],
					"bgcolor" : [ 0.623529, 0.772549, 0.003922, 1.0 ],
					"numoutlets" : 0,
					"rounded" : 0,
					"id" : "obj-118",
					"border" : 1,
					"bordercolor" : [ 1.0, 1.0, 1.0, 1.0 ],
					"numinlets" : 1
				}

			}
, 			{
				"box" : 				{
					"maxclass" : "message",
					"text" : "78",
					"patching_rect" : [ 15.0, 72.0, 19.0, 15.0 ],
					"numoutlets" : 1,
					"outlettype" : [ "" ],
					"fontname" : "Arial",
					"hidden" : 1,
					"id" : "obj-119",
					"fontsize" : 9.0,
					"numinlets" : 2
				}

			}
, 			{
				"box" : 				{
					"maxclass" : "flonum",
					"patching_rect" : [ 24.0, 199.0, 48.0, 17.0 ],
					"bgcolor" : [ 0.866667, 0.866667, 0.866667, 1.0 ],
					"numoutlets" : 2,
					"outlettype" : [ "float", "bang" ],
					"fontname" : "Arial",
					"htextcolor" : [ 0.870588, 0.870588, 0.870588, 1.0 ],
					"triscale" : 0.9,
					"id" : "obj-120",
					"fontsize" : 9.0,
					"numinlets" : 1
				}

			}
, 			{
				"box" : 				{
					"maxclass" : "slider",
					"patching_rect" : [ 40.0, 72.0, 14.0, 125.0 ],
					"numoutlets" : 1,
					"orientation" : 2,
					"outlettype" : [ "" ],
					"id" : "obj-121",
					"numinlets" : 1
				}

			}
, 			{
				"box" : 				{
					"maxclass" : "newobj",
					"text" : "pak 4000. 0. 0.25 0.3 0.8 0.7 0.5 0.4 0.1",
					"patching_rect" : [ 116.0, 225.0, 358.0, 17.0 ],
					"numoutlets" : 1,
					"outlettype" : [ "" ],
					"fontname" : "Arial",
					"id" : "obj-122",
					"fontsize" : 9.0,
					"numinlets" : 9
				}

			}
, 			{
				"box" : 				{
					"maxclass" : "ezdac~",
					"patching_rect" : [ 620.0, 692.0, 33.0, 33.0 ],
					"numoutlets" : 0,
					"id" : "obj-123",
					"numinlets" : 2
				}

			}
, 			{
				"box" : 				{
					"maxclass" : "newobj",
					"text" : "friction_modalb_wg~ 10000. 10. 0.4 0.2 0.4 0.7 0.1 1. 0.1 1 1 d 1. 1. 1. 0.01 100. 0 1. 0.2 0.5 500. 0.0014 d",
					"linecount" : 2,
					"patching_rect" : [ 352.0, 538.0, 231.0, 27.0 ],
					"numoutlets" : 2,
					"outlettype" : [ "signal", "signal" ],
					"fontname" : "Arial",
					"id" : "obj-124",
					"fontsize" : 9.0,
					"numinlets" : 13
				}

			}
, 			{
				"box" : 				{
					"maxclass" : "newobj",
					"text" : "loadbang",
					"patching_rect" : [ 628.0, 126.0, 46.0, 17.0 ],
					"numoutlets" : 1,
					"outlettype" : [ "bang" ],
					"fontname" : "Arial",
					"hidden" : 1,
					"id" : "obj-125",
					"fontsize" : 9.0,
					"numinlets" : 1
				}

			}
, 			{
				"box" : 				{
					"maxclass" : "comment",
					"text" : "obj1 active modes",
					"patching_rect" : [ 217.0, 557.0, 98.0, 17.0 ],
					"numoutlets" : 0,
					"fontname" : "Arial",
					"id" : "obj-126",
					"fontsize" : 9.0,
					"numinlets" : 1
				}

			}
, 			{
				"box" : 				{
					"maxclass" : "comment",
					"text" : "extra gain when output = displacement",
					"linecount" : 3,
					"patching_rect" : [ 670.0, 531.0, 78.0, 38.0 ],
					"numoutlets" : 0,
					"fontname" : "Arial",
					"hidden" : 1,
					"id" : "obj-127",
					"fontsize" : 9.0,
					"numinlets" : 1
				}

			}
, 			{
				"box" : 				{
					"maxclass" : "panel",
					"varname" : "String[5]",
					"patching_rect" : [ 7.0, 26.0, 615.0, 218.0 ],
					"bgcolor" : [ 0.87451, 1.0, 0.882353, 1.0 ],
					"numoutlets" : 0,
					"rounded" : 0,
					"id" : "obj-128",
					"border" : 1,
					"bordercolor" : [ 1.0, 1.0, 1.0, 1.0 ],
					"numinlets" : 1
				}

			}
, 			{
				"box" : 				{
					"maxclass" : "comment",
					"text" : "bow displacement",
					"patching_rect" : [ 351.0, 625.0, 100.0, 17.0 ],
					"numoutlets" : 0,
					"fontname" : "Arial",
					"id" : "obj-129",
					"fontsize" : 9.0,
					"numinlets" : 1
				}

			}
, 			{
				"box" : 				{
					"maxclass" : "panel",
					"varname" : "String[8]",
					"patching_rect" : [ 319.0, 514.0, 438.0, 214.0 ],
					"bgcolor" : [ 1.0, 0.729412, 0.439216, 1.0 ],
					"numoutlets" : 0,
					"rounded" : 0,
					"id" : "obj-130",
					"border" : 1,
					"bordercolor" : [ 1.0, 1.0, 1.0, 1.0 ],
					"numinlets" : 1
				}

			}
, 			{
				"box" : 				{
					"maxclass" : "panel",
					"varname" : "String[6]",
					"patching_rect" : [ 3.0, 286.0, 412.0, 443.0 ],
					"bgcolor" : [ 1.0, 0.941176, 0.752941, 1.0 ],
					"numoutlets" : 0,
					"rounded" : 0,
					"id" : "obj-131",
					"border" : 1,
					"bordercolor" : [ 1.0, 1.0, 1.0, 1.0 ],
					"numinlets" : 1
				}

			}
, 			{
				"box" : 				{
					"maxclass" : "panel",
					"varname" : "String[4]",
					"patching_rect" : [ 621.0, 287.0, 281.0, 379.0 ],
					"bgcolor" : [ 1.0, 0.941176, 0.752941, 1.0 ],
					"numoutlets" : 0,
					"rounded" : 0,
					"id" : "obj-132",
					"border" : 1,
					"bordercolor" : [ 1.0, 1.0, 1.0, 1.0 ],
					"numinlets" : 1
				}

			}
 ],
		"lines" : [ 			{
				"patchline" : 				{
					"source" : [ "obj-121", 0 ],
					"destination" : [ "obj-95", 0 ],
					"hidden" : 1,
					"midpoints" : [  ]
				}

			}
, 			{
				"patchline" : 				{
					"source" : [ "obj-125", 0 ],
					"destination" : [ "obj-29", 0 ],
					"hidden" : 1,
					"midpoints" : [ 637.5, 25.0, 16.5, 25.0 ]
				}

			}
, 			{
				"patchline" : 				{
					"source" : [ "obj-29", 0 ],
					"destination" : [ "obj-25", 0 ],
					"hidden" : 1,
					"midpoints" : [  ]
				}

			}
, 			{
				"patchline" : 				{
					"source" : [ "obj-125", 0 ],
					"destination" : [ "obj-119", 0 ],
					"hidden" : 1,
					"midpoints" : [ 637.5, 3.0, 22.5, 3.0 ]
				}

			}
, 			{
				"patchline" : 				{
					"source" : [ "obj-100", 0 ],
					"destination" : [ "obj-61", 0 ],
					"hidden" : 1,
					"midpoints" : [  ]
				}

			}
, 			{
				"patchline" : 				{
					"source" : [ "obj-95", 0 ],
					"destination" : [ "obj-120", 0 ],
					"hidden" : 1,
					"midpoints" : [  ]
				}

			}
, 			{
				"patchline" : 				{
					"source" : [ "obj-25", 0 ],
					"destination" : [ "obj-28", 0 ],
					"hidden" : 1,
					"midpoints" : [  ]
				}

			}
, 			{
				"patchline" : 				{
					"source" : [ "obj-28", 0 ],
					"destination" : [ "obj-26", 0 ],
					"hidden" : 1,
					"midpoints" : [  ]
				}

			}
, 			{
				"patchline" : 				{
					"source" : [ "obj-26", 0 ],
					"destination" : [ "obj-31", 0 ],
					"hidden" : 1,
					"midpoints" : [  ]
				}

			}
, 			{
				"patchline" : 				{
					"source" : [ "obj-119", 0 ],
					"destination" : [ "obj-121", 0 ],
					"hidden" : 1,
					"midpoints" : [  ]
				}

			}
, 			{
				"patchline" : 				{
					"source" : [ "obj-125", 0 ],
					"destination" : [ "obj-60", 0 ],
					"hidden" : 1,
					"midpoints" : [ 637.5, 211.0, 54.5, 211.0 ]
				}

			}
, 			{
				"patchline" : 				{
					"source" : [ "obj-94", 0 ],
					"destination" : [ "obj-91", 0 ],
					"hidden" : 1,
					"midpoints" : [  ]
				}

			}
, 			{
				"patchline" : 				{
					"source" : [ "obj-60", 0 ],
					"destination" : [ "obj-100", 0 ],
					"hidden" : 1,
					"midpoints" : [  ]
				}

			}
, 			{
				"patchline" : 				{
					"source" : [ "obj-61", 0 ],
					"destination" : [ "obj-101", 0 ],
					"hidden" : 1,
					"midpoints" : [  ]
				}

			}
, 			{
				"patchline" : 				{
					"source" : [ "obj-101", 0 ],
					"destination" : [ "obj-99", 0 ],
					"hidden" : 0,
					"midpoints" : [  ]
				}

			}
, 			{
				"patchline" : 				{
					"source" : [ "obj-26", 1 ],
					"destination" : [ "obj-31", 1 ],
					"hidden" : 1,
					"midpoints" : [  ]
				}

			}
, 			{
				"patchline" : 				{
					"source" : [ "obj-125", 0 ],
					"destination" : [ "obj-92", 0 ],
					"hidden" : 1,
					"midpoints" : [ 637.5, 3.0, 95.0, 3.0 ]
				}

			}
, 			{
				"patchline" : 				{
					"source" : [ "obj-91", 0 ],
					"destination" : [ "obj-93", 0 ],
					"hidden" : 1,
					"midpoints" : [  ]
				}

			}
, 			{
				"patchline" : 				{
					"source" : [ "obj-27", 0 ],
					"destination" : [ "obj-30", 0 ],
					"hidden" : 1,
					"midpoints" : [  ]
				}

			}
, 			{
				"patchline" : 				{
					"source" : [ "obj-92", 0 ],
					"destination" : [ "obj-94", 0 ],
					"hidden" : 1,
					"midpoints" : [  ]
				}

			}
, 			{
				"patchline" : 				{
					"source" : [ "obj-120", 0 ],
					"destination" : [ "obj-122", 0 ],
					"hidden" : 0,
					"midpoints" : [  ]
				}

			}
, 			{
				"patchline" : 				{
					"source" : [ "obj-112", 0 ],
					"destination" : [ "obj-113", 0 ],
					"hidden" : 1,
					"midpoints" : [  ]
				}

			}
, 			{
				"patchline" : 				{
					"source" : [ "obj-90", 0 ],
					"destination" : [ "obj-87", 0 ],
					"hidden" : 1,
					"midpoints" : [  ]
				}

			}
, 			{
				"patchline" : 				{
					"source" : [ "obj-28", 0 ],
					"destination" : [ "obj-27", 0 ],
					"hidden" : 1,
					"midpoints" : [  ]
				}

			}
, 			{
				"patchline" : 				{
					"source" : [ "obj-125", 0 ],
					"destination" : [ "obj-88", 0 ],
					"hidden" : 1,
					"midpoints" : [ 637.5, 4.0, 163.0, 4.0 ]
				}

			}
, 			{
				"patchline" : 				{
					"source" : [ "obj-93", 0 ],
					"destination" : [ "obj-122", 1 ],
					"hidden" : 0,
					"midpoints" : [  ]
				}

			}
, 			{
				"patchline" : 				{
					"source" : [ "obj-113", 0 ],
					"destination" : [ "obj-111", 0 ],
					"hidden" : 1,
					"midpoints" : [  ]
				}

			}
, 			{
				"patchline" : 				{
					"source" : [ "obj-111", 0 ],
					"destination" : [ "obj-107", 0 ],
					"hidden" : 0,
					"midpoints" : [  ]
				}

			}
, 			{
				"patchline" : 				{
					"source" : [ "obj-87", 0 ],
					"destination" : [ "obj-89", 0 ],
					"hidden" : 1,
					"midpoints" : [  ]
				}

			}
, 			{
				"patchline" : 				{
					"source" : [ "obj-88", 0 ],
					"destination" : [ "obj-90", 0 ],
					"hidden" : 1,
					"midpoints" : [  ]
				}

			}
, 			{
				"patchline" : 				{
					"source" : [ "obj-107", 0 ],
					"destination" : [ "obj-108", 0 ],
					"hidden" : 0,
					"midpoints" : [  ]
				}

			}
, 			{
				"patchline" : 				{
					"source" : [ "obj-125", 0 ],
					"destination" : [ "obj-109", 0 ],
					"hidden" : 1,
					"midpoints" : [ 637.5, 211.0, 202.5, 211.0 ]
				}

			}
, 			{
				"patchline" : 				{
					"source" : [ "obj-109", 0 ],
					"destination" : [ "obj-106", 0 ],
					"hidden" : 1,
					"midpoints" : [  ]
				}

			}
, 			{
				"patchline" : 				{
					"source" : [ "obj-105", 0 ],
					"destination" : [ "obj-110", 0 ],
					"hidden" : 1,
					"midpoints" : [  ]
				}

			}
, 			{
				"patchline" : 				{
					"source" : [ "obj-110", 0 ],
					"destination" : [ "obj-108", 1 ],
					"hidden" : 0,
					"midpoints" : [  ]
				}

			}
, 			{
				"patchline" : 				{
					"source" : [ "obj-89", 0 ],
					"destination" : [ "obj-122", 2 ],
					"hidden" : 0,
					"midpoints" : [  ]
				}

			}
, 			{
				"patchline" : 				{
					"source" : [ "obj-86", 0 ],
					"destination" : [ "obj-83", 0 ],
					"hidden" : 1,
					"midpoints" : [  ]
				}

			}
, 			{
				"patchline" : 				{
					"source" : [ "obj-106", 0 ],
					"destination" : [ "obj-105", 0 ],
					"hidden" : 1,
					"midpoints" : [  ]
				}

			}
, 			{
				"patchline" : 				{
					"source" : [ "obj-85", 0 ],
					"destination" : [ "obj-122", 3 ],
					"hidden" : 0,
					"midpoints" : [  ]
				}

			}
, 			{
				"patchline" : 				{
					"source" : [ "obj-125", 0 ],
					"destination" : [ "obj-84", 0 ],
					"hidden" : 1,
					"midpoints" : [ 637.5, 4.0, 254.5, 4.0 ]
				}

			}
, 			{
				"patchline" : 				{
					"source" : [ "obj-83", 0 ],
					"destination" : [ "obj-85", 0 ],
					"hidden" : 1,
					"midpoints" : [  ]
				}

			}
, 			{
				"patchline" : 				{
					"source" : [ "obj-84", 0 ],
					"destination" : [ "obj-86", 0 ],
					"hidden" : 1,
					"midpoints" : [  ]
				}

			}
, 			{
				"patchline" : 				{
					"source" : [ "obj-81", 0 ],
					"destination" : [ "obj-122", 4 ],
					"hidden" : 0,
					"midpoints" : [  ]
				}

			}
, 			{
				"patchline" : 				{
					"source" : [ "obj-82", 0 ],
					"destination" : [ "obj-79", 0 ],
					"hidden" : 1,
					"midpoints" : [  ]
				}

			}
, 			{
				"patchline" : 				{
					"source" : [ "obj-125", 0 ],
					"destination" : [ "obj-80", 0 ],
					"hidden" : 1,
					"midpoints" : [ 637.5, 3.0, 308.0, 3.0 ]
				}

			}
, 			{
				"patchline" : 				{
					"source" : [ "obj-79", 0 ],
					"destination" : [ "obj-81", 0 ],
					"hidden" : 1,
					"midpoints" : [  ]
				}

			}
, 			{
				"patchline" : 				{
					"source" : [ "obj-64", 0 ],
					"destination" : [ "obj-63", 0 ],
					"hidden" : 1,
					"midpoints" : [  ]
				}

			}
, 			{
				"patchline" : 				{
					"source" : [ "obj-80", 0 ],
					"destination" : [ "obj-82", 0 ],
					"hidden" : 1,
					"midpoints" : [  ]
				}

			}
, 			{
				"patchline" : 				{
					"source" : [ "obj-77", 0 ],
					"destination" : [ "obj-122", 5 ],
					"hidden" : 0,
					"midpoints" : [  ]
				}

			}
, 			{
				"patchline" : 				{
					"source" : [ "obj-3", 0 ],
					"destination" : [ "obj-124", 0 ],
					"hidden" : 1,
					"midpoints" : [  ]
				}

			}
, 			{
				"patchline" : 				{
					"source" : [ "obj-4", 0 ],
					"destination" : [ "obj-124", 0 ],
					"hidden" : 1,
					"midpoints" : [  ]
				}

			}
, 			{
				"patchline" : 				{
					"source" : [ "obj-5", 0 ],
					"destination" : [ "obj-124", 0 ],
					"hidden" : 1,
					"midpoints" : [  ]
				}

			}
, 			{
				"patchline" : 				{
					"source" : [ "obj-6", 0 ],
					"destination" : [ "obj-124", 0 ],
					"hidden" : 1,
					"midpoints" : [  ]
				}

			}
, 			{
				"patchline" : 				{
					"source" : [ "obj-7", 0 ],
					"destination" : [ "obj-124", 0 ],
					"hidden" : 1,
					"midpoints" : [  ]
				}

			}
, 			{
				"patchline" : 				{
					"source" : [ "obj-8", 0 ],
					"destination" : [ "obj-124", 0 ],
					"hidden" : 1,
					"midpoints" : [  ]
				}

			}
, 			{
				"patchline" : 				{
					"source" : [ "obj-9", 0 ],
					"destination" : [ "obj-124", 0 ],
					"hidden" : 1,
					"midpoints" : [  ]
				}

			}
, 			{
				"patchline" : 				{
					"source" : [ "obj-10", 0 ],
					"destination" : [ "obj-124", 0 ],
					"hidden" : 1,
					"midpoints" : [  ]
				}

			}
, 			{
				"patchline" : 				{
					"source" : [ "obj-11", 0 ],
					"destination" : [ "obj-124", 0 ],
					"hidden" : 1,
					"midpoints" : [  ]
				}

			}
, 			{
				"patchline" : 				{
					"source" : [ "obj-99", 0 ],
					"destination" : [ "obj-124", 0 ],
					"hidden" : 0,
					"midpoints" : [  ]
				}

			}
, 			{
				"patchline" : 				{
					"source" : [ "obj-97", 0 ],
					"destination" : [ "obj-124", 0 ],
					"hidden" : 1,
					"midpoints" : [  ]
				}

			}
, 			{
				"patchline" : 				{
					"source" : [ "obj-96", 0 ],
					"destination" : [ "obj-124", 0 ],
					"hidden" : 1,
					"midpoints" : [  ]
				}

			}
, 			{
				"patchline" : 				{
					"source" : [ "obj-124", 0 ],
					"destination" : [ "obj-1", 0 ],
					"hidden" : 0,
					"midpoints" : [  ]
				}

			}
, 			{
				"patchline" : 				{
					"source" : [ "obj-63", 0 ],
					"destination" : [ "obj-65", 0 ],
					"hidden" : 1,
					"midpoints" : [  ]
				}

			}
, 			{
				"patchline" : 				{
					"source" : [ "obj-62", 0 ],
					"destination" : [ "obj-64", 0 ],
					"hidden" : 1,
					"midpoints" : [  ]
				}

			}
, 			{
				"patchline" : 				{
					"source" : [ "obj-78", 0 ],
					"destination" : [ "obj-75", 0 ],
					"hidden" : 1,
					"midpoints" : [  ]
				}

			}
, 			{
				"patchline" : 				{
					"source" : [ "obj-73", 0 ],
					"destination" : [ "obj-122", 6 ],
					"hidden" : 0,
					"midpoints" : [  ]
				}

			}
, 			{
				"patchline" : 				{
					"source" : [ "obj-125", 0 ],
					"destination" : [ "obj-76", 0 ],
					"hidden" : 1,
					"midpoints" : [ 637.5, 3.0, 396.5, 3.0 ]
				}

			}
, 			{
				"patchline" : 				{
					"source" : [ "obj-125", 0 ],
					"destination" : [ "obj-62", 0 ],
					"hidden" : 1,
					"midpoints" : [ 637.5, 271.0, 407.5, 271.0 ]
				}

			}
, 			{
				"patchline" : 				{
					"source" : [ "obj-75", 0 ],
					"destination" : [ "obj-77", 0 ],
					"hidden" : 1,
					"midpoints" : [  ]
				}

			}
, 			{
				"patchline" : 				{
					"source" : [ "obj-108", 0 ],
					"destination" : [ "obj-124", 3 ],
					"hidden" : 0,
					"midpoints" : [  ]
				}

			}
, 			{
				"patchline" : 				{
					"source" : [ "obj-76", 0 ],
					"destination" : [ "obj-78", 0 ],
					"hidden" : 1,
					"midpoints" : [  ]
				}

			}
, 			{
				"patchline" : 				{
					"source" : [ "obj-65", 0 ],
					"destination" : [ "obj-122", 7 ],
					"hidden" : 0,
					"midpoints" : [  ]
				}

			}
, 			{
				"patchline" : 				{
					"source" : [ "obj-122", 0 ],
					"destination" : [ "obj-124", 4 ],
					"hidden" : 0,
					"midpoints" : [ 125.5, 250.0, 432.166656, 250.0 ]
				}

			}
, 			{
				"patchline" : 				{
					"source" : [ "obj-74", 0 ],
					"destination" : [ "obj-71", 0 ],
					"hidden" : 1,
					"midpoints" : [  ]
				}

			}
, 			{
				"patchline" : 				{
					"source" : [ "obj-125", 0 ],
					"destination" : [ "obj-72", 0 ],
					"hidden" : 1,
					"midpoints" : [ 637.5, 5.0, 461.5, 5.0 ]
				}

			}
, 			{
				"patchline" : 				{
					"source" : [ "obj-69", 0 ],
					"destination" : [ "obj-122", 8 ],
					"hidden" : 0,
					"midpoints" : [  ]
				}

			}
, 			{
				"patchline" : 				{
					"source" : [ "obj-71", 0 ],
					"destination" : [ "obj-73", 0 ],
					"hidden" : 1,
					"midpoints" : [  ]
				}

			}
, 			{
				"patchline" : 				{
					"source" : [ "obj-72", 0 ],
					"destination" : [ "obj-74", 0 ],
					"hidden" : 1,
					"midpoints" : [  ]
				}

			}
, 			{
				"patchline" : 				{
					"source" : [ "obj-31", 0 ],
					"destination" : [ "obj-124", 8 ],
					"hidden" : 0,
					"midpoints" : [ 43.5, 578.0, 176.0, 578.0, 176.0, 526.0, 502.833344, 526.0 ]
				}

			}
, 			{
				"patchline" : 				{
					"source" : [ "obj-45", 0 ],
					"destination" : [ "obj-124", 9 ],
					"hidden" : 0,
					"midpoints" : [  ]
				}

			}
, 			{
				"patchline" : 				{
					"source" : [ "obj-49", 0 ],
					"destination" : [ "obj-124", 10 ],
					"hidden" : 0,
					"midpoints" : [  ]
				}

			}
, 			{
				"patchline" : 				{
					"source" : [ "obj-70", 0 ],
					"destination" : [ "obj-67", 0 ],
					"hidden" : 1,
					"midpoints" : [  ]
				}

			}
, 			{
				"patchline" : 				{
					"source" : [ "obj-47", 0 ],
					"destination" : [ "obj-124", 11 ],
					"hidden" : 0,
					"midpoints" : [  ]
				}

			}
, 			{
				"patchline" : 				{
					"source" : [ "obj-125", 0 ],
					"destination" : [ "obj-68", 0 ],
					"hidden" : 1,
					"midpoints" : [ 637.5, 4.0, 560.5, 4.0 ]
				}

			}
, 			{
				"patchline" : 				{
					"source" : [ "obj-67", 0 ],
					"destination" : [ "obj-69", 0 ],
					"hidden" : 1,
					"midpoints" : [  ]
				}

			}
, 			{
				"patchline" : 				{
					"source" : [ "obj-46", 0 ],
					"destination" : [ "obj-124", 12 ],
					"hidden" : 0,
					"midpoints" : [  ]
				}

			}
, 			{
				"patchline" : 				{
					"source" : [ "obj-68", 0 ],
					"destination" : [ "obj-70", 0 ],
					"hidden" : 1,
					"midpoints" : [  ]
				}

			}
, 			{
				"patchline" : 				{
					"source" : [ "obj-124", 1 ],
					"destination" : [ "obj-59", 0 ],
					"hidden" : 0,
					"midpoints" : [  ]
				}

			}
, 			{
				"patchline" : 				{
					"source" : [ "obj-125", 0 ],
					"destination" : [ "obj-52", 0 ],
					"hidden" : 1,
					"midpoints" : [ 637.5, 255.0, 629.5, 255.0 ]
				}

			}
, 			{
				"patchline" : 				{
					"source" : [ "obj-59", 0 ],
					"destination" : [ "obj-98", 0 ],
					"hidden" : 0,
					"midpoints" : [  ]
				}

			}
, 			{
				"patchline" : 				{
					"source" : [ "obj-98", 0 ],
					"destination" : [ "obj-123", 0 ],
					"hidden" : 0,
					"midpoints" : [  ]
				}

			}
, 			{
				"patchline" : 				{
					"source" : [ "obj-57", 0 ],
					"destination" : [ "obj-59", 1 ],
					"hidden" : 1,
					"midpoints" : [  ]
				}

			}
, 			{
				"patchline" : 				{
					"source" : [ "obj-125", 0 ],
					"destination" : [ "obj-55", 0 ],
					"hidden" : 1,
					"midpoints" : [ 637.5, 497.0, 658.5, 497.0 ]
				}

			}
, 			{
				"patchline" : 				{
					"source" : [ "obj-52", 0 ],
					"destination" : [ "obj-50", 0 ],
					"hidden" : 1,
					"midpoints" : [  ]
				}

			}
, 			{
				"patchline" : 				{
					"source" : [ "obj-48", 0 ],
					"destination" : [ "obj-49", 0 ],
					"hidden" : 1,
					"midpoints" : [  ]
				}

			}
, 			{
				"patchline" : 				{
					"source" : [ "obj-98", 0 ],
					"destination" : [ "obj-123", 1 ],
					"hidden" : 0,
					"midpoints" : [  ]
				}

			}
, 			{
				"patchline" : 				{
					"source" : [ "obj-55", 0 ],
					"destination" : [ "obj-58", 0 ],
					"hidden" : 1,
					"midpoints" : [  ]
				}

			}
, 			{
				"patchline" : 				{
					"source" : [ "obj-56", 0 ],
					"destination" : [ "obj-57", 0 ],
					"hidden" : 1,
					"midpoints" : [  ]
				}

			}
, 			{
				"patchline" : 				{
					"source" : [ "obj-50", 0 ],
					"destination" : [ "obj-48", 0 ],
					"hidden" : 1,
					"midpoints" : [  ]
				}

			}
, 			{
				"patchline" : 				{
					"source" : [ "obj-58", 0 ],
					"destination" : [ "obj-56", 0 ],
					"hidden" : 1,
					"midpoints" : [  ]
				}

			}
, 			{
				"patchline" : 				{
					"source" : [ "obj-125", 0 ],
					"destination" : [ "obj-33", 0 ],
					"hidden" : 1,
					"midpoints" : [ 637.5, 255.0, 705.5, 255.0 ]
				}

			}
, 			{
				"patchline" : 				{
					"source" : [ "obj-33", 0 ],
					"destination" : [ "obj-43", 0 ],
					"hidden" : 1,
					"midpoints" : [  ]
				}

			}
, 			{
				"patchline" : 				{
					"source" : [ "obj-42", 0 ],
					"destination" : [ "obj-47", 0 ],
					"hidden" : 1,
					"midpoints" : [  ]
				}

			}
, 			{
				"patchline" : 				{
					"source" : [ "obj-43", 0 ],
					"destination" : [ "obj-42", 0 ],
					"hidden" : 1,
					"midpoints" : [  ]
				}

			}
, 			{
				"patchline" : 				{
					"source" : [ "obj-125", 0 ],
					"destination" : [ "obj-51", 0 ],
					"hidden" : 1,
					"midpoints" : [ 637.5, 255.0, 773.5, 255.0 ]
				}

			}
, 			{
				"patchline" : 				{
					"source" : [ "obj-40", 0 ],
					"destination" : [ "obj-46", 0 ],
					"hidden" : 1,
					"midpoints" : [  ]
				}

			}
, 			{
				"patchline" : 				{
					"source" : [ "obj-51", 0 ],
					"destination" : [ "obj-41", 0 ],
					"hidden" : 1,
					"midpoints" : [  ]
				}

			}
, 			{
				"patchline" : 				{
					"source" : [ "obj-41", 0 ],
					"destination" : [ "obj-40", 0 ],
					"hidden" : 1,
					"midpoints" : [  ]
				}

			}
, 			{
				"patchline" : 				{
					"source" : [ "obj-125", 0 ],
					"destination" : [ "obj-44", 0 ],
					"hidden" : 1,
					"midpoints" : [ 637.5, 255.0, 847.5, 255.0 ]
				}

			}
, 			{
				"patchline" : 				{
					"source" : [ "obj-44", 0 ],
					"destination" : [ "obj-54", 0 ],
					"hidden" : 1,
					"midpoints" : [  ]
				}

			}
, 			{
				"patchline" : 				{
					"source" : [ "obj-54", 0 ],
					"destination" : [ "obj-45", 0 ],
					"hidden" : 1,
					"midpoints" : [  ]
				}

			}
 ]
	}

}
