#N canvas 685 47 679 700 10;
#X obj 37 203 SDT/dcmotor~;
#X floatatom 118 48 5 0 0 0 - - -, f 5;
#X floatatom 37 48 5 0 0 0 - - -, f 5;
#X msg 191 79 coils \$1;
#X msg 271 79 size \$1;
#X msg 345 79 reson \$1;
#X msg 425 79 gearRatio \$1;
#X msg 531 79 harshness \$1;
#X msg 189 135 rotorGain \$1;
#X msg 309 135 gearGain \$1;
#X msg 423 135 brushGain \$1;
#X msg 546 135 airGain \$1;
#X floatatom 191 48 5 0 0 0 - - -, f 5;
#X floatatom 271 49 5 0 0 0 - - -, f 5;
#X floatatom 345 49 5 0 0 0 - - -, f 5;
#X floatatom 425 50 5 0 0 0 - - -, f 5;
#X floatatom 531 52 5 0 0 0 - - -, f 5;
#X floatatom 189 110 5 0 0 0 - - -, f 5;
#X floatatom 309 111 5 0 0 0 - - -, f 5;
#X floatatom 423 112 5 0 0 0 - - -, f 5;
#X floatatom 546 111 5 0 0 0 - - -, f 5;
#X obj 36 267 dac~;
#X connect 0 0 21 0;
#X connect 0 0 21 1;
#X connect 1 0 0 1;
#X connect 2 0 0 0;
#X connect 3 0 0 0;
#X connect 4 0 0 0;
#X connect 5 0 0 0;
#X connect 6 0 0 0;
#X connect 7 0 0 0;
#X connect 8 0 0 0;
#X connect 9 0 0 0;
#X connect 10 0 0 0;
#X connect 11 0 0 0;
#X connect 12 0 3 0;
#X connect 13 0 4 0;
#X connect 14 0 5 0;
#X connect 15 0 6 0;
#X connect 16 0 7 0;
#X connect 17 0 8 0;
#X connect 18 0 9 0;
#X connect 19 0 10 0;
#X connect 20 0 11 0;
