#N canvas 408 420 1362 699 10;
#X obj 470 614 dac~;
#X msg 860 17 Sound Design Toolkit \; (C) 2001 - 2016 \; \; Project
SOb - soundobject.org \; Project CLOSED - closed.ircam.fr \; Project
NIW - soundobject.org/niw \; Project SkAT-VG - skatvg.eu;
#X obj 878 149 r pd;
#X obj 878 176 route dsp;
#X obj 878 201 select 1;
#X obj 939 201 loadbang;
#X msg 298 449 stiffness \$1;
#X msg 433 448 dissipation \$1;
#X obj 573 289 vsl 15 128 1 4 0 0 empty shape empty 0 -9 0 10 -262144
-1 -1 2117 1;
#X obj 433 289 vsl 15 128 0 40 0 0 empty dissipation empty 0 -9 0 10
-262144 -1 -1 317 1;
#X obj 298 291 vsl 15 128 1000 1e+08 1 0 empty stiffness empty 0 -9
0 10 -262144 -1 -1 10160 1;
#X floatatom 298 429 10 0 0 0 - - -;
#X floatatom 433 427 5 0 0 0 - - -;
#X floatatom 573 427 5 0 0 0 - - -;
#X text 256 268 Impact stiffness;
#X text 386 267 Impact dissipation;
#X msg 573 448 shape \$1;
#X obj 812 466 r hammerimp;
#X obj 97 472 r objectimp;
#X obj 748 493 inertial hammerimp;
#X obj 259 473 r imp;
#X obj 748 73 bng 32 250 50 0 empty empty empty 17 7 0 10 -262144 -1
-1;
#X text 541 267 Contact shape;
#X text 746 53 Strike!;
#X obj 470 583 *~ 1000;
#X obj 509 499 vsl 30 60 100 10000 0 0 empty empty empty 0 -9 0 10
-262144 -1 -1 4100 1;
#X obj 272 69 bng 32 250 50 0 empty empty empty 17 7 0 10 -262144 -1
-1;
#X obj 245 250 bng 15 250 50 0 empty empty empty 17 7 0 10 -262144
-1 -1;
#X msg 80 36 start;
#X msg 80 61 stop;
#X msg 80 85 clear;
#X obj 92 169 adc~;
#X text 48 4 modaltracker~ - Extracts prominent modes from audio;
#X text 125 36 Start recording;
#X text 126 61 Stop recording;
#X text 126 85 Clear buffers;
#X text 260 212 Arguments: n. of modes \, audio buffer size \, analysis
window size;
#X obj 575 116 metro 1;
#X obj 298 497 impact~ hammerimp objectimp 3;
#X obj 16 169 r tracker;
#X floatatom 512 166 5 0 0 0 - - -;
#X obj 512 73 bng 32 250 50 0 empty empty empty 17 7 0 10 -262144 -1
-1;
#X msg 575 75 stop;
#X obj 512 141 timer 1 sec;
#X text 378 36 Send parameters through main outlet:;
#X msg 748 221 strike 0 -10;
#X obj 80 498 modal objectimp 16 2;
#X text 269 51 Statically (no temporal evolution);
#X text 509 52 Dinamically (evolving with time);
#X obj 80 213 modaltracker~ 16 441000 4096;
#X msg 878 227 \; hammerimp mass 0.001 \; hammerimp fragmentSize 1
\; objectimp activeModes 16 \; objectimp fragmentSize 1 \; objectimp
pickup 0 0 0 0 0 0 0 0 0 0 0 0 0 0 0 0 0 \; imp contact0 0 \; imp contact1
0 \; tracker overlap 0.75 \; tracker pickup 1 \; stiffness 1e+07 \;
dissipation 1 \; shape 1.5 \;;
#X connect 2 0 3 0;
#X connect 3 0 4 0;
#X connect 4 0 50 0;
#X connect 5 0 50 0;
#X connect 6 0 38 0;
#X connect 7 0 38 0;
#X connect 8 0 13 0;
#X connect 9 0 12 0;
#X connect 10 0 11 0;
#X connect 11 0 6 0;
#X connect 12 0 7 0;
#X connect 13 0 16 0;
#X connect 16 0 38 0;
#X connect 17 0 19 0;
#X connect 18 0 46 0;
#X connect 20 0 38 0;
#X connect 21 0 45 0;
#X connect 24 0 0 0;
#X connect 24 0 0 1;
#X connect 25 0 24 1;
#X connect 26 0 49 0;
#X connect 28 0 49 0;
#X connect 29 0 49 0;
#X connect 30 0 49 0;
#X connect 31 0 49 0;
#X connect 37 0 43 1;
#X connect 38 2 24 0;
#X connect 39 0 49 0;
#X connect 40 0 49 0;
#X connect 41 0 37 0;
#X connect 41 0 43 0;
#X connect 41 0 45 0;
#X connect 42 0 37 0;
#X connect 43 0 40 0;
#X connect 45 0 19 0;
#X connect 49 0 46 0;
#X connect 49 1 27 0;
