#N canvas 434 339 534 210 10;
#X declare -lib SDT;
#X floatatom 13 125 5 0 0 0 - - -;
#X floatatom 100 124 5 0 0 0 - - -;
#X obj 78 49 adc~;
#X msg 306 8 Sound Design Toolkit \; (C) 2001 - 2024 \; \; Project
SOb - soundobject.org \; Project CLOSED - closed.ircam.fr \; Project
NIW - soundobject.org/niw \; Project SkAT-VG - skatvg.eu;
#X msg 307 161 \; pitch overlap 0.5 \; pitch tolerance 0.1 \;;
#X obj 13 49 r pitch;
#X text 16 6 pitch~ - Fundamental Frequency estimator;
#X text 11 143 Pitch (Hz);
#X text 98 142 Pitch clarity [0 \, 1];
#X text 117 87 Args: analysis window size;
#X obj 13 87 pitch~ 2048;
#X obj 338 139 loadbang;
#X obj 415 96 declare -lib SDT;
#X obj 307 120 r pd-dsp-started;
#X connect 2 0 10 0;
#X connect 5 0 10 0;
#X connect 10 0 0 0;
#X connect 10 1 1 0;
#X connect 11 0 4 0;
#X connect 13 0 4 0;
