#N canvas 189 484 525 287 10;
#X declare -lib SDT;
#X obj 114 67 vsl 15 128 0 1 0 0 empty speed empty 0 -9 0 10 -262144
-1 -1 5080 1;
#X floatatom 114 206 5 0 0 0 - - -;
#X text 90 43 Wind speed;
#X obj 114 260 dac~;
#X msg 294 9 Sound Design Toolkit \; (C) 2001 - 2024 \; \; Project
SOb - soundobject.org \; Project CLOSED - closed.ircam.fr \; Project
NIW - soundobject.org/niw \; Project SkAT-VG - skatvg.eu;
#X text 11 4 windflow~ - Wind against solid surfaces;
#X msg 338 199 \; speed 0.4 \;;
#X obj 114 230 windflow~;
#X obj 356 177 loadbang;
#X obj 403 98 declare -lib SDT;
#X obj 338 155 r pd-dsp-started;
#X connect 0 0 1 0;
#X connect 1 0 7 0;
#X connect 7 0 3 0;
#X connect 7 0 3 1;
#X connect 8 0 6 0;
#X connect 10 0 6 0;
