#N canvas 913 47 451 700 10;
#X obj 130 370 SDT/windkarman~;
#X obj 119 527 dac~;
#X msg 130 255 diameter \$1;
#X floatatom 10 195 5 0 0 0 - - -, f 5;
#X floatatom 130 195 5 0 0 0 - - -, f 5;
#X obj 130 224 * 0.001;
#X obj 260 370 SDT/windcavity~;
#X msg 346 255 diameter \$1;
#X floatatom 260 194 5 0 0 0 - - -, f 5;
#X floatatom 346 195 5 0 0 0 - - -, f 5;
#X msg 260 255 length \$1;
#X obj 10 370 SDT/windflow~;
#X obj 260 438 *~;
#X obj 131 437 *~;
#X obj 10 436 *~;
#X floatatom 28 402 5 0 0 0 - - -, f 5;
#X floatatom 149 403 5 0 0 0 - - -, f 5;
#X floatatom 278 405 5 0 0 0 - - -, f 5;
#X connect 0 0 13 0;
#X connect 2 0 0 0;
#X connect 3 0 0 0;
#X connect 3 0 6 0;
#X connect 3 0 11 0;
#X connect 4 0 5 0;
#X connect 5 0 2 0;
#X connect 6 0 12 0;
#X connect 7 0 6 0;
#X connect 8 0 10 0;
#X connect 9 0 7 0;
#X connect 10 0 6 0;
#X connect 11 0 14 0;
#X connect 12 0 1 0;
#X connect 12 0 1 1;
#X connect 13 0 1 0;
#X connect 13 0 1 1;
#X connect 14 0 1 0;
#X connect 14 0 1 1;
#X connect 15 0 14 1;
#X connect 16 0 13 1;
#X connect 17 0 12 1;
