{
	"patcher" : 	{
		"fileversion" : 1,
		"rect" : [ 147.0, 175.0, 802.0, 538.0 ],
		"bgcolor" : [ 1.0, 0.727539, 0.4375, 1.0 ],
		"bglocked" : 0,
		"defrect" : [ 147.0, 175.0, 802.0, 538.0 ],
		"openrect" : [ 0.0, 0.0, 0.0, 0.0 ],
		"openinpresentation" : 0,
		"default_fontsize" : 10.0,
		"default_fontface" : 0,
		"default_fontname" : "Arial",
		"gridonopen" : 0,
		"gridsize" : [ 15.0, 15.0 ],
		"gridsnaponopen" : 0,
		"toolbarvisible" : 1,
		"boxanimatetime" : 200,
		"imprint" : 0,
		"enablehscroll" : 1,
		"enablevscroll" : 1,
		"devicewidth" : 0.0,
		"boxes" : [ 			{
				"box" : 				{
					"maxclass" : "ubutton",
					"outlettype" : [ "bang", "bang", "", "int" ],
					"patching_rect" : [ 625.0, 98.0, 101.0, 12.0 ],
					"id" : "obj-26",
					"handoff" : "",
					"numinlets" : 1,
					"numoutlets" : 4
				}

			}
, 			{
				"box" : 				{
					"maxclass" : "ubutton",
					"outlettype" : [ "bang", "bang", "", "int" ],
					"patching_rect" : [ 643.0, 83.0, 88.0, 12.0 ],
					"id" : "obj-23",
					"handoff" : "",
					"numinlets" : 1,
					"numoutlets" : 4
				}

			}
, 			{
				"box" : 				{
					"maxclass" : "ubutton",
					"outlettype" : [ "bang", "bang", "", "int" ],
					"patching_rect" : [ 624.0, 66.0, 115.0, 12.0 ],
					"id" : "obj-19",
					"handoff" : "",
					"numinlets" : 1,
					"numoutlets" : 4
				}

			}
, 			{
				"box" : 				{
					"maxclass" : "newobj",
					"text" : "p url",
					"patching_rect" : [ 641.0, 112.0, 36.0, 18.0 ],
					"id" : "obj-17",
					"fontname" : "Arial",
					"hidden" : 1,
					"numinlets" : 3,
					"fontsize" : 10.0,
					"numoutlets" : 0,
					"patcher" : 					{
						"fileversion" : 1,
						"rect" : [ 25.0, 69.0, 640.0, 480.0 ],
						"bglocked" : 0,
						"defrect" : [ 25.0, 69.0, 640.0, 480.0 ],
						"openrect" : [ 0.0, 0.0, 0.0, 0.0 ],
						"openinpresentation" : 0,
						"default_fontsize" : 9.0,
						"default_fontface" : 0,
						"default_fontname" : "Arial",
						"gridonopen" : 0,
						"gridsize" : [ 15.0, 15.0 ],
						"gridsnaponopen" : 0,
						"toolbarvisible" : 1,
						"boxanimatetime" : 200,
						"imprint" : 0,
						"enablehscroll" : 1,
						"enablevscroll" : 1,
						"devicewidth" : 0.0,
						"boxes" : [ 							{
								"box" : 								{
									"maxclass" : "inlet",
									"outlettype" : [ "bang" ],
									"patching_rect" : [ 96.0, 87.0, 25.0, 25.0 ],
									"id" : "obj-9",
									"numinlets" : 0,
									"numoutlets" : 1,
									"comment" : ""
								}

							}
, 							{
								"box" : 								{
									"maxclass" : "inlet",
									"outlettype" : [ "bang" ],
									"patching_rect" : [ 61.0, 87.0, 25.0, 25.0 ],
									"id" : "obj-8",
									"numinlets" : 0,
									"numoutlets" : 1,
									"comment" : ""
								}

							}
, 							{
								"box" : 								{
									"maxclass" : "inlet",
									"outlettype" : [ "bang" ],
									"patching_rect" : [ 139.0, 87.0, 25.0, 25.0 ],
									"id" : "obj-7",
									"numinlets" : 0,
									"numoutlets" : 1,
									"comment" : ""
								}

							}
, 							{
								"box" : 								{
									"maxclass" : "button",
									"outlettype" : [ "bang" ],
									"patching_rect" : [ 68.0, 210.0, 20.0, 20.0 ],
									"id" : "obj-5",
									"numinlets" : 1,
									"numoutlets" : 1
								}

							}
, 							{
								"box" : 								{
									"maxclass" : "message",
									"text" : ";\rmax launchbrowser http://www.soundobject.org/",
									"linecount" : 2,
									"outlettype" : [ "" ],
									"patching_rect" : [ 67.0, 236.0, 265.0, 32.0 ],
									"id" : "obj-6",
									"fontname" : "Arial",
									"numinlets" : 2,
									"fontsize" : 12.0,
									"numoutlets" : 1
								}

							}
, 							{
								"box" : 								{
									"maxclass" : "button",
									"outlettype" : [ "bang" ],
									"patching_rect" : [ 94.0, 172.0, 20.0, 20.0 ],
									"id" : "obj-3",
									"numinlets" : 1,
									"numoutlets" : 1
								}

							}
, 							{
								"box" : 								{
									"maxclass" : "message",
									"text" : ";\rmax launchbrowser http://closed.ircam.fr",
									"linecount" : 2,
									"outlettype" : [ "" ],
									"patching_rect" : [ 93.0, 198.0, 226.0, 32.0 ],
									"id" : "obj-4",
									"fontname" : "Arial",
									"numinlets" : 2,
									"fontsize" : 12.0,
									"numoutlets" : 1
								}

							}
, 							{
								"box" : 								{
									"maxclass" : "button",
									"outlettype" : [ "bang" ],
									"patching_rect" : [ 123.0, 120.0, 20.0, 20.0 ],
									"id" : "obj-2",
									"numinlets" : 1,
									"numoutlets" : 1
								}

							}
, 							{
								"box" : 								{
									"maxclass" : "message",
									"text" : ";\rmax launchbrowser http://www.niwproject.eu",
									"linecount" : 2,
									"outlettype" : [ "" ],
									"patching_rect" : [ 122.0, 146.0, 247.0, 32.0 ],
									"id" : "obj-11",
									"fontname" : "Arial",
									"numinlets" : 2,
									"fontsize" : 12.0,
									"numoutlets" : 1
								}

							}
 ],
						"lines" : [ 							{
								"patchline" : 								{
									"source" : [ "obj-7", 0 ],
									"destination" : [ "obj-2", 0 ],
									"hidden" : 0,
									"midpoints" : [  ]
								}

							}
, 							{
								"patchline" : 								{
									"source" : [ "obj-9", 0 ],
									"destination" : [ "obj-3", 0 ],
									"hidden" : 0,
									"midpoints" : [  ]
								}

							}
, 							{
								"patchline" : 								{
									"source" : [ "obj-8", 0 ],
									"destination" : [ "obj-5", 0 ],
									"hidden" : 0,
									"midpoints" : [  ]
								}

							}
, 							{
								"patchline" : 								{
									"source" : [ "obj-5", 0 ],
									"destination" : [ "obj-6", 0 ],
									"hidden" : 0,
									"midpoints" : [  ]
								}

							}
, 							{
								"patchline" : 								{
									"source" : [ "obj-3", 0 ],
									"destination" : [ "obj-4", 0 ],
									"hidden" : 0,
									"midpoints" : [  ]
								}

							}
, 							{
								"patchline" : 								{
									"source" : [ "obj-2", 0 ],
									"destination" : [ "obj-11", 0 ],
									"hidden" : 0,
									"midpoints" : [  ]
								}

							}
 ]
					}
,
					"saved_object_attributes" : 					{
						"default_fontface" : 0,
						"default_fontname" : "Arial",
						"fontname" : "Arial",
						"default_fontsize" : 9.0,
						"globalpatchername" : "",
						"fontface" : 0,
						"fontsize" : 9.0
					}

				}

			}
, 			{
				"box" : 				{
					"maxclass" : "comment",
					"text" : "contact: stefano [dot] dellemonache [at] gmail [dot] com",
					"patching_rect" : [ 505.0, 485.0, 259.0, 18.0 ],
					"id" : "obj-2",
					"fontname" : "Arial",
					"numinlets" : 1,
					"fontsize" : 10.0,
					"numoutlets" : 0
				}

			}
, 			{
				"box" : 				{
					"maxclass" : "comment",
					"text" : "stefano [dot] papetti [at] univr.it",
					"patching_rect" : [ 543.0, 502.0, 222.0, 18.0 ],
					"id" : "obj-10",
					"fontname" : "Arial",
					"numinlets" : 1,
					"fontsize" : 10.0,
					"numoutlets" : 0
				}

			}
, 			{
				"box" : 				{
					"maxclass" : "newobj",
					"text" : "- 1",
					"outlettype" : [ "int" ],
					"patching_rect" : [ 71.0, 580.0, 29.0, 18.0 ],
					"id" : "obj-5",
					"fontname" : "Arial",
					"hidden" : 1,
					"numinlets" : 2,
					"fontsize" : 10.0,
					"numoutlets" : 1
				}

			}
, 			{
				"box" : 				{
					"maxclass" : "newobj",
					"text" : "loadbang",
					"outlettype" : [ "bang" ],
					"patching_rect" : [ 161.0, 601.0, 53.0, 18.0 ],
					"id" : "obj-6",
					"fontname" : "Arial",
					"hidden" : 1,
					"numinlets" : 1,
					"fontsize" : 10.0,
					"numoutlets" : 1
				}

			}
, 			{
				"box" : 				{
					"maxclass" : "newobj",
					"text" : "t b i",
					"outlettype" : [ "bang", "int" ],
					"patching_rect" : [ 54.0, 560.0, 36.0, 18.0 ],
					"id" : "obj-7",
					"fontname" : "Arial",
					"hidden" : 1,
					"numinlets" : 1,
					"fontsize" : 10.0,
					"numoutlets" : 2
				}

			}
, 			{
				"box" : 				{
					"maxclass" : "message",
					"text" : "sort -1 $1",
					"outlettype" : [ "" ],
					"patching_rect" : [ 71.0, 602.0, 63.0, 16.0 ],
					"id" : "obj-8",
					"fontname" : "Arial",
					"hidden" : 1,
					"numinlets" : 2,
					"fontsize" : 10.0,
					"numoutlets" : 1
				}

			}
, 			{
				"box" : 				{
					"maxclass" : "newobj",
					"text" : "pvar SDT_ubu 3",
					"outlettype" : [ "", "", "" ],
					"patching_rect" : [ 55.0, 540.0, 83.0, 18.0 ],
					"id" : "obj-9",
					"fontname" : "Arial",
					"hidden" : 1,
					"numinlets" : 1,
					"fontsize" : 10.0,
					"numoutlets" : 3
				}

			}
, 			{
				"box" : 				{
					"maxclass" : "message",
					"text" : "refer SDT_objlist",
					"outlettype" : [ "" ],
					"patching_rect" : [ 53.0, 647.0, 85.0, 16.0 ],
					"id" : "obj-16",
					"fontname" : "Arial",
					"hidden" : 1,
					"numinlets" : 2,
					"fontsize" : 10.0,
					"numoutlets" : 1
				}

			}
, 			{
				"box" : 				{
					"maxclass" : "newobj",
					"text" : "pvar SDT_list 4",
					"outlettype" : [ "", "", "", "" ],
					"patching_rect" : [ 54.0, 665.0, 79.0, 18.0 ],
					"id" : "obj-22",
					"fontname" : "Arial",
					"hidden" : 1,
					"numinlets" : 1,
					"fontsize" : 10.0,
					"numoutlets" : 4
				}

			}
, 			{
				"box" : 				{
					"maxclass" : "newobj",
					"text" : "coll SDT_objlist",
					"outlettype" : [ "", "", "", "" ],
					"patching_rect" : [ 69.0, 623.0, 79.0, 18.0 ],
					"id" : "obj-24",
					"fontname" : "Arial",
					"hidden" : 1,
					"numinlets" : 1,
					"fontsize" : 10.0,
					"numoutlets" : 4,
					"coll_data" : 					{
						"count" : 18,
						"data" : [ 							{
								"key" : "bouncing",
								"value" : [ "high level", "solids contact", "Bouncing is a sound process resulting from repeated macro-impact events" ]
							}
, 							{
								"key" : "breaking",
								"value" : [ "high level", "solids contact", "simulates the event of solids breaking" ]
							}
, 							{
								"key" : "bubblestream~",
								"value" : [ "high level", "liquids", "population of bubbles" ]
							}
, 							{
								"key" : "control_contcrump",
								"value" : [ "high level", "solids contact", "simplified version of control_crump, with continuous generation of stochastic events" ]
							}
, 							{
								"key" : "control_crump",
								"value" : [ "high level", "solids contact", "modeler of crumpling events" ]
							}
, 							{
								"key" : "friction_2modalb~",
								"value" : [ "low level", "solids contact", "non-linear friction between two modal objects" ]
							}
, 							{
								"key" : "friction_modalb_wg~",
								"value" : [ "low level", "solids contact", "non-linear friction between one modal and one waveguide object" ]
							}
, 							{
								"key" : "impact_2modalb~",
								"value" : [ "low level", "solids contact", "non-linear impact between two modal objects" ]
							}
, 							{
								"key" : "impact_inertialb_modalb~",
								"value" : [ "low level", "solids contact", "non-linear impact between one inertial and one modal object" ]
							}
, 							{
								"key" : "impact_inertialb_wg~",
								"value" : [ "low level", "solids contact", "non-linear impact between one inertial and one waveguide object" ]
							}
, 							{
								"key" : "impact_modalb_wg~",
								"value" : [ "low level", "solids contact", "non-linear impact between one modal and one waveguide object" ]
							}
, 							{
								"key" : "linpact_2modalb~",
								"value" : [ "low level", "solids contact", "linear impact between two modal objects" ]
							}
, 							{
								"key" : "linpact_inertialb_modalb~",
								"value" : [ "low level", "solids contact", "linear impact between one inertial and one modal object" ]
							}
, 							{
								"key" : "mesh2D_dynamic~",
								"value" : [ "spatialization", "acoustic depth", "suitable for rendering one moving sound source along the depth dimension" ]
							}
, 							{
								"key" : "mesh2D_static~",
								"value" : [ "spatialization", "acoustic depth", "suitable for rendering one or more static sound sources at different positions from the listener" ]
							}
, 							{
								"key" : "onebubble~",
								"value" : [ "low level", "liquids", "single radially oscillating bubble" ]
							}
, 							{
								"key" : "rolling",
								"value" : [ "high level", "solids contact", "simulates a ball rolling on a smooth surface" ]
							}
, 							{
								"key" : "splash~",
								"value" : [ "high level", "liquids", "splash or dripping event" ]
							}
 ]
					}
,
					"saved_object_attributes" : 					{
						"embed" : 1
					}

				}

			}
, 			{
				"box" : 				{
					"maxclass" : "bpatcher",
					"lockeddragscroll" : 1,
					"patching_rect" : [ 556.0, 7.0, 240.0, 112.0 ],
					"offset" : [ 1.0, 5.0 ],
					"id" : "obj-30",
					"name" : "_SDT_label.maxpat",
					"numinlets" : 0,
					"args" : [  ],
					"numoutlets" : 0
				}

			}
, 			{
				"box" : 				{
					"maxclass" : "newobj",
					"text" : "bgcolor 1. 0.727539 0.4375 1.",
					"patching_rect" : [ 645.0, 491.0, 143.0, 18.0 ],
					"id" : "obj-29",
					"fontname" : "Arial",
					"hidden" : 1,
					"numinlets" : 4,
					"fontsize" : 10.0,
					"numoutlets" : 0
				}

			}
, 			{
				"box" : 				{
					"maxclass" : "comment",
					"text" : "Description",
					"patching_rect" : [ 341.0, 133.0, 63.0, 18.0 ],
					"id" : "obj-28",
					"fontname" : "Arial",
					"numinlets" : 1,
					"fontsize" : 10.0,
					"numoutlets" : 0
				}

			}
, 			{
				"box" : 				{
					"maxclass" : "jit.cellblock",
					"varname" : "SDT_list",
					"outlettype" : [ "list", "", "", "" ],
					"patching_rect" : [ 52.0, 153.0, 714.0, 328.0 ],
					"id" : "obj-18",
					"fontname" : "Arial",
					"colwidth" : 128,
					"numinlets" : 2,
					"cols" : 4,
					"selmode" : 3,
					"fontsize" : 10.0,
					"numoutlets" : 4,
					"rows" : 18,
					"coldef" : [ [ 0, 128, 1, 1.0, 1.0, 1.0, 1, 1.0, 1.0, 1.0, -1, -1, -1 ], [ 1, 75, 1, 1.0, 1.0, 1.0, 1, 1.0, 1.0, 1.0, -1, -1, -1 ], [ 2, 77, 1, 1.0, 1.0, 1.0, 1, 1.0, 1.0, 1.0, -1, -1, -1 ], [ 3, 430, 1, 1.0, 1.0, 1.0, 1, 1.0, 1.0, 1.0, -1, -1, -1 ] ]
				}

			}
, 			{
				"box" : 				{
					"maxclass" : "newobj",
					"text" : "pcontrol",
					"outlettype" : [ "" ],
					"patching_rect" : [ 53.0, 506.0, 47.0, 17.0 ],
					"id" : "obj-1",
					"fontname" : "Arial",
					"hidden" : 1,
					"numinlets" : 1,
					"fontsize" : 9.0,
					"numoutlets" : 1
				}

			}
, 			{
				"box" : 				{
					"maxclass" : "newobj",
					"text" : "p launch_help",
					"outlettype" : [ "" ],
					"patching_rect" : [ 53.0, 484.0, 70.0, 17.0 ],
					"id" : "obj-4",
					"fontname" : "Arial",
					"hidden" : 1,
					"numinlets" : 1,
					"fontsize" : 9.0,
					"numoutlets" : 1,
					"patcher" : 					{
						"fileversion" : 1,
						"rect" : [ 840.0, 293.0, 600.0, 426.0 ],
						"bglocked" : 0,
						"defrect" : [ 840.0, 293.0, 600.0, 426.0 ],
						"openrect" : [ 0.0, 0.0, 0.0, 0.0 ],
						"openinpresentation" : 0,
						"default_fontsize" : 10.0,
						"default_fontface" : 0,
						"default_fontname" : "Arial",
						"gridonopen" : 0,
						"gridsize" : [ 15.0, 15.0 ],
						"gridsnaponopen" : 0,
						"toolbarvisible" : 1,
						"boxanimatetime" : 200,
						"imprint" : 0,
						"enablehscroll" : 1,
						"enablevscroll" : 1,
						"devicewidth" : 0.0,
						"boxes" : [ 							{
								"box" : 								{
									"maxclass" : "newobj",
									"text" : "print",
									"patching_rect" : [ 269.0, 92.0, 32.0, 17.0 ],
									"id" : "obj-1",
									"fontname" : "Arial",
									"numinlets" : 1,
									"fontsize" : 9.0,
									"numoutlets" : 0
								}

							}
, 							{
								"box" : 								{
									"maxclass" : "outlet",
									"patching_rect" : [ 171.0, 294.0, 15.0, 15.0 ],
									"id" : "obj-2",
									"numinlets" : 1,
									"numoutlets" : 0,
									"comment" : ""
								}

							}
, 							{
								"box" : 								{
									"maxclass" : "newobj",
									"text" : "prepend help",
									"outlettype" : [ "" ],
									"patching_rect" : [ 171.0, 264.0, 66.0, 17.0 ],
									"id" : "obj-3",
									"fontname" : "Arial",
									"numinlets" : 1,
									"fontsize" : 9.0,
									"numoutlets" : 1
								}

							}
, 							{
								"box" : 								{
									"maxclass" : "newobj",
									"text" : "zl nth 3",
									"outlettype" : [ "", "" ],
									"patching_rect" : [ 197.0, 216.0, 44.0, 17.0 ],
									"id" : "obj-4",
									"fontname" : "Arial",
									"numinlets" : 2,
									"fontsize" : 9.0,
									"numoutlets" : 2
								}

							}
, 							{
								"box" : 								{
									"maxclass" : "newobj",
									"text" : "t l l",
									"outlettype" : [ "", "" ],
									"patching_rect" : [ 197.0, 105.0, 57.0, 17.0 ],
									"id" : "obj-5",
									"fontname" : "Arial",
									"numinlets" : 1,
									"fontsize" : 9.0,
									"numoutlets" : 2
								}

							}
, 							{
								"box" : 								{
									"maxclass" : "newobj",
									"text" : "zl reg",
									"outlettype" : [ "", "" ],
									"patching_rect" : [ 171.0, 242.0, 36.0, 17.0 ],
									"id" : "obj-6",
									"fontname" : "Arial",
									"numinlets" : 2,
									"fontsize" : 9.0,
									"numoutlets" : 2
								}

							}
, 							{
								"box" : 								{
									"maxclass" : "newobj",
									"text" : "zl reg",
									"outlettype" : [ "", "" ],
									"patching_rect" : [ 197.0, 193.0, 57.0, 17.0 ],
									"id" : "obj-7",
									"fontname" : "Arial",
									"numinlets" : 2,
									"fontsize" : 9.0,
									"numoutlets" : 2
								}

							}
, 							{
								"box" : 								{
									"maxclass" : "newobj",
									"text" : "sel 0",
									"outlettype" : [ "bang", "" ],
									"patching_rect" : [ 197.0, 152.0, 32.0, 17.0 ],
									"id" : "obj-8",
									"fontname" : "Arial",
									"numinlets" : 2,
									"fontsize" : 9.0,
									"numoutlets" : 2
								}

							}
, 							{
								"box" : 								{
									"maxclass" : "newobj",
									"text" : "sel 1",
									"outlettype" : [ "bang", "" ],
									"patching_rect" : [ 116.0, 217.0, 32.0, 17.0 ],
									"id" : "obj-9",
									"fontname" : "Arial",
									"numinlets" : 2,
									"fontsize" : 9.0,
									"numoutlets" : 2
								}

							}
, 							{
								"box" : 								{
									"maxclass" : "newobj",
									"text" : "> 1",
									"outlettype" : [ "int" ],
									"patching_rect" : [ 116.0, 196.0, 27.0, 17.0 ],
									"id" : "obj-10",
									"fontname" : "Arial",
									"numinlets" : 2,
									"fontsize" : 9.0,
									"numoutlets" : 1
								}

							}
, 							{
								"box" : 								{
									"maxclass" : "newobj",
									"text" : "zl len",
									"outlettype" : [ "", "" ],
									"patching_rect" : [ 116.0, 174.0, 34.0, 17.0 ],
									"id" : "obj-11",
									"fontname" : "Arial",
									"numinlets" : 2,
									"fontsize" : 9.0,
									"numoutlets" : 2
								}

							}
, 							{
								"box" : 								{
									"maxclass" : "message",
									"text" : "1",
									"outlettype" : [ "" ],
									"patching_rect" : [ 116.0, 134.0, 16.0, 15.0 ],
									"id" : "obj-12",
									"fontname" : "Arial",
									"numinlets" : 2,
									"fontsize" : 9.0,
									"numoutlets" : 1
								}

							}
, 							{
								"box" : 								{
									"maxclass" : "newobj",
									"text" : "thresh 400",
									"outlettype" : [ "" ],
									"patching_rect" : [ 116.0, 153.0, 52.0, 17.0 ],
									"id" : "obj-13",
									"fontname" : "Arial",
									"numinlets" : 2,
									"fontsize" : 9.0,
									"numoutlets" : 1
								}

							}
, 							{
								"box" : 								{
									"maxclass" : "newobj",
									"text" : "zl nth 1",
									"outlettype" : [ "", "" ],
									"patching_rect" : [ 197.0, 131.0, 44.0, 17.0 ],
									"id" : "obj-14",
									"fontname" : "Arial",
									"numinlets" : 2,
									"fontsize" : 9.0,
									"numoutlets" : 2
								}

							}
, 							{
								"box" : 								{
									"maxclass" : "inlet",
									"outlettype" : [ "list" ],
									"patching_rect" : [ 197.0, 85.0, 15.0, 15.0 ],
									"id" : "obj-15",
									"numinlets" : 0,
									"numoutlets" : 1,
									"comment" : ""
								}

							}
 ],
						"lines" : [ 							{
								"patchline" : 								{
									"source" : [ "obj-5", 1 ],
									"destination" : [ "obj-7", 1 ],
									"hidden" : 0,
									"midpoints" : [  ]
								}

							}
, 							{
								"patchline" : 								{
									"source" : [ "obj-4", 0 ],
									"destination" : [ "obj-6", 1 ],
									"hidden" : 0,
									"midpoints" : [  ]
								}

							}
, 							{
								"patchline" : 								{
									"source" : [ "obj-7", 0 ],
									"destination" : [ "obj-4", 0 ],
									"hidden" : 0,
									"midpoints" : [  ]
								}

							}
, 							{
								"patchline" : 								{
									"source" : [ "obj-8", 0 ],
									"destination" : [ "obj-7", 0 ],
									"hidden" : 0,
									"midpoints" : [  ]
								}

							}
, 							{
								"patchline" : 								{
									"source" : [ "obj-14", 0 ],
									"destination" : [ "obj-8", 0 ],
									"hidden" : 0,
									"midpoints" : [  ]
								}

							}
, 							{
								"patchline" : 								{
									"source" : [ "obj-5", 0 ],
									"destination" : [ "obj-14", 0 ],
									"hidden" : 0,
									"midpoints" : [  ]
								}

							}
, 							{
								"patchline" : 								{
									"source" : [ "obj-15", 0 ],
									"destination" : [ "obj-5", 0 ],
									"hidden" : 0,
									"midpoints" : [  ]
								}

							}
, 							{
								"patchline" : 								{
									"source" : [ "obj-3", 0 ],
									"destination" : [ "obj-2", 0 ],
									"hidden" : 0,
									"midpoints" : [  ]
								}

							}
, 							{
								"patchline" : 								{
									"source" : [ "obj-6", 0 ],
									"destination" : [ "obj-3", 0 ],
									"hidden" : 0,
									"midpoints" : [  ]
								}

							}
, 							{
								"patchline" : 								{
									"source" : [ "obj-9", 0 ],
									"destination" : [ "obj-6", 0 ],
									"hidden" : 0,
									"midpoints" : [ 125.5, 239.0, 180.5, 239.0 ]
								}

							}
, 							{
								"patchline" : 								{
									"source" : [ "obj-10", 0 ],
									"destination" : [ "obj-9", 0 ],
									"hidden" : 0,
									"midpoints" : [  ]
								}

							}
, 							{
								"patchline" : 								{
									"source" : [ "obj-11", 0 ],
									"destination" : [ "obj-10", 0 ],
									"hidden" : 0,
									"midpoints" : [  ]
								}

							}
, 							{
								"patchline" : 								{
									"source" : [ "obj-13", 0 ],
									"destination" : [ "obj-11", 0 ],
									"hidden" : 0,
									"midpoints" : [  ]
								}

							}
, 							{
								"patchline" : 								{
									"source" : [ "obj-12", 0 ],
									"destination" : [ "obj-13", 0 ],
									"hidden" : 0,
									"midpoints" : [  ]
								}

							}
, 							{
								"patchline" : 								{
									"source" : [ "obj-8", 0 ],
									"destination" : [ "obj-12", 0 ],
									"hidden" : 0,
									"midpoints" : [  ]
								}

							}
 ]
					}
,
					"saved_object_attributes" : 					{
						"default_fontface" : 0,
						"default_fontname" : "Arial",
						"fontname" : "Arial",
						"default_fontsize" : 10.0,
						"globalpatchername" : "",
						"fontface" : 0,
						"fontsize" : 10.0
					}

				}

			}
, 			{
				"box" : 				{
					"maxclass" : "comment",
					"text" : "Interaction",
					"patching_rect" : [ 259.0, 133.0, 63.0, 18.0 ],
					"id" : "obj-11",
					"fontname" : "Arial",
					"numinlets" : 1,
					"fontsize" : 10.0,
					"numoutlets" : 0
				}

			}
, 			{
				"box" : 				{
					"maxclass" : "comment",
					"text" : "Layer",
					"patching_rect" : [ 183.0, 133.0, 61.0, 18.0 ],
					"id" : "obj-12",
					"fontname" : "Arial",
					"numinlets" : 1,
					"fontsize" : 10.0,
					"numoutlets" : 0
				}

			}
, 			{
				"box" : 				{
					"maxclass" : "comment",
					"text" : "Object/sound model",
					"patching_rect" : [ 56.0, 133.0, 100.0, 18.0 ],
					"id" : "obj-13",
					"fontname" : "Arial",
					"numinlets" : 1,
					"fontsize" : 10.0,
					"numoutlets" : 0
				}

			}
, 			{
				"box" : 				{
					"maxclass" : "umenu",
					"varname" : "SDT_ubu",
					"items" : [ "Name", ",", "Layer", ",", "Interaction" ],
					"outlettype" : [ "int", "", "" ],
					"types" : [  ],
					"patching_rect" : [ 663.0, 133.0, 100.0, 18.0 ],
					"id" : "obj-14",
					"fontname" : "Arial",
					"numinlets" : 1,
					"fontsize" : 10.0,
					"numoutlets" : 3
				}

			}
, 			{
				"box" : 				{
					"maxclass" : "comment",
					"text" : "Sort by:",
					"patching_rect" : [ 602.0, 133.0, 61.0, 18.0 ],
					"id" : "obj-25",
					"fontname" : "Arial",
					"numinlets" : 1,
					"fontsize" : 10.0,
					"numoutlets" : 0
				}

			}
, 			{
				"box" : 				{
					"maxclass" : "comment",
					"text" : "Double-click on a row to display the object/sound model's help file. ",
					"patching_rect" : [ 60.0, 501.0, 365.0, 18.0 ],
					"id" : "obj-3",
					"fontname" : "Arial",
					"numinlets" : 1,
					"fontsize" : 10.0,
					"numoutlets" : 0
				}

			}
, 			{
				"box" : 				{
					"maxclass" : "panel",
					"bgcolor" : [ 1.0, 1.0, 1.0, 0.396078 ],
					"patching_rect" : [ 51.0, 491.0, 319.0, 36.0 ],
					"id" : "obj-21",
					"rounded" : 0,
					"bordercolor" : [ 1.0, 1.0, 1.0, 0.647059 ],
					"numinlets" : 1,
					"border" : 1,
					"numoutlets" : 0
				}

			}
, 			{
				"box" : 				{
					"maxclass" : "panel",
					"bgcolor" : [ 0.0, 0.0, 0.0, 0.0 ],
					"patching_rect" : [ 19.0, 47.0, 536.0, 4.0 ],
					"id" : "obj-20",
					"rounded" : 0,
					"bordercolor" : [ 0.0, 0.0, 0.0, 0.207843 ],
					"numinlets" : 1,
					"border" : 1,
					"numoutlets" : 0
				}

			}
, 			{
				"box" : 				{
					"maxclass" : "comment",
					"text" : "Sound Design Toolkit",
					"patching_rect" : [ 44.0, 15.0, 565.0, 41.0 ],
					"id" : "obj-15",
					"fontname" : "Arial",
					"textcolor" : [ 0.258824, 0.258824, 0.258824, 1.0 ],
					"frgb" : [ 0.258824, 0.258824, 0.258824, 1.0 ],
					"numinlets" : 1,
					"fontface" : 1,
					"fontsize" : 30.028469,
					"numoutlets" : 0
				}

			}
 ],
		"lines" : [ 			{
				"patchline" : 				{
					"source" : [ "obj-26", 1 ],
					"destination" : [ "obj-17", 2 ],
					"hidden" : 1,
					"midpoints" : [  ]
				}

			}
, 			{
				"patchline" : 				{
					"source" : [ "obj-23", 1 ],
					"destination" : [ "obj-17", 1 ],
					"hidden" : 1,
					"midpoints" : [  ]
				}

			}
, 			{
				"patchline" : 				{
					"source" : [ "obj-19", 1 ],
					"destination" : [ "obj-17", 0 ],
					"hidden" : 1,
					"midpoints" : [  ]
				}

			}
, 			{
				"patchline" : 				{
					"source" : [ "obj-4", 0 ],
					"destination" : [ "obj-1", 0 ],
					"hidden" : 1,
					"midpoints" : [  ]
				}

			}
, 			{
				"patchline" : 				{
					"source" : [ "obj-18", 0 ],
					"destination" : [ "obj-4", 0 ],
					"hidden" : 1,
					"midpoints" : [  ]
				}

			}
, 			{
				"patchline" : 				{
					"source" : [ "obj-8", 0 ],
					"destination" : [ "obj-24", 0 ],
					"hidden" : 1,
					"midpoints" : [  ]
				}

			}
, 			{
				"patchline" : 				{
					"source" : [ "obj-5", 0 ],
					"destination" : [ "obj-8", 0 ],
					"hidden" : 1,
					"midpoints" : [  ]
				}

			}
, 			{
				"patchline" : 				{
					"source" : [ "obj-7", 1 ],
					"destination" : [ "obj-5", 0 ],
					"hidden" : 1,
					"midpoints" : [  ]
				}

			}
, 			{
				"patchline" : 				{
					"source" : [ "obj-7", 0 ],
					"destination" : [ "obj-16", 0 ],
					"hidden" : 1,
					"midpoints" : [  ]
				}

			}
, 			{
				"patchline" : 				{
					"source" : [ "obj-6", 0 ],
					"destination" : [ "obj-16", 0 ],
					"hidden" : 1,
					"midpoints" : [ 170.5, 644.0, 62.5, 644.0 ]
				}

			}
, 			{
				"patchline" : 				{
					"source" : [ "obj-9", 0 ],
					"destination" : [ "obj-7", 0 ],
					"hidden" : 1,
					"midpoints" : [  ]
				}

			}
, 			{
				"patchline" : 				{
					"source" : [ "obj-16", 0 ],
					"destination" : [ "obj-22", 0 ],
					"hidden" : 1,
					"midpoints" : [  ]
				}

			}
 ]
	}

}
