#N canvas 685 47 679 700 10;
#X obj 164 242 SDT/explosion~;
#X msg 204 124 blastTime \$1;
#X msg 306 124 scatterTime \$1;
#X msg 421 124 dispersion \$1;
#X msg 222 178 distance \$1;
#X msg 316 178 waveSpeed \$1;
#X msg 418 178 windSpeed \$1;
#X floatatom 204 98 5 0 0 0 - - -, f 5;
#X floatatom 306 99 5 0 0 0 - - -, f 5;
#X floatatom 421 99 5 0 0 0 - - -, f 5;
#X floatatom 222 153 5 0 0 0 - - -, f 5;
#X floatatom 316 153 5 0 0 0 - - -, f 5;
#X floatatom 418 153 5 0 0 0 - - -, f 5;
#X obj 164 98 bng 15 250 50 0 empty empty empty 17 7 0 10 -262144 -1
-1;
#X obj 165 347 dac~;
#X connect 0 0 14 0;
#X connect 0 0 14 1;
#X connect 0 1 14 0;
#X connect 0 1 14 1;
#X connect 1 0 0 0;
#X connect 2 0 0 0;
#X connect 3 0 0 0;
#X connect 4 0 0 0;
#X connect 5 0 0 0;
#X connect 6 0 0 0;
#X connect 7 0 1 0;
#X connect 8 0 2 0;
#X connect 9 0 3 0;
#X connect 10 0 4 0;
#X connect 11 0 5 0;
#X connect 12 0 6 0;
#X connect 13 0 0 0;
