#N canvas 458 47 451 700 10;
#X msg 11 43 avgRate \$1;
#X msg 47 111 minRadius \$1;
#X msg 145 111 maxRadius \$1;
#X msg 243 111 expRadius \$1;
#X msg 81 177 minDepth \$1;
#X msg 171 177 maxDepth \$1;
#X msg 263 177 expDepth \$1;
#X msg 123 244 riseFactor \$1;
#X floatatom 11 20 5 0 0 0 - - -, f 5;
#X floatatom 47 87 5 0 0 0 - - -, f 5;
#X floatatom 145 89 5 0 0 0 - - -, f 5;
#X floatatom 81 154 5 0 0 0 - - -, f 5;
#X floatatom 171 154 5 0 0 0 - - -, f 5;
#X floatatom 263 155 5 0 0 0 - - -, f 5;
#X floatatom 123 222 5 0 0 0 - - -, f 5;
#X floatatom 243 89 5 0 0 0 - - -, f 5;
#X floatatom 229 223 5 0 0 0 - - -, f 5;
#X obj 10 386 dac~;
#X obj 11 328 SDT/fluidflow~ 128;
#X msg 229 244 riseCutoff \$1;
#X connect 0 0 18 0;
#X connect 1 0 18 0;
#X connect 2 0 18 0;
#X connect 3 0 18 0;
#X connect 4 0 18 0;
#X connect 5 0 18 0;
#X connect 6 0 18 0;
#X connect 7 0 18 0;
#X connect 8 0 0 0;
#X connect 9 0 1 0;
#X connect 10 0 2 0;
#X connect 11 0 4 0;
#X connect 12 0 5 0;
#X connect 13 0 6 0;
#X connect 14 0 7 0;
#X connect 15 0 3 0;
#X connect 16 0 19 0;
#X connect 18 0 17 0;
#X connect 18 0 17 1;
#X connect 19 0 18 0;
