#N canvas 28 199 1006 687 10;
#X obj 188 192 SDT/inertial a;
#X obj 427 203 SDT/modal b 3 1;
#X obj 435 419 dac~;
#X floatatom 336 256 5 0 0 0 - - -, f 5;
#X msg 202 160 mass 0.01 \, fragmentSize 1;
#X obj 377 122 loadbang;
#X floatatom 435 255 5 0 0 0 - - -, f 5;
#X obj 268 357 metro 100;
#X obj 268 390 snapshot~;
#X obj 268 256 bng 15 250 50 0 empty empty empty 17 7 0 10 -262144
-1 -1;
#X floatatom 268 421 5 0 0 0 - - -, f 5;
#X msg 427 159 freqs 200 300 500 \, decays 0.1 0.1 0.1 \, pickup 0
1 1 1 \, activeModes 3 \, fragmentSize 1;
#X obj 435 388 *~ 10000;
#X obj 336 357 SDT/friction~ a b 2;
#X msg 377 294 force 0.5 \, kStatic 0.95 \, kDynamic 0.15 \, stiffness
500 \, dissipation 20 \, viscosity 7 \, noisiness 0.5 \, breakAway
0.2 \, contact0 0 \, contact1 0;
#X connect 3 0 13 0;
#X connect 4 0 0 0;
#X connect 5 0 4 0;
#X connect 5 0 11 0;
#X connect 5 0 14 0;
#X connect 5 0 9 0;
#X connect 6 0 13 1;
#X connect 7 0 8 0;
#X connect 8 0 10 0;
#X connect 9 0 7 0;
#X connect 11 0 1 0;
#X connect 12 0 2 0;
#X connect 12 0 2 1;
#X connect 13 0 8 0;
#X connect 13 1 12 0;
#X connect 14 0 13 0;
