#N canvas 360 101 743 679 10;
#X floatatom 48 84 5 0 0 0 - - -, f 5;
#X msg 22 377 freqs \$1 \$2 \$3;
#X msg 151 377 decays \$1 \$2 \$3;
#X msg 278 377 pickup \$1 \$2 \$3 \$4;
#X msg 619 378 fragmentSize \$1;
#X msg 48 165 mass \$1;
#X msg 125 165 fragmentSize \$1;
#X floatatom 125 84 5 0 0 0 - - -, f 5;
#X floatatom 619 297 5 0 0 0 - - -, f 5;
#X obj 22 353 pack f f f;
#X obj 61 318 t b f;
#X obj 99 318 t b f;
#X floatatom 22 297 5 0 0 0 - - -, f 5;
#X floatatom 61 297 5 0 0 0 - - -, f 5;
#X floatatom 99 297 5 0 0 0 - - -, f 5;
#X obj 151 353 pack f f f;
#X obj 190 318 t b f;
#X obj 228 318 t b f;
#X floatatom 151 297 5 0 0 0 - - -, f 5;
#X floatatom 190 297 5 0 0 0 - - -, f 5;
#X floatatom 228 297 5 0 0 0 - - -, f 5;
#X obj 353 318 t b f;
#X obj 391 318 t b f;
#X floatatom 278 297 5 0 0 0 - - -, f 5;
#X floatatom 353 297 5 0 0 0 - - -, f 5;
#X floatatom 391 297 5 0 0 0 - - -, f 5;
#X msg 492 378 activeModes \$1;
#X floatatom 492 297 5 0 0 0 - - -, f 5;
#X msg 366 508 contact0 \$1;
#X msg 486 508 contact1 \$1;
#X msg 22 508 stiffness \$1;
#X msg 128 508 dissipation \$1;
#X msg 262 508 shape \$1;
#X floatatom 366 487 5 0 0 0 - - -, f 5;
#X floatatom 486 487 5 0 0 0 - - -, f 5;
#X floatatom 128 487 5 0 0 0 - - -, f 5;
#X floatatom 22 487 5 0 0 0 - - -, f 5;
#X floatatom 262 487 5 0 0 0 - - -, f 5;
#X obj 278 353 pack f f f f;
#X obj 429 318 t b f;
#X floatatom 429 297 5 0 0 0 - - -, f 5;
#X text 46 63 Mass (Kg);
#X text 18 276 Modal freqs (Hz);
#X text 149 276 Modal decays (s);
#X text 352 278 Modal weights (1/Kg);
#X text 276 276 Pickup n.;
#X text 615 279 Size [0 \, 1];
#X text 123 64 Size [0 \, 1];
#X text 490 278 N. of active modes;
#X text 19 467 Stiffness;
#X text 126 468 Dissipation;
#X text 261 469 Shape;
#X msg 335 86 mass 0.01 \, fragmentSize 1;
#X msg 335 112 freqs 500 1300 1700 \, decays 1 0.5 0.2 \, pickup 0
100 100 100 \, activeModes 3 \, fragmentSize 1;
#X msg 335 153 stiffness 1e+07 \, dissipation 7 \, shape 1.5 \, contact0
0 \, contact1 0;
#X text 364 468 1st obj pickup;
#X text 482 468 2nd obj pickup;
#X msg 19 31 strike 0 -5;
#X text 17 10 HIT!;
#X obj 157 611 *~ 5000;
#X floatatom 196 586 5 0 0 0 - - -, f 5;
#X obj 157 642 dac~;
#X text 130 241 Args: object ID;
#X text 138 428 Args: object ID \, n. of modes \, n. of pickups;
#X text 171 556 Args: 1st obj ID \, 2nd obj ID \, n. of outlets;
#X obj 22 556 SDT/impact~ impA impB 2;
#X obj 19 240 SDT/inertial impA;
#X obj 22 428 SDT/modal impB 3 1;
#X text 334 65 Example preset: click these 3 messages after turning
DSP on;
#X connect 0 0 5 0;
#X connect 1 0 67 0;
#X connect 2 0 67 0;
#X connect 3 0 67 0;
#X connect 4 0 67 0;
#X connect 5 0 66 0;
#X connect 6 0 66 0;
#X connect 7 0 6 0;
#X connect 8 0 4 0;
#X connect 9 0 1 0;
#X connect 10 0 9 0;
#X connect 10 1 9 1;
#X connect 11 0 9 0;
#X connect 11 1 9 2;
#X connect 12 0 9 0;
#X connect 13 0 10 0;
#X connect 14 0 11 0;
#X connect 15 0 2 0;
#X connect 16 0 15 0;
#X connect 16 1 15 1;
#X connect 17 0 15 0;
#X connect 17 1 15 2;
#X connect 18 0 15 0;
#X connect 19 0 16 0;
#X connect 20 0 17 0;
#X connect 21 0 38 0;
#X connect 21 1 38 1;
#X connect 22 0 38 0;
#X connect 22 1 38 2;
#X connect 23 0 38 0;
#X connect 24 0 21 0;
#X connect 25 0 22 0;
#X connect 26 0 67 0;
#X connect 27 0 26 0;
#X connect 28 0 65 0;
#X connect 29 0 65 0;
#X connect 30 0 65 0;
#X connect 31 0 65 0;
#X connect 32 0 65 0;
#X connect 33 0 28 0;
#X connect 34 0 29 0;
#X connect 35 0 31 0;
#X connect 36 0 30 0;
#X connect 37 0 32 0;
#X connect 38 0 3 0;
#X connect 39 0 38 0;
#X connect 39 1 38 3;
#X connect 40 0 39 0;
#X connect 52 0 66 0;
#X connect 53 0 67 0;
#X connect 54 0 65 0;
#X connect 57 0 66 0;
#X connect 59 0 61 0;
#X connect 59 0 61 1;
#X connect 60 0 59 1;
#X connect 65 1 59 0;
