{
	"patcher" : 	{
		"fileversion" : 1,
		"appversion" : 		{
			"major" : 6,
			"minor" : 0,
			"revision" : 4
		}
,
		"rect" : [ 283.0, 201.0, 948.0, 611.0 ],
		"bgcolor" : [ 0.980392, 0.980392, 0.980392, 1.0 ],
		"bglocked" : 0,
		"openinpresentation" : 1,
		"default_fontsize" : 12.0,
		"default_fontface" : 0,
		"default_fontname" : "Arial",
		"gridonopen" : 0,
		"gridsize" : [ 15.0, 15.0 ],
		"gridsnaponopen" : 0,
		"statusbarvisible" : 2,
		"toolbarvisible" : 0,
		"boxanimatetime" : 200,
		"imprint" : 0,
		"enablehscroll" : 1,
		"enablevscroll" : 1,
		"devicewidth" : 0.0,
		"description" : "",
		"digest" : "",
		"tags" : "",
		"boxes" : [ 			{
				"box" : 				{
					"fontname" : "Arial",
					"fontsize" : 9.0,
					"id" : "obj-3",
					"maxclass" : "newobj",
					"numinlets" : 1,
					"numoutlets" : 1,
					"outlettype" : [ "" ],
					"patching_rect" : [ 510.0, 91.0, 75.0, 17.0 ],
					"text" : "prepend symbol"
				}

			}
, 			{
				"box" : 				{
					"fontname" : "Arial",
					"fontsize" : 9.0,
					"id" : "obj-2",
					"maxclass" : "newobj",
					"numinlets" : 1,
					"numoutlets" : 2,
					"outlettype" : [ "", "int" ],
					"patching_rect" : [ 620.0, 537.0, 45.0, 17.0 ],
					"text" : "strippath"
				}

			}
, 			{
				"box" : 				{
					"comment" : "",
					"id" : "obj-5",
					"maxclass" : "outlet",
					"numinlets" : 1,
					"numoutlets" : 0,
					"patching_rect" : [ 620.0, 569.0, 25.0, 25.0 ]
				}

			}
, 			{
				"box" : 				{
					"fontname" : "Helvetica",
					"fontsize" : 9.0,
					"id" : "obj-47",
					"maxclass" : "comment",
					"numinlets" : 1,
					"numoutlets" : 0,
					"patching_rect" : [ 485.0, 70.0, 100.0, 15.0 ],
					"presentation" : 1,
					"presentation_rect" : [ 195.0, 441.0, 39.0, 15.0 ],
					"text" : "update"
				}

			}
, 			{
				"box" : 				{
					"blinkcolor" : [ 0.472826, 0.472826, 0.472826, 1.0 ],
					"id" : "obj-46",
					"maxclass" : "button",
					"numinlets" : 1,
					"numoutlets" : 1,
					"outlettype" : [ "bang" ],
					"outlinecolor" : [ 0.927273, 0.17163, 0.182563, 0.87 ],
					"patching_rect" : [ 465.0, 70.0, 20.0, 20.0 ],
					"presentation" : 1,
					"presentation_rect" : [ 204.0, 456.0, 20.0, 20.0 ]
				}

			}
, 			{
				"box" : 				{
					"fontname" : "Arial",
					"fontsize" : 12.0,
					"id" : "obj-44",
					"maxclass" : "newobj",
					"numinlets" : 4,
					"numoutlets" : 0,
					"patching_rect" : [ 347.0, 537.0, 120.0, 20.0 ],
					"text" : "bgcolor 250 250 250"
				}

			}
, 			{
				"box" : 				{
					"bgcolor" : [ 1.0, 0.890196, 0.090196, 1.0 ],
					"fontname" : "Helvetica",
					"fontsize" : 12.0,
					"id" : "obj-43",
					"maxclass" : "comment",
					"numinlets" : 1,
					"numoutlets" : 0,
					"patching_rect" : [ 150.0, 35.5, 147.0, 18.0 ],
					"presentation" : 1,
					"presentation_rect" : [ 153.5, 5.0, 141.0, 18.0 ],
					"text" : "Bubble Frequency map"
				}

			}
, 			{
				"box" : 				{
					"fontname" : "Arial",
					"fontsize" : 9.0,
					"id" : "obj-39",
					"linecount" : 2,
					"maxclass" : "message",
					"numinlets" : 2,
					"numoutlets" : 1,
					"outlettype" : [ "" ],
					"patching_rect" : [ 676.5, 232.0, 241.0, 25.0 ],
					"text" : "script sendbox frequency_map replace $1, script connect frequency_map 0 outlet_bottom 0"
				}

			}
, 			{
				"box" : 				{
					"fontname" : "Arial",
					"fontsize" : 9.0,
					"hidden" : 1,
					"id" : "obj-28",
					"maxclass" : "newobj",
					"numinlets" : 1,
					"numoutlets" : 1,
					"outlettype" : [ "" ],
					"patching_rect" : [ 751.0, 138.0, 47.0, 17.0 ],
					"text" : "tosymbol"
				}

			}
, 			{
				"box" : 				{
					"fontname" : "Helvetica",
					"fontsize" : 9.0,
					"id" : "obj-1",
					"maxclass" : "newobj",
					"numinlets" : 0,
					"numoutlets" : 0,
					"patcher" : 					{
						"fileversion" : 1,
						"appversion" : 						{
							"major" : 6,
							"minor" : 0,
							"revision" : 4
						}
,
						"rect" : [ 183.0, 414.0, 467.0, 194.0 ],
						"bglocked" : 0,
						"openinpresentation" : 0,
						"default_fontsize" : 12.0,
						"default_fontface" : 0,
						"default_fontname" : "Arial",
						"gridonopen" : 0,
						"gridsize" : [ 15.0, 15.0 ],
						"gridsnaponopen" : 0,
						"statusbarvisible" : 2,
						"toolbarvisible" : 1,
						"boxanimatetime" : 200,
						"imprint" : 0,
						"enablehscroll" : 1,
						"enablevscroll" : 1,
						"devicewidth" : 0.0,
						"description" : "",
						"digest" : "",
						"tags" : "",
						"boxes" : [ 							{
								"box" : 								{
									"fontname" : "Arial",
									"fontsize" : 10.0,
									"id" : "obj-1",
									"linecount" : 3,
									"maxclass" : "comment",
									"numinlets" : 1,
									"numoutlets" : 0,
									"patching_rect" : [ 11.0, 77.0, 430.0, 41.0 ],
									"text" : "2) DISPLAY BOX (purple color): click on the box to load and edit the correspondent control mapping patch. \"Global gain\" mapping Max patch must be saved in SDT_contents/Library/Bubblestream/MIDI_OSC_bubblestream/bbstream_frequency."
								}

							}
, 							{
								"box" : 								{
									"fontname" : "Arial",
									"fontsize" : 10.0,
									"id" : "obj-2",
									"linecount" : 2,
									"maxclass" : "comment",
									"numinlets" : 1,
									"numoutlets" : 0,
									"patching_rect" : [ 11.0, 42.0, 415.0, 29.0 ],
									"text" : "1) DROP-DOWN MENU: navigate menu items to select the available control mapping. The selected mapping is displayed in the box below."
								}

							}
, 							{
								"box" : 								{
									"fontname" : "Arial",
									"fontsize" : 10.0,
									"id" : "obj-3",
									"linecount" : 2,
									"maxclass" : "comment",
									"numinlets" : 1,
									"numoutlets" : 0,
									"patching_rect" : [ 11.0, 125.0, 409.0, 29.0 ],
									"text" : "3) CLICK TO UPDATE LIST: click on the box to update control mapping menu items in the drop-down menu."
								}

							}
, 							{
								"box" : 								{
									"bgcolor" : [ 0.752941, 0.717647, 0.960784, 1.0 ],
									"id" : "obj-4",
									"ignoreclick" : 1,
									"maxclass" : "panel",
									"numinlets" : 1,
									"numoutlets" : 0,
									"patching_rect" : [ 11.0, 42.0, 119.0, 13.0 ],
									"rounded" : 0
								}

							}
, 							{
								"box" : 								{
									"bgcolor" : [ 0.752941, 0.717647, 0.960784, 1.0 ],
									"id" : "obj-5",
									"ignoreclick" : 1,
									"maxclass" : "panel",
									"numinlets" : 1,
									"numoutlets" : 0,
									"patching_rect" : [ 11.0, 125.0, 133.0, 13.0 ],
									"rounded" : 0
								}

							}
, 							{
								"box" : 								{
									"fontname" : "Arial Black",
									"fontsize" : 12.0,
									"id" : "obj-6",
									"maxclass" : "comment",
									"numinlets" : 1,
									"numoutlets" : 0,
									"patching_rect" : [ 10.0, 7.0, 383.0, 23.0 ],
									"text" : "Bubblestrema N Bubble Frequency MIDI control mapping"
								}

							}
, 							{
								"box" : 								{
									"bgcolor" : [ 0.67451, 0.945098, 0.611765, 1.0 ],
									"id" : "obj-7",
									"ignoreclick" : 1,
									"maxclass" : "panel",
									"numinlets" : 1,
									"numoutlets" : 0,
									"patching_rect" : [ 11.0, 104.0, 430.0, 15.0 ],
									"rounded" : 0
								}

							}
, 							{
								"box" : 								{
									"bgcolor" : [ 0.752941, 0.717647, 0.960784, 1.0 ],
									"id" : "obj-8",
									"ignoreclick" : 1,
									"maxclass" : "panel",
									"numinlets" : 1,
									"numoutlets" : 0,
									"patching_rect" : [ 11.0, 77.0, 162.0, 13.0 ],
									"rounded" : 0
								}

							}
 ],
						"lines" : [  ],
						"dependency_cache" : [  ]
					}
,
					"patching_rect" : [ 485.0, 464.0, 51.0, 15.0 ],
					"presentation" : 1,
					"presentation_rect" : [ 13.0, 435.0, 51.0, 15.0 ],
					"saved_object_attributes" : 					{
						"default_fontsize" : 12.0,
						"fontface" : 0,
						"description" : "",
						"fontsize" : 12.0,
						"globalpatchername" : "",
						"tags" : "",
						"default_fontface" : 0,
						"fontname" : "Arial",
						"digest" : "",
						"default_fontname" : "Arial"
					}
,
					"text" : "p readme"
				}

			}
, 			{
				"box" : 				{
					"fontname" : "Arial",
					"fontsize" : 9.0,
					"hidden" : 1,
					"id" : "obj-6",
					"maxclass" : "newobj",
					"numinlets" : 1,
					"numoutlets" : 1,
					"outlettype" : [ "" ],
					"patching_rect" : [ 464.0, 436.0, 47.0, 17.0 ],
					"text" : "pcontrol"
				}

			}
, 			{
				"box" : 				{
					"bgcolor" : [ 0.8, 0.8, 0.8, 1.0 ],
					"fontname" : "Helvetica",
					"fontsize" : 9.0,
					"id" : "obj-7",
					"maxclass" : "message",
					"numinlets" : 2,
					"numoutlets" : 1,
					"outlettype" : [ "" ],
					"patching_rect" : [ 464.0, 326.0, 99.0, 13.0 ],
					"presentation" : 1,
					"presentation_rect" : [ 248.0, 458.0, 148.0, 13.0 ]
				}

			}
, 			{
				"box" : 				{
					"fontname" : "Arial",
					"fontsize" : 9.0,
					"hidden" : 1,
					"id" : "obj-8",
					"maxclass" : "newobj",
					"numinlets" : 1,
					"numoutlets" : 1,
					"outlettype" : [ "" ],
					"patching_rect" : [ 470.0, 278.0, 60.0, 17.0 ],
					"text" : "prepend set"
				}

			}
, 			{
				"box" : 				{
					"color" : [ 1.0, 0.890196, 0.090196, 1.0 ],
					"fontname" : "Arial",
					"fontsize" : 9.0,
					"hidden" : 1,
					"id" : "obj-9",
					"maxclass" : "newobj",
					"numinlets" : 1,
					"numoutlets" : 2,
					"outlettype" : [ "", "int" ],
					"patching_rect" : [ 475.5, 261.0, 49.0, 17.0 ],
					"text" : "strippath"
				}

			}
, 			{
				"box" : 				{
					"fontname" : "Arial",
					"fontsize" : 9.0,
					"hidden" : 1,
					"id" : "obj-10",
					"maxclass" : "newobj",
					"numinlets" : 1,
					"numoutlets" : 1,
					"outlettype" : [ "" ],
					"patching_rect" : [ 464.0, 412.0, 66.0, 17.0 ],
					"text" : "prepend load"
				}

			}
, 			{
				"box" : 				{
					"fontname" : "Arial",
					"fontsize" : 9.0,
					"hidden" : 1,
					"id" : "obj-11",
					"maxclass" : "newobj",
					"numinlets" : 1,
					"numoutlets" : 1,
					"outlettype" : [ "bang" ],
					"patching_rect" : [ 463.0, 124.0, 37.0, 17.0 ],
					"text" : "t bang"
				}

			}
, 			{
				"box" : 				{
					"fontname" : "Arial",
					"fontsize" : 9.0,
					"hidden" : 1,
					"id" : "obj-12",
					"maxclass" : "newobj",
					"numinlets" : 1,
					"numoutlets" : 1,
					"outlettype" : [ "" ],
					"patching_rect" : [ 751.0, 111.0, 157.0, 17.0 ],
					"text" : "sprintf %sbbstream_frequency/"
				}

			}
, 			{
				"box" : 				{
					"fontname" : "Arial",
					"fontsize" : 9.0,
					"hidden" : 1,
					"id" : "obj-13",
					"maxclass" : "newobj",
					"numinlets" : 1,
					"numoutlets" : 1,
					"outlettype" : [ "bang" ],
					"patching_rect" : [ 620.0, 40.0, 48.0, 17.0 ],
					"text" : "loadbang"
				}

			}
, 			{
				"box" : 				{
					"fontname" : "Arial",
					"fontsize" : 9.0,
					"hidden" : 1,
					"id" : "obj-14",
					"maxclass" : "newobj",
					"numinlets" : 2,
					"numoutlets" : 1,
					"outlettype" : [ "" ],
					"patching_rect" : [ 463.0, 145.0, 66.0, 17.0 ],
					"text" : "pack depth 4"
				}

			}
, 			{
				"box" : 				{
					"autopopulate" : 1,
					"bgcolor" : [ 0.6, 0.6, 0.6, 1.0 ],
					"bgcolor2" : [ 0.647059, 0.647059, 0.647059, 1.0 ],
					"depth" : 4,
					"discolor" : [ 0.647059, 0.647059, 0.647059, 1.0 ],
					"fontname" : "Helvetica",
					"fontsize" : 12.0,
					"framecolor" : [ 0.8, 0.8, 0.8, 1.0 ],
					"hltcolor" : [ 0.411765, 0.090196, 0.090196, 1.0 ],
					"id" : "obj-16",
					"items" : [ ".svn/all-wcprops", ",", ".svn/entries", ",", ".svn/prop-base", ",", ".svn/props", ",", ".svn/text-base", ",", ".svn/text-base/frequency_map.maxpat.svn-base", ",", ".svn/tmp", ",", ".svn/tmp/prop-base", ",", ".svn/tmp/props", ",", ".svn/tmp/text-base", ",", "frequency_map.maxpat" ],
					"maxclass" : "umenu",
					"numinlets" : 1,
					"numoutlets" : 3,
					"outlettype" : [ "int", "", "" ],
					"parameter_enable" : 0,
					"patching_rect" : [ 462.0, 178.0, 121.0, 18.0 ],
					"prefix" : "Stef:/Users/sdm/Documents/LAVORI/RICERCA/SObs/SoundDesignTools/branches/SObWay/SDT_Max6/SDT_patches/SDT_contents/Library/Bubblestream/MIDI_OSC_bubblestream/bbstream_frequency/",
					"presentation" : 1,
					"presentation_rect" : [ 81.0, 456.0, 121.0, 18.0 ],
					"textcolor" : [ 1.0, 1.0, 1.0, 1.0 ],
					"textcolor2" : [ 1.0, 1.0, 1.0, 1.0 ],
					"togcolor" : [ 0.552941, 0.552941, 0.552941, 1.0 ]
				}

			}
, 			{
				"box" : 				{
					"fontname" : "Arial",
					"fontsize" : 9.0,
					"hidden" : 1,
					"id" : "obj-17",
					"maxclass" : "newobj",
					"numinlets" : 1,
					"numoutlets" : 1,
					"outlettype" : [ "" ],
					"patching_rect" : [ 751.0, 160.0, 76.0, 17.0 ],
					"text" : "prepend prefix"
				}

			}
, 			{
				"box" : 				{
					"fontname" : "Arial",
					"fontsize" : 9.0,
					"hidden" : 1,
					"id" : "obj-18",
					"maxclass" : "message",
					"numinlets" : 2,
					"numoutlets" : 1,
					"outlettype" : [ "" ],
					"patching_rect" : [ 620.0, 74.0, 75.0, 15.0 ],
					"text" : "autopopulate 1"
				}

			}
, 			{
				"box" : 				{
					"fontname" : "Arial",
					"fontsize" : 9.0,
					"hidden" : 1,
					"id" : "obj-19",
					"maxclass" : "message",
					"numinlets" : 2,
					"numoutlets" : 1,
					"outlettype" : [ "" ],
					"patching_rect" : [ 700.0, 74.0, 29.0, 15.0 ],
					"text" : "path"
				}

			}
, 			{
				"box" : 				{
					"fontname" : "Arial",
					"fontsize" : 9.0,
					"hidden" : 1,
					"id" : "obj-20",
					"maxclass" : "newobj",
					"numinlets" : 1,
					"numoutlets" : 2,
					"outlettype" : [ "", "" ],
					"patching_rect" : [ 700.0, 91.0, 61.0, 17.0 ],
					"save" : [ "#N", "thispatcher", ";", "#Q", "end", ";" ],
					"text" : "thispatcher"
				}

			}
, 			{
				"box" : 				{
					"comment" : "",
					"hidden" : 1,
					"id" : "obj-21",
					"maxclass" : "outlet",
					"numinlets" : 1,
					"numoutlets" : 0,
					"patching_rect" : [ 48.0, 565.0, 15.0, 15.0 ],
					"varname" : "outlet_bottom"
				}

			}
, 			{
				"box" : 				{
					"comment" : "inlet_up",
					"hidden" : 1,
					"id" : "obj-22",
					"maxclass" : "inlet",
					"numinlets" : 0,
					"numoutlets" : 1,
					"outlettype" : [ "" ],
					"patching_rect" : [ 515.0, 23.0, 15.0, 15.0 ]
				}

			}
, 			{
				"box" : 				{
					"fontname" : "Helvetica",
					"fontsize" : 9.0,
					"id" : "obj-23",
					"maxclass" : "comment",
					"numinlets" : 1,
					"numoutlets" : 0,
					"patching_rect" : [ 459.0, 294.0, 100.0, 15.0 ],
					"presentation" : 1,
					"presentation_rect" : [ 274.0, 441.0, 100.0, 15.0 ],
					"text" : "load and edit current"
				}

			}
, 			{
				"box" : 				{
					"fontname" : "Helvetica",
					"fontsize" : 9.0,
					"id" : "obj-24",
					"maxclass" : "comment",
					"numinlets" : 1,
					"numoutlets" : 0,
					"patching_rect" : [ 457.0, 214.0, 100.0, 15.0 ],
					"presentation" : 1,
					"presentation_rect" : [ 85.0, 441.0, 74.0, 15.0 ],
					"text" : "browse maps"
				}

			}
, 			{
				"box" : 				{
					"id" : "obj-25",
					"lockeddragscroll" : 1,
					"maxclass" : "bpatcher",
					"numinlets" : 0,
					"numoutlets" : 0,
					"patching_rect" : [ 47.0, 100.0, 410.0, 410.0 ],
					"presentation" : 1,
					"presentation_rect" : [ 9.0, 23.0, 410.0, 410.0 ],
					"varname" : "frequency_map"
				}

			}
 ],
		"lines" : [ 			{
				"patchline" : 				{
					"destination" : [ "obj-6", 0 ],
					"disabled" : 0,
					"hidden" : 1,
					"source" : [ "obj-10", 0 ]
				}

			}
, 			{
				"patchline" : 				{
					"destination" : [ "obj-14", 0 ],
					"disabled" : 0,
					"hidden" : 1,
					"source" : [ "obj-11", 0 ]
				}

			}
, 			{
				"patchline" : 				{
					"destination" : [ "obj-28", 0 ],
					"disabled" : 0,
					"hidden" : 1,
					"source" : [ "obj-12", 0 ]
				}

			}
, 			{
				"patchline" : 				{
					"destination" : [ "obj-18", 0 ],
					"disabled" : 0,
					"hidden" : 1,
					"source" : [ "obj-13", 0 ]
				}

			}
, 			{
				"patchline" : 				{
					"destination" : [ "obj-19", 0 ],
					"disabled" : 0,
					"hidden" : 1,
					"midpoints" : [ 629.5, 70.0, 709.5, 70.0 ],
					"source" : [ "obj-13", 0 ]
				}

			}
, 			{
				"patchline" : 				{
					"destination" : [ "obj-16", 0 ],
					"disabled" : 0,
					"hidden" : 1,
					"midpoints" : [ 472.5, 174.0, 471.5, 174.0 ],
					"source" : [ "obj-14", 0 ]
				}

			}
, 			{
				"patchline" : 				{
					"destination" : [ "obj-2", 0 ],
					"disabled" : 0,
					"hidden" : 0,
					"midpoints" : [ 522.5, 209.0, 629.5, 209.0 ],
					"source" : [ "obj-16", 1 ]
				}

			}
, 			{
				"patchline" : 				{
					"destination" : [ "obj-39", 0 ],
					"disabled" : 0,
					"hidden" : 0,
					"midpoints" : [ 522.5, 208.0, 686.0, 208.0 ],
					"source" : [ "obj-16", 1 ]
				}

			}
, 			{
				"patchline" : 				{
					"destination" : [ "obj-9", 0 ],
					"disabled" : 0,
					"hidden" : 1,
					"midpoints" : [ 522.5, 203.0, 485.0, 203.0 ],
					"source" : [ "obj-16", 1 ]
				}

			}
, 			{
				"patchline" : 				{
					"destination" : [ "obj-16", 0 ],
					"disabled" : 0,
					"hidden" : 1,
					"midpoints" : [ 760.5, 184.0, 471.5, 184.0 ],
					"source" : [ "obj-17", 0 ]
				}

			}
, 			{
				"patchline" : 				{
					"destination" : [ "obj-16", 0 ],
					"disabled" : 0,
					"hidden" : 1,
					"source" : [ "obj-18", 0 ]
				}

			}
, 			{
				"patchline" : 				{
					"destination" : [ "obj-20", 0 ],
					"disabled" : 0,
					"hidden" : 1,
					"source" : [ "obj-19", 0 ]
				}

			}
, 			{
				"patchline" : 				{
					"destination" : [ "obj-5", 0 ],
					"disabled" : 0,
					"hidden" : 0,
					"source" : [ "obj-2", 0 ]
				}

			}
, 			{
				"patchline" : 				{
					"destination" : [ "obj-12", 0 ],
					"disabled" : 0,
					"hidden" : 1,
					"source" : [ "obj-20", 1 ]
				}

			}
, 			{
				"patchline" : 				{
					"destination" : [ "obj-3", 0 ],
					"disabled" : 0,
					"hidden" : 0,
					"source" : [ "obj-22", 0 ]
				}

			}
, 			{
				"patchline" : 				{
					"destination" : [ "obj-17", 0 ],
					"disabled" : 0,
					"hidden" : 1,
					"source" : [ "obj-28", 0 ]
				}

			}
, 			{
				"patchline" : 				{
					"destination" : [ "obj-16", 0 ],
					"disabled" : 0,
					"hidden" : 0,
					"source" : [ "obj-3", 0 ]
				}

			}
, 			{
				"patchline" : 				{
					"destination" : [ "obj-20", 0 ],
					"disabled" : 0,
					"hidden" : 0,
					"midpoints" : [ 686.0, 281.0, 858.0, 281.0, 858.0, 86.0, 709.5, 86.0 ],
					"source" : [ "obj-39", 0 ]
				}

			}
, 			{
				"patchline" : 				{
					"destination" : [ "obj-11", 0 ],
					"disabled" : 0,
					"hidden" : 0,
					"source" : [ "obj-46", 0 ]
				}

			}
, 			{
				"patchline" : 				{
					"destination" : [ "obj-10", 0 ],
					"disabled" : 0,
					"hidden" : 1,
					"midpoints" : [ 473.5, 403.0, 473.5, 403.0 ],
					"source" : [ "obj-7", 0 ]
				}

			}
, 			{
				"patchline" : 				{
					"destination" : [ "obj-7", 0 ],
					"disabled" : 0,
					"hidden" : 1,
					"midpoints" : [ 479.5, 307.0, 473.5, 307.0 ],
					"source" : [ "obj-8", 0 ]
				}

			}
, 			{
				"patchline" : 				{
					"destination" : [ "obj-8", 0 ],
					"disabled" : 0,
					"hidden" : 1,
					"midpoints" : [ 485.0, 276.0, 479.5, 276.0 ],
					"source" : [ "obj-9", 0 ]
				}

			}
 ],
		"dependency_cache" : [  ]
	}

}
