{
	"patcher" : 	{
		"fileversion" : 1,
		"appversion" : 		{
			"major" : 8,
			"minor" : 5,
			"revision" : 3,
			"architecture" : "x64",
			"modernui" : 1
		}
,
		"classnamespace" : "box",
		"rect" : [ 100.0, 100.0, 900.0, 650.0 ],
		"bglocked" : 0,
		"openinpresentation" : 0,
		"default_fontsize" : 12.0,
		"default_fontface" : 0,
		"default_fontname" : "Lato",
		"gridonopen" : 1,
		"gridsize" : [ 5.0, 5.0 ],
		"gridsnaponopen" : 1,
		"objectsnaponopen" : 1,
		"statusbarvisible" : 2,
		"toolbarvisible" : 1,
		"lefttoolbarpinned" : 0,
		"toptoolbarpinned" : 0,
		"righttoolbarpinned" : 0,
		"bottomtoolbarpinned" : 0,
		"toolbars_unpinned_last_save" : 0,
		"tallnewobj" : 0,
		"boxanimatetime" : 200,
		"enablehscroll" : 1,
		"enablevscroll" : 1,
		"devicewidth" : 0.0,
		"description" : "",
		"digest" : "",
		"tags" : "",
		"style" : "SDTpackage",
		"subpatcher_template" : "",
		"assistshowspatchername" : 0,
		"boxes" : [ 			{
				"box" : 				{
					"fontface" : 1,
					"fontsize" : 14.0,
					"id" : "obj-19",
					"maxclass" : "comment",
					"numinlets" : 1,
					"numoutlets" : 0,
					"patching_rect" : [ 84.0, 177.0, 81.0, 23.0 ],
					"text" : "press \"s\" ",
					"textcolor" : [ 0.317647, 0.654902, 0.976471, 1.0 ]
				}

			}
, 			{
				"box" : 				{
					"id" : "obj-40",
					"maxclass" : "newobj",
					"numinlets" : 1,
					"numoutlets" : 0,
					"patcher" : 					{
						"fileversion" : 1,
						"appversion" : 						{
							"major" : 8,
							"minor" : 5,
							"revision" : 3,
							"architecture" : "x64",
							"modernui" : 1
						}
,
						"classnamespace" : "box",
						"rect" : [ 59.0, 104.0, 640.0, 480.0 ],
						"bglocked" : 0,
						"openinpresentation" : 0,
						"default_fontsize" : 12.0,
						"default_fontface" : 0,
						"default_fontname" : "Arial",
						"gridonopen" : 1,
						"gridsize" : [ 15.0, 15.0 ],
						"gridsnaponopen" : 1,
						"objectsnaponopen" : 1,
						"statusbarvisible" : 2,
						"toolbarvisible" : 1,
						"lefttoolbarpinned" : 0,
						"toptoolbarpinned" : 0,
						"righttoolbarpinned" : 0,
						"bottomtoolbarpinned" : 0,
						"toolbars_unpinned_last_save" : 0,
						"tallnewobj" : 0,
						"boxanimatetime" : 200,
						"enablehscroll" : 1,
						"enablevscroll" : 1,
						"devicewidth" : 0.0,
						"description" : "",
						"digest" : "",
						"tags" : "",
						"style" : "",
						"subpatcher_template" : "",
						"assistshowspatchername" : 0,
						"boxes" : [ 							{
								"box" : 								{
									"id" : "obj-39",
									"linecount" : 2,
									"maxclass" : "message",
									"numinlets" : 2,
									"numoutlets" : 1,
									"outlettype" : [ "" ],
									"patching_rect" : [ 29.0, 79.0, 404.0, 37.0 ],
									"style" : "SDTpackage",
									"text" : ";\rmax launchbrowser https://en.wikipedia.org/wiki/Coefficient_of_restitution"
								}

							}
, 							{
								"box" : 								{
									"comment" : "",
									"id" : "obj-1",
									"index" : 1,
									"maxclass" : "inlet",
									"numinlets" : 0,
									"numoutlets" : 1,
									"outlettype" : [ "bang" ],
									"patching_rect" : [ 29.0, 24.0, 30.0, 30.0 ]
								}

							}
 ],
						"lines" : [ 							{
								"patchline" : 								{
									"destination" : [ "obj-39", 0 ],
									"source" : [ "obj-1", 0 ]
								}

							}
 ],
						"styles" : [ 							{
								"name" : "SDT-comments",
								"default" : 								{
									"fontname" : [ "Lato" ],
									"fontsize" : [ 13.0 ]
								}
,
								"parentstyle" : "",
								"multi" : 0
							}
, 							{
								"name" : "SDT_package",
								"default" : 								{
									"fontname" : [ "Lato" ]
								}
,
								"parentstyle" : "",
								"multi" : 0
							}
, 							{
								"name" : "SDTpackage",
								"default" : 								{
									"fontname" : [ "Lato" ],
									"fontsize" : [ 12.0 ]
								}
,
								"parentstyle" : "",
								"multi" : 0
							}
 ]
					}
,
					"patching_rect" : [ 858.5, 401.5, 39.0, 23.0 ],
					"saved_object_attributes" : 					{
						"description" : "",
						"digest" : "",
						"globalpatchername" : "",
						"tags" : ""
					}
,
					"style" : "SDT_package",
					"text" : "p wiki"
				}

			}
, 			{
				"box" : 				{
					"bgcolor" : [ 0.996078431372549, 0.823529411764706, 0.0, 1.0 ],
					"id" : "obj-32",
					"maxclass" : "button",
					"numinlets" : 1,
					"numoutlets" : 1,
					"outlettype" : [ "bang" ],
					"parameter_enable" : 0,
					"patching_rect" : [ 866.5, 376.5, 23.0, 23.0 ]
				}

			}
, 			{
				"box" : 				{
					"id" : "obj-88",
					"maxclass" : "multislider",
					"numinlets" : 1,
					"numoutlets" : 2,
					"outlettype" : [ "", "" ],
					"parameter_enable" : 0,
					"patching_rect" : [ 239.5, 316.5, 114.0, 50.0 ],
					"setminmax" : [ 0.0, 1.0 ],
					"setstyle" : 5
				}

			}
, 			{
				"box" : 				{
					"hidden" : 1,
					"id" : "obj-80",
					"maxclass" : "newobj",
					"numinlets" : 2,
					"numoutlets" : 1,
					"outlettype" : [ "float" ],
					"patching_rect" : [ 44.0, 501.5, 73.0, 23.0 ],
					"text" : "snapshot~ 5"
				}

			}
, 			{
				"box" : 				{
					"id" : "obj-78",
					"margins" : [ 1.0, 0.0, 1.0, 0.0 ],
					"maxclass" : "plot~",
					"numinlets" : 1,
					"numoutlets" : 1,
					"numpoints" : 401,
					"outlettype" : [ "" ],
					"patching_rect" : [ 103.5, 316.5, 114.0, 50.0 ],
					"subplots" : [ 						{
							"color" : [ 0.400000005960464, 0.400000005960464, 0.75, 1.0 ],
							"thickness" : 1.200000047683716,
							"point_style" : "none",
							"line_style" : "lines",
							"number_style" : "none",
							"filter" : "none",
							"domain_start" : 0.0,
							"domain_end" : 1.0,
							"domain_style" : "linear",
							"domain_markers" : [ 0.0, 0.125, 0.25, 0.375, 0.5, 0.625, 0.75, 0.875, 1.0 ],
							"domain_labels" : [  ],
							"range_start" : 0.0,
							"range_end" : 1.0,
							"range_style" : "linear",
							"range_markers" : [ -0.5, 0.0, 0.5 ],
							"range_labels" : [  ],
							"origin_x" : 0.0,
							"origin_y" : 0.0
						}
 ]
				}

			}
, 			{
				"box" : 				{
					"bubble" : 1,
					"bubbleside" : 2,
					"id" : "obj-1",
					"maxclass" : "comment",
					"numinlets" : 1,
					"numoutlets" : 0,
					"patching_rect" : [ 31.5, 130.0, 70.0, 41.0 ],
					"style" : "SDT-comments",
					"text" : "let fall",
					"textjustification" : 1
				}

			}
, 			{
				"box" : 				{
					"hidden" : 1,
					"id" : "obj-58",
					"maxclass" : "newobj",
					"numinlets" : 0,
					"numoutlets" : 1,
					"outlettype" : [ "bang" ],
					"patcher" : 					{
						"fileversion" : 1,
						"appversion" : 						{
							"major" : 8,
							"minor" : 5,
							"revision" : 3,
							"architecture" : "x64",
							"modernui" : 1
						}
,
						"classnamespace" : "box",
						"rect" : [ 0.0, 0.0, 640.0, 480.0 ],
						"bglocked" : 0,
						"openinpresentation" : 0,
						"default_fontsize" : 12.0,
						"default_fontface" : 0,
						"default_fontname" : "Arial",
						"gridonopen" : 1,
						"gridsize" : [ 15.0, 15.0 ],
						"gridsnaponopen" : 1,
						"objectsnaponopen" : 1,
						"statusbarvisible" : 2,
						"toolbarvisible" : 1,
						"lefttoolbarpinned" : 0,
						"toptoolbarpinned" : 0,
						"righttoolbarpinned" : 0,
						"bottomtoolbarpinned" : 0,
						"toolbars_unpinned_last_save" : 0,
						"tallnewobj" : 0,
						"boxanimatetime" : 200,
						"enablehscroll" : 1,
						"enablevscroll" : 1,
						"devicewidth" : 0.0,
						"description" : "",
						"digest" : "",
						"tags" : "",
						"style" : "",
						"subpatcher_template" : "",
						"assistshowspatchername" : 0,
						"boxes" : [ 							{
								"box" : 								{
									"id" : "obj-12",
									"maxclass" : "newobj",
									"numinlets" : 2,
									"numoutlets" : 2,
									"outlettype" : [ "bang", "" ],
									"patching_rect" : [ 50.0, 130.0, 47.0, 23.0 ],
									"text" : "sel 115"
								}

							}
, 							{
								"box" : 								{
									"id" : "obj-8",
									"maxclass" : "newobj",
									"numinlets" : 0,
									"numoutlets" : 4,
									"outlettype" : [ "int", "int", "int", "int" ],
									"patching_rect" : [ 50.0, 100.0, 50.5, 23.0 ],
									"text" : "key"
								}

							}
, 							{
								"box" : 								{
									"comment" : "",
									"id" : "obj-17",
									"index" : 1,
									"maxclass" : "outlet",
									"numinlets" : 1,
									"numoutlets" : 0,
									"patching_rect" : [ 50.0, 213.0, 30.0, 30.0 ]
								}

							}
 ],
						"lines" : [ 							{
								"patchline" : 								{
									"destination" : [ "obj-17", 0 ],
									"source" : [ "obj-12", 0 ]
								}

							}
, 							{
								"patchline" : 								{
									"destination" : [ "obj-12", 0 ],
									"source" : [ "obj-8", 0 ]
								}

							}
 ]
					}
,
					"patching_rect" : [ 26.0, 177.0, 34.0, 23.0 ],
					"saved_object_attributes" : 					{
						"description" : "",
						"digest" : "",
						"globalpatchername" : "",
						"tags" : ""
					}
,
					"text" : "p fall"
				}

			}
, 			{
				"box" : 				{
					"bgcolor" : [ 0.317647, 0.654902, 0.976471, 1.0 ],
					"id" : "obj-16",
					"maxclass" : "button",
					"numinlets" : 1,
					"numoutlets" : 1,
					"outlettype" : [ "bang" ],
					"parameter_enable" : 0,
					"patching_rect" : [ 44.0, 169.5, 38.0, 38.0 ]
				}

			}
, 			{
				"box" : 				{
					"bubble" : 1,
					"bubblepoint" : 0.0,
					"bubbleside" : 2,
					"id" : "obj-21",
					"linecount" : 2,
					"maxclass" : "comment",
					"numinlets" : 1,
					"numoutlets" : 0,
					"patching_rect" : [ 103.5, 382.5, 172.0, 57.0 ],
					"style" : "SDT-comments",
					"text" : "the velocity signal is applied to [sdt.inertial]",
					"textjustification" : 1
				}

			}
, 			{
				"box" : 				{
					"id" : "obj-13",
					"maxclass" : "newobj",
					"numinlets" : 2,
					"numoutlets" : 1,
					"outlettype" : [ "signal" ],
					"patching_rect" : [ 44.0, 330.0, 38.0, 23.0 ],
					"text" : "*~ -1."
				}

			}
, 			{
				"box" : 				{
					"color" : [ 0.996078431372549, 0.823529411764706, 0.0, 1.0 ],
					"fontsize" : 16.0,
					"id" : "obj-7",
					"maxclass" : "newobj",
					"numinlets" : 1,
					"numoutlets" : 1,
					"outlettype" : [ "signal" ],
					"patching_rect" : [ 44.0, 272.5, 432.0, 28.0 ],
					"text" : "sdt.bouncing~ @restitution 0.8 @height 0.5 @irregularity 0.2"
				}

			}
, 			{
				"box" : 				{
					"bubble" : 1,
					"bubbleside" : 2,
					"id" : "obj-27",
					"maxclass" : "comment",
					"numinlets" : 1,
					"numoutlets" : 0,
					"patching_rect" : [ 130.0, 130.0, 116.0, 41.0 ],
					"style" : "SDT-comments",
					"text" : "shape irregularity",
					"textjustification" : 1
				}

			}
, 			{
				"box" : 				{
					"id" : "obj-15",
					"maxclass" : "message",
					"numinlets" : 2,
					"numoutlets" : 1,
					"outlettype" : [ "" ],
					"patching_rect" : [ 441.75, 223.5, 80.0, 23.0 ],
					"text" : "restitution $1"
				}

			}
, 			{
				"box" : 				{
					"id" : "obj-14",
					"maxclass" : "message",
					"numinlets" : 2,
					"numoutlets" : 1,
					"outlettype" : [ "" ],
					"patching_rect" : [ 301.0, 223.5, 59.0, 23.0 ],
					"text" : "height $1"
				}

			}
, 			{
				"box" : 				{
					"id" : "obj-12",
					"maxclass" : "message",
					"numinlets" : 2,
					"numoutlets" : 1,
					"outlettype" : [ "" ],
					"patching_rect" : [ 156.0, 223.5, 82.0, 23.0 ],
					"text" : "irregularity $1"
				}

			}
, 			{
				"box" : 				{
					"hidden" : 1,
					"id" : "obj-4",
					"maxclass" : "newobj",
					"numinlets" : 1,
					"numoutlets" : 1,
					"outlettype" : [ "" ],
					"patching_rect" : [ 620.5, 10.0, 67.0, 23.0 ],
					"text" : "loadmess 1"
				}

			}
, 			{
				"box" : 				{
					"bubble" : 1,
					"fontface" : 1,
					"id" : "obj-59",
					"maxclass" : "comment",
					"numinlets" : 1,
					"numoutlets" : 0,
					"patching_rect" : [ 562.0, 153.8828125, 168.75, 26.0 ],
					"style" : "SDT-comments",
					"text" : "sharp and pointy",
					"textcolor" : [ 0.784314, 0.145098, 0.023529, 1.0 ],
					"textjustification" : 1,
					"varname" : "bubble"
				}

			}
, 			{
				"box" : 				{
					"hidden" : 1,
					"id" : "obj-57",
					"maxclass" : "newobj",
					"numinlets" : 1,
					"numoutlets" : 2,
					"outlettype" : [ "", "" ],
					"patcher" : 					{
						"fileversion" : 1,
						"appversion" : 						{
							"major" : 8,
							"minor" : 5,
							"revision" : 3,
							"architecture" : "x64",
							"modernui" : 1
						}
,
						"classnamespace" : "box",
						"rect" : [ 806.0, 159.0, 619.0, 424.0 ],
						"bglocked" : 0,
						"openinpresentation" : 0,
						"default_fontsize" : 12.0,
						"default_fontface" : 0,
						"default_fontname" : "Arial",
						"gridonopen" : 1,
						"gridsize" : [ 15.0, 15.0 ],
						"gridsnaponopen" : 1,
						"objectsnaponopen" : 1,
						"statusbarvisible" : 2,
						"toolbarvisible" : 1,
						"lefttoolbarpinned" : 0,
						"toptoolbarpinned" : 0,
						"righttoolbarpinned" : 0,
						"bottomtoolbarpinned" : 0,
						"toolbars_unpinned_last_save" : 0,
						"tallnewobj" : 0,
						"boxanimatetime" : 200,
						"enablehscroll" : 1,
						"enablevscroll" : 1,
						"devicewidth" : 0.0,
						"description" : "",
						"digest" : "",
						"tags" : "",
						"style" : "",
						"subpatcher_template" : "",
						"assistshowspatchername" : 0,
						"boxes" : [ 							{
								"box" : 								{
									"id" : "obj-12",
									"maxclass" : "button",
									"numinlets" : 1,
									"numoutlets" : 1,
									"outlettype" : [ "bang" ],
									"parameter_enable" : 0,
									"patching_rect" : [ 18.5, 244.0, 24.0, 24.0 ]
								}

							}
, 							{
								"box" : 								{
									"id" : "obj-4",
									"maxclass" : "message",
									"numinlets" : 2,
									"numoutlets" : 1,
									"outlettype" : [ "" ],
									"patching_rect" : [ 327.5, 305.0, 29.5, 22.0 ],
									"text" : "set"
								}

							}
, 							{
								"box" : 								{
									"id" : "obj-10",
									"maxclass" : "message",
									"numinlets" : 2,
									"numoutlets" : 1,
									"outlettype" : [ "" ],
									"patching_rect" : [ 295.5, 272.0, 65.0, 22.0 ],
									"text" : "set forever"
								}

							}
, 							{
								"box" : 								{
									"id" : "obj-9",
									"maxclass" : "message",
									"numinlets" : 2,
									"numoutlets" : 1,
									"outlettype" : [ "" ],
									"patching_rect" : [ 263.5, 243.0, 172.0, 22.0 ],
									"text" : "set \"inelastic collision\""
								}

							}
, 							{
								"box" : 								{
									"id" : "obj-8",
									"maxclass" : "message",
									"numinlets" : 2,
									"numoutlets" : 1,
									"outlettype" : [ "" ],
									"patching_rect" : [ 231.5, 211.0, 166.0, 22.0 ],
									"text" : "set \"decreasing falling height\""
								}

							}
, 							{
								"box" : 								{
									"id" : "obj-7",
									"maxclass" : "message",
									"numinlets" : 2,
									"numoutlets" : 1,
									"outlettype" : [ "" ],
									"patching_rect" : [ 199.5, 183.0, 146.0, 22.0 ],
									"text" : "set \"round, highly regular\""
								}

							}
, 							{
								"box" : 								{
									"id" : "obj-6",
									"maxclass" : "message",
									"numinlets" : 2,
									"numoutlets" : 1,
									"outlettype" : [ "" ],
									"patching_rect" : [ 18.5, 278.0, 108.0, 22.0 ],
									"text" : "script show bubble"
								}

							}
, 							{
								"box" : 								{
									"id" : "obj-5",
									"maxclass" : "message",
									"numinlets" : 2,
									"numoutlets" : 1,
									"outlettype" : [ "" ],
									"patching_rect" : [ 50.0, 235.0, 103.0, 22.0 ],
									"text" : "script hide bubble"
								}

							}
, 							{
								"box" : 								{
									"comment" : "",
									"id" : "obj-3",
									"index" : 1,
									"maxclass" : "outlet",
									"numinlets" : 1,
									"numoutlets" : 0,
									"patching_rect" : [ 46.5, 368.0, 30.0, 30.0 ]
								}

							}
, 							{
								"box" : 								{
									"id" : "obj-16",
									"maxclass" : "newobj",
									"numinlets" : 1,
									"numoutlets" : 1,
									"outlettype" : [ "bang" ],
									"patching_rect" : [ 50.0, 10.0, 58.0, 22.0 ],
									"text" : "loadbang"
								}

							}
, 							{
								"box" : 								{
									"comment" : "",
									"id" : "obj-15",
									"index" : 2,
									"maxclass" : "outlet",
									"numinlets" : 1,
									"numoutlets" : 0,
									"patching_rect" : [ 123.5, 368.0, 30.0, 30.0 ]
								}

							}
, 							{
								"box" : 								{
									"id" : "obj-13",
									"maxclass" : "message",
									"numinlets" : 2,
									"numoutlets" : 1,
									"outlettype" : [ "" ],
									"patching_rect" : [ 123.5, 124.0, 125.0, 22.0 ],
									"text" : "set \"sharp and pointy\""
								}

							}
, 							{
								"box" : 								{
									"id" : "obj-2",
									"maxclass" : "newobj",
									"numinlets" : 7,
									"numoutlets" : 7,
									"outlettype" : [ "bang", "bang", "bang", "bang", "bang", "bang", "" ],
									"patching_rect" : [ 167.5, 57.0, 211.0, 22.0 ],
									"text" : "sel 1 2 3 4 5 6"
								}

							}
, 							{
								"box" : 								{
									"comment" : "",
									"id" : "obj-1",
									"index" : 1,
									"maxclass" : "inlet",
									"numinlets" : 0,
									"numoutlets" : 1,
									"outlettype" : [ "int" ],
									"patching_rect" : [ 167.5, 14.0, 30.0, 30.0 ]
								}

							}
 ],
						"lines" : [ 							{
								"patchline" : 								{
									"destination" : [ "obj-2", 0 ],
									"source" : [ "obj-1", 0 ]
								}

							}
, 							{
								"patchline" : 								{
									"destination" : [ "obj-15", 0 ],
									"source" : [ "obj-10", 0 ]
								}

							}
, 							{
								"patchline" : 								{
									"destination" : [ "obj-6", 0 ],
									"source" : [ "obj-12", 0 ]
								}

							}
, 							{
								"patchline" : 								{
									"destination" : [ "obj-15", 0 ],
									"source" : [ "obj-13", 0 ]
								}

							}
, 							{
								"patchline" : 								{
									"destination" : [ "obj-13", 0 ],
									"order" : 0,
									"source" : [ "obj-16", 0 ]
								}

							}
, 							{
								"patchline" : 								{
									"destination" : [ "obj-5", 0 ],
									"order" : 1,
									"source" : [ "obj-16", 0 ]
								}

							}
, 							{
								"patchline" : 								{
									"destination" : [ "obj-10", 0 ],
									"order" : 0,
									"source" : [ "obj-2", 4 ]
								}

							}
, 							{
								"patchline" : 								{
									"destination" : [ "obj-12", 0 ],
									"source" : [ "obj-2", 6 ]
								}

							}
, 							{
								"patchline" : 								{
									"destination" : [ "obj-12", 0 ],
									"order" : 1,
									"source" : [ "obj-2", 4 ]
								}

							}
, 							{
								"patchline" : 								{
									"destination" : [ "obj-12", 0 ],
									"order" : 1,
									"source" : [ "obj-2", 3 ]
								}

							}
, 							{
								"patchline" : 								{
									"destination" : [ "obj-12", 0 ],
									"order" : 1,
									"source" : [ "obj-2", 2 ]
								}

							}
, 							{
								"patchline" : 								{
									"destination" : [ "obj-12", 0 ],
									"order" : 1,
									"source" : [ "obj-2", 1 ]
								}

							}
, 							{
								"patchline" : 								{
									"destination" : [ "obj-12", 0 ],
									"order" : 2,
									"source" : [ "obj-2", 0 ]
								}

							}
, 							{
								"patchline" : 								{
									"destination" : [ "obj-13", 0 ],
									"order" : 0,
									"source" : [ "obj-2", 0 ]
								}

							}
, 							{
								"patchline" : 								{
									"destination" : [ "obj-4", 0 ],
									"order" : 0,
									"source" : [ "obj-2", 5 ]
								}

							}
, 							{
								"patchline" : 								{
									"destination" : [ "obj-5", 0 ],
									"order" : 1,
									"source" : [ "obj-2", 5 ]
								}

							}
, 							{
								"patchline" : 								{
									"destination" : [ "obj-5", 0 ],
									"midpoints" : [ 177.0, 222.0, 59.5, 222.0 ],
									"order" : 1,
									"source" : [ "obj-2", 0 ]
								}

							}
, 							{
								"patchline" : 								{
									"destination" : [ "obj-7", 0 ],
									"order" : 0,
									"source" : [ "obj-2", 1 ]
								}

							}
, 							{
								"patchline" : 								{
									"destination" : [ "obj-8", 0 ],
									"order" : 0,
									"source" : [ "obj-2", 2 ]
								}

							}
, 							{
								"patchline" : 								{
									"destination" : [ "obj-9", 0 ],
									"order" : 0,
									"source" : [ "obj-2", 3 ]
								}

							}
, 							{
								"patchline" : 								{
									"destination" : [ "obj-15", 0 ],
									"source" : [ "obj-4", 0 ]
								}

							}
, 							{
								"patchline" : 								{
									"destination" : [ "obj-3", 0 ],
									"source" : [ "obj-5", 0 ]
								}

							}
, 							{
								"patchline" : 								{
									"destination" : [ "obj-3", 0 ],
									"source" : [ "obj-6", 0 ]
								}

							}
, 							{
								"patchline" : 								{
									"destination" : [ "obj-15", 0 ],
									"source" : [ "obj-7", 0 ]
								}

							}
, 							{
								"patchline" : 								{
									"destination" : [ "obj-15", 0 ],
									"source" : [ "obj-8", 0 ]
								}

							}
, 							{
								"patchline" : 								{
									"destination" : [ "obj-15", 0 ],
									"source" : [ "obj-9", 0 ]
								}

							}
 ]
					}
,
					"patching_rect" : [ 693.5, 104.734375, 53.0, 23.0 ],
					"saved_object_attributes" : 					{
						"description" : "",
						"digest" : "",
						"globalpatchername" : "",
						"tags" : ""
					}
,
					"text" : "p legend"
				}

			}
, 			{
				"box" : 				{
					"fontface" : 0,
					"id" : "obj-36",
					"linecount" : 6,
					"maxclass" : "comment",
					"numinlets" : 1,
					"numoutlets" : 0,
					"patching_rect" : [ 637.75, 291.0, 259.0, 100.0 ],
					"style" : "SDT-comments",
					"text" : "- irregularity: deviation from a spherical shape [0., 1.].\n- height: initial height (m) of the object being dropped.\n- restitution: restitution coefficient [0., 1.]; 1. results in a perfectly elastic collision."
				}

			}
, 			{
				"box" : 				{
					"fontface" : 3,
					"id" : "obj-37",
					"maxclass" : "comment",
					"numinlets" : 1,
					"numoutlets" : 0,
					"patching_rect" : [ 637.75, 272.5, 221.0, 22.0 ],
					"style" : "SDT-comments",
					"text" : "attributes:"
				}

			}
, 			{
				"box" : 				{
					"id" : "obj-24",
					"logfreq" : 1,
					"maxclass" : "spectroscope~",
					"numinlets" : 2,
					"numoutlets" : 1,
					"outlettype" : [ "" ],
					"patching_rect" : [ 103.5, 530.0, 107.0, 66.0 ]
				}

			}
, 			{
				"box" : 				{
					"fontface" : 1,
					"id" : "obj-82",
					"maxclass" : "comment",
					"numinlets" : 1,
					"numoutlets" : 0,
					"patching_rect" : [ 357.0, 324.0, 136.1875, 21.0 ],
					"text" : "Bouncing events "
				}

			}
, 			{
				"box" : 				{
					"bubble" : 1,
					"bubbleside" : 2,
					"id" : "obj-77",
					"maxclass" : "comment",
					"numinlets" : 1,
					"numoutlets" : 0,
					"patching_rect" : [ 426.75, 130.0, 76.0, 41.0 ],
					"style" : "SDT-comments",
					"text" : "elasticity ",
					"textjustification" : 1
				}

			}
, 			{
				"box" : 				{
					"format" : 6,
					"id" : "obj-76",
					"maxclass" : "flonum",
					"maximum" : 1.0,
					"minimum" : 0.0,
					"numinlets" : 1,
					"numoutlets" : 2,
					"outlettype" : [ "", "bang" ],
					"parameter_enable" : 0,
					"patching_rect" : [ 441.75, 177.0, 46.0, 23.0 ]
				}

			}
, 			{
				"box" : 				{
					"format" : 6,
					"id" : "obj-68",
					"maxclass" : "flonum",
					"minimum" : 0.0,
					"numinlets" : 1,
					"numoutlets" : 2,
					"outlettype" : [ "", "bang" ],
					"parameter_enable" : 0,
					"patching_rect" : [ 301.0, 177.0, 61.0, 23.0 ]
				}

			}
, 			{
				"box" : 				{
					"format" : 6,
					"id" : "obj-66",
					"maxclass" : "flonum",
					"maximum" : 1.0,
					"minimum" : 0.0,
					"numinlets" : 1,
					"numoutlets" : 2,
					"outlettype" : [ "", "bang" ],
					"parameter_enable" : 0,
					"patching_rect" : [ 156.0, 177.0, 56.0, 23.0 ]
				}

			}
, 			{
				"box" : 				{
					"bubblesize" : 10,
					"id" : "obj-56",
					"maxclass" : "preset",
					"numinlets" : 1,
					"numoutlets" : 5,
					"outlettype" : [ "preset", "int", "preset", "int", "" ],
					"patching_rect" : [ 693.5, 82.0, 146.0, 19.0 ],
					"preset_data" : [ 						{
							"number" : 1,
							"data" : [ 5, "obj-28", "live.gain~", "float", 0.0, 5, "obj-42", "number", "int", 12000, 5, "obj-23", "slider", "float", 11999.0, 5, "obj-66", "flonum", "float", 0.899999976158142, 5, "obj-68", "flonum", "float", 1.0, 5, "obj-76", "flonum", "float", 0.899999976158142, 5, "obj-88", "multislider", "list", 0.000003111198112 ]
						}
, 						{
							"number" : 2,
							"data" : [ 5, "obj-28", "live.gain~", "float", 0.0, 5, "obj-42", "number", "int", 12000, 5, "obj-23", "slider", "float", 11999.0, 5, "obj-66", "flonum", "float", 0.100000001490116, 5, "obj-68", "flonum", "float", 1.0, 5, "obj-76", "flonum", "float", 0.899999976158142, 5, "obj-88", "multislider", "list", 0.000007343180187 ]
						}
, 						{
							"number" : 3,
							"data" : [ 5, "obj-28", "live.gain~", "float", 0.0, 5, "obj-42", "number", "int", 12000, 5, "obj-23", "slider", "float", 11999.0, 5, "obj-66", "flonum", "float", 0.100000001490116, 5, "obj-68", "flonum", "float", 0.200000002980232, 5, "obj-76", "flonum", "float", 0.899999976158142, 5, "obj-88", "multislider", "list", 0.000000302832888 ]
						}
, 						{
							"number" : 4,
							"data" : [ 5, "obj-28", "live.gain~", "float", 0.0, 5, "obj-42", "number", "int", 12000, 5, "obj-23", "slider", "float", 11999.0, 5, "obj-66", "flonum", "float", 0.100000001490116, 5, "obj-68", "flonum", "float", 0.200000002980232, 5, "obj-76", "flonum", "float", 0.300000011920929, 5, "obj-88", "multislider", "list", 0.000010789261978 ]
						}
, 						{
							"number" : 5,
							"data" : [ 5, "obj-28", "live.gain~", "float", 0.0, 5, "obj-42", "number", "int", 12000, 5, "obj-23", "slider", "float", 11999.0, 5, "obj-66", "flonum", "float", 0.0, 5, "obj-68", "flonum", "float", 0.03999999910593, 5, "obj-76", "flonum", "float", 1.0, 5, "obj-88", "multislider", "list", 0.050215821713209 ]
						}
, 						{
							"number" : 6,
							"data" : [ 5, "obj-28", "live.gain~", "float", 0.0, 5, "obj-42", "number", "int", 20000, 5, "obj-23", "slider", "float", 19999.0, 5, "obj-66", "flonum", "float", 0.009999999776483, 5, "obj-68", "flonum", "float", 0.03999999910593, 5, "obj-76", "flonum", "float", 1.0, 5, "obj-88", "multislider", "list", 0.004171983338892 ]
						}
 ]
				}

			}
, 			{
				"box" : 				{
					"id" : "obj-52",
					"maxclass" : "comment",
					"numinlets" : 1,
					"numoutlets" : 0,
					"patching_rect" : [ 298.0, 417.5, 65.0, 22.0 ],
					"style" : "SDT-comments",
					"text" : "extra gain"
				}

			}
, 			{
				"box" : 				{
					"hidden" : 1,
					"id" : "obj-50",
					"maxclass" : "newobj",
					"numinlets" : 1,
					"numoutlets" : 0,
					"patcher" : 					{
						"fileversion" : 1,
						"appversion" : 						{
							"major" : 8,
							"minor" : 5,
							"revision" : 3,
							"architecture" : "x64",
							"modernui" : 1
						}
,
						"classnamespace" : "box",
						"rect" : [ 0.0, 0.0, 640.0, 480.0 ],
						"bglocked" : 0,
						"openinpresentation" : 0,
						"default_fontsize" : 12.0,
						"default_fontface" : 0,
						"default_fontname" : "Arial",
						"gridonopen" : 1,
						"gridsize" : [ 15.0, 15.0 ],
						"gridsnaponopen" : 1,
						"objectsnaponopen" : 1,
						"statusbarvisible" : 2,
						"toolbarvisible" : 1,
						"lefttoolbarpinned" : 0,
						"toptoolbarpinned" : 0,
						"righttoolbarpinned" : 0,
						"bottomtoolbarpinned" : 0,
						"toolbars_unpinned_last_save" : 0,
						"tallnewobj" : 0,
						"boxanimatetime" : 200,
						"enablehscroll" : 1,
						"enablevscroll" : 1,
						"devicewidth" : 0.0,
						"description" : "",
						"digest" : "",
						"tags" : "",
						"style" : "",
						"subpatcher_template" : "",
						"assistshowspatchername" : 0,
						"boxes" : [ 							{
								"box" : 								{
									"hidden" : 1,
									"id" : "obj-44",
									"maxclass" : "newobj",
									"numinlets" : 1,
									"numoutlets" : 1,
									"outlettype" : [ "" ],
									"patching_rect" : [ 50.0, 124.0, 55.0, 23.0 ],
									"style" : "SDT_package",
									"text" : "pcontrol"
								}

							}
, 							{
								"box" : 								{
									"hidden" : 1,
									"id" : "obj-46",
									"linecount" : 2,
									"maxclass" : "newobj",
									"numinlets" : 1,
									"numoutlets" : 1,
									"outlettype" : [ "" ],
									"patching_rect" : [ 50.0, 100.0, 169.0, 23.0 ],
									"style" : "SDT_package",
									"text" : "sprintf loadunique %s.maxhelp"
								}

							}
, 							{
								"box" : 								{
									"comment" : "",
									"id" : "obj-49",
									"index" : 1,
									"maxclass" : "inlet",
									"numinlets" : 0,
									"numoutlets" : 1,
									"outlettype" : [ "" ],
									"patching_rect" : [ 50.0, 40.0, 30.0, 30.0 ]
								}

							}
 ],
						"lines" : [ 							{
								"patchline" : 								{
									"destination" : [ "obj-44", 0 ],
									"hidden" : 1,
									"source" : [ "obj-46", 0 ]
								}

							}
, 							{
								"patchline" : 								{
									"destination" : [ "obj-46", 0 ],
									"source" : [ "obj-49", 0 ]
								}

							}
 ]
					}
,
					"patching_rect" : [ 740.0, 57.0, 65.5, 23.0 ],
					"saved_object_attributes" : 					{
						"description" : "",
						"digest" : "",
						"globalpatchername" : "",
						"tags" : ""
					}
,
					"text" : "p see_also"
				}

			}
, 			{
				"box" : 				{
					"fontface" : 3,
					"fontsize" : 14.0,
					"id" : "obj-48",
					"maxclass" : "comment",
					"numinlets" : 1,
					"numoutlets" : 0,
					"patching_rect" : [ 693.5, 10.0, 112.0, 23.0 ],
					"text" : "See also"
				}

			}
, 			{
				"box" : 				{
					"bgcolor" : [ 0.2, 0.2, 0.2, 1.0 ],
					"bgfillcolor_angle" : 270.0,
					"bgfillcolor_autogradient" : 0.0,
					"bgfillcolor_color" : [ 0.2, 0.2, 0.2, 1.0 ],
					"bgfillcolor_color1" : [ 0.65098, 0.666667, 0.662745, 1.0 ],
					"bgfillcolor_color2" : [ 0.2, 0.2, 0.2, 1.0 ],
					"bgfillcolor_proportion" : 0.5,
					"bgfillcolor_type" : "color",
					"fontface" : 0,
					"id" : "obj-43",
					"items" : [ "sdt.inertial", ",", "sdt.modal", ",", "sdt.friction~", ",", "sdt.impact~", ",", "sdt.breaking~", ",", "sdt.crumpling~", ",", "sdt.rolling~", ",", "sdt.scraping~" ],
					"maxclass" : "umenu",
					"numinlets" : 1,
					"numoutlets" : 3,
					"outlettype" : [ "int", "", "" ],
					"parameter_enable" : 0,
					"patching_rect" : [ 693.5, 32.0, 112.0, 23.0 ],
					"style" : "SDT_package"
				}

			}
, 			{
				"box" : 				{
					"hidden" : 1,
					"id" : "obj-31",
					"maxclass" : "newobj",
					"numinlets" : 2,
					"numoutlets" : 0,
					"patching_rect" : [ 231.5, 621.0, 34.0, 23.0 ],
					"text" : "dac~"
				}

			}
, 			{
				"box" : 				{
					"id" : "obj-29",
					"local" : 1,
					"maxclass" : "ezdac~",
					"numinlets" : 2,
					"numoutlets" : 0,
					"patching_rect" : [ 740.0, 177.0, 45.0, 45.0 ]
				}

			}
, 			{
				"box" : 				{
					"id" : "obj-23",
					"maxclass" : "slider",
					"min" : 1.0,
					"numinlets" : 1,
					"numoutlets" : 1,
					"outlettype" : [ "" ],
					"parameter_enable" : 0,
					"patching_rect" : [ 317.5, 442.5, 27.0, 52.0 ],
					"size" : 20000.0
				}

			}
, 			{
				"box" : 				{
					"id" : "obj-42",
					"maxclass" : "number",
					"numinlets" : 1,
					"numoutlets" : 2,
					"outlettype" : [ "", "bang" ],
					"parameter_enable" : 0,
					"patching_rect" : [ 317.5, 501.5, 50.0, 23.0 ]
				}

			}
, 			{
				"box" : 				{
					"id" : "obj-38",
					"maxclass" : "newobj",
					"numinlets" : 2,
					"numoutlets" : 1,
					"outlettype" : [ "signal" ],
					"patcher" : 					{
						"fileversion" : 1,
						"appversion" : 						{
							"major" : 8,
							"minor" : 5,
							"revision" : 3,
							"architecture" : "x64",
							"modernui" : 1
						}
,
						"classnamespace" : "box",
						"rect" : [ 59.0, 104.0, 640.0, 480.0 ],
						"bglocked" : 0,
						"openinpresentation" : 0,
						"default_fontsize" : 12.0,
						"default_fontface" : 0,
						"default_fontname" : "Arial",
						"gridonopen" : 1,
						"gridsize" : [ 15.0, 15.0 ],
						"gridsnaponopen" : 1,
						"objectsnaponopen" : 1,
						"statusbarvisible" : 2,
						"toolbarvisible" : 1,
						"lefttoolbarpinned" : 0,
						"toptoolbarpinned" : 0,
						"righttoolbarpinned" : 0,
						"bottomtoolbarpinned" : 0,
						"toolbars_unpinned_last_save" : 0,
						"tallnewobj" : 0,
						"boxanimatetime" : 200,
						"enablehscroll" : 1,
						"enablevscroll" : 1,
						"devicewidth" : 0.0,
						"description" : "",
						"digest" : "",
						"tags" : "",
						"style" : "",
						"subpatcher_template" : "",
						"assistshowspatchername" : 0,
						"boxes" : [ 							{
								"box" : 								{
									"comment" : "",
									"id" : "obj-4",
									"index" : 2,
									"maxclass" : "inlet",
									"numinlets" : 0,
									"numoutlets" : 1,
									"outlettype" : [ "" ],
									"patching_rect" : [ 223.0, 15.0, 30.0, 30.0 ]
								}

							}
, 							{
								"box" : 								{
									"id" : "obj-2",
									"maxclass" : "newobj",
									"numinlets" : 2,
									"numoutlets" : 1,
									"outlettype" : [ "signal" ],
									"patching_rect" : [ 70.0, 228.0, 49.0, 22.0 ],
									"text" : "*~ 1"
								}

							}
, 							{
								"box" : 								{
									"comment" : "",
									"id" : "obj-3",
									"index" : 1,
									"maxclass" : "outlet",
									"numinlets" : 1,
									"numoutlets" : 0,
									"patching_rect" : [ 70.0, 265.0, 30.0, 30.0 ]
								}

							}
, 							{
								"box" : 								{
									"comment" : "",
									"id" : "obj-1",
									"index" : 1,
									"maxclass" : "inlet",
									"numinlets" : 0,
									"numoutlets" : 1,
									"outlettype" : [ "signal" ],
									"patching_rect" : [ 70.0, 15.0, 28.0, 28.0 ]
								}

							}
, 							{
								"box" : 								{
									"id" : "obj-24",
									"maxclass" : "newobj",
									"numinlets" : 2,
									"numoutlets" : 1,
									"outlettype" : [ "signal" ],
									"patching_rect" : [ 70.0, 114.0, 49.0, 23.0 ],
									"style" : "SDTpackage",
									"text" : "-~"
								}

							}
, 							{
								"box" : 								{
									"id" : "obj-23",
									"maxclass" : "newobj",
									"numinlets" : 2,
									"numoutlets" : 1,
									"outlettype" : [ "signal" ],
									"patching_rect" : [ 100.0, 85.0, 75.0, 23.0 ],
									"style" : "SDTpackage",
									"text" : "onepole~ 20"
								}

							}
, 							{
								"box" : 								{
									"id" : "obj-22",
									"maxclass" : "newobj",
									"numinlets" : 2,
									"numoutlets" : 1,
									"outlettype" : [ "signal" ],
									"patching_rect" : [ 100.0, 58.0, 75.0, 23.0 ],
									"style" : "SDTpackage",
									"text" : "onepole~ 20"
								}

							}
 ],
						"lines" : [ 							{
								"patchline" : 								{
									"destination" : [ "obj-22", 0 ],
									"order" : 0,
									"source" : [ "obj-1", 0 ]
								}

							}
, 							{
								"patchline" : 								{
									"destination" : [ "obj-24", 0 ],
									"order" : 1,
									"source" : [ "obj-1", 0 ]
								}

							}
, 							{
								"patchline" : 								{
									"destination" : [ "obj-3", 0 ],
									"source" : [ "obj-2", 0 ]
								}

							}
, 							{
								"patchline" : 								{
									"destination" : [ "obj-23", 0 ],
									"source" : [ "obj-22", 0 ]
								}

							}
, 							{
								"patchline" : 								{
									"destination" : [ "obj-24", 1 ],
									"source" : [ "obj-23", 0 ]
								}

							}
, 							{
								"patchline" : 								{
									"destination" : [ "obj-2", 0 ],
									"source" : [ "obj-24", 0 ]
								}

							}
, 							{
								"patchline" : 								{
									"destination" : [ "obj-2", 1 ],
									"midpoints" : [ 232.5, 204.0, 109.5, 204.0 ],
									"source" : [ "obj-4", 0 ]
								}

							}
 ],
						"styles" : [ 							{
								"name" : "SDTpackage",
								"default" : 								{
									"fontname" : [ "Lato" ],
									"fontsize" : [ 12.0 ]
								}
,
								"parentstyle" : "",
								"multi" : 0
							}
 ]
					}
,
					"patching_rect" : [ 231.5, 530.0, 105.0, 23.0 ],
					"saved_object_attributes" : 					{
						"description" : "",
						"digest" : "",
						"globalpatchername" : "",
						"tags" : ""
					}
,
					"text" : "p removeDCoffset"
				}

			}
, 			{
				"box" : 				{
					"bubble" : 1,
					"bubbleside" : 2,
					"id" : "obj-33",
					"linecount" : 2,
					"maxclass" : "comment",
					"numinlets" : 1,
					"numoutlets" : 0,
					"patching_rect" : [ 284.0, 122.0, 95.0, 57.0 ],
					"style" : "SDT-comments",
					"text" : "falling height (m)",
					"textjustification" : 1
				}

			}
, 			{
				"box" : 				{
					"channels" : 1,
					"id" : "obj-28",
					"lastchannelcount" : 0,
					"maxclass" : "live.gain~",
					"numinlets" : 1,
					"numoutlets" : 4,
					"orientation" : 1,
					"outlettype" : [ "signal", "", "float", "list" ],
					"parameter_enable" : 1,
					"patching_rect" : [ 231.5, 560.0, 106.0, 41.0 ],
					"saved_attribute_attributes" : 					{
						"valueof" : 						{
							"parameter_longname" : "live.gain~",
							"parameter_mmax" : 6.0,
							"parameter_mmin" : -70.0,
							"parameter_shortname" : "live.gain~",
							"parameter_type" : 0,
							"parameter_unitstyle" : 4
						}

					}
,
					"varname" : "live.gain~"
				}

			}
, 			{
				"box" : 				{
					"hidden" : 1,
					"id" : "obj-22",
					"maxclass" : "newobj",
					"numinlets" : 0,
					"numoutlets" : 1,
					"outlettype" : [ "" ],
					"patcher" : 					{
						"fileversion" : 1,
						"appversion" : 						{
							"major" : 8,
							"minor" : 5,
							"revision" : 3,
							"architecture" : "x64",
							"modernui" : 1
						}
,
						"classnamespace" : "box",
						"rect" : [ 766.0, 192.0, 640.0, 480.0 ],
						"bglocked" : 0,
						"openinpresentation" : 0,
						"default_fontsize" : 12.0,
						"default_fontface" : 0,
						"default_fontname" : "Arial",
						"gridonopen" : 1,
						"gridsize" : [ 15.0, 15.0 ],
						"gridsnaponopen" : 1,
						"objectsnaponopen" : 1,
						"statusbarvisible" : 2,
						"toolbarvisible" : 1,
						"lefttoolbarpinned" : 0,
						"toptoolbarpinned" : 0,
						"righttoolbarpinned" : 0,
						"bottomtoolbarpinned" : 0,
						"toolbars_unpinned_last_save" : 0,
						"tallnewobj" : 0,
						"boxanimatetime" : 200,
						"enablehscroll" : 1,
						"enablevscroll" : 1,
						"devicewidth" : 0.0,
						"description" : "",
						"digest" : "",
						"tags" : "",
						"style" : "",
						"subpatcher_template" : "",
						"assistshowspatchername" : 0,
						"boxes" : [ 							{
								"box" : 								{
									"id" : "obj-64",
									"maxclass" : "newobj",
									"numinlets" : 1,
									"numoutlets" : 1,
									"outlettype" : [ "bang" ],
									"patching_rect" : [ 40.0, 32.0, 58.0, 22.0 ],
									"style" : "SDTpackage",
									"text" : "loadbang"
								}

							}
, 							{
								"box" : 								{
									"id" : "obj-25",
									"maxclass" : "message",
									"numinlets" : 2,
									"numoutlets" : 1,
									"outlettype" : [ "" ],
									"patching_rect" : [ 40.0, 93.0, 249.0, 22.0 ],
									"style" : "SDTpackage",
									"text" : "window size 100 100 1000 750, window exec"
								}

							}
, 							{
								"box" : 								{
									"comment" : "",
									"id" : "obj-21",
									"index" : 1,
									"maxclass" : "outlet",
									"numinlets" : 1,
									"numoutlets" : 0,
									"patching_rect" : [ 40.0, 156.0, 30.0, 30.0 ]
								}

							}
 ],
						"lines" : [ 							{
								"patchline" : 								{
									"destination" : [ "obj-21", 0 ],
									"source" : [ "obj-25", 0 ]
								}

							}
, 							{
								"patchline" : 								{
									"destination" : [ "obj-25", 0 ],
									"source" : [ "obj-64", 0 ]
								}

							}
 ]
					}
,
					"patching_rect" : [ 536.25, 10.0, 82.0, 23.0 ],
					"saved_object_attributes" : 					{
						"description" : "",
						"digest" : "",
						"globalpatchername" : "",
						"tags" : ""
					}
,
					"text" : "p this.window"
				}

			}
, 			{
				"box" : 				{
					"hidden" : 1,
					"id" : "obj-55",
					"maxclass" : "newobj",
					"numinlets" : 1,
					"numoutlets" : 2,
					"outlettype" : [ "", "" ],
					"patching_rect" : [ 536.25, 39.0, 68.0, 23.0 ],
					"save" : [ "#N", "thispatcher", ";", "#Q", "end", ";" ],
					"style" : "SDTpackage",
					"text" : "thispatcher"
				}

			}
, 			{
				"box" : 				{
					"fontsize" : 13.0,
					"id" : "obj-11",
					"maxclass" : "comment",
					"numinlets" : 1,
					"numoutlets" : 0,
					"patching_rect" : [ 15.0, 62.0, 502.0, 22.0 ],
					"text" : "[solids, control] Control algorithm to render bouncing sounds."
				}

			}
, 			{
				"box" : 				{
					"id" : "obj-10",
					"linecount" : 5,
					"maxclass" : "newobj",
					"numinlets" : 1,
					"numoutlets" : 0,
					"patching_rect" : [ 403.25, 501.5, 167.0, 80.0 ],
					"style" : "SDT_package",
					"text" : "sdt.modal modal-object_g 3 1 @freqs 1150. 4550. 6000. @decays 0.002 0.003 0.004 @pickup0 330. 1000. 1200. @activeModes 3"
				}

			}
, 			{
				"box" : 				{
					"id" : "obj-9",
					"linecount" : 3,
					"maxclass" : "newobj",
					"numinlets" : 6,
					"numoutlets" : 2,
					"outlettype" : [ "signal", "signal" ],
					"patching_rect" : [ 44.0, 442.5, 235.0, 52.0 ],
					"style" : "SDT_package",
					"text" : "sdt.impact~ inertial-object_g modal-object_g 2 @stiffness 150000000. @dissipation 0.7 @shape 1.7 @contact0 0"
				}

			}
, 			{
				"box" : 				{
					"fontsize" : 13.0,
					"id" : "obj-6",
					"maxclass" : "comment",
					"numinlets" : 1,
					"numoutlets" : 0,
					"patching_rect" : [ 15.0, 86.0, 523.0, 22.0 ],
					"text" : "Generates a sequence of impacts to drive [sdt.impact~].",
					"textcolor" : [ 0.32549, 0.345098, 0.372549, 1.0 ]
				}

			}
, 			{
				"box" : 				{
					"id" : "obj-5",
					"linecount" : 2,
					"maxclass" : "newobj",
					"numinlets" : 1,
					"numoutlets" : 0,
					"patching_rect" : [ 403.25, 457.5, 167.0, 37.0 ],
					"text" : "sdt.inertial inertial-object_g @mass 0.003"
				}

			}
, 			{
				"box" : 				{
					"fontface" : 1,
					"fontsize" : 36.0,
					"id" : "obj-2",
					"maxclass" : "comment",
					"numinlets" : 1,
					"numoutlets" : 0,
					"patching_rect" : [ 15.0, 10.0, 425.0, 50.0 ],
					"text" : "sdt.bouncing~"
				}

			}
 ],
		"lines" : [ 			{
				"patchline" : 				{
					"destination" : [ "obj-7", 0 ],
					"midpoints" : [ 165.5, 258.0, 53.5, 258.0 ],
					"source" : [ "obj-12", 0 ]
				}

			}
, 			{
				"patchline" : 				{
					"destination" : [ "obj-9", 1 ],
					"midpoints" : [ 53.5, 419.75, 96.700000000000003, 419.75 ],
					"source" : [ "obj-13", 0 ]
				}

			}
, 			{
				"patchline" : 				{
					"destination" : [ "obj-7", 0 ],
					"midpoints" : [ 310.5, 258.5, 53.5, 258.5 ],
					"source" : [ "obj-14", 0 ]
				}

			}
, 			{
				"patchline" : 				{
					"destination" : [ "obj-7", 0 ],
					"midpoints" : [ 451.25, 258.5, 53.5, 258.5 ],
					"source" : [ "obj-15", 0 ]
				}

			}
, 			{
				"patchline" : 				{
					"destination" : [ "obj-7", 0 ],
					"source" : [ "obj-16", 0 ]
				}

			}
, 			{
				"patchline" : 				{
					"destination" : [ "obj-55", 0 ],
					"hidden" : 1,
					"source" : [ "obj-22", 0 ]
				}

			}
, 			{
				"patchline" : 				{
					"destination" : [ "obj-42", 0 ],
					"source" : [ "obj-23", 0 ]
				}

			}
, 			{
				"patchline" : 				{
					"destination" : [ "obj-31", 1 ],
					"hidden" : 1,
					"order" : 0,
					"source" : [ "obj-28", 0 ]
				}

			}
, 			{
				"patchline" : 				{
					"destination" : [ "obj-31", 0 ],
					"hidden" : 1,
					"order" : 1,
					"source" : [ "obj-28", 0 ]
				}

			}
, 			{
				"patchline" : 				{
					"destination" : [ "obj-40", 0 ],
					"source" : [ "obj-32", 0 ]
				}

			}
, 			{
				"patchline" : 				{
					"destination" : [ "obj-24", 0 ],
					"hidden" : 1,
					"midpoints" : [ 241.0, 610.5, 94.875, 610.5, 94.875, 526.5, 113.0, 526.5 ],
					"order" : 1,
					"source" : [ "obj-38", 0 ]
				}

			}
, 			{
				"patchline" : 				{
					"destination" : [ "obj-28", 0 ],
					"order" : 0,
					"source" : [ "obj-38", 0 ]
				}

			}
, 			{
				"patchline" : 				{
					"destination" : [ "obj-56", 0 ],
					"hidden" : 1,
					"source" : [ "obj-4", 0 ]
				}

			}
, 			{
				"patchline" : 				{
					"destination" : [ "obj-38", 1 ],
					"source" : [ "obj-42", 0 ]
				}

			}
, 			{
				"patchline" : 				{
					"destination" : [ "obj-50", 0 ],
					"hidden" : 1,
					"source" : [ "obj-43", 1 ]
				}

			}
, 			{
				"patchline" : 				{
					"destination" : [ "obj-43", 0 ],
					"hidden" : 1,
					"midpoints" : [ 766.5, 116.0, 888.833333333333371, 116.0, 888.833333333333371, 5.0, 703.0, 5.0 ],
					"source" : [ "obj-56", 2 ]
				}

			}
, 			{
				"patchline" : 				{
					"destination" : [ "obj-57", 0 ],
					"hidden" : 1,
					"source" : [ "obj-56", 1 ]
				}

			}
, 			{
				"patchline" : 				{
					"destination" : [ "obj-55", 0 ],
					"hidden" : 1,
					"midpoints" : [ 703.0, 132.5, 527.25, 132.5, 527.25, 35.0, 545.75, 35.0 ],
					"source" : [ "obj-57", 0 ]
				}

			}
, 			{
				"patchline" : 				{
					"destination" : [ "obj-59", 0 ],
					"hidden" : 1,
					"midpoints" : [ 737.0, 132.5, 571.5, 132.5 ],
					"source" : [ "obj-57", 1 ]
				}

			}
, 			{
				"patchline" : 				{
					"destination" : [ "obj-16", 0 ],
					"hidden" : 1,
					"source" : [ "obj-58", 0 ]
				}

			}
, 			{
				"patchline" : 				{
					"destination" : [ "obj-12", 0 ],
					"source" : [ "obj-66", 0 ]
				}

			}
, 			{
				"patchline" : 				{
					"destination" : [ "obj-14", 0 ],
					"source" : [ "obj-68", 0 ]
				}

			}
, 			{
				"patchline" : 				{
					"destination" : [ "obj-13", 0 ],
					"source" : [ "obj-7", 0 ]
				}

			}
, 			{
				"patchline" : 				{
					"destination" : [ "obj-15", 0 ],
					"source" : [ "obj-76", 0 ]
				}

			}
, 			{
				"patchline" : 				{
					"destination" : [ "obj-88", 0 ],
					"hidden" : 1,
					"midpoints" : [ 53.5, 540.0, 12.25, 540.0, 12.25, 305.5, 249.0, 305.5 ],
					"source" : [ "obj-80", 0 ]
				}

			}
, 			{
				"patchline" : 				{
					"destination" : [ "obj-38", 0 ],
					"midpoints" : [ 269.5, 508.5, 241.0, 508.5 ],
					"source" : [ "obj-9", 1 ]
				}

			}
, 			{
				"patchline" : 				{
					"destination" : [ "obj-78", 0 ],
					"hidden" : 1,
					"midpoints" : [ 53.5, 498.5, 22.25, 498.5, 22.25, 305.5, 113.0, 305.5 ],
					"order" : 0,
					"source" : [ "obj-9", 0 ]
				}

			}
, 			{
				"patchline" : 				{
					"destination" : [ "obj-80", 0 ],
					"hidden" : 1,
					"order" : 1,
					"source" : [ "obj-9", 0 ]
				}

			}
 ],
		"parameters" : 		{
			"obj-28" : [ "live.gain~", "live.gain~", 0 ],
			"parameterbanks" : 			{

			}
,
			"inherited_shortname" : 1
		}
,
		"dependency_cache" : [ 			{
				"name" : "sdt.bouncing~.mxo",
				"type" : "iLaX"
			}
, 			{
				"name" : "sdt.impact~.mxo",
				"type" : "iLaX"
			}
, 			{
				"name" : "sdt.inertial.mxo",
				"type" : "iLaX"
			}
, 			{
				"name" : "sdt.modal.mxo",
				"type" : "iLaX"
			}
 ],
		"autosave" : 0,
		"boxgroups" : [ 			{
				"boxes" : [ "obj-48", "obj-43", "obj-50" ]
			}
, 			{
				"boxes" : [ "obj-38", "obj-28", "obj-31" ]
			}
, 			{
				"boxes" : [ "obj-52", "obj-42", "obj-23" ]
			}
, 			{
				"boxes" : [ "obj-37", "obj-36" ]
			}
, 			{
				"boxes" : [ "obj-11", "obj-2", "obj-6" ]
			}
 ],
		"styles" : [ 			{
				"name" : "SDT-comments",
				"default" : 				{
					"fontname" : [ "Lato" ],
					"fontsize" : [ 13.0 ]
				}
,
				"parentstyle" : "",
				"multi" : 0
			}
, 			{
				"name" : "SDT_package",
				"default" : 				{
					"fontname" : [ "Lato" ]
				}
,
				"parentstyle" : "",
				"multi" : 0
			}
, 			{
				"name" : "SDTpackage",
				"default" : 				{
					"fontname" : [ "Lato" ],
					"fontsize" : [ 12.0 ]
				}
,
				"parentstyle" : "",
				"multi" : 0
			}
 ]
	}

}
