{
	"patcher" : 	{
		"fileversion" : 1,
		"appversion" : 		{
			"major" : 8,
			"minor" : 0,
			"revision" : 1,
			"architecture" : "x64",
			"modernui" : 1
		}
,
		"classnamespace" : "box",
		"rect" : [ 100.0, 100.0, 758.0, 501.0 ],
		"bglocked" : 0,
		"openinpresentation" : 0,
		"default_fontsize" : 12.0,
		"default_fontface" : 0,
		"default_fontname" : "Arial",
		"gridonopen" : 1,
		"gridsize" : [ 15.0, 15.0 ],
		"gridsnaponopen" : 1,
		"objectsnaponopen" : 1,
		"statusbarvisible" : 2,
		"toolbarvisible" : 1,
		"lefttoolbarpinned" : 0,
		"toptoolbarpinned" : 0,
		"righttoolbarpinned" : 0,
		"bottomtoolbarpinned" : 0,
		"toolbars_unpinned_last_save" : 15,
		"tallnewobj" : 0,
		"boxanimatetime" : 200,
		"enablehscroll" : 1,
		"enablevscroll" : 1,
		"devicewidth" : 0.0,
		"description" : "",
		"digest" : "",
		"tags" : "",
		"style" : "",
		"subpatcher_template" : "",
		"boxes" : [ 			{
				"box" : 				{
					"hidden" : 1,
					"id" : "obj-19",
					"maxclass" : "newobj",
					"numinlets" : 1,
					"numoutlets" : 2,
					"outlettype" : [ "int", "bang" ],
					"patching_rect" : [ 153.0, 29.625, 32.0, 22.0 ],
					"text" : "t 1 b"
				}

			}
, 			{
				"box" : 				{
					"id" : "obj-25",
					"maxclass" : "preset",
					"numinlets" : 1,
					"numoutlets" : 4,
					"outlettype" : [ "preset", "int", "preset", "int" ],
					"patching_rect" : [ 113.0, 245.5, 42.0, 32.0 ],
					"preset_data" : [ 						{
							"number" : 1,
							"data" : [ 6, "obj-13", "gain~", "list", 0, 10.0, 6, "obj-10", "gain~", "list", 0, 10.0, 6, "obj-2", "gain~", "list", 124, 10.0, 6, "obj-5", "gain~", "list", 0, 10.0 ]
						}
, 						{
							"number" : 2,
							"data" : [ 6, "obj-13", "gain~", "list", 0, 10.0, 6, "obj-10", "gain~", "list", 131, 10.0, 6, "obj-2", "gain~", "list", 0, 10.0, 6, "obj-5", "gain~", "list", 0, 10.0 ]
						}
, 						{
							"number" : 3,
							"data" : [ 6, "obj-13", "gain~", "list", 131, 10.0, 6, "obj-10", "gain~", "list", 0, 10.0, 6, "obj-2", "gain~", "list", 0, 10.0, 6, "obj-5", "gain~", "list", 0, 10.0 ]
						}
, 						{
							"number" : 4,
							"data" : [ 6, "obj-13", "gain~", "list", 126, 10.0, 6, "obj-10", "gain~", "list", 128, 10.0, 6, "obj-2", "gain~", "list", 96, 10.0, 6, "obj-5", "gain~", "list", 0, 10.0 ]
						}
, 						{
							"number" : 5,
							"data" : [ 6, "obj-13", "gain~", "list", 84, 10.0, 6, "obj-10", "gain~", "list", 118, 10.0, 6, "obj-2", "gain~", "list", 122, 10.0, 6, "obj-5", "gain~", "list", 0, 10.0 ]
						}
, 						{
							"number" : 6,
							"data" : [ 6, "obj-13", "gain~", "list", 0, 10.0, 6, "obj-10", "gain~", "list", 0, 10.0, 6, "obj-2", "gain~", "list", 0, 10.0, 6, "obj-5", "gain~", "list", 123, 10.0 ]
						}
 ]
				}

			}
, 			{
				"box" : 				{
					"hidden" : 1,
					"id" : "obj-24",
					"maxclass" : "newobj",
					"numinlets" : 1,
					"numoutlets" : 1,
					"outlettype" : [ "" ],
					"patching_rect" : [ 57.5, 4.0, 70.0, 22.0 ],
					"text" : "loadmess 2"
				}

			}
, 			{
				"box" : 				{
					"hidden" : 1,
					"id" : "obj-23",
					"maxclass" : "newobj",
					"numinlets" : 1,
					"numoutlets" : 1,
					"outlettype" : [ "bang" ],
					"patching_rect" : [ 153.0, 4.0, 58.0, 22.0 ],
					"text" : "loadbang"
				}

			}
, 			{
				"box" : 				{
					"id" : "obj-22",
					"items" : [ "closed", ",", "mic", ",", "sound", "file" ],
					"maxclass" : "umenu",
					"numinlets" : 1,
					"numoutlets" : 3,
					"outlettype" : [ "int", "", "" ],
					"parameter_enable" : 0,
					"patching_rect" : [ 80.5, 165.0, 100.0, 22.0 ]
				}

			}
, 			{
				"box" : 				{
					"id" : "obj-21",
					"maxclass" : "newobj",
					"numinlets" : 3,
					"numoutlets" : 1,
					"outlettype" : [ "signal" ],
					"patching_rect" : [ 80.5, 192.0, 68.0, 22.0 ],
					"text" : "selector~ 2"
				}

			}
, 			{
				"box" : 				{
					"id" : "obj-18",
					"maxclass" : "toggle",
					"numinlets" : 1,
					"numoutlets" : 1,
					"outlettype" : [ "int" ],
					"parameter_enable" : 0,
					"patching_rect" : [ 260.25, 134.0, 24.0, 24.0 ]
				}

			}
, 			{
				"box" : 				{
					"id" : "obj-16",
					"maxclass" : "message",
					"numinlets" : 2,
					"numoutlets" : 1,
					"outlettype" : [ "" ],
					"patching_rect" : [ 153.0, 108.0, 148.0, 22.0 ],
					"text" : "open singing-beatbox.wav"
				}

			}
, 			{
				"box" : 				{
					"id" : "obj-14",
					"maxclass" : "newobj",
					"numinlets" : 2,
					"numoutlets" : 2,
					"outlettype" : [ "signal", "bang" ],
					"patching_rect" : [ 153.0, 134.0, 95.0, 22.0 ],
					"saved_object_attributes" : 					{
						"basictuning" : 440,
						"followglobaltempo" : 0,
						"formantcorrection" : 0,
						"mode" : "basic",
						"originallength" : [ 17226.187755102040683, "ticks" ],
						"originaltempo" : 119.999999999999986,
						"pitchcorrection" : 0,
						"quality" : "basic",
						"timestretch" : [ 0 ]
					}
,
					"text" : "sfplay~ @loop 1"
				}

			}
, 			{
				"box" : 				{
					"id" : "obj-11",
					"maxclass" : "meter~",
					"numinlets" : 1,
					"numoutlets" : 1,
					"outlettype" : [ "float" ],
					"patching_rect" : [ 308.0, 305.0, 21.0, 96.0 ],
					"style" : "default"
				}

			}
, 			{
				"box" : 				{
					"id" : "obj-13",
					"interpinlet" : 1,
					"knobcolor" : [ 0.0, 0.8, 1.0, 1.0 ],
					"maxclass" : "gain~",
					"multichannelvariant" : 0,
					"numinlets" : 2,
					"numoutlets" : 2,
					"outlettype" : [ "signal", "" ],
					"parameter_enable" : 0,
					"patching_rect" : [ 333.5, 305.0, 31.5, 96.0 ],
					"style" : "default"
				}

			}
, 			{
				"box" : 				{
					"id" : "obj-9",
					"maxclass" : "meter~",
					"numinlets" : 1,
					"numoutlets" : 1,
					"outlettype" : [ "float" ],
					"patching_rect" : [ 231.0, 305.0, 21.0, 96.0 ],
					"style" : "default"
				}

			}
, 			{
				"box" : 				{
					"id" : "obj-10",
					"interpinlet" : 1,
					"knobcolor" : [ 0.0, 0.8, 1.0, 1.0 ],
					"maxclass" : "gain~",
					"multichannelvariant" : 0,
					"numinlets" : 2,
					"numoutlets" : 2,
					"outlettype" : [ "signal", "" ],
					"parameter_enable" : 0,
					"patching_rect" : [ 256.5, 305.0, 31.5, 96.0 ],
					"style" : "default"
				}

			}
, 			{
				"box" : 				{
					"id" : "obj-8",
					"maxclass" : "meter~",
					"numinlets" : 1,
					"numoutlets" : 1,
					"outlettype" : [ "float" ],
					"patching_rect" : [ 57.5, 305.0, 21.0, 96.0 ],
					"style" : "default"
				}

			}
, 			{
				"box" : 				{
					"id" : "obj-7",
					"maxclass" : "meter~",
					"numinlets" : 1,
					"numoutlets" : 1,
					"outlettype" : [ "float" ],
					"patching_rect" : [ 156.0, 305.0, 21.0, 96.0 ],
					"style" : "default"
				}

			}
, 			{
				"box" : 				{
					"fontname" : "Helvetica Neue",
					"fontsize" : 14.0,
					"id" : "obj-64",
					"maxclass" : "comment",
					"numinlets" : 1,
					"numoutlets" : 0,
					"patching_rect" : [ 17.0, 76.625, 316.0, 23.0 ],
					"text" : "Transient / tonal / residual component separator"
				}

			}
, 			{
				"box" : 				{
					"angle" : 0.0,
					"bgcolor" : [ 0.0, 0.0, 0.0, 0.0 ],
					"border" : 1,
					"bordercolor" : [ 0.223529, 0.243137, 0.235294, 1.0 ],
					"id" : "obj-141",
					"maxclass" : "panel",
					"mode" : 0,
					"numinlets" : 1,
					"numoutlets" : 0,
					"patching_rect" : [ 17.0, 69.625, 281.0, 4.0 ],
					"proportion" : 0.39,
					"rounded" : 0
				}

			}
, 			{
				"box" : 				{
					"fontface" : 1,
					"fontname" : "Helvetica Neue",
					"fontsize" : 30.0,
					"id" : "obj-142",
					"maxclass" : "comment",
					"numinlets" : 1,
					"numoutlets" : 0,
					"patching_rect" : [ 17.0, 29.625, 252.0, 42.0 ],
					"text" : "sdt.demix~",
					"textcolor" : [ 0.0, 0.800000011920929, 1.0, 1.0 ]
				}

			}
, 			{
				"box" : 				{
					"bgmode" : 0,
					"border" : 0,
					"clickthrough" : 0,
					"enablehscroll" : 0,
					"enablevscroll" : 0,
					"id" : "obj-6",
					"lockeddragscroll" : 0,
					"maxclass" : "bpatcher",
					"name" : "_SDT_label2016.maxpat",
					"numinlets" : 0,
					"numoutlets" : 0,
					"offset" : [ 0.0, 0.0 ],
					"patching_rect" : [ 520.0, 17.125, 214.0, 109.0 ],
					"viewvisibility" : 1
				}

			}
, 			{
				"box" : 				{
					"fontname" : "Helvetica Neue",
					"fontsize" : 12.0,
					"id" : "obj-43",
					"linecount" : 16,
					"maxclass" : "comment",
					"numinlets" : 1,
					"numoutlets" : 0,
					"patching_rect" : [ 367.0, 171.0, 367.0, 230.0 ],
					"text" : "ARGUMENTS:\n1. Window size, in samples (default 1024)\n2. Smoothing kernel radius (default 2)\n\nINLETS:\n1. (signal): Input\n\nATTRIBUTES:\noverlap (float): Window overlap factor\nnoiseThreshold (float): Amount of signal classified as residual\ntonalThreshold: Amount of non-residual signal classified as tonal\n\nOUTLETS:\n1. (signal): Transient (percussive) component\n2. (signal): Tonal (harmonic) component\n3. (signal): Residual (noisy) component"
				}

			}
, 			{
				"box" : 				{
					"id" : "obj-5",
					"interpinlet" : 1,
					"knobcolor" : [ 0.0, 0.8, 1.0, 1.0 ],
					"maxclass" : "gain~",
					"multichannelvariant" : 0,
					"numinlets" : 2,
					"numoutlets" : 2,
					"outlettype" : [ "signal", "" ],
					"parameter_enable" : 0,
					"patching_rect" : [ 80.5, 305.0, 31.5, 96.0 ],
					"style" : "default"
				}

			}
, 			{
				"box" : 				{
					"id" : "obj-2",
					"interpinlet" : 1,
					"knobcolor" : [ 0.0, 0.8, 1.0, 1.0 ],
					"maxclass" : "gain~",
					"multichannelvariant" : 0,
					"numinlets" : 2,
					"numoutlets" : 2,
					"outlettype" : [ "signal", "" ],
					"parameter_enable" : 0,
					"patching_rect" : [ 181.5, 305.0, 31.5, 96.0 ],
					"style" : "default"
				}

			}
, 			{
				"box" : 				{
					"color" : [ 0.0, 0.8, 1.0, 1.0 ],
					"id" : "obj-12",
					"maxclass" : "ezadc~",
					"numinlets" : 1,
					"numoutlets" : 2,
					"outlettype" : [ "signal", "signal" ],
					"patching_rect" : [ 80.5, 108.0, 49.75, 49.75 ]
				}

			}
, 			{
				"box" : 				{
					"attr" : "tonalThreshold",
					"fontname" : "Helvetica Neue",
					"fontsize" : 12.0,
					"id" : "obj-4",
					"maxclass" : "attrui",
					"numinlets" : 1,
					"numoutlets" : 1,
					"outlettype" : [ "" ],
					"patching_rect" : [ 181.5, 192.0, 150.0, 22.0 ]
				}

			}
, 			{
				"box" : 				{
					"id" : "obj-3",
					"maxclass" : "ezdac~",
					"numinlets" : 2,
					"numoutlets" : 0,
					"patching_rect" : [ 166.5, 425.0, 57.0, 57.0 ]
				}

			}
, 			{
				"box" : 				{
					"color" : [ 0.0, 0.8, 1.0, 1.0 ],
					"fontface" : 3,
					"fontname" : "Helvetica Neue",
					"fontsize" : 14.0,
					"id" : "obj-1",
					"linecount" : 4,
					"maxclass" : "newobj",
					"numinlets" : 1,
					"numoutlets" : 3,
					"outlettype" : [ "signal", "signal", "signal" ],
					"patching_rect" : [ 181.5, 224.0, 171.0, 75.0 ],
					"text" : "sdt.demix~ 2048 4 @overlap 0.75 @noiseThreshold 0.1 @tonalThreshold 0.75"
				}

			}
 ],
		"lines" : [ 			{
				"patchline" : 				{
					"destination" : [ "obj-10", 0 ],
					"source" : [ "obj-1", 1 ]
				}

			}
, 			{
				"patchline" : 				{
					"destination" : [ "obj-13", 0 ],
					"source" : [ "obj-1", 2 ]
				}

			}
, 			{
				"patchline" : 				{
					"destination" : [ "obj-2", 0 ],
					"source" : [ "obj-1", 0 ]
				}

			}
, 			{
				"patchline" : 				{
					"destination" : [ "obj-3", 1 ],
					"order" : 1,
					"source" : [ "obj-10", 0 ]
				}

			}
, 			{
				"patchline" : 				{
					"destination" : [ "obj-3", 0 ],
					"order" : 2,
					"source" : [ "obj-10", 0 ]
				}

			}
, 			{
				"patchline" : 				{
					"destination" : [ "obj-9", 0 ],
					"order" : 0,
					"source" : [ "obj-10", 0 ]
				}

			}
, 			{
				"patchline" : 				{
					"destination" : [ "obj-21", 1 ],
					"source" : [ "obj-12", 0 ]
				}

			}
, 			{
				"patchline" : 				{
					"destination" : [ "obj-11", 0 ],
					"order" : 0,
					"source" : [ "obj-13", 0 ]
				}

			}
, 			{
				"patchline" : 				{
					"destination" : [ "obj-3", 1 ],
					"order" : 1,
					"source" : [ "obj-13", 0 ]
				}

			}
, 			{
				"patchline" : 				{
					"destination" : [ "obj-3", 0 ],
					"order" : 2,
					"source" : [ "obj-13", 0 ]
				}

			}
, 			{
				"patchline" : 				{
					"destination" : [ "obj-21", 2 ],
					"midpoints" : [ 162.5, 191.5, 139.0, 191.5 ],
					"source" : [ "obj-14", 0 ]
				}

			}
, 			{
				"patchline" : 				{
					"destination" : [ "obj-14", 0 ],
					"source" : [ "obj-16", 0 ]
				}

			}
, 			{
				"patchline" : 				{
					"destination" : [ "obj-14", 0 ],
					"source" : [ "obj-18", 0 ]
				}

			}
, 			{
				"patchline" : 				{
					"destination" : [ "obj-16", 0 ],
					"hidden" : 1,
					"source" : [ "obj-19", 1 ]
				}

			}
, 			{
				"patchline" : 				{
					"destination" : [ "obj-18", 0 ],
					"hidden" : 1,
					"order" : 0,
					"source" : [ "obj-19", 0 ]
				}

			}
, 			{
				"patchline" : 				{
					"destination" : [ "obj-25", 0 ],
					"hidden" : 1,
					"order" : 1,
					"source" : [ "obj-19", 0 ]
				}

			}
, 			{
				"patchline" : 				{
					"destination" : [ "obj-3", 1 ],
					"order" : 0,
					"source" : [ "obj-2", 0 ]
				}

			}
, 			{
				"patchline" : 				{
					"destination" : [ "obj-3", 0 ],
					"order" : 1,
					"source" : [ "obj-2", 0 ]
				}

			}
, 			{
				"patchline" : 				{
					"destination" : [ "obj-7", 0 ],
					"order" : 2,
					"source" : [ "obj-2", 0 ]
				}

			}
, 			{
				"patchline" : 				{
					"destination" : [ "obj-1", 0 ],
					"midpoints" : [ 90.0, 218.5, 191.0, 218.5 ],
					"order" : 0,
					"source" : [ "obj-21", 0 ]
				}

			}
, 			{
				"patchline" : 				{
					"destination" : [ "obj-5", 0 ],
					"order" : 1,
					"source" : [ "obj-21", 0 ]
				}

			}
, 			{
				"patchline" : 				{
					"destination" : [ "obj-21", 0 ],
					"source" : [ "obj-22", 0 ]
				}

			}
, 			{
				"patchline" : 				{
					"destination" : [ "obj-19", 0 ],
					"hidden" : 1,
					"source" : [ "obj-23", 0 ]
				}

			}
, 			{
				"patchline" : 				{
					"destination" : [ "obj-22", 0 ],
					"hidden" : 1,
					"source" : [ "obj-24", 0 ]
				}

			}
, 			{
				"patchline" : 				{
					"destination" : [ "obj-10", 0 ],
					"order" : 1,
					"source" : [ "obj-25", 0 ]
				}

			}
, 			{
				"patchline" : 				{
					"destination" : [ "obj-13", 0 ],
					"order" : 0,
					"source" : [ "obj-25", 0 ]
				}

			}
, 			{
				"patchline" : 				{
					"destination" : [ "obj-2", 0 ],
					"order" : 2,
					"source" : [ "obj-25", 0 ]
				}

			}
, 			{
				"patchline" : 				{
					"destination" : [ "obj-5", 0 ],
					"order" : 3,
					"source" : [ "obj-25", 0 ]
				}

			}
, 			{
				"patchline" : 				{
					"destination" : [ "obj-1", 0 ],
					"source" : [ "obj-4", 0 ]
				}

			}
, 			{
				"patchline" : 				{
					"destination" : [ "obj-3", 1 ],
					"order" : 0,
					"source" : [ "obj-5", 0 ]
				}

			}
, 			{
				"patchline" : 				{
					"destination" : [ "obj-3", 0 ],
					"order" : 1,
					"source" : [ "obj-5", 0 ]
				}

			}
, 			{
				"patchline" : 				{
					"destination" : [ "obj-8", 0 ],
					"order" : 2,
					"source" : [ "obj-5", 0 ]
				}

			}
 ],
		"dependency_cache" : [ 			{
				"name" : "_SDT_label2016.maxpat",
				"bootpath" : "~/Documents/Max 8/Packages/SoundDesignToolkit/misc",
				"patcherrelativepath" : "../misc",
				"type" : "JSON",
				"implicit" : 1
			}
, 			{
				"name" : "sdt.demix~.mxo",
				"type" : "iLaX"
			}
 ],
		"autosave" : 0
	}

}
